<svg width="214" height="90" viewBox="0 0 214 90" fill="none" xmlns="http://www.w3.org/2000/svg">
<path d="M0.470001 0.719971H31.92C39.36 0.719971 49.38 3.88997 49.38 15.34C49.38 26.43 41.4 31 31.85 31H18.75V43.25H0.470001V0.719971ZM18.27 21.13H22.29C26.66 21.13 31.09 20.4 31.09 15.65C31.09 11.14 26.66 10.59 22.22 10.59H18.26V21.13H18.27Z" fill="#1C98D6"/>
<path d="M62.01 0.719971H87.18L104.17 43.25H85.01L81.87 34.05H66.45L63.52 43.25H45.3L62.01 0.719971ZM68.97 23.81H79.54L74.36 9.85997H74.22L68.97 23.81Z" fill="#1C98D6"/>
<path d="M137.07 0.719971H155.36V43.25H137.07V27.95H124.86V43.25H106.58V0.719971H124.86V15.4H137.07V0.719971Z" fill="#1C98D6"/>
<path d="M186.48 43.98C169.83 43.98 160.08 36.49 160.08 21.99C160.08 7.73 169.84 0 186.48 0C203.13 0 213.09 7.74 213.09 21.99C213.08 36.48 203.12 43.98 186.48 43.98ZM186.48 33.74C193.71 33.74 193.92 26.55 193.98 21.98C193.91 18.02 193.43 10.22 186.48 10.22C179.72 10.22 179.18 18.02 179.18 21.98C179.17 26.55 179.93 33.74 186.48 33.74Z" fill="#1C98D6"/>
<path d="M149.57 88.06H147.82L147.44 89.5H146.18L148.04 83.06H149.48L151.27 89.5H149.93L149.57 88.06ZM148.74 84.3H148.72L148.06 86.97H149.32L148.74 84.3Z" fill="#1C98D6"/>
<path d="M156.27 86.54C156.27 85.99 156.07 85.78 155.79 85.78C155.41 85.78 155.27 86.09 155.27 86.45V89.49H154.01V86.53C154.01 85.92 153.78 85.77 153.57 85.77C153.15 85.77 153.01 86.19 153.01 86.79V89.48H151.75V85.68C151.75 85.22 151.74 84.92 151.72 84.68H152.87C152.89 84.89 152.9 85.16 152.9 85.48H152.92C153.11 84.95 153.43 84.6 154.1 84.6C154.7 84.6 155 84.92 155.18 85.4C155.36 84.95 155.66 84.6 156.32 84.6C157.24 84.6 157.54 85.37 157.54 86.33V89.47H156.28" fill="#1C98D6"/>
<path d="M161.96 87.48H159.51C159.51 88.05 159.83 88.58 160.54 88.58C160.97 88.58 161.4 88.4 161.72 88.2L161.74 89.3C161.33 89.48 160.85 89.58 160.42 89.58C158.96 89.58 158.31 88.56 158.31 87.09C158.31 85.8 158.96 84.63 160.16 84.63C160.54 84.63 161.97 84.63 161.97 87.14L161.96 87.48ZM160.81 86.69C160.81 86.08 160.67 85.51 160.15 85.51C159.5 85.51 159.5 86.43 159.5 86.69H160.81Z" fill="#1C98D6"/>
<path d="M162.7 85.7C162.7 85.24 162.69 84.94 162.67 84.7H163.82C163.83 84.99 163.84 85.28 163.85 85.57H163.87C164.13 85.06 164.3 84.63 165.03 84.63H165.21V85.98C165.07 85.94 164.96 85.92 164.79 85.92C164.05 85.92 163.97 86.66 163.97 87.36V89.51H162.71" fill="#1C98D6"/>
<path d="M165.85 82.59H167.11V83.88H165.85V82.59ZM165.85 84.7H167.12V89.5H165.85V84.7Z" fill="#1C98D6"/>
<path d="M170.98 89.37C170.61 89.48 170.24 89.57 169.84 89.57C168.23 89.57 167.87 88.02 167.87 87.15C167.87 85.67 168.61 84.62 169.93 84.62C170.34 84.62 170.57 84.74 170.94 84.85L170.87 85.95C170.64 85.85 170.4 85.75 170.13 85.75C169.17 85.75 169.17 86.97 169.17 87.15C169.17 88.16 169.71 88.49 170.19 88.49C170.45 88.49 170.69 88.38 170.93 88.28" fill="#1C98D6"/>
<path d="M171.87 84.93C172.2 84.81 172.76 84.63 173.21 84.63C174.67 84.63 175.01 85.33 175.01 86.4V88.15C175.01 88.86 175.02 89.18 175.04 89.5H173.89L173.86 88.84H173.84C173.78 89.13 173.3 89.58 172.7 89.58C171.92 89.58 171.41 89 171.41 88.12C171.41 86.52 173.03 86.51 173.47 86.51H173.85C173.85 85.59 173.26 85.59 173.08 85.59C172.76 85.59 172.42 85.67 171.92 86.01L171.87 84.93ZM173.86 87.19C173.36 87.19 172.56 87.23 172.56 88.03C172.56 88.66 173 88.66 173.1 88.66C173.21 88.66 173.85 88.64 173.85 87.47V87.19H173.86Z" fill="#1C98D6"/>
<path d="M178.36 85.91C178.02 85.75 177.71 85.65 177.34 85.65C177.01 85.65 176.87 85.83 176.87 86C176.87 86.29 177.05 86.4 177.74 86.69C178.17 86.87 178.61 87.19 178.61 88.09C178.61 89.16 177.91 89.57 177.07 89.57C176.7 89.57 176.14 89.52 175.7 89.34L175.73 88.22C176.03 88.43 176.42 88.55 176.77 88.55C177.36 88.55 177.4 88.31 177.4 88.1C177.4 87.89 177.07 87.8 176.53 87.54C176.09 87.33 175.66 86.92 175.66 86.07C175.66 85.55 175.98 84.63 177.22 84.63C177.74 84.63 178.17 84.74 178.38 84.82" fill="#1C98D6"/>
<path d="M205.23 79.59H146.19V80.19H205.23V79.59Z" fill="#1C98D6"/>
<path d="M110.63 86.54H111.37C111.79 86.54 112.08 86.78 112.08 87.32C112.08 87.7 111.89 87.96 111.62 88.01V88.02C111.71 88.04 111.81 88.09 111.88 88.36L112.19 89.48H111.73L111.5 88.52C111.44 88.29 111.33 88.21 111.17 88.21H111.07V89.47H110.64L110.63 86.54ZM111.24 87.82C111.47 87.82 111.63 87.67 111.63 87.37C111.63 87.03 111.49 86.95 111.24 86.95H111.06V87.82H111.24Z" fill="#1C98D6"/>
<path d="M112.36 86.54H113.61V86.97H112.8V87.76H113.57V88.19H112.8V89.05H113.64V89.48H112.36" fill="#1C98D6"/>
<path d="M114.83 87.84H115.6V89.38C115.48 89.46 115.27 89.53 114.96 89.53C114.2 89.53 113.79 88.89 113.79 88.02C113.79 87.15 114.19 86.51 114.96 86.51C115.23 86.51 115.44 86.59 115.54 86.64L115.52 87.12C115.38 87.01 115.19 86.94 114.97 86.94C114.51 86.94 114.26 87.41 114.26 88.02C114.26 88.68 114.5 89.1 114.95 89.1C115.05 89.1 115.14 89.08 115.2 89.05V88.26H114.84" fill="#1C98D6"/>
<path d="M116.35 86.54H115.92V89.48H116.35V86.54Z" fill="#1C98D6"/>
<path d="M117.54 86.5C118.03 86.5 118.48 86.96 118.48 88.01C118.48 89.06 118.03 89.52 117.54 89.52C117.05 89.52 116.6 89.06 116.6 88.01C116.6 86.96 117.05 86.5 117.54 86.5ZM117.54 89.11C117.81 89.11 118.03 88.82 118.03 88.01C118.03 87.2 117.81 86.91 117.54 86.91C117.26 86.91 117.04 87.2 117.04 88.01C117.05 88.82 117.27 89.11 117.54 89.11Z" fill="#1C98D6"/>
<path d="M118.72 86.54H119.24L120.03 88.85V86.54H120.43V89.48H119.91L119.12 87.19H119.11V89.48H118.72" fill="#1C98D6"/>
<path d="M121.94 88.78H121.13L120.96 89.49H120.53L121.32 86.55H121.79L122.55 89.49H122.1L121.94 88.78ZM121.85 88.36L121.55 86.99H121.54L121.21 88.36H121.85Z" fill="#1C98D6"/>
<path d="M122.64 86.54H123.07V89.05H123.85V89.48H122.64" fill="#1C98D6"/>
<path d="M125.56 86.5C126.05 86.5 126.5 86.96 126.5 88.01C126.5 89.06 126.05 89.52 125.56 89.52C125.07 89.52 124.62 89.06 124.62 88.01C124.62 86.96 125.07 86.5 125.56 86.5ZM125.56 89.11C125.83 89.11 126.06 88.82 126.06 88.01C126.06 87.2 125.84 86.91 125.56 86.91C125.29 86.91 125.06 87.2 125.06 88.01C125.06 88.82 125.28 89.11 125.56 89.11Z" fill="#1C98D6"/>
<path d="M126.74 86.54H127.94V86.97H127.17V87.77H127.9V88.2H127.17V89.48H126.74" fill="#1C98D6"/>
<path d="M128.14 86.54H129.34V86.97H128.58V87.77H129.31V88.2H128.58V89.48H128.14" fill="#1C98D6"/>
<path d="M129.98 86.54H129.55V89.48H129.98V86.54Z" fill="#1C98D6"/>
<path d="M131.82 89.42C131.73 89.48 131.52 89.53 131.31 89.53C130.59 89.53 130.22 88.88 130.22 88.02C130.22 87.16 130.59 86.51 131.3 86.51C131.54 86.51 131.74 86.59 131.83 86.63L131.81 87.11C131.72 87.05 131.58 86.95 131.36 86.95C131 86.95 130.69 87.25 130.69 88.02C130.69 88.78 131 89.09 131.36 89.09C131.57 89.09 131.71 89.03 131.81 88.94" fill="#1C98D6"/>
<path d="M132.04 86.54H133.28V86.97H132.47V87.76H133.24V88.19H132.47V89.05H133.31V89.48H132.04" fill="#1C98D6"/>
<path d="M134.28 86.54H135.47V86.97H134.71V87.77H135.44V88.2H134.71V89.48H134.28" fill="#1C98D6"/>
<path d="M136.53 86.5C137.02 86.5 137.47 86.96 137.47 88.01C137.47 89.06 137.02 89.52 136.53 89.52C136.04 89.52 135.59 89.06 135.59 88.01C135.59 86.96 136.03 86.5 136.53 86.5ZM136.53 89.11C136.8 89.11 137.02 88.82 137.02 88.01C137.02 87.2 136.8 86.91 136.53 86.91C136.26 86.91 136.03 87.2 136.03 88.01C136.03 88.82 136.25 89.11 136.53 89.11Z" fill="#1C98D6"/>
<path d="M137.69 86.54H138.43C138.85 86.54 139.14 86.78 139.14 87.32C139.14 87.7 138.95 87.96 138.68 88.01V88.02C138.77 88.04 138.87 88.09 138.94 88.36L139.25 89.48H138.79L138.56 88.52C138.5 88.29 138.39 88.21 138.23 88.21H138.13V89.47H137.7L137.69 86.54ZM138.3 87.82C138.53 87.82 138.69 87.67 138.69 87.37C138.69 87.03 138.55 86.95 138.3 86.95H138.12V87.82H138.3Z" fill="#1C98D6"/>
<path d="M140.3 86.97H139.77V86.54H141.26V86.97H140.74V89.48H140.3" fill="#1C98D6"/>
<path d="M141.41 86.54H141.85V87.74H142.55V86.54H142.98V89.48H142.55V88.19H141.85V89.48H141.41" fill="#1C98D6"/>
<path d="M143.32 86.54H144.56V86.97H143.75V87.76H144.52V88.19H143.75V89.05H144.6V89.48H143.32" fill="#1C98D6"/>
<path d="M137.26 60.13C137.89 60.87 138.98 61.3 139.62 62.04C139.16 59.85 137.45 58.06 135.43 57.64C136.42 58.37 136.63 59.39 137.26 60.13ZM112.97 65.67C114.36 62.68 116.44 63.31 117.32 60.46C116.82 61.34 114.55 61.71 113.5 63.95C114.04 62.62 113.77 60.58 114.68 59.48C111.95 61.46 113.11 64.67 112.97 65.67ZM115.49 72.86C115.74 74.03 115.01 75.71 116.17 77.32C114.96 75.98 112.41 75.64 111.36 73.61C112.67 78.58 116.06 77.56 117.6 78.64C116.33 76.84 117.37 75.65 115.49 72.86ZM115.1 75.98C114.35 73.2 115.69 72.24 114.67 69.57C114.56 71.07 113.55 71.81 114.24 74.55C113.03 72.22 111.17 71.36 110.63 69.76C110.65 74.13 114.2 74.78 115.1 75.98ZM120.55 80.64C119.5 79.21 120.22 78.4 117.28 75.81C117.9 76.76 117.26 77.95 119.24 79.8C117.3 78.67 114.63 79.15 113.35 77.65C115.55 81.83 119.44 80.12 120.55 80.64ZM134.75 79.8C136.73 77.95 136.09 76.75 136.71 75.81C133.78 78.41 134.49 79.21 133.44 80.64C134.54 80.12 138.43 81.83 140.64 77.65C139.36 79.16 136.68 78.67 134.75 79.8ZM137.82 77.31C138.99 75.7 138.25 74.02 138.5 72.85C136.62 75.64 137.65 76.83 136.39 78.63C137.93 77.55 141.32 78.57 142.63 73.6C141.58 75.64 139.02 75.98 137.82 77.31ZM133.13 80.84C131.98 80.54 130.8 80.39 129.92 80.37C128.82 80.34 127.84 80.55 126.99 80.86C126.14 80.55 125.16 80.34 124.06 80.37C123.18 80.39 122 80.54 120.85 80.84C119.09 81.3 117.56 81.66 116.23 81C117.5 82.12 118.99 82.52 121.14 82.29C122.93 82.1 124.37 81.22 126.06 81.23C126.08 81.23 126.1 81.23 126.13 81.23C124.35 82.12 123.35 83.37 123.35 83.37L124.16 83.48C124.16 83.48 125.02 81.78 126.99 81.34C128.96 81.78 129.82 83.48 129.82 83.48L130.63 83.37C130.63 83.37 129.63 82.12 127.85 81.23C127.87 81.23 127.89 81.23 127.92 81.23C129.61 81.22 131.05 82.1 132.84 82.29C134.99 82.52 136.48 82.12 137.75 81C136.42 81.66 134.89 81.3 133.13 80.84ZM114.79 66.56C114.06 67.94 112.93 68.26 113.05 71.11C112.44 68.58 110.98 67.64 111 66.02C109.99 70.24 112.7 70.75 113.39 72.51C113.29 69.97 114.92 69.46 114.79 66.56ZM115.8 63.3C115.55 63.65 115.37 63.8 114.69 64.35C113.77 65.1 113.03 66.09 112.72 67.53C112.79 65.98 111.82 63.76 112.47 62.13C109.98 65.61 112.61 67.69 112.7 68.95C113.35 66.52 114.84 66.5 115.8 63.3ZM141.26 67.52C140.95 66.08 140.21 65.09 139.29 64.34C138.61 63.79 138.44 63.64 138.18 63.29C139.15 66.5 140.63 66.52 141.27 68.94C141.37 67.68 144 65.6 141.51 62.12C142.16 63.75 141.19 65.97 141.26 67.52ZM143.37 69.76C142.83 71.36 140.96 72.22 139.76 74.55C140.44 71.8 139.43 71.07 139.32 69.57C138.3 72.24 139.64 73.2 138.89 75.98C139.79 74.78 143.33 74.13 143.37 69.76ZM139.2 66.56C139.06 69.46 140.7 69.97 140.6 72.51C141.3 70.74 144 70.24 142.99 66.02C143.01 67.64 141.55 68.58 140.94 71.11C141.06 68.26 139.93 67.94 139.2 66.56ZM116.73 60.13C117.36 59.39 117.57 58.37 118.56 57.64C116.54 58.07 114.83 59.85 114.37 62.04C115.01 61.3 116.1 60.86 116.73 60.13ZM136.67 60.46C137.55 63.31 139.63 62.68 141.02 65.67C140.88 64.66 142.03 61.45 139.31 59.47C140.22 60.57 139.95 62.61 140.49 63.94C139.44 61.71 137.17 61.34 136.67 60.46ZM129.61 62.08C129.09 61.87 128.53 61.71 127.96 61.63C127.96 61.75 127.95 61.88 127.95 62C128.48 62.08 128.99 62.22 129.48 62.42C129.54 62.32 129.59 62.21 129.61 62.08ZM129.19 58.55L129.3 58.45L129.09 58.36L128.54 58.35L128.39 58.45L128.06 58.43V58.51C128.27 58.52 128.47 58.54 128.63 58.57L128.9 58.54L129.19 58.55ZM128.12 70.39C128.12 70.3 128 70.21 127.81 70.12H127.78C127.78 70.2 127.77 70.57 127.77 70.75C128 70.65 128.12 70.54 128.12 70.39ZM121.69 63.41C121.7 63.34 121.72 63.28 121.74 63.21C121.67 63.23 121.59 63.24 121.51 63.23L121.69 63.41ZM127 79.57C133.25 79.57 138.33 74.54 138.33 68.37C138.33 62.58 133.86 57.79 128.15 57.22C128.14 57.24 128.14 57.26 128.14 57.28C128.12 57.39 128.1 57.49 128.08 57.57C130.64 57.82 132.94 58.94 134.68 60.62L133.43 61.86L133.48 61.64L133.32 61.57L133.09 61.56L133.14 61.42L132.99 60.91L132.68 60.57L131.7 60.06L131.62 60.15L131.44 60.2C131.78 60.69 131.96 61.25 131.96 61.82C131.96 61.9 131.96 61.97 131.95 62.04L132.43 62.64L132.2 62.69L132.35 62.91L131.92 63.33L131.75 63.01C131.67 63.24 131.56 63.45 131.43 63.64C131.46 63.67 131.5 63.7 131.53 63.73L130.21 65.03C130.13 64.95 130.05 64.88 129.96 64.81C129.83 64.87 129.71 64.92 129.58 64.97C129.62 65 129.65 65.03 129.69 65.05L129.62 65.12L129.47 65.21L129.41 65.36L129.31 65.27L129.03 65.36L129.1 65.48L129.29 65.43L129.41 65.44L129.42 65.37L129.52 65.32L129.55 65.26L129.72 65.21L129.86 65.2C129.89 65.22 129.91 65.25 129.94 65.27L129.42 65.79L129.38 65.73L128.84 65.82L128.72 65.94L128.6 65.99L128.94 65.67L128.82 65.61L128.5 66.03L128.59 66.02L128.58 66.17L128.7 66.21L128.72 66.38L128.53 66.34L128.33 66.38L127.85 66.14C127.85 66.14 127.82 67.41 127.81 68.05C128.94 68.43 130.14 68.97 130.14 70.4C130.14 71.02 129.86 71.53 129.33 71.91C129.32 71.92 129.32 71.92 129.31 71.93C129.3 71.94 129.29 71.95 129.27 71.96C128.81 72.26 128.22 72.42 127.71 72.58L127.69 73.58C128.5 73.98 129.49 74.56 129.4 76.22C129.39 76.63 129.23 76.74 129.09 76.78C128.61 76.9 128.13 76.97 127.62 77.01C127.62 77.14 127.62 77.26 127.61 77.38C129.79 77.23 131.77 76.32 133.26 74.91L134.58 76.21C132.61 78.08 129.93 79.24 126.98 79.24C124.05 79.24 121.39 78.1 119.42 76.24L120.74 74.94C122.22 76.32 124.16 77.22 126.31 77.37C126.31 77.26 126.31 77.13 126.3 77C124.25 76.84 122.41 75.99 121 74.67L121.35 74.32L121.83 74.37L122.09 74.1L122.76 74.12L122.86 73.89L122.84 73.79C123.81 74.52 124.99 75 126.27 75.13C126.27 74.99 126.27 74.86 126.26 74.76C124.85 74.6 123.57 74 122.58 73.09L123.9 71.79C124.22 72.07 124.58 72.31 124.97 72.5C125 72.38 125.04 72.26 125.1 72.16C124.76 71.99 124.44 71.78 124.16 71.54L125.48 70.23C125.69 70.4 125.93 70.53 126.18 70.62C126.18 70.49 126.17 70.36 126.17 70.23C126.02 70.16 125.87 70.08 125.73 69.98L126.1 69.61C125.97 69.57 125.84 69.53 125.71 69.49L125.46 69.74C125.33 69.6 125.23 69.45 125.14 69.28C124.91 69.18 124.69 69.07 124.49 68.93C123.68 68.4 123.27 67.66 123.27 66.72C123.27 66 123.48 65.46 123.8 65.04L122.49 63.74C123.44 62.85 124.65 62.23 126 62.03C126 61.9 125.99 61.78 125.99 61.66C124.54 61.87 123.23 62.52 122.22 63.48L122 63.26C121.95 63.35 121.89 63.46 121.82 63.6L121.96 63.74C120.83 64.93 120.13 66.52 120.1 68.27H118.24C118.27 66.01 119.18 63.96 120.65 62.43L121.24 63.02C121.27 63.02 121.29 63.02 121.32 63.02C121.42 63.01 121.54 62.98 121.66 62.92L120.91 62.18C121.31 61.8 121.74 61.46 122.21 61.16C122.25 61.04 122.28 60.93 122.3 60.89C122.32 60.85 122.44 60.69 122.59 60.51C121.88 60.9 121.23 61.37 120.66 61.92L119.34 60.62C121.07 58.96 123.34 57.85 125.87 57.6C125.86 57.55 125.85 57.52 125.85 57.52C125.83 57.43 125.81 57.34 125.8 57.24C120.1 57.83 115.65 62.6 115.65 68.38C115.67 74.54 120.76 79.57 127 79.57ZM134.94 60.89C136.79 62.81 137.94 65.4 137.97 68.25H136.11C136.09 66.84 135.74 65.5 135.14 64.32L135.16 64.29L135.29 64.36L135.32 64.26L134.99 63.68L134.6 63.14L134.14 62.76C133.98 62.56 133.81 62.37 133.64 62.19L134.94 60.89ZM132.57 63.25L133.02 63.27L133.13 63.4L133.08 63.59L133.7 63.97L133.82 63.95L134.62 64.85L134.95 64.74C135.45 65.81 135.74 67 135.76 68.26H133.9C133.89 67.78 133.83 67.31 133.73 66.86L133.82 66.75L133.93 66.17L133.85 65.55L133.62 64.84L133.1 64.09L133.23 64.16L133.29 64.1L132.87 63.82L132.84 63.91L133.26 64.5L133.5 64.98L133.67 65.46L133.72 65.78L133.81 66.32L133.65 66.33C133.65 66.33 133.47 66 133.41 65.86L133.49 65.74L133.33 65.51V65.29L133.22 65.15L133.08 65.17C133.03 65.08 132.98 64.99 132.92 64.9L133.02 64.95L133.05 64.92L133 64.8L133.12 64.73L133.07 64.66L132.89 64.73L132.96 64.45L132.85 64.39L132.75 64.61C132.55 64.31 132.32 64.02 132.07 63.76L132.57 63.25ZM132.19 67.56L132.52 67.38L132.86 67.33L132.93 67.17L133.12 67.06L133.19 66.9L133.25 66.63C133.28 66.72 133.3 66.82 133.33 66.92L133.15 67.45L133.14 67.63L133.4 67.28C133.45 67.6 133.49 67.92 133.49 68.25H131.86L131.82 68.11L132.01 67.96L132.05 67.87L132.13 67.81L132.35 67.79L132.37 67.69L132.19 67.56ZM129.96 66.3L130.13 66.26L130.12 66.22L129.95 66.11L130 65.76L130.2 65.56C130.32 65.7 130.44 65.85 130.55 66L130.48 66.21L130.3 66.08L130.16 66.12L130.23 66.25H130.3L130.23 66.44L130.18 66.37L129.96 66.3ZM130.67 72.41L130.27 72.3L130.15 72.34L129.92 72.17L129.71 72.09C129.81 72.01 129.92 71.94 130.02 71.85L130.35 72.08L130.6 72.21L130.73 72.33L130.67 72.41ZM130.47 65.31L131.79 64.01C132.1 64.34 132.37 64.7 132.6 65.09L132.44 65.13L132.45 65.42L132.94 65.73C133.06 66 133.16 66.27 133.25 66.56L133.16 66.68L132.98 66.79L132.93 67.06L132.81 67.13L132.71 67.25L132.61 67.21L132.43 67.2L132.54 67.06L132.62 66.69L132.74 66.61L132.38 66.27L132.12 66.36L132.06 66.61L131.89 66.79L131.72 66.65L131.66 66.5L131.76 66.44L131.82 66.54L131.9 66.51L131.86 66.34L131.75 66.33L131.74 66.4L131.66 66.42L131.25 65.95L131.11 65.85L131.16 65.79L131.28 65.75L131.16 65.71C131.16 65.71 131.02 65.74 131 65.74L131.08 65.84L130.87 65.83C130.75 65.65 130.62 65.47 130.47 65.31ZM131.14 72.24L130.96 72.06L131.1 71.88L131.27 71.53L131.2 71.43L131.31 71.17L131.3 70.94L131.23 70.7L131.07 70.64L131.01 70.78L130.91 70.75C131.05 70.53 131.2 70.32 131.3 70.08L131.47 70.01L131.56 69.89L131.61 69.94L131.72 69.8L131.63 69.69L131.71 69.67L131.86 69.73L132.15 69.74L132.32 69.65L132.77 69.53L132.68 69.38L132.65 69.2L132.89 69.31L132.98 69.26L132.94 69.07L132.64 69.18L132.31 69.11L132.06 68.6H133.48C133.42 70.22 132.75 71.69 131.68 72.79L131.48 72.6L131.57 72.34L131.42 71.77L131.14 72.24ZM131.39 75.83L131.57 75.46L131.5 75.3L131.76 75.08V74.94L131.54 74.8L131.72 74.44L131.99 74.09L131.72 73.8H131.51L131.38 73.6C131.49 73.51 131.6 73.42 131.7 73.32L133.02 74.62C132.53 75.08 131.98 75.49 131.39 75.83ZM133.03 74.11L133.18 73.95L133.04 73.24L132.94 73.2L133 73.08L132.69 72.98L132.63 73.24L132.6 73.56L132.54 73.62L131.97 73.06C133.1 71.9 133.81 70.34 133.88 68.62H135.75C135.68 70.85 134.76 72.87 133.3 74.37L133.03 74.11ZM133.54 74.62C135.07 73.06 136.04 70.95 136.1 68.62H137.96C137.9 71.46 136.72 74.03 134.85 75.92L133.54 74.62ZM122.33 72.83C122.2 72.69 122.07 72.55 121.95 72.4L122.01 71.94L121.81 71.49L121.76 70.79L121.54 70.36L121.59 70.1L121.32 69.6L121.09 69.49L121.18 69.22L121.08 69.01L121.18 68.77H121.44L121.53 68.62H121.96L122.03 68.75L121.95 69.19L121.9 69.27L122.06 69.62L121.95 69.68L121.87 69.59L121.84 69.62L121.91 69.83L122.04 70.07L122.1 70.06L122.14 69.84L122.08 69.76L122.07 69.61L122.05 69.31L122.14 68.77L122.05 68.62H122.36C122.42 69.75 122.9 70.77 123.64 71.54L122.33 72.83ZM121.1 69.24L120.92 69.51H120.62L120.6 69.49C120.55 69.2 120.52 68.91 120.5 68.61H121.06L120.92 69.05L121.1 69.24ZM121.71 67.97L121.75 67.6L121.97 67.47L122.36 67.54L122.42 67.61C122.38 67.82 122.37 68.03 122.36 68.24H121.91L121.71 67.97ZM123.61 69.35L123.7 69.3L123.94 69.48L123.83 69.56L124.11 69.74L124.09 69.55L124.24 69.31L124.39 69.47L124.55 69.69L124.27 69.75L124.4 70L124.6 69.9L124.57 69.82L124.72 69.72L124.81 69.32C124.92 69.56 125.06 69.78 125.24 69.97L123.92 71.27C123.29 70.62 122.87 69.77 122.77 68.83L123.04 69.11H123.29L123.61 69.35ZM122.26 63.97L123.58 65.27C123.3 65.57 123.07 65.9 122.88 66.26L122.79 66.25L122.61 66.31H122.55L122.35 66.49L122.6 66.45L122.82 66.4C122.81 66.43 122.79 66.45 122.78 66.48L122.58 66.6H122.49L122.2 66.82L121.92 66.8L121.51 67.55L121.59 67.7L121.37 67.94L121.34 68.25H120.51C120.53 66.6 121.19 65.1 122.26 63.97ZM120.55 73.79L120.97 74.03L121.06 74.09L120.76 74.39C120.62 74.25 120.48 74.1 120.35 73.94L120.55 73.79ZM120.14 68.61C120.15 68.79 120.16 68.96 120.18 69.14L119.95 69.19L119.9 69.42L119.42 70.02L119.43 70.84L118.94 71H118.67C118.42 70.24 118.28 69.44 118.26 68.61H120.14ZM118.3 70.99L118.19 70.97L118.08 70.86L117.56 70.81L117.72 71.03L117.23 70.94L117.36 70.83L117.24 70.72L116.89 70.87L116.77 71.1L116.82 71.62L117.22 72.57L117.41 72.87L117.52 72.91L117.21 72.34L117.14 72.05L117.21 71.98L117.17 71.82L117.35 71.85L117.63 72.27L117.7 72.3L117.69 71.99L117.8 72.06L117.82 72.23L118.12 72.31L118.24 72.22L118.28 72.25V72.48L118.41 72.64L118.57 72.67L118.91 73.25L119.12 73.31L119.19 73.04C119.55 73.63 119.99 74.18 120.47 74.68L119.15 75.98C117.26 74.08 116.08 71.5 116.01 68.64H117.87C117.93 69.44 118.06 70.24 118.3 70.99ZM119.1 60.86L120.42 62.16C118.89 63.75 117.93 65.89 117.9 68.25H116.04C116.07 65.38 117.23 62.78 119.1 60.86ZM132.58 60.19L132.47 60.01L132.23 59.89L132.04 60.03L132.28 60.16L132.55 60.36L132.58 60.19ZM131.46 65.38L131.47 65.52L131.79 65.42L131.89 65.22L131.67 64.93L131.79 64.75L132.09 64.96L132.14 64.92L132.08 64.88L132.01 64.75L132.13 64.68L132.01 64.52L131.73 64.66L131.63 64.83L131.58 64.98L131.7 65.18L131.65 65.28L131.46 65.38ZM117.99 73.64L118.01 73.55L117.84 73.19L117.64 73.12L117.99 73.64ZM125.6 66.72C125.6 67.03 125.79 67.25 126.14 67.44C126.14 67.44 126.14 67.39 126.13 67.3L125.91 67.09L126.03 66.88L126.12 66.85C126.11 66.49 126.1 66.09 126.1 66.03H126.08C125.78 66.2 125.6 66.42 125.6 66.72Z" fill="#1C98D6"/>
<path d="M127.68 74.7C128.26 74.99 128.8 75.4 129.03 76.16C129.13 74.89 128.41 74.34 127.7 73.97C127.7 73.97 127.68 74.7 127.68 74.7Z" fill="#1C98D6"/>
<path d="M131.57 61.83C131.57 60.68 130.72 59.4 128.65 58.95C128.5 58.92 128.26 58.89 128.02 58.88C128.01 59.05 128 59.45 128 59.45C128 59.57 127.99 60.04 127.99 60.14C128.18 60.16 128.32 60.18 128.39 60.19C129.59 60.47 130.03 61.16 130.03 61.83C130.03 62.92 129.08 63.34 127.92 63.65C127.79 63.69 127.66 63.72 127.53 63.75C127.18 63.84 126.81 63.92 126.46 64.01C126.33 64.05 126.2 64.08 126.08 64.12C124.79 64.51 123.68 65.12 123.68 66.7C123.68 68.26 124.94 68.84 126.18 69.22C126.17 68.77 126.16 68.32 126.16 67.87C125.61 67.62 125.23 67.29 125.23 66.72C125.23 66.17 125.58 65.84 126.12 65.61C126.24 65.56 126.36 65.51 126.5 65.46C126.81 65.36 127.15 65.27 127.51 65.18C127.64 65.15 127.76 65.12 127.89 65.09C129.62 64.67 131.57 64.13 131.57 61.83Z" fill="#1C98D6"/>
<path d="M125.33 72.83C125.33 73.46 125.8 73.8 126.27 74.06C126.27 73.95 126.25 72.98 126.25 72.96C126.26 72.76 126.45 72.65 126.61 72.58C126.84 72.47 127.06 72.4 127.36 72.3C127.5 72.25 127.62 72.21 127.75 72.17C128.69 71.89 129.78 71.53 129.78 70.4C129.78 69.26 128.85 68.8 127.82 68.45C127.81 68.81 127.8 69.34 127.8 69.7C128.23 69.87 128.52 70.07 128.52 70.4C128.52 70.8 128.08 71.04 127.77 71.16C127.64 71.21 127.44 71.27 127.39 71.29C127.14 71.37 126.87 71.46 126.62 71.55C126.49 71.6 126.36 71.65 126.24 71.71C125.78 71.93 125.32 72.25 125.33 72.83Z" fill="#1C98D6"/>
<path d="M125.96 59.06C125.33 59.24 124.97 59.47 124.82 59.52C124.41 59.65 123.84 59.68 123.25 60.31C123.14 60.42 122.89 60.74 122.71 61C122.53 61.25 122.52 61.66 122.39 61.88C122.2 62.2 122.25 62.38 122.25 62.38L122.26 62.39C122.25 62.43 122.22 62.6 122.04 62.79C121.84 63.01 121.58 63.13 121.27 63.08C121.54 63.21 121.91 63.03 121.91 63.03C121.91 63.03 121.84 63.23 121.77 63.56C122.07 62.88 122.35 62.64 122.44 62.57C122.57 62.6 122.84 62.59 123.34 62.3C123.91 61.98 124.76 61.45 124.99 61.13C125.25 60.77 125.61 60.54 125.99 60.38C125.98 59.88 125.97 59.43 125.96 59.06ZM123.5 61.27L123.21 61.33L123.64 60.67L124.05 60.68L123.5 61.27Z" fill="#1C98D6"/>
<path d="M127.13 72.75C127.08 72.77 126.93 72.83 126.84 72.86C126.75 72.9 126.63 72.94 126.63 72.98C126.63 72.99 126.72 77.86 126.72 77.97C126.72 78.97 127.24 78.98 127.24 77.97C127.24 77.9 127.34 72.69 127.34 72.69C127.34 72.69 127.22 72.72 127.13 72.75Z" fill="#1C98D6"/>
<path d="M126.6 71.14C126.76 71.09 126.92 71.04 127.07 70.99C127.18 70.96 127.29 70.92 127.38 70.89C127.39 70.58 127.48 66.34 127.49 65.57C127.1 65.66 126.77 65.75 126.49 65.85C126.5 66.44 126.59 70.68 126.6 71.14Z" fill="#1C98D6"/>
<path d="M127.03 54.89C125.58 54.89 126.19 57.02 126.31 57.71C126.31 57.74 126.43 62.52 126.45 63.62C126.67 63.56 126.89 63.51 127.1 63.46C127.25 63.42 127.4 63.39 127.54 63.35C127.56 62.29 127.67 57.73 127.67 57.7C127.76 56.97 128.52 54.89 127.03 54.89Z" fill="#1C98D6"/>
<path d="M150.76 58.93H150.74L149.51 65.57H147.82L146.25 57.47H147.59L148.68 63.71H148.71L149.88 57.47H151.63L152.79 63.71H152.81L153.95 57.47H155.25L153.64 65.57H151.93" fill="#1C98D6"/>
<path d="M157.63 59.5C158.8 59.5 160.16 60.14 160.16 62.58C160.16 65.09 158.81 65.67 157.63 65.67C156.45 65.67 155.09 65.09 155.09 62.58C155.09 60.14 156.46 59.5 157.63 59.5ZM157.63 64.64C158.53 64.64 158.73 63.57 158.73 62.58C158.73 61.58 158.53 60.52 157.63 60.52C156.73 60.52 156.52 61.58 156.52 62.58C156.53 63.57 156.74 64.64 157.63 64.64Z" fill="#1C98D6"/>
<path d="M161.02 60.58C161.02 60.21 161.01 59.86 160.98 59.59H162.23C162.24 59.95 162.28 60.32 162.28 60.68H162.3C162.47 60.22 162.9 59.5 163.76 59.5C163.85 59.5 163.92 59.52 164 59.54V60.89C163.88 60.85 163.75 60.83 163.61 60.83C163.04 60.83 162.41 61.19 162.41 62.3V65.57H161.02" fill="#1C98D6"/>
<path d="M166.26 56.86H164.87V65.57H166.26V56.86Z" fill="#1C98D6"/>
<path d="M172.04 56.86V64.54C172.04 64.97 172.05 65.34 172.09 65.56H170.79C170.77 65.39 170.75 65.04 170.75 64.63H170.72C170.5 65.14 170.08 65.65 169.19 65.65C167.76 65.65 167.17 64.23 167.17 62.57C167.17 60.62 167.92 59.48 169.16 59.48C169.99 59.48 170.45 59.97 170.65 60.43H170.67V56.84L172.04 56.86ZM169.56 64.6C170.38 64.6 170.66 63.68 170.66 62.56C170.66 61.4 170.34 60.55 169.58 60.55C168.81 60.55 168.54 61.33 168.54 62.52C168.54 63.91 168.76 64.6 169.56 64.6Z" fill="#1C98D6"/>
<path d="M176.61 57.46H178.05V60.76H180.36V57.46H181.79V65.57H180.36V61.99H178.05V65.57H176.61" fill="#1C98D6"/>
<path d="M187.1 65.28C186.81 65.41 186.2 65.66 185.38 65.66C183.52 65.66 182.72 64.28 182.72 62.67C182.72 60.88 183.62 59.5 185.09 59.5C186.33 59.5 187.39 60.25 187.39 62.69V62.97H184.06C184.06 63.99 184.45 64.61 185.53 64.61C186.38 64.61 186.78 64.34 187.04 64.15L187.1 65.28ZM186.05 62.06C186.05 61 185.71 60.47 185.09 60.47C184.36 60.47 184.06 61.27 184.06 62.06H186.05Z" fill="#1C98D6"/>
<path d="M188.64 59.94C189.03 59.76 189.58 59.5 190.46 59.5C192.25 59.5 192.66 60.41 192.66 61.9V64.51C192.66 64.94 192.71 65.33 192.74 65.57H191.49C191.42 65.34 191.41 65.05 191.41 64.76H191.39C191.04 65.25 190.61 65.66 189.78 65.66C188.89 65.66 188.06 65.02 188.06 63.91C188.06 62.28 189.34 61.88 191.09 61.88H191.37V61.66C191.37 61.07 191.09 60.52 190.3 60.52C189.6 60.52 188.99 60.87 188.72 61.1L188.64 59.94ZM191.36 62.64H191.24C190.05 62.64 189.35 62.9 189.35 63.76C189.35 64.31 189.7 64.68 190.24 64.68C191.07 64.68 191.37 64.04 191.37 62.97V62.64H191.36Z" fill="#1C98D6"/>
<path d="M195.42 56.86H194.03V65.57H195.42V56.86Z" fill="#1C98D6"/>
<path d="M197.15 58.36L198.54 57.92V59.59H199.69V60.65H198.54V63.75C198.54 64.39 198.76 64.57 199.17 64.57C199.42 64.57 199.59 64.5 199.69 64.44V65.46C199.48 65.57 199.18 65.66 198.76 65.66C197.73 65.66 197.15 65.17 197.15 63.92V60.65H196.23V59.59H197.15" fill="#1C98D6"/>
<path d="M200.4 56.86H201.79V60.35H201.82C202.07 59.98 202.39 59.49 203.25 59.49C204.56 59.49 204.95 60.5 204.95 61.71V65.56H203.56V61.97C203.56 61.05 203.34 60.67 202.77 60.67C202.04 60.67 201.79 61.31 201.79 62.08V65.56H200.4" fill="#1C98D6"/>
<path d="M149.3 67.72C150.92 67.72 152.41 68.97 152.41 71.89C152.41 74.8 150.92 76.06 149.3 76.06C147.68 76.06 146.19 74.81 146.19 71.89C146.19 68.98 147.68 67.72 149.3 67.72ZM149.3 74.92C150.21 74.92 150.93 74.12 150.93 71.89C150.93 69.66 150.2 68.86 149.3 68.86C148.39 68.86 147.66 69.66 147.66 71.89C147.67 74.12 148.39 74.92 149.3 74.92Z" fill="#1C98D6"/>
<path d="M153.34 70.95C153.34 70.58 153.33 70.23 153.29 69.96H154.54C154.55 70.32 154.59 70.69 154.59 71.05H154.61C154.78 70.59 155.21 69.87 156.07 69.87C156.16 69.87 156.23 69.89 156.3 69.91V71.26C156.18 71.22 156.05 71.2 155.91 71.2C155.34 71.2 154.71 71.56 154.71 72.67V75.95H153.32" fill="#1C98D6"/>
<path d="M157.18 76.87C157.5 77.05 158.15 77.38 158.88 77.38C160.19 77.38 160.4 76.44 160.4 75.5V74.93H160.38C160.15 75.39 159.76 75.94 158.86 75.94C158.06 75.94 156.85 75.38 156.85 72.97C156.85 71.32 157.42 69.87 158.93 69.87C159.77 69.87 160.16 70.37 160.45 70.89H160.49C160.49 70.58 160.52 70.28 160.53 69.96H161.78C161.76 70.27 161.73 70.59 161.73 70.9V75.31C161.73 77.18 161.18 78.51 159.07 78.51C158.15 78.51 157.43 78.27 157.09 78.14L157.18 76.87ZM159.33 74.89C160.2 74.89 160.55 74.24 160.55 72.88C160.55 71.63 160.09 70.95 159.43 70.97C158.7 70.98 158.42 71.68 158.42 72.9C158.43 74.29 158.87 74.89 159.33 74.89Z" fill="#1C98D6"/>
<path d="M163.24 70.31C163.63 70.12 164.18 69.87 165.06 69.87C166.85 69.87 167.26 70.78 167.26 72.27V74.88C167.26 75.31 167.31 75.7 167.34 75.94H166.09C166.02 75.71 166.01 75.42 166.01 75.13H165.99C165.64 75.62 165.21 76.03 164.38 76.03C163.49 76.03 162.65 75.39 162.65 74.28C162.65 72.65 163.93 72.25 165.68 72.25H165.96V72.03C165.96 71.44 165.68 70.89 164.89 70.89C164.2 70.89 163.58 71.24 163.31 71.47L163.24 70.31ZM165.97 73.02H165.85C164.66 73.02 163.96 73.28 163.96 74.15C163.96 74.7 164.31 75.07 164.84 75.07C165.67 75.07 165.97 74.43 165.97 73.36V73.02Z" fill="#1C98D6"/>
<path d="M168.67 70.95C168.67 70.58 168.66 70.23 168.62 69.96H169.92C169.93 70.26 169.96 70.57 169.96 70.88H170H169.99C170.19 70.52 170.58 69.87 171.53 69.87C172.84 69.87 173.23 70.88 173.23 72.09V75.95H171.84V72.36C171.84 71.44 171.62 71.06 171.05 71.06C170.32 71.06 170.07 71.7 170.07 72.47V75.95H168.68" fill="#1C98D6"/>
<path d="M174.47 67.42H175.9V68.84H174.47V67.42ZM174.49 69.96H175.88V75.94H174.49V69.96Z" fill="#1C98D6"/>
<path d="M177.17 74.7L179.63 71.05H177.25V69.96H181.02V71.2L178.6 74.85H181.09V75.94H177.17" fill="#1C98D6"/>
<path d="M182.41 70.31C182.8 70.12 183.35 69.87 184.23 69.87C186.02 69.87 186.43 70.78 186.43 72.27V74.88C186.43 75.31 186.47 75.7 186.51 75.94H185.26C185.19 75.71 185.18 75.42 185.18 75.13H185.16C184.82 75.62 184.38 76.03 183.55 76.03C182.66 76.03 181.83 75.39 181.83 74.28C181.83 72.65 183.11 72.25 184.86 72.25H185.14V72.03C185.14 71.44 184.86 70.89 184.07 70.89C183.38 70.89 182.76 71.24 182.49 71.47L182.41 70.31ZM185.13 73.02H185.01C183.82 73.02 183.12 73.28 183.12 74.15C183.12 74.7 183.47 75.07 184 75.07C184.83 75.07 185.13 74.43 185.13 73.36V73.02Z" fill="#1C98D6"/>
<path d="M188.03 68.73L189.42 68.29V69.96H190.57V71.02H189.42V74.12C189.42 74.76 189.65 74.94 190.05 74.94C190.3 74.94 190.47 74.87 190.57 74.81V75.83C190.36 75.94 190.06 76.03 189.64 76.03C188.61 76.03 188.03 75.54 188.03 74.29V71.02H187.11V69.96H188.03" fill="#1C98D6"/>
<path d="M191.52 67.42H192.95V68.84H191.52V67.42ZM191.7 69.96H193.09V75.94H191.7V69.96Z" fill="#1C98D6"/>
<path d="M196.68 69.87C197.85 69.87 199.21 70.51 199.21 72.95C199.21 75.46 197.86 76.04 196.68 76.04C195.5 76.04 194.14 75.46 194.14 72.95C194.14 70.51 195.51 69.87 196.68 69.87ZM196.68 75.01C197.57 75.01 197.78 73.94 197.78 72.94C197.78 71.94 197.58 70.89 196.68 70.89C195.78 70.89 195.57 71.95 195.57 72.94C195.58 73.95 195.79 75.01 196.68 75.01Z" fill="#1C98D6"/>
<path d="M200.42 70.95C200.42 70.58 200.41 70.23 200.37 69.96H201.67C201.68 70.26 201.72 70.57 201.72 70.88H201.75H201.74C201.94 70.52 202.33 69.87 203.27 69.87C204.58 69.87 204.97 70.88 204.97 72.09V75.95H203.58V72.36C203.58 71.44 203.35 71.06 202.78 71.06C202.05 71.06 201.8 71.7 201.8 72.47V75.95H200.41" fill="#1C98D6"/>
<path d="M38.48 56.66H40.8C42.47 56.66 43.34 57.65 43.34 59.29C43.34 60.93 42.47 61.94 40.8 61.94H39.97V65.33H38.49L38.48 56.66ZM40.52 60.72C41.45 60.72 41.85 60.24 41.85 59.29C41.85 58.35 41.44 57.87 40.52 57.87H39.96V60.72H40.52Z" fill="#1C98D6"/>
<path d="M44.13 59.3C44.54 59.1 45.11 58.83 46.02 58.83C47.88 58.83 48.3 59.8 48.3 61.4V64.19C48.3 64.65 48.35 65.07 48.38 65.32H47.08C47.01 65.07 47 64.76 47 64.45H46.97C46.61 64.97 46.16 65.42 45.3 65.42C44.37 65.42 43.51 64.74 43.51 63.54C43.51 61.8 44.83 61.37 46.66 61.37H46.95V61.13C46.95 60.5 46.66 59.91 45.84 59.91C45.12 59.91 44.48 60.28 44.2 60.53L44.13 59.3ZM46.96 62.2H46.83C45.6 62.2 44.87 62.47 44.87 63.41C44.87 63.99 45.23 64.39 45.79 64.39C46.65 64.39 46.96 63.71 46.96 62.56V62.2Z" fill="#1C98D6"/>
<path d="M49.76 59.99C49.76 59.59 49.75 59.22 49.71 58.93H51.06C51.07 59.25 51.11 59.59 51.11 59.91H51.14H51.13C51.34 59.52 51.74 58.83 52.72 58.83C54.08 58.83 54.49 59.91 54.49 61.2V65.33H53.05V61.49C53.05 60.51 52.82 60.1 52.23 60.1C51.48 60.1 51.21 60.78 51.21 61.6V65.33H49.77" fill="#1C98D6"/>
<path d="M62.66 63.24H59.87L59.29 65.33H57.81L60.53 56.65H62.15L64.76 65.33H63.23L62.66 63.24ZM62.35 62.03L61.33 57.98H61.3L60.19 62.03H62.35Z" fill="#1C98D6"/>
<path d="M65.56 59.97C65.56 59.51 65.54 59.16 65.51 58.93H66.95C66.96 59.26 66.99 59.6 66.99 59.94H67.01C67.23 59.44 67.69 58.83 68.52 58.83C69.53 58.83 69.86 59.5 70.03 59.85C70.32 59.4 70.75 58.83 71.63 58.83C72.93 58.83 73.35 59.82 73.35 61.38V65.33H71.91V61.29C71.91 60.5 71.68 60.1 71.15 60.1C70.51 60.1 70.17 60.75 70.17 61.45V65.33H68.73V61.29C68.73 60.5 68.49 60.1 67.96 60.1C67.32 60.1 66.98 60.75 66.98 61.45V65.33H65.54" fill="#1C98D6"/>
<path d="M79.13 65.02C78.83 65.16 78.2 65.43 77.34 65.43C75.41 65.43 74.58 63.95 74.58 62.22C74.58 60.31 75.52 58.83 77.04 58.83C78.33 58.83 79.43 59.64 79.43 62.25V62.55H75.97C75.97 63.64 76.38 64.3 77.49 64.3C78.37 64.3 78.79 64.01 79.06 63.8L79.13 65.02ZM78.04 61.58C78.04 60.45 77.69 59.88 77.04 59.88C76.29 59.88 75.97 60.74 75.97 61.58H78.04Z" fill="#1C98D6"/>
<path d="M80.7 59.99C80.7 59.59 80.69 59.22 80.65 58.93H81.95C81.96 59.32 82 59.71 82 60.1H82.02C82.19 59.6 82.65 58.83 83.54 58.83C83.63 58.83 83.7 58.85 83.78 58.87V60.31C83.65 60.27 83.52 60.25 83.37 60.25C82.78 60.25 82.13 60.64 82.13 61.83V65.34H80.7" fill="#1C98D6"/>
<path d="M84.98 56.21H86.46V57.73H84.98V56.21ZM85 58.93H86.44V65.33H85V58.93Z" fill="#1C98D6"/>
<path d="M92.05 65.17C91.71 65.31 91.21 65.43 90.63 65.43C88.66 65.43 87.82 63.95 87.82 62.14C87.82 60.31 88.7 58.84 90.71 58.84C91.16 58.84 91.7 58.99 91.96 59.1L91.88 60.32C91.62 60.18 91.26 60.01 90.87 60.01C89.78 60.01 89.3 60.79 89.3 62.16C89.3 63.35 89.83 64.27 90.94 64.27C91.29 64.27 91.76 64.1 91.96 63.96" fill="#1C98D6"/>
<path d="M93.34 59.3C93.74 59.1 94.31 58.83 95.23 58.83C97.09 58.83 97.52 59.8 97.52 61.4V64.19C97.52 64.65 97.57 65.07 97.6 65.32H96.3C96.23 65.07 96.22 64.76 96.22 64.45H96.2C95.84 64.97 95.39 65.42 94.53 65.42C93.6 65.42 92.74 64.74 92.74 63.54C92.74 61.8 94.06 61.37 95.89 61.37H96.18V61.13C96.18 60.5 95.89 59.91 95.06 59.91C94.34 59.91 93.7 60.28 93.42 60.53L93.34 59.3ZM96.17 62.2H96.04C94.81 62.2 94.08 62.47 94.08 63.41C94.08 63.99 94.44 64.39 95 64.39C95.86 64.39 96.17 63.71 96.17 62.56V62.2Z" fill="#1C98D6"/>
<path d="M98.97 59.99C98.97 59.59 98.96 59.22 98.92 58.93H100.27C100.28 59.25 100.32 59.59 100.32 59.91H100.36H100.35C100.56 59.52 100.96 58.83 101.94 58.83C103.3 58.83 103.71 59.91 103.71 61.2V65.33H102.27V61.49C102.27 60.51 102.04 60.1 101.45 60.1C100.7 60.1 100.43 60.78 100.43 61.6V65.33H98.99" fill="#1C98D6"/>
<path d="M38.55 67.56H40.03V71.09H42.43V67.56H43.92V76.23H42.43V72.41H40.03V76.23H38.55" fill="#1C98D6"/>
<path d="M49.93 75.92C49.63 76.06 49 76.33 48.14 76.33C46.21 76.33 45.38 74.85 45.38 73.12C45.38 71.21 46.32 69.73 47.84 69.73C49.13 69.73 50.23 70.54 50.23 73.15V73.45H46.77C46.77 74.54 47.18 75.2 48.29 75.2C49.17 75.2 49.59 74.91 49.86 74.7L49.93 75.92ZM48.84 72.48C48.84 71.35 48.49 70.78 47.84 70.78C47.08 70.78 46.77 71.64 46.77 72.48H48.84Z" fill="#1C98D6"/>
<path d="M51.75 70.2C52.16 70 52.73 69.73 53.64 69.73C55.49 69.73 55.92 70.7 55.92 72.3V75.09C55.92 75.55 55.97 75.97 56 76.22H54.7C54.63 75.97 54.62 75.66 54.62 75.35H54.6C54.24 75.87 53.79 76.32 52.93 76.32C52 76.32 51.14 75.64 51.14 74.44C51.14 72.7 52.46 72.27 54.28 72.27H54.57V72.03C54.57 71.4 54.28 70.81 53.46 70.81C52.74 70.81 52.1 71.18 51.82 71.43L51.75 70.2ZM54.58 73.1H54.45C53.22 73.1 52.49 73.37 52.49 74.31C52.49 74.89 52.85 75.29 53.41 75.29C54.27 75.29 54.58 74.61 54.58 73.46V73.1Z" fill="#1C98D6"/>
<path d="M58.96 66.91H57.52V76.23H58.96V66.91Z" fill="#1C98D6"/>
<path d="M61.05 68.51L62.49 68.04V69.83H63.69V70.96H62.49V74.28C62.49 74.96 62.72 75.16 63.14 75.16C63.4 75.16 63.58 75.09 63.69 75.02V76.11C63.47 76.22 63.16 76.32 62.73 76.32C61.66 76.32 61.06 75.8 61.06 74.45V70.95H60.11V69.82H61.06" fill="#1C98D6"/>
<path d="M64.71 66.91H66.15V70.65H66.19C66.45 70.25 66.78 69.73 67.67 69.73C69.03 69.73 69.44 70.81 69.44 72.1V76.23H68V72.39C68 71.41 67.77 71 67.18 71C66.43 71 66.16 71.68 66.16 72.5V76.23H64.72" fill="#1C98D6"/>
<path d="M41.45 78.33C43.13 78.33 44.67 79.67 44.67 82.79C44.67 85.91 43.13 87.25 41.45 87.25C39.77 87.25 38.22 85.91 38.22 82.79C38.22 79.68 39.76 78.33 41.45 78.33ZM41.45 86.04C42.39 86.04 43.14 85.18 43.14 82.8C43.14 80.41 42.38 79.56 41.45 79.56C40.51 79.56 39.75 80.42 39.75 82.8C39.75 85.18 40.51 86.04 41.45 86.04Z" fill="#1C98D6"/>
<path d="M46.02 81.79C46.02 81.39 46.01 81.02 45.97 80.73H47.27C47.28 81.12 47.32 81.51 47.32 81.9H47.34C47.51 81.4 47.97 80.63 48.86 80.63C48.95 80.63 49.02 80.65 49.1 80.67V82.11C48.97 82.07 48.84 82.05 48.7 82.05C48.11 82.05 47.46 82.44 47.46 83.63V87.13H46.02" fill="#1C98D6"/>
<path d="M50.25 88.13C50.59 88.33 51.26 88.68 52.01 88.68C53.37 88.68 53.59 87.67 53.59 86.67V86.06H53.57C53.34 86.56 52.93 87.14 51.99 87.14C51.16 87.14 49.9 86.54 49.9 83.96C49.9 82.19 50.49 80.64 52.06 80.64C52.93 80.64 53.34 81.17 53.64 81.73H53.69C53.69 81.39 53.73 81.07 53.74 80.74H55.04C55.02 81.08 54.99 81.41 54.99 81.75V86.47C54.99 88.47 54.42 89.9 52.23 89.9C51.28 89.9 50.52 89.64 50.18 89.5L50.25 88.13ZM52.32 86C53.22 86 53.58 85.3 53.58 83.85C53.58 82.51 53.1 81.78 52.42 81.8C51.67 81.81 51.38 82.56 51.38 83.86C51.38 85.37 51.84 86 52.32 86Z" fill="#1C98D6"/>
<path d="M56.7 81.11C57.11 80.91 57.68 80.64 58.59 80.64C60.45 80.64 60.88 81.61 60.88 83.21V86C60.88 86.46 60.93 86.88 60.96 87.13H59.66C59.59 86.88 59.58 86.57 59.58 86.26H59.56C59.2 86.78 58.75 87.23 57.89 87.23C56.96 87.23 56.1 86.55 56.1 85.35C56.1 83.61 57.42 83.18 59.24 83.18H59.53V82.94C59.53 82.31 59.24 81.72 58.42 81.72C57.7 81.72 57.06 82.09 56.78 82.34L56.7 81.11ZM59.53 84H59.4C58.17 84 57.44 84.27 57.44 85.21C57.44 85.79 57.8 86.19 58.36 86.19C59.22 86.19 59.53 85.51 59.53 84.36V84Z" fill="#1C98D6"/>
<path d="M62.32 81.79C62.32 81.39 62.31 81.02 62.27 80.73H63.62C63.63 81.05 63.67 81.39 63.67 81.71H63.71H63.7C63.91 81.32 64.32 80.63 65.29 80.63C66.65 80.63 67.06 81.71 67.06 83V87.13H65.62V83.29C65.62 82.31 65.39 81.9 64.8 81.9C64.05 81.9 63.78 82.58 63.78 83.4V87.13H62.34" fill="#1C98D6"/>
<path d="M68.58 78.01H70.07V79.53H68.58V78.01ZM68.6 80.73H70.04V87.13H68.6V80.73Z" fill="#1C98D6"/>
<path d="M71.27 85.8L73.83 81.9H71.35V80.73H75.26V82.05L72.76 85.97H75.34V87.14H71.27" fill="#1C98D6"/>
<path d="M76.73 81.11C77.14 80.91 77.71 80.64 78.62 80.64C80.48 80.64 80.91 81.61 80.91 83.21V86C80.91 86.46 80.95 86.88 80.99 87.13H79.69C79.62 86.88 79.61 86.57 79.61 86.26H79.59C79.23 86.78 78.78 87.23 77.92 87.23C76.99 87.23 76.13 86.55 76.13 85.35C76.13 83.61 77.45 83.18 79.28 83.18H79.57V82.94C79.57 82.31 79.28 81.72 78.46 81.72C77.74 81.72 77.1 82.09 76.82 82.34L76.73 81.11ZM79.56 84H79.43C78.2 84 77.47 84.27 77.47 85.21C77.47 85.79 77.83 86.19 78.39 86.19C79.25 86.19 79.56 85.51 79.56 84.36V84Z" fill="#1C98D6"/>
<path d="M82.89 79.42L84.33 78.95V80.74H85.53V81.87H84.33V85.19C84.33 85.87 84.56 86.07 84.98 86.07C85.24 86.07 85.42 85.99 85.53 85.93V87.02C85.31 87.13 85 87.23 84.57 87.23C83.5 87.23 82.9 86.71 82.9 85.37V81.86H81.95V80.73H82.9" fill="#1C98D6"/>
<path d="M86.67 78.01H88.15V79.53H86.67V78.01ZM86.69 80.73H88.13V87.13H86.69V80.73Z" fill="#1C98D6"/>
<path d="M92.16 80.64C93.38 80.64 94.78 81.32 94.78 83.93C94.78 86.61 93.38 87.24 92.16 87.24C90.94 87.24 89.52 86.62 89.52 83.93C89.52 81.32 90.94 80.64 92.16 80.64ZM92.16 86.14C93.09 86.14 93.3 85 93.3 83.93C93.3 82.86 93.09 81.73 92.16 81.73C91.23 81.73 91.01 82.86 91.01 83.93C91.01 85 91.23 86.14 92.16 86.14Z" fill="#1C98D6"/>
<path d="M96.04 81.79C96.04 81.39 96.03 81.02 95.99 80.73H97.34C97.35 81.05 97.39 81.39 97.39 81.71H97.43H97.42C97.63 81.32 98.03 80.63 99.01 80.63C100.37 80.63 100.78 81.71 100.78 83V87.13H99.34V83.29C99.34 82.31 99.11 81.9 98.51 81.9C97.76 81.9 97.49 82.58 97.49 83.4V87.13H96.05" fill="#1C98D6"/>
<path d="M17.95 89.51C8.28 89.51 0.419998 81.74 0.419998 72.2C0.419998 62.66 8.28 54.89 17.95 54.89C27.62 54.89 35.48 62.66 35.48 72.2C35.48 81.75 27.62 89.51 17.95 89.51ZM17.95 55.69C8.72 55.69 1.22 63.1 1.22 72.21C1.22 81.32 8.73 88.73 17.95 88.73C27.17 88.73 34.68 81.32 34.68 72.21C34.68 63.1 27.18 55.69 17.95 55.69Z" fill="#1C98D6"/>
<path d="M17.95 84.75C10.75 84.75 4.89999 79.12 4.89999 72.2C4.89999 65.28 10.76 59.65 17.95 59.65C25.15 59.65 31 65.28 31 72.2C31.01 79.12 25.15 84.75 17.95 84.75ZM17.95 60.53C11.25 60.53 5.78999 65.76 5.78999 72.2C5.78999 78.63 11.25 83.87 17.95 83.87C24.66 83.87 30.11 78.64 30.11 72.2C30.11 65.77 24.66 60.53 17.95 60.53Z" fill="#1C98D6"/>
<path d="M4.1 66.18L4.33 67.03H5.17L4.56 67.5L4.79 68.24L4.07 67.66L3.36 68.3L3.65 67.5L2.92 67.03L3.76 67.05" fill="#1C98D6"/>
<path d="M4.88 68.37L4.07 67.72L3.39 68.33L3.32 68.28L3.59 67.52L2.77 66.98L3.73 67L4.11 66.04L4.37 66.98H5.3L4.61 67.52L4.88 68.37ZM3.08 67.08L3.7 67.49L3.46 68.15L4.06 67.6L4.7 68.12L4.51 67.49L5.04 67.07H4.3L4.1 66.32L3.8 67.09L3.08 67.08Z" fill="#1C98D6"/>
<path d="M30.85 78.19L31.08 79.03H31.91L31.3 79.51L31.53 80.25L30.81 79.67L30.1 80.31L30.39 79.51L29.66 79.04L30.5 79.06" fill="#1C98D6"/>
<path d="M31.62 80.38L30.81 79.72L30.13 80.33L30.06 80.28L30.33 79.52L29.51 78.99L30.47 79.01L30.85 78.05L31.11 78.99H32.04L31.36 79.53L31.62 80.38ZM29.82 79.09L30.45 79.5L30.21 80.16L30.81 79.61L31.45 80.13L31.26 79.5L31.79 79.08H31.05L30.85 78.33L30.54 79.1L29.82 79.09Z" fill="#1C98D6"/>
<path d="M4.99999 78L5.22999 78.85H6.06999L5.45999 79.32L5.67999 80.06L4.95999 79.48L4.25999 80.12L4.53999 79.32L3.81999 78.85L4.65999 78.87" fill="#1C98D6"/>
<path d="M5.77 80.19L4.96 79.54L4.28 80.15L4.21 80.1L4.48 79.34L3.66 78.8L4.62 78.82L5 77.85L5.26 78.8H6.19L5.5 79.34L5.77 80.19ZM3.97 78.9L4.59 79.31L4.35 79.97L4.95 79.43L5.59 79.95L5.4 79.32L5.93 78.9H5.19L4.99 78.15L4.69 78.92L3.97 78.9Z" fill="#1C98D6"/>
<path d="M31.89 65.57L32.19 66.42H32.95L32.34 66.89L32.57 67.64L31.89 67.01L31.14 67.69L31.43 66.89L30.7 66.42L31.54 66.44" fill="#1C98D6"/>
<path d="M32.66 67.78L31.88 67.07L31.17 67.72L31.1 67.67L31.37 66.91L30.55 66.37L31.51 66.39L31.88 65.44L32.22 66.37H33.08L32.39 66.9L32.66 67.78ZM30.86 66.47L31.48 66.88L31.24 67.54L31.88 66.95L32.48 67.5L32.29 66.88L32.82 66.47H32.16L31.89 65.7L31.58 66.49L30.86 66.47Z" fill="#1C98D6"/>
<path d="M9.07 82.04L9.44 82.37L7.69 84.23L7.3 83.88L7.78 81.85H7.77L6.52 83.17L6.16 82.84L7.9 80.98L8.32 81.35L7.85 83.33H7.86" fill="#1C98D6"/>
<path d="M18.61 58.95L18.04 58.89L19.22 56.48L19.84 56.54L20.5 59.13L19.91 59.07L19.8 58.54L18.84 58.45L18.61 58.95ZM19.02 58.04L19.68 58.1L19.46 57.08L19.02 58.04Z" fill="#1C98D6"/>
<path d="M22.1 59.07L23.33 59.46L23.18 59.89L21.44 59.34L22.26 56.97L22.78 57.13" fill="#1C98D6"/>
<path d="M26.06 60.61C25.69 61.16 25.19 61.18 24.64 60.84C24.44 60.72 24.18 60.48 24.13 60.15C24.1 59.95 24.17 59.75 24.3 59.54L25.24 58.15L25.7 58.44L24.78 59.8C24.58 60.09 24.67 60.33 24.88 60.46C25.19 60.66 25.41 60.59 25.59 60.34L26.52 58.96L26.98 59.25" fill="#1C98D6"/>
<path d="M27.23 62.6L26.81 62.27L28.19 60.69L27.58 60.21L27.88 59.87L29.5 61.16L29.21 61.5L28.61 61.02" fill="#1C98D6"/>
<path d="M15.73 58.37C15.76 58.51 15.87 58.76 16.34 58.7C16.59 58.66 16.86 58.56 16.82 58.3C16.79 58.1 16.59 58.08 16.31 58.06L16.02 58.04C15.59 58.01 15.18 57.97 15.08 57.42C15.03 57.14 15.1 56.63 15.94 56.51C16.73 56.4 17.02 56.87 17.07 57.17L16.56 57.25C16.53 57.14 16.44 56.88 15.97 56.95C15.76 56.98 15.54 57.09 15.57 57.31C15.6 57.5 15.78 57.52 15.89 57.53L16.54 57.59C16.9 57.62 17.25 57.71 17.32 58.16C17.45 58.91 16.67 59.09 16.45 59.12C15.52 59.26 15.27 58.75 15.21 58.44" fill="#1C98D6"/>
<path d="M9.86 58.44C10.16 58.29 11.03 58.01 11.59 59.06C12.15 60.11 11.42 60.64 11.12 60.79C10.82 60.94 9.95 61.22 9.39 60.18C8.83 59.12 9.56 58.59 9.86 58.44ZM10.91 60.39C11.17 60.26 11.45 59.92 11.11 59.3C10.78 58.68 10.33 58.71 10.07 58.84C9.81 58.97 9.53 59.31 9.87 59.93C10.21 60.55 10.65 60.52 10.91 60.39Z" fill="#1C98D6"/>
<path d="M6.13 61.47L7.03 60.55C7.51 60.07 7.95 60.31 8.11 60.46C8.31 60.65 8.39001 60.91 8.27001 61.15C8.48001 61.06 8.62 61.03 8.96 61.35C9.23 61.6 9.29 61.66 9.41 61.61L9.46 61.65L9.05 62.07C8.94001 62.01 8.83001 61.94 8.64001 61.77C8.39001 61.53 8.28 61.46 8 61.74L7.61 62.13L8.33 62.8L7.96 63.17L6.13 61.47ZM7.74 61.4C7.93 61.2 7.96 61.04 7.78 60.87C7.68 60.78 7.5 60.69 7.28 60.91L6.81001 61.39L7.3 61.85L7.74 61.4Z" fill="#1C98D6"/>
<path d="M24.99 83.52L25.43 83.28L26.68 85.45L26.21 85.71L24.4 84.66H24.39L25.29 86.21L24.85 86.45L23.59 84.28L24.09 84.01L25.86 85.03" fill="#1C98D6"/>
<path d="M25.93 82.82L26.83 82.14C27.52 81.62 28.12 82.09 28.42 82.46C28.76 82.88 29.08 83.62 28.4 84.13L27.52 84.79L25.93 82.82ZM27.66 84.14L28.07 83.83C28.42 83.57 28.26 83.14 28 82.82C27.53 82.24 27.21 82.41 27.03 82.54L26.62 82.85L27.66 84.14Z" fill="#1C98D6"/>
<path d="M30.25 82.46L29.89 82.85L27.95 81.2L28.3 80.81" fill="#1C98D6"/>
<path d="M31.08 63.84L30.24 62.78L29.81 63.1L30.58 64.07L30.21 64.34L29.45 63.36L28.91 63.76L29.78 64.86L29.42 65.13L28.23 63.61L30.29 62.1L31.44 63.57" fill="#1C98D6"/>
<path d="M10.79 83.33C11.07 83.52 11.72 84.14 11.03 85.1C10.34 86.06 9.52 85.68 9.24 85.49C8.96 85.3 8.31 84.68 9 83.72C9.68 82.76 10.51 83.14 10.79 83.33ZM9.5 85.13C9.74 85.29 10.18 85.38 10.59 84.8C11 84.22 10.77 83.85 10.53 83.69C10.29 83.53 9.85 83.44 9.44 84.02C9.02 84.6 9.26 84.97 9.5 85.13Z" fill="#1C98D6"/>
<path d="M13.53 84.69L14.05 84.88L12.29 86.93L11.82 86.75L11.95 84.1L12.49 84.3L12.29 86.27H12.3" fill="#1C98D6"/>
<path d="M14.41 87.54L13.88 87.4L14.55 85L15.07 85.13" fill="#1C98D6"/>
<path d="M20.53 87.73L20.03 87.76L19.88 85.67L19.54 87.79L19.01 87.83L18.39 85.77H18.38L18.53 87.86L18.03 87.9L17.85 85.39L18.64 85.34L19.25 87.28L19.58 85.28L20.36 85.23" fill="#1C98D6"/>
<path d="M23.53 86.17C23.7 86.81 23.37 87.19 22.74 87.34C22.51 87.4 22.15 87.43 21.86 87.24C21.68 87.12 21.58 86.94 21.51 86.7L21.08 85.08L21.62 84.95L22.04 86.54C22.13 86.88 22.37 86.98 22.62 86.92C22.98 86.83 23.08 86.63 23 86.33L22.57 84.72L23.11 84.59" fill="#1C98D6"/>
<path d="M6.39 65.13L6.09 65.57L3.95 64.15L4.61 63.19C4.89 62.79 5.33 62.72 5.74 62.99C5.94 63.12 6.35 63.55 5.96 64.11L5.61 64.61L6.39 65.13ZM5.53 63.97C5.75 63.64 5.52 63.49 5.42 63.42C5.21 63.28 5.05 63.34 4.86 63.61L4.62 63.96L5.25 64.38L5.53 63.97Z" fill="#1C98D6"/>
<path d="M20.51 82.07C20.7 82.5 20.21 82.39 20.02 82.55H19.86C19.89 82.3 20.16 81.9 20.51 82.07Z" fill="#1C98D6"/>
<path d="M17.72 74.42V74.59H17.06C17 74.22 17.57 74.16 17.72 74.42Z" fill="#1C98D6"/>
<path d="M18.88 70.04L19.2 69.65L20.05 69.58L20.44 69.51L20.27 69.87L19.8 70.04L19.88 69.87L19.34 69.83L19.06 70.04" fill="#1C98D6"/>
<path d="M20.98 69.55L21.26 69.51L21.58 69.66L21.41 69.87L21.09 69.94L20.94 70.11L20.76 69.97L20.48 70.04L20.44 69.9L20.69 69.83L20.59 69.69L20.69 69.59" fill="#1C98D6"/>
<path d="M21.86 69.88L22.04 69.74L22.36 69.77L22.28 69.95L21.82 70.06" fill="#1C98D6"/>
<path d="M19.34 70.29L19.7 70.25L19.63 70.46H19.27" fill="#1C98D6"/>
<path d="M21.76 70.24L21.97 70.07L22.09 70.19L21.95 70.31" fill="#1C98D6"/>
<path d="M21.58 70.58L21.76 70.79L21.9 70.72L21.79 70.37" fill="#1C98D6"/>
<path d="M22.23 70.71L22.33 70.57L22.01 70.39" fill="#1C98D6"/>
<path d="M22.59 70.55L22.71 70.6L22.66 71.12L22.49 70.65" fill="#1C98D6"/>
<path d="M16.9 62.65C17.03 62.51 16.93 61.91 16.73 61.85C16.49 62.22 17.22 62.39 16.73 62.65H16.9ZM18.04 64.57C18.01 64.28 17.94 63.67 18.21 63.29L18.37 63.13C18.31 63.18 18.25 63.23 18.21 63.29L17.88 62.97L18.04 62.8C17.8 62.88 17.72 62.6 17.55 62.49C17.33 63.09 18.75 63.85 17.39 63.91C17.29 63.82 17.17 63.74 17.22 63.59H17.06V63.76H17.22C17.13 63.84 17.05 63.96 16.9 63.91C16.89 64.09 16.93 64.29 16.73 64.39H17.06C17.15 64.48 17.28 64.56 17.22 64.71C17.44 64.77 17.77 64.57 17.88 64.86C17.84 64.74 17.96 64.66 18.04 64.57ZM19.79 72.2C20.14 71.98 20.34 71.84 20.85 71.73C20.8 71.88 20.93 71.96 21 72.05C21.36 71.64 21.59 71.98 21.86 72.2C21.99 72.31 22.14 72.4 22.32 72.35C22.33 72.3 22.36 72.25 22.38 72.2H22.56C22.8 72.79 23.73 73.14 23.81 73.8C24.38 74.07 25.17 73.84 25.61 74.42C26.77 75.69 24.22 76.15 24.63 77.46C24.42 78.3 23.78 78.44 22.99 78.56C22.74 79.2 22.23 79.46 21.68 79.83C20.86 79.8 20.75 80.4 20.03 80.63C19.78 81.46 19.08 81.69 18.88 82.54C19.01 82.8 19.45 82.65 19.37 83.01C18.8 83.03 18.07 82.69 18.06 82.06C18.28 80.28 19.59 78.94 19.7 77.13C18.81 76.49 18.67 75.26 18.72 74.11C19.29 73.82 19.16 73.25 19.37 72.84L19.05 72.52C18.72 73 18.5 72.27 18.06 72.52C18.03 72.4 17.97 72.3 17.89 72.2C17.71 71.97 17.43 71.78 17.23 71.56C16.58 71.36 15.85 71.32 15.27 70.93C14.53 70.87 14.95 70.04 14.29 69.81C14.2 69.9 14.07 69.98 14.12 70.13C13.06 69.85 13.49 68.71 12.98 68.06C13.09 67.61 13.11 67.19 13.02 66.79C12.95 66.51 12.83 66.25 12.65 65.99C11.61 64.86 10.45 66.82 9.2 66.14C9.66 66.11 10.04 65.89 10.34 65.51C10.24 65.36 9.96 65.26 10.02 65.03L10.18 64.86L10.02 64.71L10.18 64.56C10.08 64.47 9.96 64.39 10.02 64.24C10.64 63.75 11.48 63.08 12.47 63.12C13.23 62.84 14.26 63.73 14.94 62.8C14.59 62.78 14.23 62.28 14.61 62.02C14.85 62.05 15.1 61.64 15.27 62.02C15.48 61.91 15.43 61.71 15.43 61.53C15.97 61.24 16.55 62.14 16.74 61.38H17.07C17.02 61.53 17.15 61.61 17.23 61.7L17.4 61.53L17.56 61.7C18 61.27 18.29 62.15 18.87 61.85C19.31 62.13 19.58 62.74 19.69 63.29C19.52 63.29 19.31 63.24 19.2 63.44L19.86 64.09C20.06 63.98 20.02 63.78 20.02 63.6C20.81 64 21.28 64.81 21.67 65.52C20.82 65.66 20.04 66.03 19.53 66.79C20.05 68.08 17.85 68.05 18.87 69.33L18.54 69.65C18.5 69.35 18.41 69.08 18.22 68.85C17.37 69.39 15.88 68.31 16.09 69.97C16.31 70.15 16.3 70.43 16.58 70.6C16.99 70.78 17.13 70.28 17.4 70.13V69.98H18.05C18.4 70.56 17.32 71.25 18.38 71.4C18.38 71.58 18.43 71.79 18.22 71.88C18.3 72.1 18.44 72.18 18.61 72.2C18.73 72.22 18.86 72.21 18.99 72.2H19.2C19.33 72.21 19.45 72.25 19.53 72.35C19.62 72.3 19.71 72.24 19.79 72.2Z" fill="#1C98D6"/>
<path d="M31.91 69.05C32.03 69.03 32.21 69.02 32.47 69.02C32.71 69.02 32.89 69.06 33 69.15C33.12 69.23 33.19 69.38 33.19 69.56C33.19 69.73 33.13 69.88 33.03 69.97C32.89 70.09 32.69 70.14 32.46 70.14C32.41 70.14 32.37 70.14 32.35 70.14V70.71H31.9L31.91 69.05ZM32.36 69.79C32.38 69.79 32.41 69.8 32.46 69.8C32.64 69.8 32.75 69.71 32.75 69.57C32.75 69.45 32.66 69.36 32.49 69.36C32.42 69.36 32.38 69.36 32.35 69.37V69.79H32.36Z" fill="#1C98D6"/>
<path d="M32.65 72.64L32.55 73.03H32.08L32.57 71.35H33.18L33.68 73.03H33.2L33.09 72.64H32.65ZM33.02 72.31L32.94 72.01C32.92 71.92 32.88 71.78 32.86 71.68C32.84 71.78 32.81 71.92 32.78 72.01L32.71 72.31H33.02Z" fill="#1C98D6"/>
<path d="M32.28 73.75V74.37H32.84V73.75H33.29V75.43H32.84V74.76H32.28V75.43H31.83V73.75" fill="#1C98D6"/>
<path d="M32.88 76.95C32.88 77.49 32.56 77.83 32.03 77.83C31.5 77.83 31.21 77.44 31.21 76.97C31.21 76.48 31.54 76.09 32.06 76.09C32.61 76.1 32.88 76.5 32.88 76.95ZM31.7 76.97C31.7 77.28 31.84 77.48 32.06 77.48C32.28 77.48 32.41 77.27 32.41 76.97C32.41 76.68 32.28 76.46 32.06 76.46C31.84 76.45 31.7 76.66 31.7 76.97Z" fill="#1C98D6"/>
<path d="M4.23 70.74C4.23 71.28 3.9 71.62 3.38 71.62C2.85 71.62 2.56 71.23 2.56 70.76C2.56 70.27 2.88 69.89 3.4 69.89C3.95 69.9 4.23 70.29 4.23 70.74ZM3.04 70.76C3.04 71.07 3.18 71.27 3.4 71.27C3.62 71.27 3.75 71.06 3.75 70.76C3.75 70.47 3.62 70.25 3.4 70.25C3.18 70.25 3.04 70.45 3.04 70.76Z" fill="#1C98D6"/>
<path d="M2.56 72.62C2.68 72.6 2.86 72.58 3.12 72.58C3.36 72.58 3.54 72.62 3.66 72.71C3.78 72.79 3.85 72.94 3.85 73.12C3.85 73.29 3.79 73.44 3.69 73.53C3.55 73.65 3.35 73.7 3.12 73.7C3.08 73.7 3.04 73.7 3.01 73.7V74.27H2.56V72.62ZM3.01 73.36C3.03 73.36 3.06 73.37 3.11 73.37C3.29 73.37 3.4 73.28 3.4 73.14C3.4 73.02 3.31 72.93 3.14 72.93C3.07 72.93 3.03 72.94 3.01 72.94V73.36Z" fill="#1C98D6"/>
<path d="M3.29 76.18C3.39 76.23 3.56 76.29 3.73 76.29C3.89 76.29 3.96 76.24 3.96 76.15C3.96 76.07 3.88 76.02 3.69 75.96C3.4 75.86 3.21 75.7 3.21 75.46C3.21 75.17 3.46 74.93 3.89 74.93C4.09 74.93 4.24 74.97 4.35 75.02L4.25 75.38C4.17 75.35 4.05 75.3 3.88 75.3C3.74 75.3 3.67 75.35 3.67 75.42C3.67 75.51 3.76 75.54 3.97 75.62C4.28 75.73 4.41 75.89 4.41 76.13C4.41 76.42 4.18 76.67 3.69 76.67C3.49 76.67 3.29 76.61 3.19 76.57" fill="#1C98D6"/>
</svg>
