<svg width="225" height="93" viewBox="0 0 225 93" fill="none" xmlns="http://www.w3.org/2000/svg">
<path d="M56.39 47.19C39.55 47.19 29.69 39.2401 29.69 23.8701C29.69 8.76006 39.56 0.550049 56.39 0.550049C73.22 0.550049 83.3 8.75006 83.3 23.8701C83.3 39.2501 73.23 47.19 56.39 47.19ZM56.39 36.3401C63.7 36.3401 63.91 28.7201 63.98 23.8701C63.91 19.6701 63.43 11.4001 56.39 11.4001C49.56 11.4001 49.01 19.6701 49.01 23.8701C49.01 28.7201 49.77 36.3401 56.39 36.3401Z" fill="#1C98D6"/>
<path d="M87.37 1.33008H119.18C126.7 1.33008 136.84 4.69008 136.84 16.8301C136.84 28.5901 128.77 33.4301 119.11 33.4301H105.86V46.4101H87.37V1.33008ZM105.38 22.9701H109.45C113.87 22.9701 118.35 22.2001 118.35 17.1601C118.35 12.3801 113.86 11.8001 109.38 11.8001H105.38V22.9701Z" fill="#1C98D6"/>
<path d="M180.59 13.67C176.45 12.31 171.55 11.41 166.31 11.41C163.41 11.41 158.38 11.4701 158.38 14.3801C158.38 20.2601 183.7 14.7 183.7 32.08C183.7 44.16 170.94 47.19 160.24 47.19C153.13 47.19 147.27 46.5501 140.37 45.0601V33.3701C145.34 35.3101 151.41 36.3401 156.93 36.3401C161.28 36.3401 165.21 35.5 165.21 33.2401C165.21 27.1701 139.89 32.6601 139.89 15.1501C139.89 2.75006 153.69 0.550049 164.66 0.550049C169.83 0.550049 175.56 1.13005 180.6 2.10005V13.67H180.59Z" fill="#1C98D6"/>
<path d="M17.47 91.87C7.84 91.87 0 84.25 0 74.89C0 65.53 7.84 57.91 17.47 57.91C27.1 57.91 34.94 65.53 34.94 74.89C34.95 84.25 27.11 91.87 17.47 91.87ZM17.47 58.68C8.27 58.68 0.8 65.95 0.8 74.88C0.8 83.81 8.28 91.08 17.47 91.08C26.66 91.08 34.14 83.81 34.14 74.88C34.15 65.95 26.67 58.68 17.47 58.68Z" fill="#1C98D6"/>
<path d="M17.47 87.2001C10.3 87.2001 4.46001 81.6801 4.46001 74.8901C4.46001 68.1001 10.3 62.5801 17.47 62.5801C24.64 62.5801 30.48 68.1001 30.48 74.8901C30.48 81.6701 24.65 87.2001 17.47 87.2001ZM17.47 63.4401C10.79 63.4401 5.35001 68.5801 5.35001 74.8901C5.35001 81.2001 10.79 86.3401 17.47 86.3401C24.15 86.3401 29.59 81.2001 29.59 74.8901C29.59 68.5801 24.16 63.4401 17.47 63.4401Z" fill="#1C98D6"/>
<path d="M3.67 68.98L3.9 69.81H4.73L4.13 70.28L4.36 71L3.64 70.43L2.93 71.06L3.22 70.28L2.5 69.81L3.33 69.83L3.67 68.98Z" fill="#1C98D6"/>
<path d="M4.44001 71.1301L3.64001 70.4901L2.97001 71.0901L2.90001 71.0401L3.17001 70.2901L2.35001 69.7601L3.31001 69.7801L3.69001 68.8301L3.95001 69.7601H4.88001L4.20001 70.2901L4.44001 71.1301ZM2.65001 69.8601L3.27001 70.2601L3.03001 70.9101L3.63001 70.3801L4.27001 70.8901L4.08001 70.2701L4.61001 69.8601H3.87001L3.67001 69.1201L3.37001 69.8801L2.65001 69.8601Z" fill="#1C98D6"/>
<path d="M30.33 80.7601L30.55 81.5901H31.39L30.78 82.0601L31.01 82.7801L30.29 82.2101L29.59 82.8401L29.87 82.0601L29.15 81.5901L29.98 81.6101L30.33 80.7601Z" fill="#1C98D6"/>
<path d="M31.09 82.91L30.29 82.2701L29.61 82.8701L29.54 82.83L29.81 82.08L28.99 81.55L29.95 81.5701L30.33 80.6201L30.58 81.55H31.51L30.83 82.08L31.09 82.91ZM29.3 81.64L29.92 82.0401L29.68 82.69L30.28 82.16L30.92 82.67L30.73 82.05L31.26 81.64H30.52L30.32 80.9001L30.02 81.66L29.3 81.64Z" fill="#1C98D6"/>
<path d="M4.56 80.5701L4.79 81.4001H5.63L5.02 81.8701L5.25 82.6001L4.53 82.0201L3.83 82.6501L4.11 81.8701L3.39 81.4101L4.23 81.4201L4.56 80.5701Z" fill="#1C98D6"/>
<path d="M5.33 82.72L4.53 82.08L3.85 82.6801L3.78 82.6301L4.05 81.8801L3.23 81.3501L4.19 81.3701L4.57 80.42L4.83 81.3501H5.76L5.08 81.8801L5.33 82.72ZM3.54 81.4501L4.16 81.8501L3.92 82.5L4.52 81.97L5.16 82.4801L4.97 81.86L5.5 81.4501H4.76L4.56 80.7101L4.26 81.47L3.54 81.4501Z" fill="#1C98D6"/>
<path d="M31.36 68.3801L31.66 69.2101H32.42L31.82 69.6801L32.04 70.4101L31.36 69.7901L30.62 70.4601L30.91 69.6801L30.18 69.2101L31.02 69.2301L31.36 68.3801Z" fill="#1C98D6"/>
<path d="M32.13 70.5501L31.36 69.8501L30.65 70.4901L30.58 70.4401L30.85 69.6901L30.03 69.1601L30.99 69.1801L31.36 68.2501L31.69 69.1601H32.55L31.87 69.6801L32.13 70.5501ZM30.34 69.2601L30.96 69.6601L30.72 70.3101L31.36 69.7301L31.95 70.2701L31.76 69.6701L32.29 69.2601H31.63L31.36 68.5101L31.05 69.2801L30.34 69.2601Z" fill="#1C98D6"/>
<path d="M8.62 84.53L8.99 84.86L7.25 86.69L6.86 86.3401L7.33 84.3501H7.32L6.08 85.6501L5.72 85.3201L7.46 83.4901L7.87 83.86L7.4 85.8L7.41 85.8101L8.62 84.53Z" fill="#1C98D6"/>
<path d="M18.12 61.89L17.55 61.84L18.72 59.47L19.34 59.53L19.99 62.07L19.41 62.02L19.3 61.5L18.35 61.41L18.12 61.89ZM18.54 60.99L19.2 61.05L18.98 60.05H18.97L18.54 60.99Z" fill="#1C98D6"/>
<path d="M21.61 62.0001L22.84 62.3801L22.69 62.8001L20.95 62.2701L21.77 59.9401L22.28 60.1001L21.61 62.0001Z" fill="#1C98D6"/>
<path d="M25.55 63.5101C25.18 64.0501 24.68 64.0701 24.14 63.7401C23.94 63.6201 23.68 63.3901 23.63 63.0701C23.6 62.8701 23.67 62.68 23.8 62.47L24.73 61.11L25.19 61.39L24.28 62.72C24.08 63.01 24.17 63.2401 24.38 63.3701C24.69 63.5601 24.91 63.5 25.08 63.25L26.01 61.9001L26.47 62.1801L25.55 63.5101Z" fill="#1C98D6"/>
<path d="M26.72 65.46L26.31 65.14L27.68 63.59L27.07 63.12L27.37 62.78L28.99 64.05L28.69 64.39L28.09 63.91L26.72 65.46Z" fill="#1C98D6"/>
<path d="M15.26 61.31C15.29 61.45 15.4 61.7 15.87 61.63C16.12 61.59 16.39 61.5 16.35 61.24C16.32 61.05 16.12 61.03 15.84 61L15.55 60.98C15.12 60.95 14.71 60.91 14.62 60.38C14.57 60.11 14.64 59.61 15.47 59.49C16.25 59.38 16.54 59.84 16.6 60.14L16.09 60.21C16.06 60.1 15.97 59.85 15.5 59.92C15.3 59.95 15.07 60.06 15.11 60.28C15.14 60.47 15.31 60.49 15.42 60.5L16.07 60.56C16.43 60.59 16.77 60.68 16.85 61.12C16.97 61.86 16.2 62.03 15.98 62.07C15.05 62.2 14.8 61.71 14.75 61.41L15.26 61.31Z" fill="#1C98D6"/>
<path d="M9.41 61.38C9.71 61.23 10.58 60.96 11.14 61.98C11.7 63.01 10.97 63.53 10.67 63.68C10.37 63.83 9.5 64.1 8.94 63.08C8.38 62.05 9.11 61.53 9.41 61.38ZM10.46 63.3C10.72 63.17 11 62.84 10.66 62.23C10.33 61.62 9.88 61.65 9.62 61.77C9.36 61.89 9.08 62.23 9.42 62.84C9.75 63.45 10.2 63.43 10.46 63.3Z" fill="#1C98D6"/>
<path d="M5.69 64.3601L6.59 63.4601C7.07 62.9801 7.51 63.2301 7.67 63.3701C7.87 63.5501 7.95 63.8101 7.83 64.0501C8.04 63.9601 8.18 63.9401 8.52 64.2501C8.79 64.4901 8.85 64.5601 8.97 64.5001L9.02 64.5401L8.61 64.9501C8.5 64.9001 8.39 64.8301 8.2 64.6501C7.95 64.4201 7.84 64.3501 7.56 64.6201L7.18 65.0001L7.9 65.6601L7.54 66.0201L5.69 64.3601ZM7.3 64.2901C7.49 64.1001 7.52 63.9401 7.34 63.7701C7.24 63.6801 7.06 63.5901 6.84 63.8101L6.38 64.2801L6.87 64.7301L7.3 64.2901Z" fill="#1C98D6"/>
<path d="M24.49 85.9901L24.93 85.7501L26.18 87.8801L25.71 88.1301L23.9 87.1001L23.89 87.1101L24.78 88.6301L24.34 88.8601L23.09 86.7301L23.59 86.4701L25.35 87.4701H25.36L24.49 85.9901Z" fill="#1C98D6"/>
<path d="M25.42 85.3001L26.32 84.6401C27 84.1301 27.6 84.5901 27.9 84.9601C28.24 85.3701 28.55 86.1001 27.88 86.6001L27 87.2501L25.42 85.3001ZM27.15 86.6001L27.56 86.3001C27.91 86.0401 27.75 85.6301 27.49 85.3101C27.02 84.7401 26.7 84.9001 26.52 85.0401L26.11 85.3401L27.15 86.6001Z" fill="#1C98D6"/>
<path d="M29.73 84.9501L29.37 85.3301L27.44 83.7201L27.79 83.3301L29.73 84.9501Z" fill="#1C98D6"/>
<path d="M30.55 66.68L29.72 65.64L29.29 65.95L30.06 66.91L29.69 67.17L28.93 66.21L28.4 66.6L29.26 67.68L28.9 67.95L27.72 66.46L29.77 64.98L30.92 66.42L30.55 66.68Z" fill="#1C98D6"/>
<path d="M10.33 85.8001C10.61 85.9901 11.26 86.5901 10.57 87.5401C9.87999 88.4901 9.05999 88.1101 8.77999 87.9201C8.49999 87.7301 7.84999 87.1301 8.53999 86.1801C9.22999 85.2401 10.05 85.6201 10.33 85.8001ZM9.04999 87.5701C9.28999 87.7301 9.71999 87.8101 10.14 87.2501C10.55 86.6801 10.32 86.3201 10.08 86.1601C9.83999 86.0001 9.39999 85.9201 8.98999 86.4801C8.57999 87.0501 8.80999 87.4101 9.04999 87.5701Z" fill="#1C98D6"/>
<path d="M13.07 87.14L13.58 87.33L11.84 89.33L11.36 89.16L11.5 86.5601L12.03 86.7601L11.83 88.69H11.84L13.07 87.14Z" fill="#1C98D6"/>
<path d="M13.94 89.9301L13.42 89.8001L14.08 87.4401L14.61 87.5701L13.94 89.9301Z" fill="#1C98D6"/>
<path d="M20.05 90.12L19.54 90.15L19.4 88.1H19.39L19.06 90.18L18.53 90.22L17.91 88.2H17.9L18.05 90.25L17.55 90.28L17.37 87.83L18.16 87.78L18.76 89.68H18.77L19.09 87.71L19.87 87.66L20.05 90.12Z" fill="#1C98D6"/>
<path d="M23.04 88.59C23.21 89.22 22.88 89.59 22.26 89.74C22.03 89.8 21.67 89.83 21.38 89.64C21.2 89.53 21.1 89.35 21.03 89.11L20.6 87.52L21.13 87.39L21.55 88.95C21.64 89.28 21.88 89.38 22.13 89.32C22.49 89.23 22.59 89.03 22.51 88.74L22.08 87.16L22.62 87.03L23.04 88.59Z" fill="#1C98D6"/>
<path d="M5.95 67.9501L5.65 68.3801L3.52 66.9901L4.18 66.0501C4.46 65.6501 4.89 65.5901 5.31 65.8601C5.5 65.9901 5.92 66.4101 5.53 66.9601L5.18 67.4501L5.95 67.9501ZM5.1 66.8101C5.32 66.4901 5.09 66.3401 4.99 66.2701C4.78 66.1401 4.62 66.1901 4.43 66.4601L4.19 66.8001L4.82 67.2101L5.1 66.8101Z" fill="#1C98D6"/>
<path d="M20.02 84.5601C20.21 84.9801 19.72 84.8801 19.53 85.0301H19.37C19.41 84.7901 19.68 84.4001 20.02 84.5601Z" fill="#1C98D6"/>
<path d="M17.25 77.06V77.23H16.59C16.52 76.86 17.09 76.81 17.25 77.06Z" fill="#1C98D6"/>
<path d="M18.4 72.7601L18.72 72.3901L19.57 72.3201L19.96 72.2501L19.78 72.5901L19.32 72.7601L19.39 72.5901L18.86 72.5601L18.58 72.7601H18.4Z" fill="#1C98D6"/>
<path d="M20.49 72.2801L20.78 72.2501L21.09 72.3901L20.92 72.5901L20.6 72.6601L20.45 72.8401L20.28 72.7001L20 72.7701L19.96 72.6301L20.21 72.5601L20.1 72.4201L20.21 72.3201L20.49 72.2801Z" fill="#1C98D6"/>
<path d="M21.37 72.61L21.54 72.47L21.86 72.5L21.79 72.68L21.33 72.78L21.37 72.61Z" fill="#1C98D6"/>
<path d="M18.86 73.01L19.21 72.97L19.14 73.18H18.79L18.86 73.01Z" fill="#1C98D6"/>
<path d="M21.27 72.9601L21.48 72.8L21.6 72.91L21.46 73.0201L21.27 72.9601Z" fill="#1C98D6"/>
<path d="M21.09 73.2901L21.27 73.5001L21.41 73.4301L21.3 73.0801L21.09 73.2901Z" fill="#1C98D6"/>
<path d="M21.74 73.42L21.84 73.28L21.52 73.11L21.74 73.42Z" fill="#1C98D6"/>
<path d="M22.09 73.27L22.22 73.32L22.17 73.82L21.99 73.36L22.09 73.27Z" fill="#1C98D6"/>
<path d="M16.43 65.5201C16.56 65.3801 16.46 64.8001 16.26 64.7401C16.02 65.1001 16.75 65.2701 16.26 65.5201H16.43ZM17.56 67.3901C17.53 67.1101 17.46 66.5101 17.73 66.1401L17.89 65.9801C17.83 66.0301 17.77 66.0801 17.73 66.1401L17.4 65.8301L17.56 65.6701C17.32 65.7401 17.24 65.4701 17.07 65.3701C16.85 65.9501 18.27 66.7101 16.91 66.7701C16.82 66.6801 16.69 66.6001 16.74 66.4501H16.58V66.6201H16.74C16.65 66.7001 16.57 66.8201 16.42 66.7701C16.4 66.9501 16.45 67.1501 16.25 67.2401H16.58C16.67 67.3301 16.8 67.4001 16.74 67.5601C16.96 67.6201 17.29 67.4201 17.4 67.7101C17.36 67.5601 17.48 67.4901 17.56 67.3901ZM19.3 74.8801C19.65 74.6701 19.85 74.5301 20.35 74.4201C20.3 74.5701 20.43 74.6501 20.51 74.7401C20.87 74.3401 21.09 74.6701 21.36 74.8901C21.49 75.0001 21.64 75.0901 21.82 75.0401C21.83 74.9901 21.85 74.9401 21.88 74.8901H22.06C22.3 75.4701 23.22 75.8101 23.3 76.4601C23.87 76.7301 24.66 76.5001 25.1 77.0701C26.25 78.3201 23.72 78.7701 24.12 80.0501C23.92 80.8801 23.27 81.0101 22.48 81.1301C22.23 81.7601 21.72 82.0201 21.17 82.3801C20.35 82.3501 20.24 82.9401 19.53 83.1601C19.28 83.9701 18.58 84.2001 18.38 85.0401C18.51 85.3001 18.95 85.1501 18.87 85.5101C18.3 85.5201 17.58 85.1901 17.56 84.5801C17.78 82.8401 19.09 81.5101 19.2 79.7401C18.32 79.1101 18.18 77.9101 18.22 76.7801C18.79 76.5001 18.66 75.9401 18.87 75.5301L18.55 75.2101C18.22 75.6801 18 74.9701 17.56 75.2101C17.53 75.0901 17.47 74.9901 17.39 74.8901C17.21 74.6701 16.93 74.4801 16.73 74.2601C16.08 74.0601 15.36 74.0201 14.78 73.6401C14.04 73.5801 14.46 72.7701 13.8 72.5401C13.71 72.6301 13.58 72.7101 13.63 72.8601C12.58 72.5901 13 71.4601 12.5 70.8301C12.61 70.3901 12.63 69.9701 12.54 69.5801C12.47 69.3101 12.35 69.0501 12.17 68.8001C11.13 67.6901 9.98001 69.6101 8.74001 68.9501C9.20001 68.9201 9.58001 68.7101 9.87001 68.3301C9.78001 68.1801 9.49001 68.0901 9.55001 67.8601L9.71001 67.6901L9.55001 67.5401L9.71001 67.3901C9.61001 67.3001 9.49001 67.2301 9.55001 67.0701C10.16 66.5901 11 65.9301 11.99 65.9701C12.75 65.7001 13.77 66.5701 14.45 65.6601C14.1 65.6401 13.74 65.1501 14.12 64.8901C14.36 64.9201 14.61 64.5101 14.78 64.8901C14.98 64.7801 14.94 64.5901 14.94 64.4101C15.48 64.1201 16.06 65.0101 16.25 64.2601H16.58C16.53 64.4101 16.66 64.4901 16.74 64.5801L16.91 64.4101L17.07 64.5801C17.51 64.1601 17.8 65.0101 18.38 64.7301C18.82 65.0001 19.09 65.6001 19.2 66.1401C19.03 66.1401 18.82 66.0901 18.71 66.2901L19.37 66.9201C19.57 66.8101 19.53 66.6201 19.53 66.4401C20.32 66.8301 20.79 67.6301 21.17 68.3201C20.32 68.4501 19.55 68.8101 19.04 69.5701C19.56 70.8301 17.37 70.8001 18.38 72.0701L18.06 72.3901C18.02 72.1001 17.93 71.8401 17.74 71.6101C16.89 72.1401 15.41 71.0801 15.61 72.7101C15.83 72.8901 15.82 73.1601 16.1 73.3301C16.51 73.5101 16.65 73.0101 16.92 72.8601V72.7101H17.57C17.92 73.2801 16.84 73.9601 17.9 74.1101C17.9 74.2901 17.95 74.4901 17.74 74.5801C17.82 74.8001 17.96 74.8701 18.13 74.8901C18.25 74.9101 18.38 74.9001 18.51 74.8901H18.72C18.85 74.9001 18.97 74.9401 19.05 75.0401C19.14 74.9801 19.23 74.9301 19.3 74.8801Z" fill="#1C98D6"/>
<path d="M31.39 71.7901C31.51 71.7701 31.69 71.7601 31.95 71.7601C32.19 71.7601 32.37 71.8001 32.48 71.8901C32.6 71.9701 32.67 72.1201 32.67 72.2901C32.67 72.4601 32.61 72.6001 32.51 72.7001C32.37 72.8201 32.17 72.8701 31.94 72.8701C31.9 72.8701 31.86 72.8701 31.83 72.8601V73.4201H31.38V71.7901H31.39ZM31.84 72.5201C31.86 72.5201 31.9 72.5301 31.94 72.5301C32.12 72.5301 32.23 72.4401 32.23 72.3001C32.23 72.1801 32.14 72.1001 31.97 72.1001C31.9 72.1001 31.86 72.1101 31.83 72.1101V72.5201H31.84Z" fill="#1C98D6"/>
<path d="M32.12 75.3201L32.02 75.7001H31.55L32.04 74.05H32.64L33.15 75.7001H32.66L32.55 75.3201H32.12ZM32.5 74.9901L32.42 74.69C32.4 74.6 32.36 74.4601 32.34 74.3701H32.33C32.31 74.4701 32.28 74.6001 32.26 74.7001L32.18 74.9901H32.5Z" fill="#1C98D6"/>
<path d="M31.76 76.4V77.01H32.31V76.4H32.76V78.05H32.31V77.4H31.76V78.05H31.3V76.4H31.76Z" fill="#1C98D6"/>
<path d="M32.36 79.5401C32.36 80.0701 32.03 80.4101 31.51 80.4101C30.99 80.4101 30.69 80.0301 30.69 79.5701C30.69 79.0901 31.01 78.7101 31.53 78.7101C32.08 78.7101 32.36 79.1001 32.36 79.5401ZM31.18 79.5601C31.18 79.8701 31.32 80.0601 31.54 80.0601C31.76 80.0601 31.89 79.8501 31.89 79.5601C31.89 79.2801 31.76 79.0601 31.54 79.0601C31.31 79.0501 31.18 79.2601 31.18 79.5601Z" fill="#1C98D6"/>
<path d="M3.8 73.4501C3.8 73.9801 3.47 74.3201 2.95 74.3201C2.43 74.3201 2.14 73.9401 2.14 73.4801C2.14 73.0001 2.46 72.6201 2.98 72.6201C3.52 72.6201 3.8 73.0101 3.8 73.4501ZM2.61 73.47C2.61 73.78 2.75 73.97 2.97 73.97C3.19 73.97 3.32 73.76 3.32 73.47C3.32 73.19 3.19 72.97 2.97 72.97C2.75 72.97 2.61 73.17 2.61 73.47Z" fill="#1C98D6"/>
<path d="M2.14 75.2901C2.26 75.2701 2.44 75.2601 2.7 75.2601C2.94 75.2601 3.12 75.3001 3.24 75.3901C3.36 75.4701 3.43 75.6201 3.43 75.7901C3.43 75.9601 3.37 76.1001 3.27 76.2001C3.13 76.3201 2.93 76.3701 2.7 76.3701C2.66 76.3701 2.62 76.3701 2.59 76.3701V76.9301H2.14V75.2901ZM2.58 76.0201C2.6 76.0201 2.63 76.0301 2.68 76.0301C2.86 76.0301 2.97 75.9401 2.97 75.8001C2.97 75.6801 2.89 75.5901 2.71 75.5901C2.64 75.5901 2.6 75.6001 2.58 75.6001V76.0201Z" fill="#1C98D6"/>
<path d="M2.86 78.7901C2.96 78.8401 3.13 78.89 3.3 78.89C3.46 78.89 3.53 78.84 3.53 78.75C3.53 78.67 3.45 78.6301 3.27 78.5601C2.98 78.4601 2.8 78.3101 2.8 78.0601C2.8 77.7701 3.05 77.55 3.48 77.55C3.68 77.55 3.83 77.59 3.94 77.64L3.84 77.9901C3.77 77.9601 3.64 77.91 3.47 77.91C3.33 77.91 3.26 77.96 3.26 78.03C3.26 78.11 3.35 78.15 3.56 78.22C3.86 78.33 4 78.49 4 78.72C4 79 3.77 79.25 3.28 79.25C3.08 79.25 2.88 79.2001 2.78 79.1501L2.86 78.7901Z" fill="#1C98D6"/>
<path d="M40.75 60.05C42.43 60.05 43.97 61.3701 43.97 64.4301C43.97 67.4901 42.43 68.8101 40.75 68.8101C39.07 68.8101 37.53 67.4901 37.53 64.4301C37.54 61.3601 39.08 60.05 40.75 60.05ZM40.75 67.61C41.69 67.61 42.44 66.7701 42.44 64.4301C42.44 62.0901 41.69 61.25 40.75 61.25C39.81 61.25 39.06 62.0901 39.06 64.4301C39.07 66.7701 39.82 67.61 40.75 67.61Z" fill="#1C98D6"/>
<path d="M45.13 63.44C45.13 63.05 45.12 62.6801 45.08 62.4001H46.38C46.39 62.7801 46.42 63.17 46.42 63.55H46.44C46.61 63.06 47.06 62.3101 47.95 62.3101C48.04 62.3101 48.11 62.3301 48.19 62.3501V63.7601C48.06 63.7201 47.94 63.7001 47.79 63.7001C47.2 63.7001 46.55 64.08 46.55 65.25V68.69H45.12V63.44H45.13Z" fill="#1C98D6"/>
<path d="M49.15 69.65C49.49 69.85 50.16 70.19 50.91 70.19C52.26 70.19 52.48 69.2 52.48 68.21V67.61H52.46C52.23 68.1 51.82 68.67 50.89 68.67C50.06 68.67 48.81 68.08 48.81 65.55C48.81 63.82 49.4 62.29 50.96 62.29C51.83 62.29 52.23 62.81 52.53 63.36H52.58C52.58 63.03 52.61 62.71 52.63 62.38H53.92C53.9 62.71 53.87 63.04 53.87 63.37V68C53.87 69.96 53.3 71.36 51.12 71.36C50.17 71.36 49.42 71.1 49.07 70.97L49.15 69.65ZM51.22 67.57C52.12 67.57 52.48 66.89 52.48 65.46C52.48 64.14 52.01 63.43 51.32 63.45C50.57 63.46 50.28 64.19 50.28 65.47C50.28 66.95 50.74 67.57 51.22 67.57Z" fill="#1C98D6"/>
<path d="M55.4 62.7701C55.8 62.5701 56.37 62.3101 57.29 62.3101C59.14 62.3101 59.57 63.26 59.57 64.83V67.5701C59.57 68.0201 59.62 68.4401 59.65 68.6801H58.35C58.28 68.4401 58.27 68.13 58.27 67.83H58.24C57.88 68.34 57.43 68.78 56.58 68.78C55.65 68.78 54.8 68.11 54.8 66.94C54.8 65.23 56.12 64.8101 57.93 64.8101H58.22V64.58C58.22 63.96 57.93 63.39 57.11 63.39C56.39 63.39 55.76 63.75 55.48 64L55.4 62.7701ZM58.22 65.61H58.09C56.86 65.61 56.14 65.8801 56.14 66.7901C56.14 67.3601 56.5 67.75 57.05 67.75C57.91 67.75 58.22 67.0801 58.22 65.9601V65.61Z" fill="#1C98D6"/>
<path d="M60.82 63.44C60.82 63.05 60.81 62.6801 60.77 62.4001H62.11C62.12 62.7201 62.16 63.05 62.16 63.36H62.19H62.18C62.39 62.98 62.79 62.3 63.76 62.3C65.11 62.3 65.52 63.3601 65.52 64.6301V68.6801H64.09V64.91C64.09 63.95 63.86 63.5401 63.27 63.5401C62.52 63.5401 62.25 64.2101 62.25 65.0201V68.6801H60.81V63.44H60.82Z" fill="#1C98D6"/>
<path d="M66.87 59.73H68.35V61.22H66.87V59.73ZM66.89 62.4H68.32V68.68H66.89V62.4Z" fill="#1C98D6"/>
<path d="M69.37 67.37L71.91 63.55H69.45V62.4H73.35V63.69L70.85 67.53H73.43V68.68H69.37V67.37Z" fill="#1C98D6"/>
<path d="M74.62 62.7701C75.02 62.5701 75.59 62.3101 76.51 62.3101C78.36 62.3101 78.79 63.26 78.79 64.83V67.5701C78.79 68.0201 78.84 68.4401 78.87 68.6801H77.57C77.5 68.4401 77.49 68.13 77.49 67.83H77.47C77.11 68.34 76.66 68.78 75.8 68.78C74.88 68.78 74.02 68.11 74.02 66.94C74.02 65.23 75.34 64.8101 77.15 64.8101H77.44V64.58C77.44 63.96 77.15 63.39 76.33 63.39C75.61 63.39 74.98 63.75 74.7 64L74.62 62.7701ZM77.44 65.61H77.31C76.08 65.61 75.36 65.8801 75.36 66.7901C75.36 67.3601 75.72 67.75 76.27 67.75C77.13 67.75 77.44 67.0801 77.44 65.9601V65.61Z" fill="#1C98D6"/>
<path d="M84.09 68.5201C83.75 68.6501 83.26 68.78 82.68 68.78C80.71 68.78 79.88 67.33 79.88 65.55C79.88 63.76 80.76 62.3101 82.76 62.3101C83.21 62.3101 83.74 62.4601 84.01 62.5701L83.93 63.7601C83.67 63.6301 83.32 63.4601 82.92 63.4601C81.83 63.4601 81.36 64.2301 81.36 65.5701C81.36 66.7401 81.89 67.64 82.99 67.64C83.34 67.64 83.81 67.4701 84.01 67.3401L84.09 68.5201Z" fill="#1C98D6"/>
<path d="M85 59.73H86.48V61.22H85V59.73ZM85.03 62.4H86.46V68.68H85.03V62.4Z" fill="#1C98D6"/>
<path d="M90.29 62.3001C91.5 62.3001 92.9 62.9701 92.9 65.5301C92.9 68.1601 91.5 68.7701 90.29 68.7701C89.08 68.7701 87.66 68.1601 87.66 65.5301C87.66 62.9701 89.07 62.3001 90.29 62.3001ZM90.29 67.7001C91.22 67.7001 91.42 66.5801 91.42 65.5301C91.42 64.4801 91.21 63.3701 90.29 63.3701C89.37 63.3701 89.15 64.4801 89.15 65.5301C89.15 66.5801 89.36 67.7001 90.29 67.7001ZM90.35 59.9501H91.69L90.51 61.7101H89.61L90.35 59.9501Z" fill="#1C98D6"/>
<path d="M93.97 63.44C93.97 63.05 93.96 62.6801 93.92 62.4001H95.26C95.27 62.7201 95.31 63.05 95.31 63.36H95.34H95.33C95.54 62.98 95.94 62.3 96.91 62.3C98.26 62.3 98.67 63.3601 98.67 64.6301V68.6801H97.24V64.91C97.24 63.95 97.01 63.5401 96.42 63.5401C95.67 63.5401 95.4 64.2101 95.4 65.0201V68.6801H93.97V63.44Z" fill="#1C98D6"/>
<path d="M37.79 70.86H40.1C41.77 70.86 42.63 71.8401 42.63 73.4501C42.63 75.0601 41.76 76.05 40.1 76.05H39.27V79.3801H37.79V70.86ZM39.83 74.8501C40.75 74.8501 41.16 74.3801 41.16 73.4501C41.16 72.5201 40.76 72.0601 39.83 72.0601H39.27V74.8501H39.83Z" fill="#1C98D6"/>
<path d="M43.24 73.4601C43.64 73.2601 44.21 73.0001 45.12 73.0001C46.97 73.0001 47.4 73.9501 47.4 75.5201V78.2601C47.4 78.7101 47.45 79.1301 47.48 79.3701H46.18C46.11 79.1301 46.1 78.8201 46.1 78.5201H46.08C45.72 79.0301 45.27 79.4701 44.41 79.4701C43.49 79.4701 42.63 78.8001 42.63 77.6301C42.63 75.9201 43.95 75.4901 45.76 75.4901H46.05V75.2601C46.05 74.6401 45.76 74.0601 44.94 74.0601C44.22 74.0601 43.59 74.4301 43.31 74.6701L43.24 73.4601ZM46.06 76.3001H45.93C44.7 76.3001 43.98 76.5701 43.98 77.4801C43.98 78.0501 44.34 78.4401 44.89 78.4401C45.75 78.4401 46.06 77.7701 46.06 76.6501V76.3001Z" fill="#1C98D6"/>
<path d="M48.65 74.1301C48.65 73.7401 48.64 73.3701 48.6 73.0901H49.94C49.95 73.4101 49.99 73.74 49.99 74.05H50.02H50.01C50.22 73.67 50.62 72.9901 51.59 72.9901C52.95 72.9901 53.35 74.0501 53.35 75.3201V79.3701H51.92V75.6001C51.92 74.6401 51.69 74.2301 51.1 74.2301C50.35 74.2301 50.08 74.9001 50.08 75.7001V79.36H48.65V74.1301Z" fill="#1C98D6"/>
<path d="M54.88 73.4601C55.28 73.2601 55.85 73.0001 56.76 73.0001C58.61 73.0001 59.04 73.9501 59.04 75.5201V78.2601C59.04 78.7101 59.09 79.1301 59.12 79.3701H57.82C57.75 79.1301 57.74 78.8201 57.74 78.5201H57.72C57.36 79.0301 56.91 79.4701 56.05 79.4701C55.13 79.4701 54.27 78.8001 54.27 77.6301C54.27 75.9201 55.59 75.4901 57.4 75.4901H57.69V75.2601C57.69 74.6401 57.4 74.0601 56.58 74.0601C55.86 74.0601 55.23 74.4301 54.95 74.6701L54.88 73.4601ZM57.7 76.3001H57.57C56.34 76.3001 55.62 76.5701 55.62 77.4801C55.62 78.0501 55.98 78.4401 56.53 78.4401C57.39 78.4401 57.7 77.7701 57.7 76.6501V76.3001Z" fill="#1C98D6"/>
<path d="M60.27 74.1201C60.27 73.6701 60.25 73.3301 60.22 73.1001H61.65C61.66 73.4301 61.7 73.7601 61.7 74.0901H61.72C61.94 73.6001 62.4 73.0101 63.22 73.0101C64.23 73.0101 64.55 73.6701 64.72 74.0101C65.01 73.5701 65.44 73.0101 66.32 73.0101C67.61 73.0101 68.03 73.9801 68.03 75.5101V79.3901H66.6V75.4301C66.6 74.6501 66.37 74.2601 65.84 74.2601C65.2 74.2601 64.87 74.8901 64.87 75.5901V79.3901H63.44V75.4301C63.44 74.6501 63.21 74.2601 62.68 74.2601C62.04 74.2601 61.71 74.8901 61.71 75.5901V79.3901H60.28V74.1201H60.27Z" fill="#1C98D6"/>
<path d="M73.6 79.0701C73.3 79.2101 72.67 79.47 71.82 79.47C69.9 79.47 69.07 78.0201 69.07 76.3201C69.07 74.4401 70.01 72.9901 71.52 72.9901C72.81 72.9901 73.9 73.7801 73.9 76.3401V76.6301H70.45C70.45 77.7001 70.86 78.3501 71.97 78.3501C72.85 78.3501 73.26 78.07 73.53 77.86L73.6 79.0701ZM72.51 75.69C72.51 74.58 72.16 74.0201 71.51 74.0201C70.76 74.0201 70.45 74.86 70.45 75.69H72.51Z" fill="#1C98D6"/>
<path d="M74.99 74.1301C74.99 73.7401 74.98 73.3701 74.94 73.0901H76.24C76.25 73.4701 76.29 73.8601 76.29 74.2401H76.31C76.48 73.7501 76.93 73.0001 77.83 73.0001C77.92 73.0001 77.99 73.0201 78.07 73.0401V74.4501C77.94 74.4101 77.81 74.3901 77.67 74.3901C77.08 74.3901 76.43 74.7701 76.43 75.9401V79.3801H74.99V74.1301Z" fill="#1C98D6"/>
<path d="M79.06 70.42H80.54V71.91H79.06V70.42ZM79.08 73.1001H80.51V79.3801H79.08V73.1001Z" fill="#1C98D6"/>
<path d="M85.93 79.2201C85.59 79.3601 85.1 79.4801 84.52 79.4801C82.55 79.4801 81.72 78.0301 81.72 76.2501C81.72 74.4601 82.6 73.0101 84.6 73.0101C85.05 73.0101 85.58 73.1501 85.85 73.2701L85.77 74.4601C85.51 74.3301 85.16 74.1601 84.76 74.1601C83.67 74.1601 83.2 74.9301 83.2 76.2701C83.2 77.4401 83.73 78.3401 84.83 78.3401C85.18 78.3401 85.65 78.1701 85.85 78.0401L85.93 79.2201Z" fill="#1C98D6"/>
<path d="M87.02 73.4601C87.42 73.2601 87.99 73.0001 88.91 73.0001C90.76 73.0001 91.19 73.9501 91.19 75.5201V78.2601C91.19 78.7101 91.24 79.1301 91.27 79.3701H89.97C89.9 79.1301 89.89 78.8201 89.89 78.5201H89.87C89.51 79.0301 89.06 79.4701 88.2 79.4701C87.27 79.4701 86.42 78.8001 86.42 77.6301C86.42 75.9201 87.74 75.4901 89.55 75.4901H89.84V75.2601C89.84 74.6401 89.55 74.0601 88.73 74.0601C88.01 74.0601 87.38 74.4301 87.1 74.6701L87.02 73.4601ZM89.84 76.3001H89.71C88.48 76.3001 87.76 76.5701 87.76 77.4801C87.76 78.0501 88.12 78.4401 88.67 78.4401C89.53 78.4401 89.84 77.7701 89.84 76.6501V76.3001Z" fill="#1C98D6"/>
<path d="M92.44 74.1301C92.44 73.7401 92.43 73.3701 92.39 73.0901H93.73C93.74 73.4101 93.78 73.74 93.78 74.05H93.81H93.8C94.01 73.67 94.41 72.9901 95.38 72.9901C96.73 72.9901 97.14 74.0501 97.14 75.3201V79.3701H95.71V75.6001C95.71 74.6401 95.48 74.2301 94.89 74.2301C94.14 74.2301 93.87 74.9001 93.87 75.7001V79.36H92.44V74.1301Z" fill="#1C98D6"/>
<path d="M98.66 73.4601C99.06 73.2601 99.63 73.0001 100.54 73.0001C102.39 73.0001 102.82 73.9501 102.82 75.5201V78.2601C102.82 78.7101 102.87 79.1301 102.9 79.3701H101.6C101.53 79.1301 101.52 78.8201 101.52 78.5201H101.5C101.14 79.0301 100.69 79.4701 99.83 79.4701C98.9 79.4701 98.05 78.8001 98.05 77.6301C98.05 75.9201 99.37 75.4901 101.18 75.4901H101.47V75.2601C101.47 74.6401 101.18 74.0601 100.36 74.0601C99.64 74.0601 99.01 74.4301 98.73 74.6701L98.66 73.4601ZM101.48 76.3001H101.35C100.12 76.3001 99.39 76.5701 99.39 77.4801C99.39 78.0501 99.75 78.4401 100.3 78.4401C101.16 78.4401 101.47 77.7701 101.47 76.6501V76.3001H101.48Z" fill="#1C98D6"/>
<path d="M42.55 80.92V88.99C42.55 89.44 42.56 89.83 42.6 90.06H41.26C41.24 89.88 41.22 89.51 41.22 89.08H41.18C40.95 89.62 40.52 90.15 39.59 90.15C38.11 90.15 37.5 88.66 37.5 86.92C37.5 84.87 38.27 83.68 39.56 83.68C40.42 83.68 40.89 84.19 41.1 84.68H41.12V80.91H42.55V80.92ZM39.98 89.06C40.82 89.06 41.11 88.1 41.11 86.91C41.11 85.69 40.79 84.8 40 84.8C39.2 84.8 38.93 85.62 38.93 86.87C38.93 88.33 39.15 89.06 39.98 89.06Z" fill="#1C98D6"/>
<path d="M48.17 89.7601C47.87 89.8901 47.25 90.16 46.39 90.16C44.47 90.16 43.64 88.7101 43.64 87.0101C43.64 85.1301 44.58 83.6801 46.09 83.6801C47.38 83.6801 48.47 84.47 48.47 87.03V87.3201H45.02C45.02 88.3901 45.43 89.0401 46.54 89.0401C47.42 89.0401 47.83 88.76 48.1 88.55L48.17 89.7601ZM47.08 86.39C47.08 85.28 46.73 84.72 46.08 84.72C45.33 84.72 45.01 85.56 45.01 86.39H47.08Z" fill="#1C98D6"/>
<path d="M54.02 80.9301H52.59V90.0701H54.02V80.9301Z" fill="#1C98D6"/>
<path d="M55.67 84.1601C56.07 83.9601 56.64 83.7001 57.56 83.7001C59.41 83.7001 59.84 84.6501 59.84 86.2201V88.9601C59.84 89.4101 59.89 89.8301 59.92 90.0701H58.62C58.55 89.8301 58.54 89.5201 58.54 89.2201H58.52C58.16 89.7301 57.71 90.1701 56.85 90.1701C55.93 90.1701 55.07 89.5001 55.07 88.3301C55.07 86.6201 56.39 86.2001 58.2 86.2001H58.49V85.9701C58.49 85.3501 58.2 84.7701 57.38 84.7701C56.66 84.7701 56.03 85.1401 55.75 85.3801L55.67 84.1601ZM58.5 87.0001H58.37C57.14 87.0001 56.42 87.2701 56.42 88.1801C56.42 88.7501 56.78 89.1401 57.33 89.1401C58.19 89.1401 58.5 88.4701 58.5 87.3501V87.0001Z" fill="#1C98D6"/>
<path d="M64.14 88.4201C64.43 88.6201 65.07 88.9401 65.85 88.9401C66.5 88.9401 67.08 88.5601 67.08 87.7101C67.08 87.1001 66.74 86.8301 66.03 86.4201L65.27 85.9901C64.47 85.5301 63.95 84.8601 63.95 83.7601C63.95 82.2401 65.14 81.4401 66.49 81.4401C67.35 81.4401 67.95 81.6701 68.18 81.7401L68.11 83.0401C67.75 82.8901 67.28 82.6701 66.59 82.6701C65.85 82.6701 65.47 83.0801 65.47 83.6701C65.47 84.3001 65.87 84.5501 66.32 84.8101L67.19 85.3201C68.14 85.8801 68.59 86.4201 68.59 87.6101C68.59 89.3401 67.42 90.1701 65.88 90.1701C65.07 90.1701 64.45 90.0501 64.04 89.7901L64.14 88.4201Z" fill="#1C98D6"/>
<path d="M70.03 84.1601C70.43 83.9601 71 83.7001 71.92 83.7001C73.77 83.7001 74.2 84.6501 74.2 86.2201V88.9601C74.2 89.4101 74.25 89.8301 74.28 90.0701H72.98C72.91 89.8301 72.9 89.5201 72.9 89.2201H72.88C72.52 89.7301 72.07 90.1701 71.22 90.1701C70.3 90.1701 69.44 89.5001 69.44 88.3301C69.44 86.6201 70.76 86.2001 72.57 86.2001H72.86V85.9701C72.86 85.3501 72.57 84.7701 71.75 84.7701C71.03 84.7701 70.4 85.1401 70.12 85.3801L70.03 84.1601ZM72.85 87.0001H72.72C71.49 87.0001 70.77 87.2701 70.77 88.1801C70.77 88.7501 71.13 89.1401 71.68 89.1401C72.54 89.1401 72.85 88.4701 72.85 87.3501V87.0001Z" fill="#1C98D6"/>
<path d="M77.02 80.9301H75.59V90.0701H77.02V80.9301Z" fill="#1C98D6"/>
<path d="M83.1 89.03C83.1 89.42 83.11 89.79 83.15 90.07H81.8C81.79 89.75 81.75 89.42 81.75 89.11L81.72 89.1L81.73 89.11C81.45 89.57 81.08 90.17 80.15 90.17C78.8 90.17 78.39 89.11 78.39 87.84V83.79H79.82V87.56C79.82 88.52 80.07 88.92 80.68 88.92C81.44 88.92 81.66 88.19 81.66 87.38V83.78H83.1V89.03Z" fill="#1C98D6"/>
<path d="M89.21 80.92V88.99C89.21 89.44 89.22 89.83 89.26 90.06H87.92C87.9 89.88 87.87 89.51 87.87 89.08H87.83C87.6 89.62 87.17 90.15 86.24 90.15C84.76 90.15 84.15 88.66 84.15 86.92C84.15 84.87 84.93 83.68 86.21 83.68C87.07 83.68 87.54 84.19 87.75 84.68H87.77V80.91H89.21V80.92ZM86.65 89.06C87.49 89.06 87.78 88.1 87.78 86.91C87.78 85.69 87.46 84.8 86.67 84.8C85.87 84.8 85.59 85.62 85.59 86.87C85.59 88.33 85.81 89.06 86.65 89.06Z" fill="#1C98D6"/>
<path d="M224.21 82.16H148.73V82.57H224.21V82.16Z" fill="#1C98D6"/>
<path d="M167.08 66.93V64.45C167.08 63.05 166.75 62.12 165.14 62.12C164.36 62.12 163.87 62.38 163.56 62.55L163.53 62.56L163.61 63.79L163.68 63.72C163.89 63.52 164.4 63.18 165 63.18C165.79 63.18 165.88 63.9 165.88 64.22V64.38H165.69C164.46 64.38 163.04 64.6 163.04 66.36C163.04 67.49 163.81 68.07 164.56 68.07C165.26 68.07 165.64 67.69 165.92 67.28C165.92 67.51 165.94 67.75 165.99 67.95L166 67.99H167.16L167.15 67.94C167.12 67.73 167.08 67.35 167.08 66.93ZM165.87 65.47C165.87 66.55 165.58 67.05 164.95 67.05C164.52 67.05 164.24 66.73 164.24 66.22C164.24 65.49 164.7 65.19 165.81 65.19H165.87V65.47ZM161.11 62.2L161.09 62.6C161.09 62.6 161.08 62.89 161.07 63.02C160.82 62.56 160.47 62.11 159.77 62.11C158.61 62.11 157.94 63.2 157.94 65.11C157.94 67.78 159.3 67.99 159.71 67.99C160.44 67.99 160.79 67.55 160.99 67.15V67.52C160.99 68.33 160.85 69.26 159.73 69.26C159.29 69.26 158.79 69.09 158.3 68.78L158.23 68.74L158.16 70.07L158.19 70.08C158.75 70.32 159.33 70.44 159.91 70.44C161.97 70.44 162.24 68.79 162.24 67.34V63.14L162.28 62.2H162.23H161.11ZM160 66.88C159.66 66.88 159.27 66.4 159.27 65.03C159.27 63.82 159.53 63.25 160.09 63.24C160.26 63.24 160.43 63.3 160.56 63.43C160.85 63.71 161 64.27 161 65.01C161 66.32 160.7 66.88 160 66.88ZM170.64 62.11C169.89 62.11 169.53 62.64 169.35 62.97C169.34 62.82 169.33 62.59 169.33 62.59L169.31 62.2H169.27H168.1L168.11 62.25C168.14 62.48 168.15 62.78 168.15 63.18V67.98H169.43V64.62C169.43 64.14 169.53 63.33 170.23 63.33C170.69 63.33 170.86 63.66 170.86 64.52V67.98H172.15V64.26C172.14 62.83 171.64 62.11 170.64 62.11ZM194.58 59.97H193.35L192.7 61.65H193.54L194.58 59.97ZM151.42 60.06C150.11 60.06 148.7 61.11 148.7 64.07C148.7 67.03 150.1 68.08 151.42 68.08C152.73 68.08 154.13 67.03 154.13 64.07C154.13 61.12 152.73 60.06 151.42 60.06ZM151.42 66.91C150.54 66.91 150.07 65.9 150.07 64.07C150.07 62.24 150.55 61.23 151.42 61.23C152.29 61.23 152.77 62.24 152.77 64.07C152.77 65.91 152.29 66.91 151.42 66.91ZM157.29 62.11C156.57 62.11 156.2 62.73 156.05 63.1C156.04 62.91 156.03 62.66 156.03 62.66L156.01 62.2H155.97H154.84L154.85 62.25C154.88 62.48 154.89 62.78 154.89 63.18V67.98H156.17V64.82C156.17 63.56 156.92 63.46 157.15 63.46C157.26 63.46 157.35 63.48 157.47 63.51L157.53 63.53V62.15L157.43 62.13L157.29 62.11ZM188.79 61.22H190.11V59.78H188.79V61.22ZM187.86 66.67C187.71 66.78 187.33 66.94 187.04 66.94C186.22 66.94 185.74 66.26 185.74 65.11C185.74 63.85 186.15 63.25 186.99 63.25C187.29 63.25 187.57 63.39 187.8 63.52L187.86 63.56L187.94 62.37L187.91 62.36C187.7 62.26 187.25 62.12 186.85 62.12C185.33 62.12 184.42 63.24 184.42 65.11C184.42 66.97 185.31 68.08 186.79 68.08C187.35 68.08 187.78 67.93 187.98 67.85L188.01 67.84L187.93 66.64L187.86 66.67ZM188.81 67.98H190.09V62.2H188.81V67.98ZM193.34 62.11C192.67 62.11 191.12 62.4 191.12 65.08C191.12 67.68 192.51 68.06 193.34 68.06C194.17 68.06 195.56 67.67 195.56 65.08C195.55 62.4 194 62.11 193.34 62.11ZM193.34 67C192.59 67 192.44 65.96 192.44 65.08C192.44 64.21 192.59 63.17 193.34 63.17C193.93 63.17 194.23 63.81 194.23 65.08C194.23 66.36 193.93 67 193.34 67ZM173.3 67.98H174.58V62.2H173.3V67.98ZM173.28 61.22H174.6V59.78H173.28V61.22ZM183.48 66.93V64.45C183.48 63.05 183.15 62.12 181.54 62.12C180.76 62.12 180.28 62.38 179.96 62.55L179.93 62.56L180.01 63.79L180.08 63.72C180.29 63.52 180.8 63.18 181.4 63.18C182.19 63.18 182.28 63.9 182.28 64.22V64.38H182.09C180.86 64.38 179.44 64.6 179.44 66.36C179.44 67.49 180.21 68.07 180.96 68.07C181.66 68.07 182.04 67.69 182.31 67.28C182.32 67.51 182.33 67.75 182.38 67.95L182.39 67.99H183.55L183.54 67.94C183.52 67.74 183.48 67.35 183.48 66.93ZM182.28 65.47C182.28 66.55 181.99 67.05 181.36 67.05C180.93 67.05 180.65 66.73 180.65 66.22C180.65 65.49 181.11 65.19 182.22 65.19H182.28V65.47ZM178.86 63.43V62.2H175.53V63.33H177.54C177.46 63.47 175.47 66.74 175.47 66.74V67.98H178.93V66.85H176.83C176.9 66.71 178.86 63.43 178.86 63.43ZM198.95 62.11C198.19 62.11 197.83 62.64 197.66 62.97C197.65 62.82 197.64 62.59 197.64 62.59L197.62 62.2H197.57H196.4L196.41 62.25C196.44 62.48 196.45 62.78 196.45 63.18V67.98H197.73V64.62C197.73 64.14 197.83 63.33 198.53 63.33C198.99 63.33 199.16 63.66 199.16 64.52V67.98H200.44V64.26C200.45 62.83 199.95 62.11 198.95 62.11Z" fill="#1C98D6"/>
<path d="M176.61 78V75.65C176.61 74.32 176.3 73.44 174.78 73.44C174.04 73.44 173.58 73.68 173.28 73.84L173.25 73.85L173.32 75.02L173.39 74.95C173.59 74.76 174.07 74.44 174.64 74.44C175.39 74.44 175.47 75.13 175.47 75.42V75.57H175.29C174.12 75.57 172.78 75.78 172.78 77.45C172.78 78.52 173.51 79.07 174.22 79.07C174.88 79.07 175.25 78.71 175.51 78.32C175.51 78.54 175.52 78.76 175.57 78.95L175.58 78.98H176.68L176.67 78.93C176.65 78.77 176.61 78.4 176.61 78ZM175.47 76.62C175.47 77.64 175.19 78.12 174.6 78.12C174.19 78.12 173.93 77.81 173.93 77.34C173.93 76.65 174.36 76.37 175.42 76.37H175.48V76.62H175.47ZM163.26 73.43C162.54 73.43 162.2 73.94 162.04 74.25C162.03 74.11 162.02 73.89 162.02 73.89L162 73.52H161.96H160.86V73.57C160.88 73.78 160.9 74.07 160.9 74.45V79H162.12V75.82C162.12 75.36 162.22 74.6 162.88 74.6C163.31 74.6 163.48 74.92 163.48 75.73V79.01H164.7V75.49C164.69 74.12 164.21 73.43 163.26 73.43ZM152.13 76.95C152.07 76.69 150.85 71.6 150.85 71.6H149.04V79H150.18V73.15C150.31 73.66 151.64 79 151.64 79H152.54C152.54 79 153.94 73.62 154.07 73.14V79H155.21V71.6H153.45C153.44 71.6 152.2 76.69 152.13 76.95ZM159.92 78.06V73.51H158.7V76.64C158.7 77.22 158.57 77.91 157.97 77.91C157.52 77.91 157.34 77.58 157.34 76.78V73.5H156.12V77.02C156.12 78.38 156.6 79.06 157.55 79.06C158.25 79.06 158.57 78.6 158.77 78.23C158.78 78.37 158.79 78.61 158.79 78.61L158.81 78.98H158.85H159.95V78.93C159.93 78.74 159.92 78.45 159.92 78.06ZM170.7 72.59H171.95V71.23H170.7V72.59ZM169.61 78.03V71.06H168.39V74.18C168.24 73.88 167.9 73.44 167.21 73.44C166.17 73.44 165.55 74.5 165.55 76.27C165.55 78.03 166.18 79.09 167.24 79.09C167.81 79.09 168.21 78.81 168.47 78.25C168.48 78.58 168.49 78.84 168.51 78.97V79.01H169.66L169.65 78.96C169.62 78.77 169.61 78.47 169.61 78.03ZM167.54 78.04C166.97 78.04 166.76 77.54 166.76 76.21C166.76 75.04 167.02 74.48 167.56 74.48C168.28 74.48 168.39 75.59 168.39 76.25C168.39 77.06 168.25 78.04 167.54 78.04ZM177.74 79H178.95V71.06H177.74V79ZM170.72 79H171.93V73.52H170.72V79ZM212.03 78V75.65C212.03 74.32 211.72 73.44 210.19 73.44C209.45 73.44 208.99 73.68 208.69 73.84L208.66 73.85L208.73 75.02L208.8 74.95C209 74.76 209.48 74.44 210.05 74.44C210.8 74.44 210.88 75.13 210.88 75.42V75.57H210.7C209.53 75.57 208.19 75.78 208.19 77.45C208.19 78.52 208.92 79.07 209.63 79.07C210.29 79.07 210.65 78.71 210.91 78.32C210.91 78.54 210.92 78.76 210.97 78.95L210.98 78.98H212.08L212.07 78.93C212.07 78.72 212.03 78.37 212.03 78ZM210.89 76.62C210.89 77.64 210.61 78.12 210.02 78.12C209.61 78.12 209.35 77.81 209.35 77.34C209.35 76.65 209.78 76.37 210.84 76.37H210.89V76.62ZM219.25 78.06V73.51H218.03V76.64C218.03 77.22 217.9 77.91 217.3 77.91C216.86 77.91 216.67 77.58 216.67 76.78V73.5H215.46V77.02C215.46 78.38 215.94 79.06 216.88 79.06C217.58 79.06 217.9 78.6 218.11 78.24C218.12 78.38 218.13 78.62 218.13 78.62L218.15 78.98H218.19H219.3L219.29 78.93C219.26 78.73 219.25 78.44 219.25 78.06ZM213.15 79H214.36V71.06H213.15V79ZM224.2 78.95C224.18 78.77 224.16 78.48 224.16 78.04V71.07H222.94V74.19C222.79 73.89 222.45 73.45 221.76 73.45C220.72 73.45 220.1 74.51 220.1 76.28C220.1 78.04 220.73 79.1 221.79 79.1C222.36 79.1 222.76 78.82 223.02 78.26C223.02 78.59 223.04 78.85 223.06 78.98L223.07 79.02H224.21L224.2 78.95ZM222.1 78.04C221.53 78.04 221.32 77.54 221.32 76.21C221.32 75.04 221.58 74.48 222.12 74.48C222.84 74.48 222.95 75.59 222.95 76.25C222.95 77.06 222.8 78.04 222.1 78.04ZM189.24 73.43C188.08 73.43 187.27 74.62 187.27 76.33C187.27 77.66 187.85 79.07 189.48 79.07C190.18 79.07 190.68 78.83 190.9 78.72L190.92 78.71L190.86 77.57L190.79 77.63C190.54 77.84 190.22 78.04 189.59 78.04C188.82 78.04 188.46 77.6 188.45 76.65H191.16V76.35C191.16 73.94 190.12 73.43 189.24 73.43ZM188.45 75.75C188.46 75.12 188.67 74.4 189.24 74.4C189.84 74.4 189.97 75.12 189.98 75.75H188.45ZM194.52 79.01H195.73V70.97H194.52V79.01ZM186.39 78.03V71.06H185.18V74.18C185.03 73.88 184.69 73.44 184 73.44C182.96 73.44 182.34 74.5 182.34 76.27C182.34 78.03 182.97 79.09 184.03 79.09C184.6 79.09 185 78.81 185.26 78.25C185.26 78.58 185.28 78.84 185.29 78.97L185.3 79.01H186.44L186.43 78.96C186.41 78.77 186.39 78.47 186.39 78.03ZM184.33 78.04C183.76 78.04 183.55 77.54 183.55 76.21C183.55 75.04 183.81 74.48 184.35 74.48C185.07 74.48 185.18 75.59 185.18 76.25C185.18 77.06 185.03 78.04 184.33 78.04ZM206.41 74.85L205.73 74.41C205.38 74.18 205.08 73.99 205.08 73.46C205.08 72.95 205.39 72.65 205.92 72.65C206.41 72.65 206.75 72.81 207.03 72.93L207.16 72.99L207.22 71.77L207.13 71.74C206.91 71.66 206.46 71.5 205.85 71.5C204.83 71.5 203.81 72.13 203.81 73.53C203.81 74.41 204.14 75.03 204.86 75.48L205.45 75.86C206 76.21 206.26 76.43 206.26 76.93C206.26 77.68 205.78 77.94 205.34 77.94C204.67 77.94 204.16 77.6 204.02 77.5L203.95 77.45L203.88 78.75L203.9 78.76C204.22 78.98 204.72 79.09 205.37 79.09C206.73 79.09 207.54 78.25 207.54 76.85C207.52 75.78 207.13 75.32 206.41 74.85ZM200.42 78V75.65C200.42 74.32 200.11 73.44 198.59 73.44C197.85 73.44 197.39 73.68 197.09 73.84L197.06 73.85L197.13 75.02L197.2 74.95C197.4 74.76 197.88 74.44 198.45 74.44C199.2 74.44 199.28 75.13 199.28 75.42V75.57H199.1C197.93 75.57 196.59 75.78 196.59 77.45C196.59 78.52 197.32 79.07 198.03 79.07C198.69 79.07 199.05 78.71 199.32 78.32C199.32 78.54 199.33 78.76 199.38 78.95L199.39 78.98H200.49L200.48 78.93C200.46 78.77 200.42 78.4 200.42 78ZM199.27 76.62C199.27 77.64 198.99 78.12 198.4 78.12C197.99 78.12 197.72 77.81 197.72 77.34C197.72 76.65 198.15 76.37 199.21 76.37H199.27V76.62Z" fill="#1C98D6"/>
<path d="M114.92 89.05C115.41 89.05 115.86 89.51 115.86 90.58C115.86 91.65 115.41 92.11 114.92 92.11C114.43 92.11 113.97 91.65 113.97 90.58C113.97 89.51 114.43 89.05 114.92 89.05ZM114.92 91.69C115.19 91.69 115.42 91.4 115.42 90.58C115.42 89.76 115.2 89.47 114.92 89.47C114.64 89.47 114.42 89.76 114.42 90.58C114.42 91.4 114.64 91.69 114.92 91.69Z" fill="#1C98D6"/>
<path d="M116.19 89.1H117.39V89.53H116.63V90.34H117.36V90.77H116.63V92.07H116.19V89.1Z" fill="#1C98D6"/>
<path d="M118.13 89.1H117.69V92.07H118.13V89.1Z" fill="#1C98D6"/>
<path d="M120.06 92C119.97 92.06 119.76 92.11 119.54 92.11C118.82 92.11 118.45 91.45 118.45 90.58C118.45 89.71 118.82 89.05 119.53 89.05C119.77 89.05 119.97 89.13 120.06 89.17L120.04 89.66C119.95 89.6 119.81 89.5 119.59 89.5C119.23 89.5 118.92 89.81 118.92 90.58C118.92 91.35 119.23 91.66 119.59 91.66C119.8 91.66 119.94 91.6001 120.04 91.5101L120.06 92Z" fill="#1C98D6"/>
<path d="M120.8 89.1H120.36V92.07H120.8V89.1Z" fill="#1C98D6"/>
<path d="M121.21 89.1H121.73L122.52 91.43H122.53V89.1H122.92V92.07H122.4L121.61 89.75V92.07H121.21V89.1Z" fill="#1C98D6"/>
<path d="M124.53 91.35H123.71L123.54 92.07H123.1L123.9 89.1H124.38L125.15 92.07H124.7L124.53 91.35ZM124.44 90.94L124.14 89.55H124.13L123.8 90.94H124.44Z" fill="#1C98D6"/>
<path d="M126.11 89.1H126.85C127.27 89.1 127.56 89.34 127.56 89.88C127.56 90.27 127.37 90.53 127.1 90.58V90.59C127.19 90.61 127.29 90.66 127.36 90.93L127.67 92.06H127.21L126.97 91.09C126.91 90.86 126.8 90.78 126.64 90.78H126.54V92.06H126.11V89.1ZM126.73 90.39C126.96 90.39 127.12 90.24 127.12 89.94C127.12 89.6 126.98 89.52 126.73 89.52H126.55V90.4H126.73V90.39Z" fill="#1C98D6"/>
<path d="M127.94 89.1H129.19V89.53H128.38V90.32H129.15V90.76H128.38V91.63H129.23V92.07H127.94V89.1Z" fill="#1C98D6"/>
<path d="M130.51 90.4001H131.28V91.9601C131.16 92.0401 130.94 92.11 130.63 92.11C129.87 92.11 129.46 91.46 129.46 90.58C129.46 89.7 129.86 89.05 130.63 89.05C130.9 89.05 131.12 89.1301 131.21 89.1801L131.19 89.67C131.05 89.56 130.86 89.4901 130.64 89.4901C130.18 89.4901 129.93 89.97 129.93 90.58C129.93 91.25 130.17 91.6801 130.62 91.6801C130.72 91.6801 130.82 91.6501 130.87 91.6201V90.8201H130.51V90.4001Z" fill="#1C98D6"/>
<path d="M132.13 89.1H131.69V92.07H132.13V89.1Z" fill="#1C98D6"/>
<path d="M133.4 89.05C133.89 89.05 134.35 89.51 134.35 90.58C134.35 91.65 133.9 92.11 133.4 92.11C132.91 92.11 132.45 91.65 132.45 90.58C132.45 89.51 132.91 89.05 133.4 89.05ZM133.4 91.69C133.67 91.69 133.89 91.4 133.89 90.58C133.89 89.76 133.67 89.47 133.4 89.47C133.12 89.47 132.9 89.76 132.9 90.58C132.9 91.4 133.12 91.69 133.4 91.69Z" fill="#1C98D6"/>
<path d="M134.67 89.1H135.18L135.97 91.43H135.98V89.1H136.38V92.07H135.85L135.07 89.75H135.06V92.07H134.67V89.1Z" fill="#1C98D6"/>
<path d="M137.98 91.35H137.16L136.99 92.07H136.56L137.36 89.1H137.84L138.61 92.07H138.16L137.98 91.35ZM137.89 90.94L137.59 89.55H137.58L137.25 90.94H137.89Z" fill="#1C98D6"/>
<path d="M138.77 89.1H139.2V91.63H139.99V92.07H138.77V89.1Z" fill="#1C98D6"/>
<path d="M140.99 89.1H141.67C142.16 89.1 142.42 89.44 142.42 90C142.42 90.56 142.16 90.91 141.67 90.91H141.42V92.07H140.98V89.1H140.99ZM141.6 90.49C141.87 90.49 141.99 90.32 141.99 90C141.99 89.68 141.87 89.52 141.6 89.52H141.44V90.49H141.6Z" fill="#1C98D6"/>
<path d="M143.64 91.35H142.82L142.65 92.07H142.22L143.02 89.1H143.5L144.27 92.07H143.82L143.64 91.35ZM143.54 90.94L143.24 89.55H143.23L142.9 90.94H143.54Z" fill="#1C98D6"/>
<path d="M144.42 89.1H145.16C145.58 89.1 145.87 89.34 145.87 89.88C145.87 90.27 145.68 90.53 145.41 90.58V90.59C145.5 90.61 145.6 90.66 145.67 90.93L145.98 92.06H145.52L145.28 91.09C145.22 90.86 145.11 90.78 144.95 90.78H144.85V92.06H144.42V89.1ZM145.03 90.39C145.26 90.39 145.42 90.24 145.42 89.94C145.42 89.6 145.28 89.52 145.03 89.52H144.85V90.4H145.03V90.39Z" fill="#1C98D6"/>
<path d="M147.44 91.35H146.62L146.45 92.07H146.01L146.81 89.1H147.29L148.06 92.07H147.61L147.44 91.35ZM147.35 90.94L147.05 89.55H147.04L146.71 90.94H147.35Z" fill="#1C98D6"/>
<path d="M149.03 89.1H149.46V91.63H150.25V92.07H149.03V89.1Z" fill="#1C98D6"/>
<path d="M151.67 91.35H150.85L150.68 92.07H150.24L151.04 89.1H151.52L152.29 92.07H151.84L151.67 91.35ZM151.57 90.94L151.27 89.55H151.26L150.93 90.94H151.57Z" fill="#1C98D6"/>
<path d="M152.44 91.4901C152.52 91.5601 152.71 91.67 152.94 91.67C153.13 91.67 153.3 91.5401 153.3 91.2401C153.3 91.0301 153.2 90.9301 152.99 90.7901L152.77 90.64C152.54 90.48 152.38 90.25 152.38 89.86C152.38 89.33 152.73 89.05 153.13 89.05C153.38 89.05 153.56 89.13 153.63 89.16L153.61 89.6201C153.5 89.5701 153.36 89.4901 153.16 89.4901C152.94 89.4901 152.83 89.6301 152.83 89.8401C152.83 90.0601 152.95 90.1501 153.08 90.2401L153.34 90.42C153.62 90.62 153.75 90.8 153.75 91.22C153.75 91.82 153.41 92.11 152.95 92.11C152.71 92.11 152.53 92.0701 152.41 91.9801L152.44 91.4901Z" fill="#1C98D6"/>
<path d="M140.23 62.58C140.84 63.31 141.91 63.74 142.54 64.47C142.09 62.31 140.42 60.54 138.45 60.12C139.41 60.85 139.62 61.86 140.23 62.58ZM116.5 68.07C117.86 65.11 119.89 65.74 120.75 62.92C120.26 63.79 118.05 64.15 117.02 66.37C117.55 65.05 117.28 63.04 118.17 61.95C115.51 63.9 116.65 67.07 116.5 68.07ZM118.97 75.16C119.21 76.31 118.5 77.98 119.64 79.57C118.46 78.25 115.96 77.91 114.94 75.9C116.21 80.82 119.53 79.8 121.03 80.87C119.79 79.1 120.8 77.92 118.97 75.16ZM118.58 78.25C117.84 75.5 119.15 74.55 118.16 71.92C118.06 73.41 117.07 74.13 117.73 76.85C116.55 74.55 114.73 73.69 114.2 72.11C114.24 76.42 117.71 77.06 118.58 78.25ZM123.91 82.86C122.89 81.45 123.59 80.65 120.72 78.08C121.33 79.02 120.7 80.2 122.63 82.03C120.74 80.91 118.13 81.39 116.87 79.9C119.03 84.03 122.83 82.34 123.91 82.86ZM137.78 82.03C139.71 80.2 139.09 79.02 139.7 78.08C136.83 80.65 137.53 81.45 136.51 82.86C137.59 82.35 141.39 84.04 143.55 79.9C142.28 81.39 139.67 80.91 137.78 82.03ZM140.78 79.57C141.92 77.98 141.2 76.32 141.44 75.16C139.61 77.92 140.62 79.1 139.38 80.87C140.88 79.8 144.2 80.81 145.47 75.9C144.45 77.91 141.96 78.25 140.78 79.57ZM136.2 83.05C135.08 82.75 133.92 82.6 133.07 82.58C132 82.55 131.04 82.76 130.21 83.07C129.38 82.76 128.42 82.56 127.35 82.58C126.49 82.6 125.34 82.75 124.21 83.05C122.49 83.51 120.99 83.87 119.7 83.21C120.94 84.31 122.4 84.71 124.5 84.48C126.25 84.29 127.66 83.42 129.31 83.43C129.33 83.43 129.35 83.43 129.37 83.43C127.63 84.31 126.65 85.54 126.65 85.54L127.45 85.65C127.45 85.65 128.29 83.97 130.21 83.53C132.13 83.97 132.97 85.65 132.97 85.65L133.77 85.54C133.77 85.54 132.79 84.31 131.05 83.43C131.07 83.43 131.09 83.43 131.12 83.43C132.77 83.42 134.18 84.29 135.92 84.48C138.02 84.71 139.47 84.31 140.72 83.21C139.41 83.87 137.92 83.51 136.2 83.05ZM118.28 68.94C117.57 70.3 116.46 70.62 116.58 73.43C115.98 70.93 114.56 70 114.58 68.4C113.59 72.57 116.24 73.07 116.92 74.82C116.82 72.31 118.41 71.81 118.28 68.94ZM119.27 65.72C119.02 66.07 118.85 66.21 118.19 66.76C117.29 67.5 116.57 68.47 116.27 69.9C116.34 68.37 115.39 66.17 116.02 64.57C113.59 68.01 116.16 70.06 116.25 71.31C116.88 68.91 118.33 68.89 119.27 65.72ZM144.14 69.89C143.84 68.47 143.12 67.49 142.22 66.75C141.56 66.21 141.39 66.06 141.14 65.71C142.08 68.88 143.53 68.9 144.16 71.29C144.25 70.05 146.82 67.99 144.39 64.55C145.02 66.16 144.07 68.36 144.14 69.89ZM146.2 72.11C145.67 73.69 143.85 74.54 142.67 76.85C143.34 74.13 142.35 73.41 142.24 71.92C141.25 74.56 142.56 75.51 141.82 78.25C142.7 77.06 146.17 76.42 146.2 72.11ZM142.13 68.94C141.99 71.81 143.59 72.31 143.49 74.82C144.17 73.07 146.82 72.58 145.83 68.4C145.85 70 144.43 70.93 143.83 73.43C143.95 70.62 142.84 70.3 142.13 68.94ZM120.18 62.58C120.79 61.85 121 60.85 121.96 60.12C119.98 60.54 118.31 62.31 117.87 64.47C118.49 63.74 119.56 63.31 120.18 62.58ZM139.66 62.91C140.52 65.73 142.55 65.1 143.91 68.06C143.77 67.07 144.9 63.89 142.24 61.93C143.13 63.02 142.87 65.03 143.39 66.35C142.36 64.14 140.14 63.78 139.66 62.91ZM132.77 64.52C132.26 64.31 131.72 64.16 131.15 64.08C131.15 64.2 131.15 64.32 131.14 64.44C131.66 64.52 132.16 64.65 132.63 64.85C132.7 64.75 132.74 64.64 132.77 64.52ZM132.36 61.03L132.47 60.93L132.26 60.84L131.72 60.83L131.58 60.93L131.26 60.9V60.98C131.46 60.99 131.66 61.01 131.82 61.04L132.08 61.02L132.36 61.03ZM131.31 72.73C131.31 72.64 131.19 72.55 131.01 72.46H130.98C130.98 72.54 130.97 72.9 130.97 73.08C131.18 72.98 131.31 72.87 131.31 72.73ZM125.02 65.83C125.03 65.76 125.05 65.7 125.07 65.63C125 65.64 124.92 65.65 124.85 65.65L125.02 65.83ZM130.22 81.8C136.33 81.8 141.29 76.83 141.29 70.73C141.29 65.01 136.92 60.28 131.34 59.72C131.34 59.74 131.33 59.76 131.33 59.78C131.31 59.89 131.29 59.98 131.27 60.07C133.77 60.31 136.02 61.42 137.72 63.09L136.5 64.31L136.54 64.1L136.38 64.03L136.16 64.02L136.21 63.88L136.06 63.38L135.76 63.05L134.8 62.55L134.72 62.64L134.55 62.69C134.88 63.17 135.06 63.73 135.06 64.3C135.06 64.37 135.06 64.45 135.05 64.52L135.52 65.12L135.3 65.17L135.45 65.39L135.03 65.81L134.86 65.49C134.78 65.71 134.67 65.92 134.54 66.11C134.57 66.14 134.6 66.17 134.63 66.2L133.34 67.49C133.26 67.42 133.18 67.34 133.1 67.28C132.98 67.34 132.85 67.39 132.72 67.44C132.76 67.47 132.79 67.49 132.83 67.52L132.76 67.59L132.61 67.67L132.55 67.82L132.46 67.73L132.19 67.82L132.26 67.94L132.45 67.89L132.57 67.9L132.58 67.83L132.68 67.78L132.71 67.72L132.88 67.67L133.01 67.66C133.04 67.68 133.06 67.71 133.09 67.73L132.58 68.24L132.54 68.19L132.01 68.28L131.89 68.4L131.77 68.41L132.1 68.09L131.98 68.03L131.67 68.45L131.76 68.44L131.75 68.59L131.86 68.63L131.88 68.79L131.7 68.75L131.51 68.79L131.04 68.55C131.04 68.55 131.01 69.81 131 70.44C132.1 70.81 133.28 71.35 133.28 72.76C133.28 73.38 133.01 73.88 132.49 74.25C132.48 74.26 132.48 74.26 132.47 74.26C132.46 74.27 132.44 74.28 132.43 74.28C131.98 74.57 131.41 74.73 130.91 74.89L130.9 75.88C131.69 76.27 132.65 76.85 132.57 78.48C132.56 78.88 132.4 79 132.27 79.03C131.81 79.14 131.33 79.22 130.84 79.26C130.84 79.39 130.83 79.51 130.83 79.62C132.96 79.47 134.89 78.57 136.35 77.18L137.64 78.47C135.71 80.32 133.1 81.46 130.22 81.46C127.36 81.46 124.76 80.33 122.83 78.5L124.12 77.22C125.56 78.58 127.46 79.47 129.56 79.62C129.56 79.51 129.55 79.39 129.55 79.26C127.55 79.11 125.75 78.26 124.37 76.96L124.71 76.62L125.18 76.67L125.43 76.4L126.09 76.42L126.19 76.19L126.17 76.09C127.12 76.81 128.27 77.29 129.52 77.42C129.52 77.28 129.51 77.16 129.51 77.06C128.13 76.91 126.88 76.31 125.91 75.41L127.2 74.12C127.51 74.4 127.86 74.63 128.24 74.82C128.27 74.7 128.31 74.58 128.37 74.48C128.04 74.31 127.73 74.11 127.45 73.86L128.74 72.57C128.95 72.74 129.18 72.87 129.43 72.95C129.43 72.82 129.42 72.69 129.42 72.56C129.27 72.49 129.12 72.41 128.99 72.31L129.35 71.95C129.22 71.91 129.09 71.87 128.96 71.83L128.72 72.07C128.6 71.93 128.49 71.78 128.41 71.61C128.19 71.51 127.97 71.4 127.77 71.27C126.98 70.75 126.58 70.01 126.58 69.09C126.58 68.38 126.78 67.84 127.1 67.43L125.82 66.15C126.74 65.27 127.93 64.66 129.25 64.46C129.25 64.33 129.24 64.21 129.24 64.1C127.82 64.3 126.55 64.95 125.56 65.9L125.34 65.68C125.29 65.77 125.23 65.88 125.17 66.01L125.31 66.15C124.21 67.33 123.52 68.9 123.49 70.63H121.67C121.7 68.4 122.59 66.37 124.02 64.86L124.6 65.44C124.63 65.44 124.65 65.44 124.68 65.44C124.78 65.43 124.9 65.4 125.01 65.34L124.28 64.6C124.67 64.23 125.09 63.89 125.55 63.59C125.59 63.47 125.62 63.36 125.64 63.32C125.66 63.28 125.78 63.12 125.92 62.95C125.23 63.33 124.59 63.8 124.03 64.35L122.74 63.06C124.43 61.42 126.65 60.33 129.12 60.08C129.11 60.04 129.1 60 129.1 60C129.08 59.91 129.06 59.82 129.05 59.72C123.49 60.3 119.13 65.02 119.13 70.73C119.15 76.83 124.11 81.8 130.22 81.8ZM137.97 63.34C139.78 65.24 140.9 67.8 140.93 70.62H139.11C139.09 69.22 138.75 67.91 138.16 66.74L138.18 66.71L138.31 66.78L138.34 66.68L138.01 66.11L137.63 65.58L137.18 65.2C137.03 65.01 136.86 64.82 136.69 64.64L137.97 63.34ZM135.65 65.67L136.09 65.69L136.19 65.82L136.14 66L136.74 66.38L136.86 66.36L137.64 67.25L137.96 67.14C138.45 68.2 138.73 69.37 138.75 70.61H136.93C136.92 70.13 136.86 69.67 136.76 69.23L136.84 69.12L136.95 68.55L136.87 67.94L136.65 67.24L136.14 66.5L136.26 66.57L136.32 66.51L135.91 66.24L135.88 66.33L136.29 66.91L136.52 67.39L136.68 67.86L136.73 68.18L136.82 68.71L136.67 68.72C136.67 68.72 136.5 68.39 136.44 68.26L136.52 68.14L136.36 67.92V67.7L136.25 67.56L136.11 67.58C136.06 67.49 136.01 67.4 135.96 67.31L136.06 67.36L136.09 67.33L136.04 67.22L136.16 67.15L136.11 67.08L135.93 67.15L135.99 66.87L135.89 66.81L135.8 67.03C135.6 66.73 135.38 66.45 135.14 66.19L135.65 65.67ZM135.28 69.93L135.61 69.75L135.94 69.7L136.01 69.54L136.19 69.43L136.26 69.28L136.32 69.01C136.35 69.1 136.37 69.2 136.39 69.3L136.21 69.83L136.2 70.01L136.46 69.67C136.51 69.98 136.54 70.3 136.55 70.63H134.95L134.91 70.49L135.09 70.34L135.13 70.25L135.21 70.19L135.42 70.17L135.44 70.07L135.28 69.93ZM133.1 68.68L133.26 68.64L133.25 68.6L133.09 68.49L133.15 68.15L133.34 67.96C133.46 68.1 133.58 68.24 133.68 68.4L133.61 68.61L133.43 68.48L133.29 68.52L133.36 68.64H133.43L133.36 68.82L133.31 68.75L133.1 68.68ZM133.8 74.72L133.41 74.61L133.29 74.65L133.07 74.48L132.86 74.4C132.96 74.33 133.06 74.25 133.16 74.17L133.48 74.4L133.73 74.53L133.85 74.65L133.8 74.72ZM133.6 67.71L134.89 66.42C135.19 66.75 135.46 67.1 135.69 67.49L135.53 67.53L135.54 67.82L136.02 68.12C136.14 68.38 136.24 68.65 136.32 68.94L136.24 69.06L136.07 69.17L136.03 69.44L135.91 69.51L135.81 69.63L135.71 69.59L135.53 69.58L135.63 69.44L135.7 69.08L135.82 69.01L135.47 68.68L135.21 68.77L135.15 69.01L134.99 69.19L134.82 69.05L134.76 68.9L134.86 68.84L134.91 68.94L134.99 68.91L134.96 68.74L134.85 68.73L134.84 68.8L134.77 68.82L134.37 68.35L134.23 68.25L134.28 68.19L134.4 68.15L134.29 68.11C134.29 68.11 134.15 68.14 134.13 68.14L134.21 68.24L134.01 68.23C133.88 68.04 133.74 67.87 133.6 67.71ZM134.25 74.55L134.07 74.38L134.21 74.21L134.38 73.87L134.31 73.77L134.42 73.52L134.41 73.29L134.34 73.05L134.18 72.99L134.12 73.13L134.03 73.1C134.17 72.88 134.31 72.68 134.41 72.44L134.57 72.37L134.66 72.25L134.71 72.3L134.82 72.17L134.73 72.06L134.81 72.04L134.96 72.1L135.24 72.11L135.41 72.02L135.86 71.9L135.78 71.75L135.75 71.57L135.99 71.68L136.08 71.63L136.04 71.45L135.75 71.56L135.43 71.49L135.19 70.99H136.58C136.52 72.59 135.86 74.04 134.82 75.13L134.63 74.94L134.71 74.68L134.56 74.12L134.25 74.55ZM134.5 78.1L134.67 77.73L134.6 77.57L134.85 77.35V77.22L134.63 77.09L134.81 76.73L135.08 76.38L134.81 76.09H134.61L134.49 75.89C134.6 75.8 134.7 75.71 134.8 75.61L136.09 76.9C135.61 77.36 135.08 77.77 134.5 78.1ZM136.1 76.4L136.24 76.24L136.11 75.54L136.02 75.5L136.08 75.38L135.78 75.28L135.72 75.53L135.69 75.85L135.63 75.91L135.08 75.36C136.18 74.21 136.88 72.67 136.94 70.97H138.76C138.7 73.17 137.8 75.17 136.36 76.65L136.1 76.4ZM136.6 76.91C138.1 75.36 139.04 73.28 139.1 70.98H140.92C140.85 73.78 139.71 76.32 137.88 78.2L136.6 76.91ZM125.65 75.14C125.52 75 125.39 74.86 125.27 74.71L125.32 74.25L125.13 73.81L125.08 73.12L124.87 72.7L124.92 72.44L124.66 71.94L124.43 71.83L124.52 71.57L124.42 71.36L124.52 71.12H124.77L124.86 70.98H125.28L125.35 71.1L125.27 71.53L125.22 71.6L125.38 71.95L125.28 72.01L125.21 71.92L125.18 71.96L125.25 72.17L125.37 72.41L125.43 72.4L125.46 72.18L125.4 72.1L125.39 71.95L125.37 71.65L125.46 71.12L125.37 70.98H125.68C125.74 72.09 126.21 73.1 126.93 73.86L125.65 75.14ZM124.45 71.59L124.28 71.86H123.99L123.97 71.84C123.92 71.56 123.89 71.27 123.88 70.98H124.43L124.3 71.42L124.45 71.59ZM125.05 70.34L125.08 69.98L125.3 69.86L125.69 69.93L125.75 70C125.72 70.2 125.7 70.41 125.69 70.63H125.25L125.05 70.34ZM126.9 71.7L126.99 71.65L127.23 71.83L127.13 71.91L127.4 72.09L127.38 71.9L127.52 71.66L127.67 71.82L127.82 72.04L127.55 72.1L127.67 72.35L127.86 72.25L127.84 72.17L127.98 72.07L128.06 71.67C128.17 71.91 128.31 72.12 128.48 72.31L127.2 73.6C126.59 72.95 126.17 72.12 126.07 71.18L126.33 71.46H126.58L126.9 71.7ZM125.58 66.39L126.87 67.68C126.6 67.98 126.37 68.3 126.19 68.66L126.1 68.65L125.92 68.71H125.86L125.67 68.89L125.91 68.85L126.13 68.8C126.12 68.83 126.1 68.85 126.09 68.88L125.9 69H125.81L125.53 69.21L125.26 69.19L124.86 69.93L124.94 70.08L124.72 70.32L124.69 70.63H123.88C123.89 68.98 124.54 67.5 125.58 66.39ZM123.92 76.09L124.33 76.33L124.41 76.39L124.12 76.69C123.98 76.55 123.85 76.4 123.72 76.25L123.92 76.09ZM123.51 70.97C123.52 71.15 123.53 71.32 123.55 71.49L123.33 71.54L123.29 71.77L122.83 72.36L122.84 73.17L122.36 73.33H122.1C121.86 72.58 121.72 71.79 121.69 70.97H123.51ZM121.71 73.33L121.6 73.31L121.5 73.2L120.99 73.16L121.15 73.37L120.68 73.28L120.8 73.17L120.68 73.06L120.34 73.21L120.22 73.44L120.27 73.96L120.66 74.9L120.85 75.2L120.96 75.24L120.66 74.68L120.6 74.39L120.67 74.32L120.63 74.16L120.81 74.18L121.08 74.6L121.15 74.63L121.14 74.33L121.25 74.4L121.27 74.56L121.56 74.64L121.68 74.55L121.72 74.58V74.8L121.85 74.96L122 74.99L122.34 75.56L122.54 75.62L122.6 75.35C122.96 75.94 123.38 76.48 123.86 76.97L122.57 78.26C120.73 76.38 119.57 73.83 119.5 71.01H121.32C121.35 71.79 121.48 72.58 121.71 73.33ZM122.5 63.31L123.79 64.6C122.29 66.17 121.36 68.29 121.33 70.62H119.51C119.53 67.78 120.67 65.21 122.5 63.31ZM135.67 62.64L135.56 62.46L135.32 62.34L135.13 62.48L135.37 62.61L135.64 62.8L135.67 62.64ZM134.56 67.78L134.57 67.92L134.89 67.82L134.99 67.63L134.77 67.35L134.89 67.18L135.18 67.39L135.23 67.35L135.17 67.31L135.1 67.19L135.22 67.12L135.1 66.97L134.82 67.11L134.72 67.28L134.67 67.43L134.79 67.63L134.75 67.73L134.56 67.78ZM121.41 75.94L121.43 75.86L121.27 75.5L121.08 75.43L121.41 75.94ZM128.85 69.1C128.85 69.41 129.04 69.62 129.37 69.81C129.37 69.81 129.37 69.76 129.37 69.67L129.16 69.46L129.27 69.26L129.36 69.23C129.35 68.87 129.35 68.48 129.34 68.42H129.32C129.02 68.59 128.85 68.8 128.85 69.1Z" fill="#1C98D6"/>
<path d="M130.88 76.99C131.45 77.28 131.98 77.68 132.2 78.44C132.3 77.18 131.6 76.64 130.9 76.28C130.9 76.27 130.88 76.99 130.88 76.99Z" fill="#1C98D6"/>
<path d="M134.67 64.27C134.67 63.13 133.84 61.87 131.82 61.42C131.67 61.39 131.44 61.36 131.2 61.35C131.19 61.52 131.19 61.91 131.19 61.91C131.19 62.03 131.18 62.49 131.17 62.59C131.36 62.61 131.5 62.63 131.56 62.65C132.73 62.93 133.16 63.6 133.16 64.27C133.16 65.35 132.24 65.76 131.1 66.07C130.98 66.1 130.85 66.14 130.72 66.17C130.37 66.26 130.02 66.34 129.67 66.43C129.55 66.46 129.42 66.5 129.3 66.54C128.04 66.92 126.96 67.53 126.96 69.09C126.96 70.63 128.19 71.2 129.4 71.58C129.39 71.14 129.38 70.69 129.37 70.25C128.84 70 128.46 69.67 128.46 69.12C128.46 68.58 128.8 68.26 129.32 68.02C129.43 67.97 129.56 67.92 129.69 67.87C129.99 67.77 130.33 67.68 130.68 67.6C130.8 67.57 130.93 67.54 131.06 67.51C132.77 67.08 134.67 66.55 134.67 64.27Z" fill="#1C98D6"/>
<path d="M128.58 75.14C128.58 75.76 129.04 76.1 129.5 76.36C129.5 76.25 129.48 75.29 129.48 75.28C129.49 75.09 129.68 74.9701 129.83 74.9001C130.05 74.8001 130.28 74.7201 130.56 74.6201C130.69 74.5701 130.81 74.5301 130.94 74.4901C131.86 74.2101 132.93 73.8601 132.93 72.7401C132.93 71.6201 132.02 71.1601 131.02 70.8101C131.01 71.1701 131 71.69 130.99 72.05C131.41 72.22 131.69 72.4201 131.69 72.7401C131.69 73.1401 131.26 73.3701 130.96 73.4901C130.83 73.5401 130.64 73.6001 130.59 73.6201C130.34 73.7001 130.08 73.7901 129.83 73.8801C129.7 73.9301 129.57 73.9801 129.46 74.0401C129.02 74.2401 128.57 74.57 128.58 75.14Z" fill="#1C98D6"/>
<path d="M129.2 61.53C128.59 61.7 128.23 61.94 128.09 61.98C127.69 62.11 127.13 62.13 126.55 62.76C126.45 62.87 126.2 63.19 126.02 63.44C125.85 63.69 125.84 64.09 125.71 64.31C125.52 64.62 125.57 64.8 125.57 64.8L125.58 64.81C125.57 64.85 125.54 65.01 125.37 65.2C125.18 65.41 124.92 65.53 124.62 65.48C124.88 65.61 125.25 65.43 125.25 65.43C125.25 65.43 125.18 65.63 125.11 65.95C125.41 65.28 125.68 65.04 125.76 64.97C125.89 65 126.15 64.99 126.64 64.71C127.19 64.39 128.02 63.88 128.26 63.55C128.51 63.2 128.86 62.96 129.24 62.81C129.22 62.34 129.21 61.9 129.2 61.53ZM126.79 63.71L126.5 63.77L126.92 63.12L127.32 63.13L126.79 63.71Z" fill="#1C98D6"/>
<path d="M130.34 75.0601C130.29 75.0801 130.15 75.14 130.06 75.17C129.97 75.2 129.85 75.25 129.85 75.28C129.85 75.29 129.94 80.1101 129.94 80.2101C129.94 81.2001 130.44 81.2101 130.44 80.2101C130.44 80.1401 130.54 74.9901 130.54 74.9901C130.54 74.9901 130.43 75.0301 130.34 75.0601Z" fill="#1C98D6"/>
<path d="M129.82 73.4701C129.98 73.4201 130.13 73.3701 130.28 73.3201C130.39 73.2901 130.49 73.2501 130.59 73.2201C130.6 72.9201 130.68 68.7301 130.7 67.9601C130.32 68.0501 130 68.1401 129.73 68.2401C129.73 68.8201 129.81 73.0101 129.82 73.4701Z" fill="#1C98D6"/>
<path d="M130.24 57.42C128.82 57.42 129.42 59.5201 129.54 60.2101C129.55 60.2401 129.65 64.96 129.68 66.05C129.89 65.99 130.11 65.94 130.32 65.89C130.47 65.85 130.61 65.82 130.75 65.78C130.77 64.74 130.88 60.2301 130.88 60.2001C130.95 59.4601 131.7 57.42 130.24 57.42Z" fill="#1C98D6"/>
<path d="M158.8 90.8701H157.03L156.64 92.3401H155.36L157.24 85.7501H158.7L160.51 92.3401H159.15L158.8 90.8701ZM157.96 87.0101H157.94L157.27 89.7501H158.54L157.96 87.0101Z" fill="#1C98D6"/>
<path d="M165.58 89.3101C165.58 88.7401 165.38 88.5401 165.09 88.5401C164.71 88.5401 164.56 88.8601 164.56 89.2301V92.3501H163.28V89.3201C163.28 88.7001 163.05 88.55 162.84 88.55C162.42 88.55 162.27 88.9701 162.27 89.6001V92.36H161V88.47C161 88 160.99 87.7 160.97 87.44H162.13C162.15 87.66 162.16 87.9301 162.16 88.2601H162.18C162.38 87.7201 162.7 87.36 163.37 87.36C163.98 87.36 164.29 87.6901 164.46 88.1801C164.64 87.7201 164.94 87.36 165.61 87.36C166.54 87.36 166.85 88.15 166.85 89.14V92.36H165.57V89.3101H165.58Z" fill="#1C98D6"/>
<path d="M171.35 90.2701H168.87C168.87 90.8501 169.19 91.3901 169.91 91.3901C170.35 91.3901 170.78 91.2001 171.1 91.0001L171.12 92.1201C170.71 92.3001 170.22 92.4001 169.79 92.4001C168.31 92.4001 167.65 91.3501 167.65 89.8501C167.65 88.5301 168.31 87.3301 169.52 87.3301C169.9 87.3301 171.35 87.3301 171.35 89.9001V90.2701ZM170.18 89.4601C170.18 88.8401 170.04 88.2501 169.52 88.2501C168.86 88.2501 168.86 89.2001 168.86 89.4601H170.18Z" fill="#1C98D6"/>
<path d="M172.1 88.45C172.1 87.98 172.09 87.68 172.07 87.42H173.23C173.24 87.71 173.25 88.02 173.26 88.31H173.28C173.54 87.78 173.72 87.35 174.45 87.35H174.63V88.73C174.49 88.69 174.38 88.67 174.2 88.67C173.46 88.67 173.37 89.43 173.37 90.14V92.34H172.09V88.45H172.1Z" fill="#1C98D6"/>
<path d="M175.29 85.2601H176.57V86.5801H175.29V85.2601ZM175.29 87.4201H176.57V92.3401H175.29V87.4201Z" fill="#1C98D6"/>
<path d="M180.48 92.21C180.11 92.32 179.73 92.42 179.32 92.42C177.69 92.42 177.33 90.83 177.33 89.94C177.33 88.43 178.07 87.35 179.42 87.35C179.84 87.35 180.07 87.47 180.44 87.59L180.38 88.71C180.14 88.61 179.9 88.5 179.63 88.5C178.66 88.5 178.66 89.75 178.66 89.94C178.66 90.98 179.21 91.31 179.7 91.31C179.97 91.31 180.21 91.19 180.44 91.09L180.48 92.21Z" fill="#1C98D6"/>
<path d="M181.38 87.66C181.71 87.54 182.28 87.35 182.74 87.35C184.22 87.35 184.56 88.07 184.56 89.16V90.95C184.56 91.68 184.57 92.01 184.59 92.34H183.42L183.39 91.66H183.37C183.31 91.96 182.82 92.42 182.21 92.42C181.43 92.42 180.91 91.83 180.91 90.93C180.91 89.29 182.55 89.28 183 89.28H183.39C183.39 88.33 182.79 88.33 182.6 88.33C182.28 88.33 181.93 88.42 181.43 88.76L181.38 87.66ZM183.4 89.97C182.89 89.97 182.09 90.01 182.09 90.83C182.09 91.47 182.54 91.47 182.64 91.47C182.75 91.47 183.4 91.45 183.4 90.25V89.97Z" fill="#1C98D6"/>
<path d="M187.95 88.66C187.61 88.5 187.29 88.4001 186.92 88.4001C186.59 88.4001 186.44 88.5901 186.44 88.7601C186.44 89.0601 186.63 89.17 187.32 89.47C187.76 89.66 188.2 89.98 188.2 90.91C188.2 92.01 187.5 92.4301 186.65 92.4301C186.28 92.4301 185.71 92.38 185.27 92.19L185.3 91.0401C185.61 91.2601 186 91.3801 186.35 91.3801C186.95 91.3801 186.99 91.14 186.99 90.92C186.99 90.7 186.66 90.6101 186.11 90.3401C185.66 90.1201 185.23 89.71 185.23 88.83C185.23 88.3 185.55 87.36 186.81 87.36C187.34 87.36 187.77 87.4701 187.98 87.5601L187.95 88.66Z" fill="#1C98D6"/>
<path d="M168.72 86.93L169.43 85.14H170.51L169.43 86.93H168.72Z" fill="#1C98D6"/>
</svg>
