<svg width="224" height="91" viewBox="0 0 224 91" fill="none" xmlns="http://www.w3.org/2000/svg">
<path d="M33.96 44.2599C17.24 44.2599 7.44 36.73 7.44 22.17C7.44 7.84995 17.24 0.0799561 33.96 0.0799561C50.68 0.0799561 60.69 7.84995 60.69 22.17C60.68 36.73 50.68 44.2599 33.96 44.2599ZM33.96 33.9799C41.22 33.9799 41.43 26.76 41.5 22.17C41.43 18.19 40.95 10.36 33.96 10.36C27.17 10.36 26.63 18.19 26.63 22.17C26.62 26.76 27.38 33.9799 33.96 33.9799Z" fill="#1C98D6"/>
<path d="M65.42 0.809937H97.01C104.48 0.809937 114.55 3.98994 114.55 15.4999C114.55 26.6399 106.53 31.2299 96.94 31.2299H83.78V43.5299H65.42V0.809937ZM83.3 21.3099H87.34C91.73 21.3099 96.18 20.5799 96.18 15.7999C96.18 11.2699 91.73 10.7199 87.27 10.7199H83.3V21.3099Z" fill="#1C98D6"/>
<path d="M127.24 0.809937H152.53L169.59 43.5199H150.33L147.18 34.2799H131.69L128.74 43.5199H110.44L127.24 0.809937ZM134.23 23.9999H144.85L139.64 9.98993H139.5L134.23 23.9999Z" fill="#1C98D6"/>
<path d="M210.71 12.5C206.6 11.22 201.73 10.36 196.52 10.36C193.64 10.36 188.64 10.42 188.64 13.18C188.64 18.75 213.79 13.48 213.79 29.95C213.79 41.4 201.11 44.27 190.49 44.27C183.43 44.27 177.61 43.66 170.75 42.25V31.17C175.68 33.01 181.71 33.9799 187.2 33.9799C191.52 33.9799 195.43 33.1899 195.43 31.0399C195.43 25.2899 170.28 30.49 170.28 13.9C170.28 2.14996 183.99 0.0699463 194.88 0.0699463C200.02 0.0699463 205.71 0.619947 210.71 1.53995V12.5Z" fill="#1C98D6"/>
<path d="M165.05 87.75H163.21L162.81 89.22H161.48L163.43 82.64H164.95L166.83 89.22H165.41L165.05 87.75ZM164.17 83.9H164.15L163.45 86.64H164.77L164.17 83.9Z" fill="#1C98D6"/>
<path d="M172.1 86.19C172.1 85.62 171.89 85.42 171.59 85.42C171.2 85.42 171.04 85.74 171.04 86.11V89.22H169.71V86.19C169.71 85.57 169.47 85.42 169.25 85.42C168.81 85.42 168.66 85.84 168.66 86.47V89.22H167.33V85.33C167.33 84.86 167.32 84.56 167.3 84.3H168.51C168.53 84.52 168.54 84.79 168.54 85.12H168.56C168.76 84.58 169.1 84.22 169.8 84.22C170.43 84.22 170.75 84.5499 170.94 85.0399C171.13 84.5799 171.44 84.22 172.14 84.22C173.11 84.22 173.43 85.01 173.43 85.99V89.2H172.1" fill="#1C98D6"/>
<path d="M178.09 87.15H175.51C175.51 87.74 175.84 88.27 176.59 88.27C177.04 88.27 177.5 88.08 177.83 87.88L177.85 89C177.42 89.18 176.92 89.28 176.46 89.28C174.92 89.28 174.24 88.2299 174.24 86.7299C174.24 85.4099 174.93 84.21 176.18 84.21C176.57 84.21 178.08 84.21 178.08 86.78L178.09 87.15ZM176.88 86.34C176.88 85.72 176.74 85.13 176.19 85.13C175.51 85.13 175.51 86.07 175.51 86.34H176.88Z" fill="#1C98D6"/>
<path d="M178.87 85.33C178.87 84.86 178.86 84.56 178.84 84.3H180.05C180.06 84.59 180.07 84.89 180.08 85.19H180.1C180.37 84.66 180.55 84.23 181.32 84.23H181.51V85.61C181.37 85.57 181.25 85.55 181.06 85.55C180.29 85.55 180.19 86.3 180.19 87.02V89.22H178.86" fill="#1C98D6"/>
<path d="M182.19 82.14H183.52V83.46H182.19V82.14ZM182.19 84.3H183.52V89.22H182.19V84.3Z" fill="#1C98D6"/>
<path d="M187.58 89.09C187.19 89.2 186.8 89.3 186.38 89.3C184.69 89.3 184.31 87.72 184.31 86.82C184.31 85.31 185.08 84.24 186.48 84.24C186.92 84.24 187.15 84.36 187.54 84.48L187.47 85.6C187.23 85.5 186.97 85.39 186.69 85.39C185.68 85.39 185.68 86.63 185.68 86.82C185.68 87.86 186.25 88.19 186.76 88.19C187.04 88.19 187.29 88.08 187.53 87.97" fill="#1C98D6"/>
<path d="M188.52 84.54C188.87 84.42 189.45 84.23 189.93 84.23C191.47 84.23 191.82 84.95 191.82 86.04V87.83C191.82 88.56 191.83 88.89 191.85 89.22H190.64L190.61 88.54H190.59C190.53 88.84 190.02 89.29 189.39 89.29C188.58 89.29 188.04 88.7 188.04 87.8C188.04 86.16 189.75 86.15 190.21 86.15H190.61C190.61 85.21 189.99 85.21 189.79 85.21C189.45 85.21 189.09 85.29 188.57 85.64L188.52 84.54ZM190.62 86.85C190.09 86.85 189.26 86.89 189.26 87.71C189.26 88.35 189.72 88.35 189.83 88.35C189.95 88.35 190.62 88.33 190.62 87.14V86.85Z" fill="#1C98D6"/>
<path d="M195.35 85.54C195 85.38 194.67 85.28 194.28 85.28C193.93 85.28 193.78 85.47 193.78 85.64C193.78 85.94 193.98 86.05 194.7 86.35C195.16 86.54 195.62 86.86 195.62 87.78C195.62 88.87 194.89 89.3 194 89.3C193.61 89.3 193.02 89.25 192.56 89.06L192.59 87.91C192.91 88.13 193.32 88.25 193.69 88.25C194.31 88.25 194.35 88 194.35 87.79C194.35 87.57 194.01 87.48 193.43 87.21C192.97 86.99 192.51 86.58 192.51 85.7C192.51 85.17 192.85 84.23 194.15 84.23C194.7 84.23 195.15 84.34 195.37 84.43" fill="#1C98D6"/>
<path d="M223.65 79.64H152.88V80.2599H223.65V79.64Z" fill="#1C98D6"/>
<path d="M143.6 61.14C144.24 61.88 145.37 62.31 146.03 63.05C145.56 60.87 143.8 59.08 141.73 58.66C142.74 59.39 142.95 60.41 143.6 61.14ZM118.68 66.68C120.11 63.69 122.24 64.32 123.14 61.48C122.63 62.35 120.3 62.72 119.22 64.96C119.77 63.63 119.49 61.6 120.43 60.5C117.64 62.47 118.83 65.67 118.68 66.68ZM121.26 73.84C121.52 75 120.76 76.68 121.96 78.29C120.72 76.96 118.1 76.62 117.02 74.59C118.36 79.55 121.85 78.53 123.42 79.61C122.13 77.81 123.19 76.62 121.26 73.84ZM120.86 76.95C120.09 74.18 121.46 73.22 120.42 70.56C120.31 72.06 119.27 72.79 119.97 75.53C118.73 73.21 116.82 72.35 116.26 70.75C116.3 75.11 119.94 75.75 120.86 76.95ZM126.45 81.6C125.38 80.17 126.11 79.37 123.1 76.78C123.74 77.73 123.08 78.91 125.11 80.76C123.12 79.63 120.38 80.11 119.06 78.61C121.33 82.79 125.32 81.09 126.45 81.6ZM141.02 80.77C143.05 78.92 142.39 77.73 143.03 76.79C140.02 79.38 140.75 80.18 139.68 81.61C140.81 81.09 144.8 82.8 147.07 78.62C145.75 80.12 143.01 79.64 141.02 80.77ZM144.17 78.28C145.37 76.68 144.62 75 144.87 73.83C142.95 76.62 144 77.8 142.71 79.59C144.29 78.51 147.77 79.53 149.11 74.57C148.03 76.61 145.41 76.95 144.17 78.28ZM139.36 81.8C138.18 81.5 136.97 81.35 136.07 81.33C134.94 81.3 133.94 81.51 133.07 81.82C132.2 81.51 131.19 81.3 130.07 81.33C129.17 81.35 127.96 81.5 126.78 81.8C124.97 82.26 123.4 82.62 122.04 81.96C123.34 83.07 124.87 83.47 127.08 83.24C128.92 83.05 130.4 82.17 132.13 82.18C132.15 82.18 132.18 82.18 132.2 82.18C130.38 83.06 128.2 84.31 128.2 84.31L129.03 84.42C129.03 84.42 131.06 82.72 133.08 82.28C135.1 82.72 134.83 84.42 134.83 84.42L135.66 84.31C135.66 84.31 135.78 83.06 133.96 82.18C133.98 82.18 134 82.18 134.03 82.18C135.76 82.17 137.24 83.05 139.08 83.24C141.29 83.47 142.81 83.07 144.12 81.96C142.74 82.62 141.17 82.27 139.36 81.8ZM120.54 67.56C119.79 68.94 118.63 69.25 118.76 72.1C118.13 69.58 116.64 68.64 116.66 67.02C115.62 71.23 118.4 71.73 119.11 73.5C119 70.96 120.68 70.45 120.54 67.56ZM121.58 64.3C121.32 64.65 121.14 64.8 120.44 65.35C119.49 66.1 118.74 67.08 118.42 68.52C118.49 66.98 117.5 64.76 118.16 63.14C115.6 66.61 118.31 68.69 118.4 69.94C119.07 67.52 120.6 67.5 121.58 64.3ZM147.7 68.52C147.38 67.09 146.63 66.1 145.68 65.35C144.99 64.8 144.8 64.65 144.54 64.3C145.53 67.5 147.05 67.52 147.71 69.94C147.81 68.68 150.51 66.61 147.95 63.14C148.62 64.76 147.63 66.98 147.7 68.52ZM149.87 70.75C149.31 72.34 147.4 73.21 146.16 75.53C146.86 72.79 145.82 72.06 145.71 70.56C144.67 73.22 146.04 74.18 145.27 76.95C146.19 75.75 149.83 75.11 149.87 70.75ZM145.59 67.56C145.45 70.45 147.13 70.96 147.02 73.49C147.73 71.73 150.51 71.23 149.47 67.01C149.49 68.62 147.99 69.56 147.37 72.09C147.5 69.25 146.34 68.93 145.59 67.56ZM122.53 61.14C123.17 60.41 123.39 59.39 124.4 58.66C122.33 59.08 120.57 60.87 120.1 63.05C120.77 62.31 121.89 61.88 122.53 61.14ZM142.99 61.48C143.89 64.33 146.03 63.69 147.45 66.68C147.3 65.68 148.49 62.48 145.7 60.5C146.63 61.6 146.36 63.63 146.91 64.96C145.83 62.72 143.5 62.35 142.99 61.48ZM135.76 63.09C135.22 62.88 134.65 62.73 134.06 62.65C134.06 62.77 134.06 62.89 134.05 63.01C134.6 63.09 135.12 63.23 135.62 63.43C135.68 63.33 135.73 63.22 135.76 63.09ZM135.32 59.57L135.43 59.47L135.21 59.38L134.64 59.37L134.49 59.47L134.15 59.44V59.52C134.36 59.53 134.57 59.55 134.74 59.58L135.02 59.56L135.32 59.57ZM134.23 71.38C134.23 71.29 134.1 71.2 133.91 71.11H133.88C133.88 71.18 133.87 71.56 133.87 71.74C134.1 71.64 134.23 71.53 134.23 71.38ZM127.62 64.42C127.63 64.35 127.65 64.29 127.67 64.22C127.6 64.24 127.52 64.24 127.44 64.24L127.62 64.42ZM133.08 80.53C139.49 80.53 144.71 75.52 144.71 69.36C144.71 63.58 140.12 58.81 134.26 58.24C134.25 58.26 134.25 58.28 134.25 58.3C134.23 58.41 134.2 58.51 134.19 58.59C136.81 58.84 139.18 59.95 140.96 61.64L139.68 62.87L139.73 62.65L139.56 62.58L139.33 62.57L139.38 62.43L139.22 61.93L138.9 61.59L137.9 61.08L137.81 61.17L137.63 61.22C137.97 61.71 138.16 62.27 138.16 62.84C138.16 62.91 138.16 62.99 138.15 63.06L138.65 63.66L138.42 63.71L138.57 63.93L138.13 64.35L137.95 64.03C137.87 64.26 137.75 64.46 137.62 64.66C137.65 64.69 137.69 64.72 137.72 64.75L136.37 66.05C136.29 65.98 136.2 65.91 136.11 65.84C135.98 65.9 135.85 65.95 135.72 66C135.76 66.03 135.79 66.06 135.83 66.09L135.76 66.16L135.6 66.25L135.54 66.4L135.44 66.3L135.15 66.39L135.23 66.51L135.43 66.46L135.56 66.47L135.57 66.4L135.67 66.35L135.7 66.29L135.88 66.24H136.02C136.05 66.26 136.07 66.29 136.1 66.31L135.56 66.83L135.52 66.78L134.96 66.87L134.84 66.99L134.72 67L135.07 66.68L134.95 66.62L134.63 67.04L134.73 67.03L134.72 67.18L134.84 67.22L134.86 67.39L134.66 67.35L134.46 67.39L133.97 67.15C133.97 67.15 133.94 68.42 133.93 69.05C135.09 69.43 136.32 69.97 136.32 71.39C136.32 72.01 136.04 72.52 135.49 72.89H135.5C135.49 72.9 135.48 72.9 135.47 72.9C135.46 72.91 135.45 72.91 135.43 72.92C134.96 73.22 134.36 73.38 133.84 73.53L133.82 74.52C134.65 74.92 135.66 75.5 135.57 77.15C135.56 77.56 135.39 77.67 135.25 77.71C134.76 77.82 134.26 77.9 133.75 77.94C133.75 78.07 133.74 78.19 133.74 78.31C135.98 78.16 138.01 77.25 139.54 75.85L140.89 77.15C138.87 79.02 136.12 80.17 133.1 80.17C130.1 80.17 127.36 79.03 125.34 77.18L126.69 75.88C128.2 77.26 130.2 78.15 132.4 78.31C132.4 78.2 132.39 78.07 132.39 77.95C130.29 77.79 128.4 76.94 126.95 75.63L127.31 75.28L127.8 75.33L128.06 75.06L128.75 75.08L128.85 74.85L128.83 74.75C129.83 75.48 131.04 75.96 132.35 76.09C132.35 75.95 132.34 75.83 132.34 75.73C130.89 75.57 129.58 74.97 128.56 74.07L129.91 72.77C130.24 73.05 130.6 73.29 131.01 73.48C131.04 73.36 131.09 73.24 131.15 73.14C130.8 72.97 130.48 72.76 130.19 72.52L131.55 71.22C131.76 71.38 132.01 71.52 132.27 71.61C132.27 71.48 132.26 71.34 132.26 71.22C132.1 71.15 131.95 71.07 131.81 70.97L132.19 70.6C132.06 70.56 131.92 70.52 131.79 70.48L131.53 70.73C131.4 70.59 131.29 70.44 131.21 70.27C130.98 70.17 130.75 70.06 130.54 69.93C129.71 69.4 129.28 68.66 129.28 67.72C129.28 67 129.49 66.46 129.83 66.04L128.48 64.75C129.45 63.86 130.7 63.24 132.09 63.04C132.09 62.91 132.09 62.79 132.08 62.67C130.59 62.88 129.25 63.53 128.21 64.49L127.98 64.27C127.93 64.36 127.87 64.47 127.8 64.61L127.94 64.75C126.78 65.94 126.06 67.52 126.03 69.27H124.12C124.15 67.02 125.08 64.97 126.59 63.45L127.2 64.03C127.23 64.03 127.25 64.03 127.29 64.03C127.4 64.02 127.52 63.99 127.63 63.93L126.86 63.19C127.27 62.81 127.71 62.47 128.19 62.17C128.23 62.05 128.26 61.94 128.28 61.9C128.3 61.85 128.42 61.7 128.57 61.52C127.84 61.91 127.18 62.38 126.59 62.93L125.24 61.63C127.01 59.97 129.35 58.87 131.94 58.62L131.92 58.54C131.9 58.45 131.88 58.36 131.86 58.26C126.02 58.84 121.45 63.61 121.45 69.37C121.45 75.52 126.67 80.53 133.08 80.53ZM141.22 61.9C143.12 63.82 144.3 66.4 144.33 69.24H142.42C142.4 67.83 142.04 66.5 141.42 65.32L141.44 65.29L141.57 65.36L141.6 65.26L141.26 64.69L140.86 64.15L140.39 63.77C140.23 63.57 140.06 63.38 139.88 63.2L141.22 61.9ZM138.78 64.26L139.24 64.28L139.35 64.41L139.3 64.6L139.94 64.98L140.07 64.96L140.88 65.86L141.21 65.75C141.73 66.82 142.03 68 142.04 69.25H140.13C140.12 68.77 140.06 68.31 139.95 67.86L140.04 67.75L140.16 67.17L140.07 66.55L139.84 65.84L139.31 65.09L139.44 65.16L139.51 65.1L139.08 64.82L139.05 64.91L139.48 65.5L139.72 65.98L139.89 66.46L139.94 66.78L140.03 67.32L139.87 67.33C139.87 67.33 139.68 67 139.63 66.86L139.72 66.74L139.56 66.52V66.3L139.44 66.16L139.29 66.18C139.24 66.09 139.18 66 139.13 65.91L139.23 65.96L139.26 65.93L139.21 65.81L139.33 65.74L139.27 65.67L139.08 65.74L139.15 65.46L139.04 65.4L138.94 65.62C138.73 65.32 138.5 65.04 138.24 64.77L138.78 64.26ZM138.4 68.56L138.74 68.38L139.09 68.33L139.17 68.17L139.37 68.05L139.44 67.9L139.5 67.63C139.53 67.73 139.55 67.82 139.57 67.92L139.39 68.45L139.38 68.63L139.65 68.29C139.71 68.6 139.74 68.93 139.74 69.25H138.07L138.03 69.11L138.22 68.96L138.26 68.87L138.35 68.81L138.57 68.79L138.59 68.69L138.4 68.56ZM136.11 67.3L136.28 67.26L136.27 67.22L136.1 67.11L136.16 66.76L136.37 66.57C136.5 66.71 136.62 66.86 136.72 67.01L136.65 67.22L136.46 67.09L136.32 67.13L136.39 67.26H136.46L136.38 67.45L136.33 67.37L136.11 67.3ZM136.84 73.4L136.43 73.29L136.31 73.34L136.08 73.17L135.86 73.09C135.97 73.01 136.07 72.94 136.17 72.85L136.51 73.08L136.77 73.21L136.9 73.33L136.84 73.4ZM136.63 66.31L137.98 65.01C138.3 65.34 138.58 65.7 138.82 66.09L138.65 66.14L138.66 66.43L139.17 66.74C139.29 67 139.4 67.28 139.49 67.56L139.4 67.68L139.22 67.79L139.17 68.06L139.05 68.13L138.94 68.25L138.83 68.21L138.64 68.2L138.75 68.06L138.83 67.69L138.95 67.62L138.59 67.28L138.32 67.37L138.26 67.62L138.09 67.8L137.91 67.66L137.85 67.51L137.95 67.45L138 67.55L138.08 67.52L138.04 67.35L137.92 67.34L137.91 67.41L137.83 67.43L137.41 66.96L137.27 66.85L137.32 66.8L137.45 66.76L137.34 66.72C137.34 66.72 137.19 66.75 137.17 66.75L137.25 66.85H137.04C136.92 66.65 136.78 66.48 136.63 66.31ZM137.32 73.22L137.14 73.04L137.28 72.87L137.46 72.52L137.39 72.42L137.51 72.16L137.5 71.93L137.43 71.69L137.26 71.63L137.2 71.76L137.1 71.74C137.24 71.52 137.4 71.31 137.5 71.07L137.67 71L137.77 70.88L137.82 70.93L137.94 70.79L137.85 70.68L137.93 70.66L138.09 70.72H138.39L138.57 70.63L139.04 70.51L138.95 70.36L138.92 70.18L139.17 70.28L139.27 70.23L139.22 70.04L138.91 70.15L138.57 70.08L138.31 69.57H139.77C139.71 71.19 139.02 72.65 137.93 73.75L137.73 73.56L137.82 73.3L137.66 72.73L137.32 73.22ZM137.58 76.81L137.76 76.44L137.69 76.27L137.95 76.05V75.91L137.72 75.78L137.91 75.42L138.19 75.07L137.91 74.78H137.7L137.57 74.58C137.68 74.49 137.79 74.4 137.9 74.3L139.25 75.6C138.75 76.06 138.19 76.47 137.58 76.81ZM139.26 75.09L139.41 74.93L139.27 74.22L139.17 74.18L139.23 74.06L138.91 73.96L138.85 74.21L138.82 74.53L138.75 74.59L138.17 74.03C139.33 72.87 140.06 71.32 140.13 69.6H142.04C141.97 71.82 141.03 73.84 139.52 75.33L139.26 75.09ZM139.79 75.6C141.36 74.04 142.35 71.93 142.42 69.61H144.33C144.26 72.44 143.06 75 141.14 76.9L139.79 75.6ZM128.29 73.82C128.15 73.68 128.02 73.54 127.89 73.39L127.95 72.93L127.75 72.48L127.7 71.78L127.47 71.36L127.52 71.09L127.25 70.59L127.01 70.48L127.11 70.21L127.01 70L127.11 69.76H127.37L127.46 69.61H127.91L127.98 69.74L127.9 70.18L127.85 70.25L128.02 70.6L127.91 70.66L127.83 70.57L127.8 70.61L127.88 70.82L128.01 71.06L128.07 71.05L128.11 70.83L128.05 70.75L128.04 70.6L128 70.29L128.09 69.75L128 69.61H128.32C128.38 70.74 128.87 71.75 129.63 72.52L128.29 73.82ZM127.02 70.23L126.84 70.5H126.53L126.51 70.48C126.46 70.19 126.42 69.9 126.41 69.61H126.98L126.84 70.05L127.02 70.23ZM127.65 68.97L127.69 68.61L127.91 68.48L128.32 68.55L128.38 68.62C128.34 68.83 128.33 69.04 128.32 69.25H127.86L127.65 68.97ZM129.59 70.34L129.69 70.29L129.94 70.47L129.83 70.56L130.11 70.74L130.09 70.55L130.24 70.31L130.4 70.47L130.56 70.69L130.27 70.75L130.4 71L130.6 70.9L130.57 70.82L130.72 70.72L130.81 70.32C130.92 70.56 131.07 70.77 131.25 70.96L129.9 72.26C129.26 71.61 128.82 70.76 128.72 69.82L129 70.11L129.26 70.1L129.59 70.34ZM128.21 64.98L129.56 66.28C129.28 66.58 129.04 66.91 128.84 67.27H128.75L128.56 67.33H128.5L128.3 67.51L128.56 67.47L128.79 67.41C128.77 67.44 128.76 67.47 128.75 67.5L128.55 67.62H128.45L128.15 67.83L127.86 67.81L127.44 68.55L127.52 68.7L127.29 68.94L127.25 69.25H126.4C126.44 67.6 127.11 66.1 128.21 64.98ZM126.46 74.77L126.89 75.01L126.98 75.07L126.67 75.37C126.52 75.22 126.39 75.07 126.25 74.92L126.46 74.77ZM126.03 69.61C126.04 69.79 126.05 69.96 126.08 70.14L125.84 70.19L125.79 70.42L125.3 71.02L125.31 71.84L124.81 72H124.54C124.29 71.25 124.14 70.45 124.11 69.62H126.03V69.61ZM124.15 71.98L124.04 71.96L123.93 71.85L123.4 71.8L123.57 72.02L123.07 71.93L123.2 71.82L123.08 71.7L122.72 71.85L122.59 72.08L122.64 72.6L123.05 73.55L123.25 73.85L123.36 73.89L123.05 73.32L122.98 73.03L123.05 72.96L123.01 72.8L123.19 72.82L123.48 73.24L123.55 73.27L123.54 72.96L123.66 73.03L123.68 73.2L123.98 73.28L124.11 73.19L124.15 73.22L124.14 73.44L124.27 73.6L124.43 73.64L124.78 74.22L124.99 74.28L125.06 74.01C125.43 74.6 125.88 75.15 126.38 75.64L125.03 76.94C123.09 75.04 121.88 72.47 121.81 69.62H123.72C123.77 70.43 123.91 71.23 124.15 71.98ZM124.97 61.87L126.32 63.17C124.75 64.76 123.77 66.9 123.74 69.25H121.83C121.86 66.39 123.05 63.79 124.97 61.87ZM138.8 61.2L138.68 61.02L138.43 60.9L138.23 61.04L138.48 61.17L138.76 61.36L138.8 61.2ZM137.64 66.38L137.65 66.52L137.98 66.42L138.08 66.22L137.85 65.93L137.97 65.76L138.28 65.97L138.34 65.93L138.28 65.89L138.21 65.76L138.34 65.69L138.22 65.54L137.93 65.68L137.83 65.85L137.77 66L137.9 66.21L137.85 66.31L137.64 66.38ZM123.83 74.62L123.85 74.54L123.68 74.18L123.48 74.11L123.83 74.62ZM131.64 67.72C131.64 68.03 131.83 68.25 132.19 68.43C132.19 68.43 132.19 68.38 132.19 68.29L131.97 68.08L132.09 67.87L132.19 67.85C132.18 67.49 132.17 67.09 132.17 67.03H132.15C131.82 67.2 131.64 67.42 131.64 67.72Z" fill="#1C98D6"/>
<path d="M133.78 75.6799C134.38 75.9699 134.93 76.3699 135.16 77.1399C135.26 75.8799 134.52 75.3299 133.79 74.9599C133.79 74.9499 133.78 75.6799 133.78 75.6799Z" fill="#1C98D6"/>
<path d="M137.76 62.84C137.76 61.69 136.89 60.42 134.77 59.97C134.62 59.94 134.37 59.91 134.12 59.9C134.11 60.07 134.11 60.47 134.11 60.47C134.11 60.6 134.1 61.06 134.09 61.15C134.28 61.17 134.43 61.19 134.5 61.2C135.73 61.48 136.18 62.16 136.18 62.84C136.18 63.93 135.21 64.34 134.02 64.65C133.89 64.68 133.76 64.72 133.63 64.75C133.27 64.84 132.89 64.9199 132.53 65.0099C132.4 65.0399 132.27 65.08 132.14 65.12C130.82 65.51 129.68 66.12 129.68 67.69C129.68 69.24 130.98 69.82 132.24 70.2C132.23 69.75 132.22 69.2999 132.21 68.8499C131.65 68.5999 131.26 68.27 131.26 67.71C131.26 67.17 131.62 66.8399 132.17 66.5999C132.29 66.5499 132.42 66.5 132.56 66.45C132.88 66.35 133.23 66.26 133.6 66.17C133.73 66.14 133.86 66.11 134 66.08C135.76 65.68 137.76 65.14 137.76 62.84Z" fill="#1C98D6"/>
<path d="M131.36 73.81C131.36 74.44 131.84 74.7799 132.32 75.0399C132.32 74.9299 132.3 73.96 132.3 73.95C132.31 73.75 132.51 73.6399 132.66 73.5699C132.89 73.4599 133.13 73.3899 133.43 73.2899C133.57 73.2399 133.7 73.19 133.83 73.16C134.8 72.88 135.92 72.52 135.92 71.39C135.92 70.26 134.96 69.79 133.91 69.45C133.9 69.81 133.89 70.34 133.88 70.7C134.32 70.87 134.62 71.07 134.62 71.39C134.62 71.79 134.17 72.03 133.85 72.15C133.72 72.2 133.52 72.26 133.46 72.28C133.2 72.36 132.92 72.4499 132.67 72.5399C132.53 72.5899 132.4 72.64 132.28 72.7C131.82 72.91 131.35 73.24 131.36 73.81Z" fill="#1C98D6"/>
<path d="M132.01 60.08C131.37 60.25 130.99 60.4899 130.84 60.5399C130.42 60.6699 129.83 60.7 129.23 61.33C129.12 61.44 128.86 61.76 128.67 62.02C128.49 62.27 128.48 62.68 128.34 62.9C128.15 63.22 128.19 63.4 128.19 63.4L128.2 63.41C128.19 63.45 128.16 63.62 127.98 63.81C127.78 64.03 127.51 64.1499 127.19 64.0999C127.46 64.2299 127.85 64.05 127.85 64.05C127.85 64.05 127.78 64.25 127.71 64.58C128.02 63.9 128.3 63.66 128.39 63.59C128.52 63.62 128.8 63.6099 129.31 63.3199C129.89 62.9999 130.76 62.48 131.01 62.15C131.28 61.79 131.64 61.56 132.04 61.41C132.03 60.89 132.02 60.45 132.01 60.08ZM129.57 62.18L129.27 62.24L129.63 61.68L130.05 61.69L129.57 62.18Z" fill="#1C98D6"/>
<path d="M133.21 73.7299C133.15 73.7499 133.01 73.81 132.92 73.84C132.82 73.87 132.7 73.92 132.7 73.95C132.7 73.96 132.79 78.82 132.79 78.93C132.79 79.93 133.32 79.94 133.32 78.93C133.32 78.86 133.43 73.66 133.43 73.66C133.43 73.66 133.3 73.6999 133.21 73.7299Z" fill="#1C98D6"/>
<path d="M132.66 72.13C132.83 72.08 132.99 72.03 133.14 71.9799C133.26 71.9399 133.36 71.91 133.46 71.88C133.47 71.57 133.56 67.3399 133.57 66.5699C133.17 66.6599 132.83 66.7499 132.55 66.8499C132.57 67.4399 132.65 71.66 132.66 72.13Z" fill="#1C98D6"/>
<path d="M133.1 55.9199C131.61 55.9199 132.24 58.0399 132.36 58.7399C132.37 58.7699 132.48 63.5399 132.5 64.6299C132.73 64.5699 132.95 64.5199 133.17 64.4699C133.32 64.4299 133.48 64.3999 133.62 64.3599C133.64 63.3099 133.75 58.7599 133.76 58.7299C133.85 57.9899 134.63 55.9199 133.1 55.9199Z" fill="#1C98D6"/>
<path d="M154.96 58.5399C156.38 58.5399 157.68 59.7299 157.68 62.4799C157.68 65.2399 156.38 66.4199 154.96 66.4199C153.54 66.4199 152.24 65.2399 152.24 62.4799C152.23 59.7299 153.54 58.5399 154.96 58.5399ZM154.96 65.3499C155.75 65.3499 156.39 64.5899 156.39 62.4899C156.39 60.3799 155.75 59.6299 154.96 59.6299C154.17 59.6299 153.53 60.3899 153.53 62.4899C153.53 64.5899 154.16 65.3499 154.96 65.3499Z" fill="#1C98D6"/>
<path d="M158.52 61.59C158.52 61.24 158.51 60.91 158.48 60.66H159.58C159.59 61 159.62 61.35 159.62 61.69H159.64C159.79 61.25 160.17 60.5699 160.92 60.5699C161 60.5699 161.06 60.5899 161.12 60.5999V61.87C161.01 61.84 160.91 61.81 160.78 61.81C160.28 61.81 159.73 62.15 159.73 63.2V66.3H158.52" fill="#1C98D6"/>
<path d="M161.75 67.19C162.03 67.37 162.6 67.67 163.24 67.67C164.39 67.67 164.57 66.78 164.57 65.89V65.3499H164.55C164.35 65.7899 164.01 66.31 163.22 66.31C162.51 66.31 161.46 65.78 161.46 63.5C161.46 61.94 161.96 60.5699 163.28 60.5699C164.02 60.5699 164.36 61.0399 164.61 61.5399H164.65C164.65 61.2399 164.68 60.96 164.69 60.66H165.79C165.77 60.96 165.75 61.25 165.75 61.55V65.72C165.75 67.49 165.27 68.75 163.42 68.75C162.62 68.75 161.98 68.52 161.69 68.4L161.75 67.19ZM163.5 65.31C164.26 65.31 164.57 64.7 164.57 63.41C164.57 62.22 164.17 61.5799 163.59 61.5999C162.95 61.6099 162.71 62.27 162.71 63.42C162.71 64.75 163.09 65.31 163.5 65.31Z" fill="#1C98D6"/>
<path d="M166.95 60.99C167.29 60.82 167.77 60.5699 168.55 60.5699C170.12 60.5699 170.48 61.43 170.48 62.84V65.31C170.48 65.72 170.52 66.09 170.55 66.31H169.45C169.39 66.09 169.38 65.8199 169.38 65.5399H169.36C169.06 65.9999 168.68 66.4 167.95 66.4C167.17 66.4 166.44 65.8 166.44 64.74C166.44 63.2 167.56 62.8199 169.09 62.8199H169.34V62.61C169.34 62.05 169.09 61.53 168.4 61.53C167.79 61.53 167.25 61.86 167.02 62.08L166.95 60.99ZM169.34 63.55H169.23C168.19 63.55 167.58 63.79 167.58 64.62C167.58 65.14 167.88 65.49 168.35 65.49C169.08 65.49 169.34 64.89 169.34 63.88V63.55Z" fill="#1C98D6"/>
<path d="M171.45 61.59C171.45 61.24 171.44 60.91 171.41 60.66H172.55C172.56 60.95 172.59 61.24 172.59 61.53H172.62H172.61C172.79 61.19 173.13 60.5699 173.95 60.5699C175.1 60.5699 175.44 61.53 175.44 62.67V66.3199H174.23V62.93C174.23 62.06 174.04 61.7 173.53 61.7C172.89 61.7 172.67 62.3 172.67 63.03V66.3199H171.46" fill="#1C98D6"/>
<path d="M176.44 58.25H177.69V59.59H176.44V58.25ZM176.46 60.66H177.67V66.31H176.46V60.66Z" fill="#1C98D6"/>
<path d="M178.56 65.14L180.71 61.69H178.63V60.66H181.93V61.8199L179.81 65.28H182V66.31H178.56" fill="#1C98D6"/>
<path d="M183.01 60.99C183.35 60.82 183.83 60.5699 184.61 60.5699C186.18 60.5699 186.54 61.43 186.54 62.84V65.31C186.54 65.72 186.58 66.09 186.61 66.31H185.51C185.45 66.09 185.44 65.8199 185.44 65.5399H185.42C185.12 65.9999 184.74 66.4 184.01 66.4C183.23 66.4 182.5 65.8 182.5 64.74C182.5 63.2 183.62 62.8199 185.15 62.8199H185.4V62.61C185.4 62.05 185.15 61.53 184.46 61.53C183.85 61.53 183.31 61.86 183.08 62.08L183.01 60.99ZM185.4 63.55H185.29C184.25 63.55 183.64 63.79 183.64 64.62C183.64 65.14 183.94 65.49 184.41 65.49C185.13 65.49 185.4 64.89 185.4 63.88V63.55Z" fill="#1C98D6"/>
<path d="M190.71 66.1699C190.43 66.2899 190 66.3999 189.52 66.3999H189.46L189.28 66.9899C189.38 66.9599 189.5 66.9199 189.66 66.9199C190.2 66.9199 190.51 67.2599 190.51 67.7299C190.51 68.4199 189.9 68.7399 189.42 68.7399C189.01 68.7399 188.59 68.6299 188.39 68.5199L188.55 68.0799C188.75 68.1599 188.94 68.2299 189.23 68.2299C189.55 68.2299 189.74 68.0399 189.74 67.7799C189.74 67.5299 189.56 67.3699 189.29 67.3699C189.11 67.3699 189 67.3999 188.91 67.4499L188.73 67.2599L189.02 66.3399C187.69 66.0999 187.13 64.8999 187.13 63.4699C187.13 61.8599 187.87 60.5499 189.57 60.5499C189.95 60.5499 190.4 60.6799 190.63 60.7799L190.56 61.8599C190.34 61.7399 190.04 61.5899 189.71 61.5899C188.79 61.5899 188.39 62.2799 188.39 63.4899C188.39 64.5399 188.84 65.3599 189.77 65.3599C190.06 65.3599 190.47 65.2099 190.63 65.0799" fill="#1C98D6"/>
<path d="M191.78 60.99C192.12 60.82 192.6 60.5699 193.38 60.5699C194.95 60.5699 195.31 61.43 195.31 62.84V65.31C195.31 65.72 195.35 66.09 195.38 66.31H194.28C194.22 66.09 194.21 65.8199 194.21 65.5399H194.19C193.89 65.9999 193.5 66.4 192.78 66.4C192 66.4 191.27 65.8 191.27 64.74C191.27 63.2 192.39 62.8199 193.92 62.8199H194.17V62.61C194.17 62.05 193.92 61.53 193.23 61.53C192.62 61.53 192.08 61.86 191.85 62.08L191.78 60.99ZM191.97 59.91C191.97 59.53 192.15 58.65 192.89 58.63C193.34 58.63 193.72 59 194.02 59C194.22 59 194.3 58.7899 194.3 58.5699H194.91C194.91 58.8899 194.72 59.86 194 59.86C193.62 59.86 193.26 59.49 192.9 59.49C192.66 59.49 192.54 59.69 192.54 59.92H191.97V59.91ZM194.17 63.55H194.06C193.02 63.55 192.41 63.79 192.41 64.62C192.41 65.14 192.71 65.49 193.18 65.49C193.91 65.49 194.17 64.89 194.17 63.88V63.55Z" fill="#1C98D6"/>
<path d="M198.37 60.5699C199.4 60.5699 200.58 61.17 200.58 63.4799C200.58 65.8499 199.39 66.4 198.37 66.4C197.34 66.4 196.15 65.8499 196.15 63.4799C196.15 61.1799 197.35 60.5699 198.37 60.5699ZM198.37 65.44C199.15 65.44 199.33 64.43 199.33 63.49C199.33 62.55 199.15 61.55 198.37 61.55C197.59 61.55 197.4 62.55 197.4 63.49C197.4 64.43 197.59 65.44 198.37 65.44Z" fill="#1C98D6"/>
<path d="M158.21 70.47H158.2L156.48 76.86H155.59L153.96 70.47H153.94V76.86H152.8V69.2H154.67L156.08 74.92H156.1L157.54 69.2H159.35V76.86H158.21" fill="#1C98D6"/>
<path d="M164.31 75.93C164.31 76.28 164.32 76.61 164.35 76.86H163.22C163.21 76.57 163.18 76.28 163.18 75.99L163.15 75.9799L163.16 75.99C162.93 76.41 162.61 76.95 161.82 76.95C160.67 76.95 160.33 75.9899 160.33 74.8499V71.2H161.54V74.59C161.54 75.46 161.76 75.8199 162.27 75.8199C162.92 75.8199 163.1 75.16 163.1 74.44V71.2H164.31" fill="#1C98D6"/>
<path d="M165.36 72.14C165.36 71.79 165.35 71.46 165.32 71.21H166.46C166.47 71.5 166.5 71.79 166.5 72.08H166.53H166.52C166.7 71.74 167.04 71.12 167.86 71.12C169 71.12 169.35 72.08 169.35 73.22V76.86H168.14V73.47C168.14 72.6 167.94 72.24 167.44 72.24C166.8 72.24 166.58 72.84 166.58 73.57V76.86H165.37" fill="#1C98D6"/>
<path d="M174.48 68.62V75.89C174.48 76.3 174.49 76.65 174.52 76.86H173.38C173.36 76.7 173.34 76.37 173.34 75.98H173.31C173.11 76.46 172.75 76.95 171.97 76.95C170.72 76.95 170.2 75.61 170.2 74.04C170.2 72.19 170.86 71.12 171.94 71.12C172.67 71.12 173.07 71.58 173.24 72.02H173.26V68.63L174.48 68.62ZM172.31 75.95C173.02 75.95 173.27 75.08 173.27 74.02C173.27 72.92 173 72.12 172.33 72.12C171.65 72.12 171.42 72.86 171.42 73.98C171.42 75.29 171.61 75.95 172.31 75.95Z" fill="#1C98D6"/>
<path d="M175.46 68.7999H176.72V70.1399H175.46V68.7999ZM175.48 71.1999H176.69V76.8499H175.48V71.1999Z" fill="#1C98D6"/>
<path d="M178.05 71.53C178.39 71.36 178.87 71.11 179.65 71.11C181.22 71.11 181.58 71.96 181.58 73.38V75.85C181.58 76.25 181.62 76.63 181.65 76.85H180.55C180.49 76.63 180.48 76.36 180.48 76.08H180.46C180.16 76.54 179.78 76.93 179.05 76.93C178.27 76.93 177.54 76.33 177.54 75.27C177.54 73.74 178.66 73.35 180.19 73.35H180.43V73.14C180.43 72.58 180.19 72.07 179.49 72.07C178.88 72.07 178.34 72.4 178.11 72.62L178.05 71.53ZM180.44 74.09H180.33C179.29 74.09 178.67 74.33 178.67 75.16C178.67 75.68 178.97 76.03 179.44 76.03C180.17 76.03 180.43 75.42 180.43 74.41V74.09H180.44Z" fill="#1C98D6"/>
<path d="M183.93 68.63H182.72V76.86H183.93V68.63Z" fill="#1C98D6"/>
<path d="M191.93 68.62V75.89C191.93 76.3 191.94 76.65 191.97 76.86H190.83C190.81 76.7 190.79 76.37 190.79 75.98H190.76C190.56 76.46 190.2 76.95 189.42 76.95C188.16 76.95 187.65 75.61 187.65 74.04C187.65 72.19 188.31 71.12 189.39 71.12C190.12 71.12 190.52 71.58 190.69 72.02H190.71V68.63L191.93 68.62ZM189.75 75.95C190.46 75.95 190.71 75.08 190.71 74.02C190.71 72.92 190.44 72.12 189.77 72.12C189.09 72.12 188.86 72.86 188.86 73.98C188.86 75.29 189.05 75.95 189.75 75.95Z" fill="#1C98D6"/>
<path d="M193.19 71.53C193.53 71.36 194.01 71.11 194.78 71.11C196.34 71.11 196.71 71.96 196.71 73.38V75.85C196.71 76.25 196.75 76.63 196.78 76.85H195.68C195.62 76.63 195.61 76.36 195.61 76.08H195.59C195.29 76.54 194.9 76.93 194.18 76.93C193.4 76.93 192.67 76.33 192.67 75.27C192.67 73.74 193.79 73.35 195.32 73.35H195.56V73.14C195.56 72.58 195.32 72.07 194.62 72.07C194.01 72.07 193.47 72.4 193.24 72.62L193.19 71.53ZM195.58 74.09H195.47C194.43 74.09 193.82 74.33 193.82 75.16C193.82 75.68 194.12 76.03 194.59 76.03C195.31 76.03 195.58 75.42 195.58 74.41V74.09Z" fill="#1C98D6"/>
<path d="M200.28 75.38C200.52 75.56 201.06 75.8499 201.73 75.8499C202.28 75.8499 202.77 75.51 202.77 74.74C202.77 74.19 202.49 73.95 201.88 73.58L201.24 73.18C200.57 72.76 200.13 72.16 200.13 71.17C200.13 69.8 201.14 69.09 202.28 69.09C203.01 69.09 203.51 69.3 203.71 69.36L203.65 70.5399C203.35 70.4099 202.95 70.21 202.37 70.21C201.74 70.21 201.42 70.59 201.42 71.11C201.42 71.68 201.76 71.9 202.14 72.14L202.87 72.5999C203.67 73.1099 204.06 73.59 204.06 74.67C204.06 76.23 203.07 76.97 201.77 76.97C201.09 76.97 200.56 76.86 200.22 76.63" fill="#1C98D6"/>
<path d="M205.19 71.53C205.53 71.36 206.01 71.11 206.79 71.11C208.36 71.11 208.72 71.96 208.72 73.38V75.85C208.72 76.25 208.76 76.63 208.79 76.85H207.69C207.63 76.63 207.62 76.36 207.62 76.08H207.6C207.3 76.54 206.91 76.93 206.19 76.93C205.41 76.93 204.68 76.33 204.68 75.27C204.68 73.74 205.79 73.35 207.33 73.35H207.57V73.14C207.57 72.58 207.33 72.07 206.63 72.07C206.02 72.07 205.48 72.4 205.25 72.62L205.19 71.53ZM207.58 74.09H207.47C206.43 74.09 205.81 74.33 205.81 75.16C205.81 75.68 206.11 76.03 206.58 76.03C207.31 76.03 207.57 75.42 207.57 74.41V74.09H207.58Z" fill="#1C98D6"/>
<path d="M213.53 75.93C213.53 76.28 213.54 76.61 213.57 76.86H212.43C212.42 76.58 212.39 76.28 212.39 76L212.36 75.99L212.37 76C212.14 76.42 211.82 76.95 211.03 76.95C209.89 76.95 209.54 76 209.54 74.85V71.2H210.75V74.59C210.75 75.46 210.97 75.82 211.47 75.82C212.12 75.82 212.3 75.16 212.3 74.44V71.2H213.51L213.53 75.93ZM211.6 69H212.74L211.74 70.58H210.98L211.6 69Z" fill="#1C98D6"/>
<path d="M218.72 68.62V75.89C218.72 76.3 218.73 76.65 218.76 76.86H217.62C217.6 76.7 217.58 76.37 217.58 75.98H217.55C217.35 76.46 216.99 76.95 216.21 76.95C214.96 76.95 214.44 75.61 214.44 74.04C214.44 72.19 215.1 71.12 216.18 71.12C216.91 71.12 217.31 71.58 217.48 72.02H217.5V68.63L218.72 68.62ZM216.55 75.95C217.26 75.95 217.51 75.08 217.51 74.02C217.51 72.92 217.24 72.12 216.57 72.12C215.89 72.12 215.66 72.86 215.66 73.98C215.66 75.29 215.84 75.95 216.55 75.95Z" fill="#1C98D6"/>
<path d="M223.4 76.58C223.14 76.7 222.62 76.94 221.89 76.94C220.26 76.94 219.56 75.64 219.56 74.11C219.56 72.42 220.35 71.11 221.64 71.11C222.73 71.11 223.66 71.82 223.66 74.13V74.4H220.74C220.74 75.36 221.08 75.95 222.02 75.95C222.76 75.95 223.12 75.7 223.34 75.51L223.4 76.58ZM222.48 73.54C222.48 72.54 222.18 72.04 221.64 72.04C221 72.04 220.74 72.8 220.74 73.54H222.48Z" fill="#1C98D6"/>
<path d="M116.04 86.25H117.31V86.67H116.48V87.45H117.27V87.87H116.48V88.73H117.35V89.16H116.04V86.25Z" fill="#1C98D6"/>
<path d="M117.65 88.59C117.74 88.66 117.93 88.77 118.16 88.77C118.35 88.77 118.53 88.6399 118.53 88.3499C118.53 88.1399 118.43 88.05 118.21 87.91L117.98 87.7599C117.74 87.5999 117.58 87.37 117.58 87C117.58 86.48 117.94 86.21 118.34 86.21C118.6 86.21 118.78 86.29 118.85 86.31L118.83 86.7599C118.72 86.7099 118.58 86.64 118.38 86.64C118.16 86.64 118.04 86.7799 118.04 86.9799C118.04 87.1999 118.16 87.28 118.3 87.37L118.56 87.5399C118.84 87.7299 118.98 87.9199 118.98 88.3199C118.98 88.9099 118.63 89.2 118.17 89.2C117.93 89.2 117.74 89.1599 117.62 89.0699L117.65 88.59Z" fill="#1C98D6"/>
<path d="M120.87 89.0899C120.78 89.1499 120.56 89.1899 120.35 89.1899C119.61 89.1899 119.24 88.5399 119.24 87.6899C119.24 86.8399 119.62 86.1899 120.34 86.1899C120.58 86.1899 120.79 86.2699 120.88 86.3099L120.86 86.7899C120.77 86.7399 120.63 86.6299 120.4 86.6299C120.03 86.6299 119.72 86.9299 119.72 87.6799C119.72 88.4299 120.04 88.7299 120.4 88.7299C120.61 88.7299 120.76 88.6699 120.86 88.5799L120.87 89.0899Z" fill="#1C98D6"/>
<path d="M121.16 86.25H121.92C122.35 86.25 122.64 86.48 122.64 87.02C122.64 87.4 122.44 87.65 122.17 87.7V87.71C122.26 87.73 122.36 87.78 122.44 88.05L122.76 89.16H122.29L122.05 88.21C121.99 87.98 121.88 87.91 121.71 87.91H121.61V89.16H121.17V86.25H121.16ZM121.78 87.51C122.01 87.51 122.17 87.36 122.17 87.07C122.17 86.74 122.02 86.65 121.78 86.65H121.6V87.51H121.78Z" fill="#1C98D6"/>
<path d="M123.47 86.25H123.03V89.16H123.47V86.25Z" fill="#1C98D6"/>
<path d="M124.26 86.67H123.72V86.25H125.24V86.67H124.7V89.16H124.26V86.67Z" fill="#1C98D6"/>
<path d="M126.2 86.2C126.7 86.2 127.16 86.65 127.16 87.7C127.16 88.75 126.7 89.2 126.2 89.2C125.7 89.2 125.24 88.75 125.24 87.7C125.24 86.65 125.7 86.2 126.2 86.2ZM126.2 88.7899C126.48 88.7899 126.71 88.5 126.71 87.7C126.71 86.9 126.48 86.61 126.2 86.61C125.92 86.61 125.69 86.9 125.69 87.7C125.7 88.5 125.92 88.7899 126.2 88.7899Z" fill="#1C98D6"/>
<path d="M127.48 86.25H128.24C128.67 86.25 128.96 86.48 128.96 87.02C128.96 87.4 128.76 87.65 128.49 87.7V87.71C128.58 87.73 128.68 87.78 128.76 88.05L129.08 89.16H128.61L128.37 88.21C128.31 87.98 128.2 87.91 128.03 87.91H127.93V89.16H127.49V86.25H127.48ZM128.1 87.51C128.33 87.51 128.5 87.36 128.5 87.07C128.5 86.74 128.35 86.65 128.1 86.65H127.92V87.51H128.1Z" fill="#1C98D6"/>
<path d="M129.78 86.25H129.34V89.16H129.78V86.25Z" fill="#1C98D6"/>
<path d="M131.08 86.2C131.58 86.2 132.04 86.65 132.04 87.7C132.04 88.75 131.58 89.2 131.08 89.2C130.58 89.2 130.12 88.75 130.12 87.7C130.12 86.65 130.58 86.2 131.08 86.2ZM131.08 88.7899C131.36 88.7899 131.59 88.5 131.59 87.7C131.59 86.9 131.36 86.61 131.08 86.61C130.8 86.61 130.57 86.9 130.57 87.7C130.57 88.5 130.8 88.7899 131.08 88.7899Z" fill="#1C98D6"/>
<path d="M133.17 86.25H133.93C134.36 86.25 134.65 86.48 134.65 87.02C134.65 87.4 134.45 87.65 134.18 87.7V87.71C134.27 87.73 134.37 87.78 134.45 88.05L134.77 89.16H134.3L134.06 88.21C134 87.98 133.89 87.91 133.72 87.91H133.62V89.16H133.18V86.25H133.17ZM133.79 87.51C134.02 87.51 134.19 87.36 134.19 87.07C134.19 86.74 134.04 86.65 133.79 86.65H133.61V87.51H133.79Z" fill="#1C98D6"/>
<path d="M135.03 86.25H136.3V86.67H135.48V87.45H136.26V87.87H135.48V88.73H136.34V89.16H135.03V86.25Z" fill="#1C98D6"/>
<path d="M137.64 87.53H138.42V89.05C138.3 89.13 138.08 89.2 137.76 89.2C136.99 89.2 136.57 88.57 136.57 87.7C136.57 86.84 136.98 86.2 137.76 86.2C138.04 86.2 138.26 86.2799 138.35 86.3199L138.33 86.8C138.19 86.7 137.99 86.62 137.77 86.62C137.3 86.62 137.04 87.09 137.04 87.69C137.04 88.34 137.29 88.7599 137.74 88.7599C137.85 88.7599 137.94 88.74 138 88.71V87.92H137.63V87.53H137.64Z" fill="#1C98D6"/>
<path d="M139.28 86.25H138.84V89.16H139.28V86.25Z" fill="#1C98D6"/>
<path d="M140.58 86.2C141.08 86.2 141.54 86.65 141.54 87.7C141.54 88.75 141.08 89.2 140.58 89.2C140.08 89.2 139.61 88.75 139.61 87.7C139.62 86.65 140.08 86.2 140.58 86.2ZM140.58 88.7899C140.86 88.7899 141.09 88.5 141.09 87.7C141.09 86.9 140.86 86.61 140.58 86.61C140.3 86.61 140.07 86.9 140.07 87.7C140.08 88.5 140.3 88.7899 140.58 88.7899Z" fill="#1C98D6"/>
<path d="M141.88 86.25H142.4L143.21 88.53V86.25H143.62V89.16H143.09L142.28 86.89V89.16H141.88V86.25Z" fill="#1C98D6"/>
<path d="M145.26 88.46H144.43L144.26 89.16H143.82L144.63 86.25H145.11L145.89 89.16H145.43L145.26 88.46ZM145.17 88.05L144.86 86.69H144.85L144.52 88.05H145.17Z" fill="#1C98D6"/>
<path d="M146.06 86.25H146.5V88.73H147.3V89.16H146.06V86.25Z" fill="#1C98D6"/>
<path d="M148.34 86.25H149.03C149.53 86.25 149.79 86.58 149.79 87.13C149.79 87.68 149.53 88.02 149.03 88.02H148.78V89.16H148.34V86.25ZM148.95 87.61C149.23 87.61 149.35 87.45 149.35 87.13C149.35 86.81 149.23 86.65 148.95 86.65H148.78V87.6H148.95V87.61Z" fill="#1C98D6"/>
<path d="M151.03 88.46H150.2L150.03 89.16H149.59L150.4 86.25H150.88L151.66 89.16H151.2L151.03 88.46ZM150.94 88.05L150.63 86.69H150.62L150.29 88.05H150.94Z" fill="#1C98D6"/>
<path d="M151.82 86.25H152.58C153.01 86.25 153.3 86.48 153.3 87.02C153.3 87.4 153.1 87.65 152.83 87.7V87.71C152.92 87.73 153.02 87.78 153.1 88.05L153.42 89.16H152.95L152.71 88.21C152.65 87.98 152.54 87.91 152.37 87.91H152.27V89.16H151.83V86.25H151.82ZM152.44 87.51C152.68 87.51 152.84 87.36 152.84 87.07C152.84 86.74 152.69 86.65 152.44 86.65H152.26V87.51H152.44Z" fill="#1C98D6"/>
<path d="M154.89 88.46H154.06L153.89 89.16H153.45L154.26 86.25H154.75L155.53 89.16H155.07L154.89 88.46ZM154.8 88.05L154.49 86.69H154.48L154.15 88.05H154.8Z" fill="#1C98D6"/>
<path d="M157.55 88.46H156.72L156.55 89.16H156.11L156.92 86.25H157.4L158.18 89.16H157.72L157.55 88.46ZM157.46 88.05L157.15 86.69H157.14L156.81 88.05H157.46Z" fill="#1C98D6"/>
<path d="M158.35 88.59C158.44 88.66 158.63 88.77 158.86 88.77C159.05 88.77 159.23 88.6399 159.23 88.3499C159.23 88.1399 159.13 88.05 158.91 87.91L158.69 87.7599C158.45 87.5999 158.29 87.37 158.29 87C158.29 86.48 158.65 86.21 159.05 86.21C159.31 86.21 159.49 86.29 159.56 86.31L159.54 86.7599C159.43 86.7099 159.29 86.64 159.09 86.64C158.87 86.64 158.75 86.7799 158.75 86.9799C158.75 87.1999 158.87 87.28 159.01 87.37L159.27 87.5399C159.55 87.7299 159.69 87.9199 159.69 88.3199C159.69 88.9099 159.34 89.2 158.88 89.2C158.64 89.2 158.45 89.1599 158.33 89.0699L158.35 88.59Z" fill="#1C98D6"/>
<path d="M175.36 83.81L176.1 82.02H177.22L176.1 83.81" fill="#1C98D6"/>
<path d="M126.02 86.01L126.39 85.12H126.95L126.39 86.01" fill="#1C98D6"/>
<path d="M42.78 57.4C44.49 57.4 46.06 58.76 46.06 61.91C46.06 65.06 44.49 66.42 42.78 66.42C41.07 66.42 39.5 65.06 39.5 61.91C39.5 58.75 41.07 57.4 42.78 57.4ZM42.78 65.19C43.73 65.19 44.5 64.32 44.5 61.91C44.5 59.5 43.73 58.63 42.78 58.63C41.83 58.63 41.06 59.5 41.06 61.91C41.06 64.32 41.83 65.19 42.78 65.19Z" fill="#1C98D6"/>
<path d="M47.13 60.89C47.13 60.49 47.12 60.1099 47.08 59.8199H48.4C48.41 60.2099 48.45 60.61 48.45 61H48.47C48.65 60.5 49.11 59.72 50.01 59.72C50.1 59.72 50.18 59.7399 50.26 59.7599V61.22C50.13 61.18 50 61.16 49.85 61.16C49.25 61.16 48.59 61.5499 48.59 62.7599V66.3H47.13" fill="#1C98D6"/>
<path d="M51.13 67.3C51.47 67.5 52.15 67.8499 52.92 67.8499C54.3 67.8499 54.52 66.83 54.52 65.81V65.2H54.5C54.26 65.7 53.85 66.2899 52.9 66.2899C52.05 66.2899 50.78 65.6899 50.78 63.0699C50.78 61.2899 51.38 59.72 52.97 59.72C53.85 59.72 54.27 60.26 54.57 60.83H54.62C54.62 60.49 54.65 60.1599 54.67 59.8199H55.99C55.97 60.1599 55.94 60.5 55.94 60.84V65.62C55.94 67.64 55.36 69.09 53.13 69.09C52.16 69.09 51.4 68.83 51.05 68.69L51.13 67.3ZM53.24 65.15C54.16 65.15 54.52 64.45 54.52 62.9799C54.52 61.6199 54.04 60.89 53.34 60.91C52.58 60.92 52.28 61.68 52.28 63C52.28 64.51 52.74 65.15 53.24 65.15Z" fill="#1C98D6"/>
<path d="M57.39 60.2C57.8 60 58.38 59.72 59.31 59.72C61.2 59.72 61.63 60.6999 61.63 62.3199V65.15C61.63 65.61 61.68 66.0399 61.71 66.2899H60.39C60.32 66.0399 60.31 65.72 60.31 65.41H60.28C59.92 65.94 59.46 66.39 58.58 66.39C57.64 66.39 56.77 65.7 56.77 64.49C56.77 62.73 58.11 62.2899 59.96 62.2899H60.26V62.05C60.26 61.41 59.96 60.8199 59.13 60.8199C58.4 60.8199 57.75 61.2 57.47 61.45L57.39 60.2ZM60.26 63.13H60.13C58.88 63.13 58.14 63.4099 58.14 64.3499C58.14 64.9399 58.5 65.34 59.07 65.34C59.94 65.34 60.26 64.65 60.26 63.49V63.13Z" fill="#1C98D6"/>
<path d="M62.81 60.89C62.81 60.49 62.8 60.1099 62.76 59.8199H64.13C64.14 60.1499 64.18 60.49 64.18 60.81H64.22H64.2C64.41 60.42 64.82 59.72 65.81 59.72C67.19 59.72 67.6 60.81 67.6 62.12V66.2899H66.14V62.41C66.14 61.42 65.91 61 65.3 61C64.53 61 64.26 61.69 64.26 62.52V66.2899H62.8" fill="#1C98D6"/>
<path d="M68.87 57.0699H70.38V58.61H68.87V57.0699ZM68.89 59.8199H70.35V66.2899H68.89V59.8199Z" fill="#1C98D6"/>
<path d="M71.31 64.95L73.9 61H71.39V59.8199H75.36V61.15L72.82 65.11H75.44V66.2899H71.31" fill="#1C98D6"/>
<path d="M76.55 60.2C76.96 60 77.54 59.72 78.47 59.72C80.36 59.72 80.79 60.6999 80.79 62.3199V65.15C80.79 65.61 80.84 66.0399 80.87 66.2899H79.55C79.48 66.0399 79.47 65.72 79.47 65.41H79.44C79.08 65.94 78.62 66.39 77.74 66.39C76.8 66.39 75.93 65.7 75.93 64.49C75.93 62.73 77.27 62.2899 79.12 62.2899H79.42V62.05C79.42 61.41 79.12 60.8199 78.29 60.8199C77.56 60.8199 76.91 61.2 76.63 61.45L76.55 60.2ZM79.43 63.13H79.3C78.05 63.13 77.31 63.4099 77.31 64.3499C77.31 64.9399 77.67 65.34 78.24 65.34C79.11 65.34 79.43 64.65 79.43 63.49V63.13Z" fill="#1C98D6"/>
<path d="M86.1 66.13C85.76 66.27 85.25 66.4 84.66 66.4H84.59L84.38 67.08C84.5 67.04 84.64 67 84.84 67C85.49 67 85.87 67.39 85.87 67.93C85.87 68.72 85.14 69.09 84.56 69.09C84.07 69.09 83.56 68.96 83.32 68.84L83.51 68.34C83.75 68.43 83.98 68.52 84.34 68.52C84.73 68.52 84.95 68.31 84.95 68C84.95 67.71 84.73 67.54 84.41 67.54C84.2 67.54 84.06 67.58 83.95 67.63L83.74 67.42L84.09 66.36C82.49 66.08 81.81 64.71 81.81 63.08C81.81 61.23 82.71 59.74 84.75 59.74C85.21 59.74 85.75 59.89 86.02 60L85.94 61.23C85.68 61.09 85.32 60.92 84.91 60.92C83.8 60.92 83.32 61.71 83.32 63.09C83.32 64.3 83.86 65.23 84.98 65.23C85.33 65.23 85.82 65.06 86.02 64.92" fill="#1C98D6"/>
<path d="M87.12 60.1999C87.53 59.9999 88.11 59.7199 89.04 59.7199C90.93 59.7199 91.36 60.6999 91.36 62.3199V65.1499C91.36 65.6099 91.41 66.0399 91.44 66.2899H90.12C90.05 66.0399 90.04 65.7199 90.04 65.4099H90.02C89.66 65.9399 89.2 66.3899 88.32 66.3899C87.38 66.3899 86.5 65.6999 86.5 64.4899C86.5 62.7299 87.84 62.2899 89.69 62.2899H89.99V62.0499C89.99 61.4099 89.69 60.8199 88.86 60.8199C88.13 60.8199 87.48 61.1999 87.2 61.4499L87.12 60.1999ZM87.34 58.9699C87.34 58.5299 87.56 57.5199 88.45 57.4999C88.99 57.4999 89.45 57.9299 89.81 57.9299C90.05 57.9299 90.15 57.6899 90.15 57.4399H90.88C90.88 57.7999 90.65 58.9099 89.78 58.9099C89.32 58.9099 88.89 58.4799 88.46 58.4799C88.17 58.4799 88.03 58.7099 88.03 58.9699H87.34ZM89.99 63.1299H89.86C88.61 63.1299 87.87 63.4099 87.87 64.3499C87.87 64.9399 88.23 65.3399 88.8 65.3399C89.67 65.3399 89.99 64.6499 89.99 63.4899V63.1299Z" fill="#1C98D6"/>
<path d="M95.05 59.72C96.29 59.72 97.71 60.41 97.71 63.05C97.71 65.76 96.28 66.39 95.05 66.39C93.81 66.39 92.37 65.76 92.37 63.05C92.37 60.41 93.81 59.72 95.05 59.72ZM95.05 65.2899C95.99 65.2899 96.21 64.13 96.21 63.05C96.21 61.97 96 60.83 95.05 60.83C94.11 60.83 93.88 61.97 93.88 63.05C93.88 64.13 94.1 65.2899 95.05 65.2899Z" fill="#1C98D6"/>
<path d="M39.76 68.5499H42.12C43.82 68.5499 44.7 69.5599 44.7 71.2099C44.7 72.8599 43.81 73.8799 42.12 73.8799H41.27V77.3099H39.76V68.5499ZM41.84 72.6499C42.78 72.6499 43.19 72.1599 43.19 71.2099C43.19 70.2599 42.78 69.7799 41.84 69.7799H41.27V72.6599H41.84V72.6499Z" fill="#1C98D6"/>
<path d="M45.21 71.22C45.62 71.02 46.2 70.74 47.13 70.74C49.02 70.74 49.45 71.72 49.45 73.34V76.17C49.45 76.64 49.5 77.06 49.53 77.31H48.21C48.14 77.06 48.13 76.74 48.13 76.43H48.1C47.74 76.96 47.28 77.41 46.4 77.41C45.46 77.41 44.59 76.72 44.59 75.51C44.59 73.75 45.93 73.31 47.78 73.31H48.08V73.07C48.08 72.43 47.78 71.84 46.95 71.84C46.22 71.84 45.57 72.22 45.29 72.47L45.21 71.22ZM48.09 74.15H47.96C46.71 74.15 45.97 74.43 45.97 75.37C45.97 75.96 46.33 76.36 46.9 76.36C47.77 76.36 48.09 75.67 48.09 74.51V74.15Z" fill="#1C98D6"/>
<path d="M50.63 71.91C50.63 71.51 50.62 71.13 50.58 70.84H51.95C51.96 71.17 52 71.51 52 71.83H52.04H52.03C52.24 71.44 52.65 70.74 53.64 70.74C55.02 70.74 55.43 71.83 55.43 73.14V77.31H53.97V73.43C53.97 72.44 53.74 72.02 53.14 72.02C52.37 72.02 52.1 72.71 52.1 73.54V77.31H50.64" fill="#1C98D6"/>
<path d="M59.13 73.11H56.41V74.39H59.13V73.11Z" fill="#1C98D6"/>
<path d="M64.45 75.1999H61.62L61.03 77.3099H59.52L62.28 68.5399H63.93L66.58 77.3099H65.03L64.45 75.1999ZM64.13 73.9699L63.09 69.8699H63.07L61.94 73.9699H64.13Z" fill="#1C98D6"/>
<path d="M67.1 71.9C67.1 71.43 67.08 71.08 67.05 70.84H68.51C68.52 71.18 68.56 71.52 68.56 71.86H68.58C68.81 71.36 69.28 70.74 70.11 70.74C71.14 70.74 71.46 71.42 71.64 71.77C71.93 71.32 72.37 70.74 73.27 70.74C74.59 70.74 75.01 71.75 75.01 73.32V77.32H73.55V73.24C73.55 72.43 73.32 72.03 72.77 72.03C72.12 72.03 71.78 72.68 71.78 73.4V77.32H70.32V73.24C70.32 72.43 70.09 72.03 69.54 72.03C68.89 72.03 68.55 72.68 68.55 73.4V77.32H67.1" fill="#1C98D6"/>
<path d="M80.58 77C80.28 77.14 79.64 77.42 78.76 77.42C76.81 77.42 75.96 75.93 75.96 74.18C75.96 72.24 76.91 70.75 78.46 70.75C79.77 70.75 80.89 71.57 80.89 74.2V74.5H77.38C77.38 75.61 77.79 76.27 78.92 76.27C79.82 76.27 80.24 75.98 80.51 75.77L80.58 77ZM79.47 73.52C79.47 72.37 79.12 71.8 78.46 71.8C77.69 71.8 77.37 72.67 77.37 73.52H79.47Z" fill="#1C98D6"/>
<path d="M81.89 71.91C81.89 71.51 81.88 71.13 81.84 70.84H83.16C83.17 71.23 83.21 71.63 83.21 72.02H83.24C83.42 71.52 83.87 70.74 84.78 70.74C84.87 70.74 84.95 70.76 85.03 70.78V72.24C84.9 72.2 84.77 72.18 84.62 72.18C84.02 72.18 83.36 72.57 83.36 73.78V77.32H81.9" fill="#1C98D6"/>
<path d="M85.93 68.09H87.44V69.62H85.93V68.09ZM85.96 70.84H87.42V77.31H85.96V70.84Z" fill="#1C98D6"/>
<path d="M92.83 77.15C92.49 77.29 91.98 77.41 91.39 77.41C89.39 77.41 88.54 75.92 88.54 74.08C88.54 72.23 89.44 70.74 91.48 70.74C91.94 70.74 92.48 70.89 92.75 71L92.67 72.23C92.41 72.09 92.05 71.91 91.64 71.91C90.53 71.91 90.05 72.7 90.05 74.08C90.05 75.29 90.59 76.22 91.71 76.22C92.06 76.22 92.55 76.04 92.75 75.9" fill="#1C98D6"/>
<path d="M93.84 71.22C94.25 71.02 94.83 70.74 95.76 70.74C97.65 70.74 98.08 71.72 98.08 73.34V76.17C98.08 76.64 98.13 77.06 98.16 77.31H96.84C96.77 77.06 96.76 76.74 96.76 76.43H96.73C96.37 76.96 95.91 77.41 95.03 77.41C94.09 77.41 93.22 76.72 93.22 75.51C93.22 73.75 94.56 73.31 96.41 73.31H96.71V73.07C96.71 72.43 96.41 71.84 95.58 71.84C94.85 71.84 94.2 72.22 93.92 72.47L93.84 71.22ZM96.72 74.15H96.59C95.34 74.15 94.6 74.43 94.6 75.37C94.6 75.96 94.96 76.36 95.53 76.36C96.4 76.36 96.72 75.67 96.72 74.51V74.15Z" fill="#1C98D6"/>
<path d="M99.27 71.91C99.27 71.51 99.26 71.13 99.22 70.84H100.59C100.6 71.17 100.64 71.51 100.64 71.83H100.68H100.67C100.88 71.44 101.29 70.74 102.28 70.74C103.66 70.74 104.07 71.83 104.07 73.14V77.31H102.61V73.43C102.61 72.44 102.37 72.02 101.77 72.02C101 72.02 100.73 72.71 100.73 73.54V77.31H99.27" fill="#1C98D6"/>
<path d="M105.5 71.22C105.91 71.02 106.49 70.74 107.42 70.74C109.31 70.74 109.74 71.72 109.74 73.34V76.17C109.74 76.64 109.79 77.06 109.82 77.31H108.5C108.43 77.06 108.42 76.74 108.42 76.43H108.4C108.04 76.96 107.58 77.41 106.7 77.41C105.76 77.41 104.88 76.72 104.88 75.51C104.88 73.75 106.22 73.31 108.07 73.31H108.37V73.07C108.37 72.43 108.07 71.84 107.24 71.84C106.51 71.84 105.86 72.22 105.58 72.47L105.5 71.22ZM108.38 74.15H108.25C107 74.15 106.26 74.43 106.26 75.37C106.26 75.96 106.62 76.36 107.19 76.36C108.06 76.36 108.38 75.67 108.38 74.51V74.15Z" fill="#1C98D6"/>
<path d="M44.61 78.91V87.2299C44.61 87.6899 44.62 88.1 44.66 88.34H43.29C43.26 88.15 43.24 87.78 43.24 87.33H43.2C42.96 87.88 42.53 88.44 41.59 88.44C40.08 88.44 39.46 86.9 39.46 85.11C39.46 83 40.25 81.77 41.56 81.77C42.43 81.77 42.92 82.3 43.13 82.8H43.15V78.92L44.61 78.91ZM41.99 87.3C42.85 87.3 43.15 86.31 43.15 85.09C43.15 83.83 42.82 82.92 42.02 82.92C41.21 82.92 40.92 83.76 40.92 85.06C40.92 86.54 41.14 87.3 41.99 87.3Z" fill="#1C98D6"/>
<path d="M46.07 82.24C46.48 82.04 47.06 81.7599 47.99 81.7599C49.88 81.7599 50.31 82.74 50.31 84.36V87.19C50.31 87.66 50.36 88.08 50.39 88.34H49.07C49 88.09 48.99 87.77 48.99 87.46H48.96C48.6 87.99 48.14 88.44 47.26 88.44C46.32 88.44 45.44 87.7499 45.44 86.5399C45.44 84.7799 46.78 84.34 48.63 84.34H48.93V84.0999C48.93 83.4599 48.63 82.87 47.8 82.87C47.07 82.87 46.42 83.25 46.14 83.5L46.07 82.24ZM48.95 85.17H48.82C47.57 85.17 46.83 85.45 46.83 86.39C46.83 86.98 47.19 87.38 47.76 87.38C48.63 87.38 48.95 86.69 48.95 85.53V85.17Z" fill="#1C98D6"/>
<path d="M54.49 86.6399C54.78 86.8399 55.43 87.1799 56.23 87.1799C56.89 87.1799 57.48 86.7899 57.48 85.9099C57.48 85.2799 57.14 85.0099 56.41 84.5799L55.64 84.1299C54.83 83.6499 54.3 82.9599 54.3 81.8299C54.3 80.2599 55.51 79.4399 56.89 79.4399C57.76 79.4399 58.38 79.6799 58.61 79.7499L58.54 81.0999C58.17 80.9499 57.69 80.7199 56.99 80.7199C56.24 80.7199 55.85 81.1499 55.85 81.7499C55.85 82.3999 56.26 82.6499 56.72 82.9299L57.6 83.4599C58.57 84.0399 59.03 84.5899 59.03 85.8199C59.03 87.5999 57.84 88.4599 56.27 88.4599C55.44 88.4599 54.81 88.3399 54.4 88.0699" fill="#1C98D6"/>
<path d="M60.39 82.24C60.8 82.04 61.38 81.7599 62.31 81.7599C64.2 81.7599 64.63 82.74 64.63 84.36V87.19C64.63 87.66 64.68 88.08 64.71 88.34H63.39C63.32 88.09 63.31 87.77 63.31 87.46H63.28C62.92 87.99 62.46 88.44 61.58 88.44C60.64 88.44 59.76 87.7499 59.76 86.5399C59.76 84.7799 61.1 84.34 62.95 84.34H63.25V84.0999C63.25 83.4599 62.95 82.87 62.12 82.87C61.39 82.87 60.74 83.25 60.46 83.5L60.39 82.24ZM63.27 85.17H63.14C61.89 85.17 61.15 85.45 61.15 86.39C61.15 86.98 61.51 87.38 62.08 87.38C62.95 87.38 63.27 86.69 63.27 85.53V85.17Z" fill="#1C98D6"/>
<path d="M70.61 87.27C70.61 87.67 70.62 88.05 70.66 88.34H69.29C69.28 88.01 69.24 87.6699 69.24 87.3499L69.21 87.34L69.22 87.3499C68.94 87.8299 68.56 88.44 67.61 88.44C66.23 88.44 65.82 87.3499 65.82 86.0399V81.87H67.28V85.75C67.28 86.74 67.54 87.16 68.15 87.16C68.93 87.16 69.15 86.41 69.15 85.58V81.87H70.61V87.27ZM68.28 79.34H69.65L68.45 81.15H67.53L68.28 79.34Z" fill="#1C98D6"/>
<path d="M76.74 78.91V87.2299C76.74 87.6899 76.75 88.1 76.79 88.34H75.42C75.4 88.15 75.37 87.78 75.37 87.33H75.33C75.09 87.88 74.66 88.44 73.72 88.44C72.21 88.44 71.59 86.9 71.59 85.11C71.59 83 72.38 81.77 73.69 81.77C74.56 81.77 75.04 82.3 75.26 82.8H75.28V78.92L76.74 78.91ZM74.12 87.3C74.98 87.3 75.27 86.31 75.27 85.09C75.27 83.83 74.94 82.92 74.14 82.92C73.33 82.92 73.04 83.76 73.04 85.06C73.05 86.54 73.27 87.3 74.12 87.3Z" fill="#1C98D6"/>
<path d="M82.36 88.02C82.06 88.16 81.42 88.44 80.55 88.44C78.59 88.44 77.75 86.94 77.75 85.2C77.75 83.27 78.7 81.77 80.25 81.77C81.56 81.77 82.68 82.5899 82.68 85.2299V85.53H79.17C79.17 86.64 79.58 87.3 80.71 87.3C81.61 87.3 82.03 87.01 82.3 86.8L82.36 88.02ZM81.25 84.5399C81.25 83.3999 80.9 82.8199 80.23 82.8199C79.46 82.8199 79.15 83.6899 79.15 84.5399H81.25Z" fill="#1C98D6"/>
<path d="M18.63 90.37C8.81001 90.37 0.820007 82.52 0.820007 72.87C0.820007 63.22 8.81001 55.37 18.63 55.37C28.45 55.37 36.44 63.22 36.44 72.87C36.44 82.52 28.45 90.37 18.63 90.37ZM18.63 56.17C9.26001 56.17 1.64001 63.66 1.64001 72.87C1.64001 82.08 9.26001 89.57 18.63 89.57C28 89.57 35.62 82.08 35.62 72.87C35.63 63.66 28 56.17 18.63 56.17Z" fill="#1C98D6"/>
<path d="M18.63 85.5599C11.32 85.5599 5.37001 79.8699 5.37001 72.8699C5.37001 65.8699 11.32 60.1799 18.63 60.1799C25.94 60.1799 31.89 65.8699 31.89 72.8699C31.89 79.8699 25.95 85.5599 18.63 85.5599ZM18.63 61.0699C11.82 61.0699 6.28001 66.3599 6.28001 72.8699C6.28001 79.3799 11.82 84.6699 18.63 84.6699C25.44 84.6699 30.98 79.3799 30.98 72.8699C30.98 66.3599 25.44 61.0699 18.63 61.0699Z" fill="#1C98D6"/>
<path d="M4.57001 66.78L4.80001 67.64H5.65001L5.03001 68.12L5.26001 68.87L4.53001 68.27L3.81001 68.92L4.10001 68.12L3.37001 67.64L4.22001 67.66" fill="#1C98D6"/>
<path d="M5.35001 68.99L4.53001 68.33L3.84001 68.95L3.77001 68.9L4.05001 68.13L3.21001 67.59L4.19001 67.61L4.57001 66.63L4.83001 67.58H5.78001L5.08001 68.12L5.35001 68.99ZM3.52001 67.69L4.15001 68.1L3.91001 68.77L4.52001 68.22L5.17001 68.74L4.97001 68.1L5.51001 67.68H4.76001L4.55001 66.92L4.24001 67.7L3.52001 67.69Z" fill="#1C98D6"/>
<path d="M31.73 78.9199L31.96 79.7799H32.81L32.2 80.2599L32.43 81.0099L31.69 80.4199L30.98 81.0599L31.27 80.2599L30.53 79.7799L31.38 79.7999" fill="#1C98D6"/>
<path d="M32.52 81.14L31.7 80.4799L31.01 81.0999L30.94 81.05L31.22 80.28L30.38 79.74L31.36 79.7599L31.75 78.78L32.01 79.7299H32.96L32.26 80.27L32.52 81.14ZM30.69 79.83L31.32 80.24L31.08 80.91L31.69 80.36L32.34 80.88L32.14 80.24L32.68 79.8199H31.92L31.71 79.06L31.4 79.84L30.69 79.83Z" fill="#1C98D6"/>
<path d="M5.48001 78.73L5.71001 79.58H6.56001L5.94001 80.07L6.17001 80.82L5.44001 80.22L4.72001 80.87L5.01001 80.07L4.28001 79.59L5.13001 79.61" fill="#1C98D6"/>
<path d="M6.26 80.95L5.44 80.2899L4.75 80.91L4.68 80.86L4.96 80.09L4.13 79.55L5.11 79.5699L5.49 78.59L5.75 79.55H6.7L6 80.09L6.26 80.95ZM4.43 79.64L5.06001 80.05L4.82 80.72L5.43001 80.17L6.08 80.69L5.88 80.05L6.42 79.63H5.67L5.46 78.87L5.15 79.65L4.43 79.64Z" fill="#1C98D6"/>
<path d="M32.79 66.16L33.1 67.02H33.87L33.25 67.5L33.48 68.25L32.79 67.62L32.03 68.31L32.32 67.5L31.59 67.02L32.44 67.0399" fill="#1C98D6"/>
<path d="M33.57 68.3999L32.78 67.6799L32.06 68.3399L31.99 68.2899L32.27 67.5199L31.43 66.9799L32.41 66.9999L32.79 66.0399L33.13 66.9799H34L33.3 67.5199L33.57 68.3999ZM31.74 67.0699L32.37 67.4799L32.13 68.1499L32.78 67.5599L33.38 68.1099L33.19 67.4899L33.73 67.0699H33.05L32.77 66.2999L32.46 67.0999L31.74 67.0699Z" fill="#1C98D6"/>
<path d="M9.61001 82.81L9.98001 83.15L8.21001 85.03L7.81001 84.67L8.30001 82.62H8.29001L7.02001 83.96L6.65001 83.62L8.43001 81.74L8.85001 82.12L8.37001 84.12H8.38001" fill="#1C98D6"/>
<path d="M19.3 59.47L18.72 59.41L19.92 56.97L20.55 57.03L21.22 59.65L20.62 59.59L20.5 59.05L19.53 58.96L19.3 59.47ZM19.72 58.5399L20.39 58.5999L20.17 57.5699H20.16L19.72 58.5399Z" fill="#1C98D6"/>
<path d="M22.85 59.59L24.1 59.9799L23.95 60.42L22.17 59.86L23.01 57.47L23.54 57.63" fill="#1C98D6"/>
<path d="M26.87 61.1499C26.49 61.7099 25.98 61.7299 25.43 61.3799C25.23 61.2599 24.96 61.0199 24.91 60.6899C24.88 60.4899 24.95 60.2899 25.09 60.0699L26.04 58.6699L26.51 58.9599L25.58 60.3399C25.38 60.6299 25.47 60.8799 25.68 61.0099C26 61.2099 26.22 61.1399 26.4 60.8799L27.35 59.4799L27.82 59.7699" fill="#1C98D6"/>
<path d="M28.06 63.16L27.63 62.8199L29.03 61.22L28.42 60.74L28.72 60.39L30.37 61.7L30.07 62.05L29.46 61.56" fill="#1C98D6"/>
<path d="M16.38 58.88C16.41 59.02 16.52 59.28 17 59.21C17.26 59.17 17.53 59.07 17.49 58.8C17.46 58.61 17.25 58.58 16.97 58.56L16.68 58.54C16.24 58.51 15.82 58.47 15.73 57.92C15.68 57.64 15.76 57.12 16.6 57C17.4 56.89 17.7 57.36 17.75 57.67L17.23 57.74C17.2 57.63 17.11 57.37 16.63 57.44C16.42 57.47 16.19 57.58 16.23 57.81C16.26 58.01 16.44 58.03 16.55 58.04L17.21 58.1C17.58 58.13 17.93 58.23 18.01 58.68C18.14 59.44 17.35 59.62 17.12 59.66C16.17 59.8 15.92 59.29 15.87 58.98" fill="#1C98D6"/>
<path d="M10.42 58.95C10.73 58.8 11.61 58.51 12.18 59.57C12.75 60.63 12.01 61.17 11.7 61.32C11.39 61.48 10.51 61.76 9.94 60.7C9.37 59.64 10.11 59.11 10.42 58.95ZM11.48 60.92C11.74 60.79 12.03 60.44 11.69 59.81C11.35 59.18 10.89 59.21 10.63 59.34C10.37 59.47 10.08 59.82 10.42 60.45C10.77 61.09 11.22 61.06 11.48 60.92Z" fill="#1C98D6"/>
<path d="M6.62001 62.0199L7.54001 61.09C8.02001 60.6 8.48001 60.85 8.64001 61C8.85001 61.19 8.92001 61.4599 8.80001 61.6999C9.02001 61.6099 9.15001 61.58 9.51001 61.9C9.78001 62.15 9.85001 62.22 9.96001 62.16L10.01 62.21L9.59001 62.6399C9.48001 62.5799 9.37001 62.5099 9.17001 62.3299C8.91001 62.0899 8.80001 62.0199 8.52001 62.2999L8.13001 62.6999L8.86001 63.38L8.49001 63.7599L6.62001 62.0199ZM8.26001 61.9499C8.46001 61.7499 8.48001 61.5899 8.30001 61.4199C8.20001 61.3299 8.01001 61.24 7.79001 61.47L7.32001 61.9499L7.82001 62.41L8.26001 61.9499Z" fill="#1C98D6"/>
<path d="M25.78 84.31L26.23 84.0699L27.5 86.2599L27.02 86.52L25.18 85.46H25.17L26.08 87.03L25.64 87.27L24.36 85.0699L24.87 84.8L26.66 85.84H26.67" fill="#1C98D6"/>
<path d="M26.74 83.61L27.66 82.93C28.36 82.41 28.97 82.87 29.27 83.25C29.62 83.68 29.94 84.43 29.25 84.94L28.35 85.61L26.74 83.61ZM28.5 84.94L28.92 84.63C29.27 84.37 29.11 83.93 28.85 83.61C28.37 83.02 28.04 83.19 27.86 83.33L27.44 83.64L28.5 84.94Z" fill="#1C98D6"/>
<path d="M31.12 83.24L30.76 83.63L28.79 81.97L29.15 81.5699" fill="#1C98D6"/>
<path d="M31.96 64.41L31.12 63.34L30.68 63.66L31.46 64.64L31.09 64.91L30.31 63.93L29.77 64.33L30.65 65.45L30.28 65.72L29.07 64.18L31.16 62.66L32.33 64.14" fill="#1C98D6"/>
<path d="M11.36 84.12C11.64 84.31 12.31 84.94 11.61 85.91C10.91 86.89 10.07 86.5 9.79 86.31C9.51 86.12 8.84 85.49 9.54 84.52C10.23 83.54 11.07 83.93 11.36 84.12ZM10.05 85.94C10.29 86.1 10.74 86.19 11.16 85.61C11.58 85.03 11.34 84.65 11.1 84.49C10.86 84.32 10.41 84.24 9.99 84.82C9.56 85.4 9.8 85.78 10.05 85.94Z" fill="#1C98D6"/>
<path d="M14.14 85.49L14.67 85.69L12.89 87.7599L12.4 87.58L12.54 84.9L13.08 85.0999L12.88 87.09H12.89" fill="#1C98D6"/>
<path d="M15.03 88.3699L14.5 88.2399L15.18 85.8099L15.71 85.9399" fill="#1C98D6"/>
<path d="M21.26 88.5599L20.74 88.5999L20.59 86.4899L20.25 88.6299L19.71 88.6699L19.08 86.5899H19.07L19.22 88.6999L18.71 88.7399L18.53 86.2099L19.33 86.1499L19.95 88.1099L20.28 86.0899L21.08 86.0399" fill="#1C98D6"/>
<path d="M24.3 86.99C24.47 87.64 24.14 88.02 23.5 88.18C23.26 88.24 22.9 88.27 22.61 88.08C22.43 87.96 22.32 87.78 22.25 87.53L21.81 85.89L22.35 85.7599L22.77 87.36C22.86 87.71 23.11 87.81 23.36 87.75C23.72 87.66 23.83 87.45 23.75 87.15L23.32 85.52L23.86 85.39" fill="#1C98D6"/>
<path d="M6.89 65.72L6.58 66.16L4.41 64.73L5.08 63.76C5.37 63.35 5.81 63.28 6.23 63.56C6.43 63.69 6.85 64.12 6.45 64.69L6.1 65.2L6.89 65.72ZM6.02 64.55C6.25 64.22 6.01 64.06 5.91 64C5.7 63.86 5.53 63.92 5.34 64.19L5.1 64.54L5.74 64.96L6.02 64.55Z" fill="#1C98D6"/>
<path d="M21.23 82.84C21.42 83.27 20.92 83.1699 20.73 83.3199H20.57C20.6 83.0699 20.88 82.67 21.23 82.84Z" fill="#1C98D6"/>
<path d="M18.4 75.1099V75.2799H17.73C17.66 74.9099 18.24 74.8499 18.4 75.1099Z" fill="#1C98D6"/>
<path d="M19.58 70.68L19.9 70.2899L20.77 70.22L21.16 70.15L20.99 70.5099L20.51 70.68L20.59 70.5099L20.05 70.47L19.76 70.68" fill="#1C98D6"/>
<path d="M21.71 70.19L22 70.15L22.32 70.2899L22.14 70.5099L21.82 70.58L21.67 70.75L21.49 70.61L21.2 70.68L21.17 70.5399L21.42 70.47L21.31 70.33L21.42 70.22" fill="#1C98D6"/>
<path d="M22.6 70.52L22.78 70.38L23.11 70.41L23.03 70.59L22.56 70.7" fill="#1C98D6"/>
<path d="M20.05 70.93L20.41 70.9L20.33 71.11H19.97" fill="#1C98D6"/>
<path d="M22.5 70.88L22.72 70.72L22.83 70.83L22.69 70.95" fill="#1C98D6"/>
<path d="M22.32 71.22L22.5 71.44L22.64 71.37L22.53 71.0099" fill="#1C98D6"/>
<path d="M22.98 71.3599L23.08 71.2199L22.76 71.0399" fill="#1C98D6"/>
<path d="M23.34 71.2L23.47 71.25L23.42 71.77L23.24 71.3" fill="#1C98D6"/>
<path d="M17.57 63.21C17.7 63.07 17.6 62.47 17.39 62.4C17.15 62.77 17.89 62.94 17.39 63.21H17.57ZM18.72 65.15C18.69 64.86 18.62 64.25 18.89 63.86L19.06 63.69C19 63.74 18.94 63.8 18.89 63.86L18.56 63.5399L18.72 63.37C18.48 63.45 18.4 63.17 18.22 63.06C17.99 63.66 19.44 64.44 18.06 64.5C17.96 64.41 17.84 64.33 17.88 64.17H17.72V64.34H17.88C17.79 64.42 17.7 64.54 17.56 64.49C17.55 64.68 17.59 64.88 17.38 64.97H17.72C17.82 65.06 17.95 65.1399 17.88 65.2899C18.11 65.3499 18.44 65.15 18.56 65.45C18.51 65.32 18.64 65.24 18.72 65.15ZM20.5 72.86C20.86 72.64 21.06 72.5 21.57 72.38C21.52 72.54 21.65 72.61 21.73 72.7C22.1 72.29 22.33 72.6299 22.6 72.8499C22.74 72.9699 22.88 73.0499 23.06 73.0099C23.07 72.9599 23.1 72.9099 23.13 72.8499H23.31C23.56 73.4499 24.49 73.8 24.58 74.46C25.16 74.74 25.96 74.51 26.41 75.09C27.58 76.38 25 76.84 25.41 78.16C25.2 79.01 24.54 79.15 23.74 79.28C23.48 79.93 22.97 80.1899 22.41 80.5699C21.58 80.5399 21.46 81.15 20.74 81.37C20.48 82.21 19.78 82.44 19.57 83.31C19.7 83.57 20.15 83.4199 20.07 83.7899C19.49 83.7999 18.75 83.46 18.74 82.83C18.96 81.03 20.3 79.67 20.41 77.84C19.51 77.19 19.37 75.9499 19.41 74.7899C19.99 74.4999 19.86 73.92 20.07 73.5L19.75 73.18C19.41 73.66 19.19 72.93 18.74 73.18C18.71 73.06 18.65 72.9499 18.57 72.8499C18.39 72.6199 18.1 72.43 17.9 72.2C17.24 72 16.5 71.95 15.91 71.56C15.15 71.5 15.59 70.66 14.91 70.43C14.81 70.52 14.68 70.6 14.73 70.75C13.65 70.47 14.09 69.31 13.57 68.66C13.68 68.2 13.7 67.78 13.61 67.37C13.54 67.09 13.42 66.8299 13.24 66.5699C12.18 65.4199 11.01 67.4 9.74001 66.72C10.21 66.69 10.59 66.47 10.9 66.08C10.8 65.92 10.51 65.8299 10.58 65.5999L10.74 65.43L10.58 65.27L10.74 65.12C10.64 65.03 10.51 64.95 10.58 64.8C11.21 64.31 12.06 63.62 13.07 63.67C13.84 63.39 14.88 64.2899 15.58 63.3499C15.23 63.3299 14.86 62.82 15.24 62.56C15.48 62.59 15.74 62.17 15.92 62.56C16.13 62.45 16.08 62.25 16.08 62.06C16.63 61.76 17.22 62.68 17.41 61.9H17.75C17.7 62.06 17.83 62.1299 17.91 62.2299L18.09 62.06L18.25 62.2299C18.7 61.7999 18.99 62.68 19.58 62.39C20.03 62.67 20.3 63.29 20.42 63.84C20.24 63.84 20.03 63.79 19.92 63.99L20.6 64.64C20.81 64.53 20.76 64.33 20.76 64.14C21.56 64.54 22.05 65.37 22.43 66.08C21.56 66.22 20.77 66.59 20.26 67.36C20.79 68.66 18.56 68.63 19.59 69.93L19.26 70.2599C19.22 69.9599 19.12 69.69 18.93 69.45C18.06 69.99 16.55 68.91 16.76 70.58C16.98 70.77 16.97 71.04 17.26 71.22C17.68 71.4 17.82 70.89 18.09 70.74V70.59H18.75C19.1 71.18 18.01 71.88 19.09 72.03C19.09 72.22 19.14 72.4199 18.93 72.5099C19.01 72.7299 19.16 72.81 19.32 72.83C19.44 72.85 19.57 72.84 19.71 72.83H19.92C20.05 72.84 20.17 72.88 20.26 72.99C20.33 72.96 20.42 72.91 20.5 72.86Z" fill="#1C98D6"/>
<path d="M32.81 69.68C32.94 69.66 33.12 69.64 33.38 69.64C33.63 69.64 33.8 69.68 33.92 69.77C34.04 69.85 34.12 70.01 34.12 70.18C34.12 70.35 34.06 70.4999 33.96 70.5999C33.82 70.7199 33.62 70.78 33.39 70.78C33.34 70.78 33.3 70.78 33.28 70.77V71.34H32.82L32.81 69.68ZM33.27 70.43C33.3 70.43 33.33 70.44 33.37 70.44C33.55 70.44 33.66 70.35 33.66 70.2C33.66 70.08 33.57 69.99 33.4 69.99C33.33 69.99 33.28 70 33.26 70V70.43H33.27Z" fill="#1C98D6"/>
<path d="M33.56 73.31L33.46 73.7H32.98L33.48 72H34.09L34.6 73.7H34.1L33.99 73.31H33.56ZM33.94 72.98L33.86 72.68C33.84 72.58 33.8 72.45 33.78 72.35H33.77C33.75 72.45 33.72 72.59 33.69 72.69L33.62 72.99H33.94V72.98Z" fill="#1C98D6"/>
<path d="M33.19 74.4299V75.0599H33.75V74.4299H34.21V76.1299H33.75V75.4599H33.19V76.1299H32.73V74.4299" fill="#1C98D6"/>
<path d="M33.8 77.6599C33.8 78.2099 33.47 78.5499 32.94 78.5499C32.41 78.5499 32.11 78.1599 32.11 77.6799C32.11 77.1899 32.44 76.7899 32.97 76.7899C33.52 76.8099 33.8 77.2099 33.8 77.6599ZM32.6 77.6799C32.6 77.9999 32.74 78.1899 32.96 78.1899C33.18 78.1899 33.31 77.9799 33.31 77.6699C33.31 77.3799 33.18 77.1599 32.95 77.1599C32.74 77.1599 32.6 77.3699 32.6 77.6799Z" fill="#1C98D6"/>
<path d="M4.69 71.3899C4.69 71.9399 4.36 72.2799 3.83 72.2799C3.3 72.2799 3 71.8899 3 71.4199C3 70.9299 3.33 70.5399 3.86 70.5399C4.41 70.5399 4.69 70.9399 4.69 71.3899ZM3.49 71.4099C3.49 71.7299 3.63 71.9199 3.85 71.9199C4.07 71.9199 4.2 71.7099 4.2 71.3999C4.2 71.1099 4.07 70.8899 3.84 70.8899C3.63 70.8899 3.49 71.0999 3.49 71.4099Z" fill="#1C98D6"/>
<path d="M3 73.2899C3.12 73.2699 3.31 73.2599 3.57 73.2599C3.82 73.2599 3.99 73.3 4.11 73.39C4.23 73.48 4.31 73.63 4.31 73.8C4.31 73.97 4.25 74.12 4.14 74.22C4 74.34 3.8 74.39 3.57 74.39C3.53 74.39 3.48 74.39 3.46 74.39V74.97H3V73.2899ZM3.46 74.0399C3.48 74.0399 3.51 74.05 3.56 74.05C3.74 74.05 3.85 73.96 3.85 73.81C3.85 73.69 3.76 73.5999 3.59 73.5999C3.52 73.5999 3.47 73.61 3.45 73.61V74.0399H3.46Z" fill="#1C98D6"/>
<path d="M3.74001 76.89C3.84001 76.94 4.02001 77 4.19001 77C4.35001 77 4.43001 76.95 4.43001 76.86C4.43001 76.78 4.35001 76.73 4.16001 76.67C3.87001 76.57 3.67001 76.41 3.67001 76.16C3.67001 75.86 3.93001 75.63 4.36001 75.63C4.57001 75.63 4.71001 75.67 4.83001 75.72L4.73001 76.08C4.65001 76.05 4.53001 76 4.35001 76C4.21001 76 4.13001 76.05 4.13001 76.13C4.13001 76.21 4.22001 76.25 4.44001 76.33C4.75001 76.44 4.89001 76.6 4.89001 76.84C4.89001 77.13 4.66001 77.38 4.15001 77.38C3.94001 77.38 3.74001 77.33 3.64001 77.27" fill="#1C98D6"/>
</svg>
