<svg width="224" height="93" viewBox="0 0 224 93" fill="none" xmlns="http://www.w3.org/2000/svg">
<path d="M56.47 47.08C39.63 47.08 29.77 39.13 29.77 23.76C29.77 8.64998 39.64 0.440002 56.47 0.440002C73.31 0.440002 83.38 8.63998 83.38 23.76C83.38 39.13 73.31 47.08 56.47 47.08ZM56.47 36.23C63.78 36.23 63.99 28.61 64.06 23.76C63.99 19.56 63.51 11.3 56.47 11.3C49.64 11.3 49.09 19.57 49.09 23.76C49.09 28.61 49.85 36.23 56.47 36.23Z" fill="#1C98D6"/>
<path d="M87.45 1.22H119.26C126.78 1.22 136.92 4.58 136.92 16.72C136.92 28.48 128.85 33.32 119.19 33.32H105.94V46.3H87.45V1.22ZM105.46 22.86H109.53C113.95 22.86 118.43 22.09 118.43 17.05C118.43 12.27 113.94 11.69 109.46 11.69H105.46V22.86Z" fill="#1C98D6"/>
<path d="M180.67 13.56C176.53 12.2 171.63 11.3 166.39 11.3C163.49 11.3 158.46 11.36 158.46 14.27C158.46 20.15 183.78 14.59 183.78 31.97C183.78 44.05 171.02 47.08 160.32 47.08C153.21 47.08 147.35 46.44 140.45 44.95V33.26C145.42 35.2 151.49 36.23 157.01 36.23C161.36 36.23 165.29 35.39 165.29 33.13C165.29 27.06 139.97 32.55 139.97 15.04C139.97 2.63998 153.77 0.440002 164.74 0.440002C169.91 0.440002 175.64 1.01999 180.68 1.98999V13.56H180.67Z" fill="#1C98D6"/>
<path d="M137.86 62.34C138.47 63.06 139.54 63.49 140.16 64.21C139.73 62.09 138.06 60.35 136.09 59.92C137.05 60.63 137.25 61.62 137.86 62.34ZM113.97 67.47C115.36 64.59 117.4 65.22 118.29 62.48C117.79 63.32 115.56 63.66 114.51 65.81C115.05 64.53 114.8 62.56 115.71 61.5C113.02 63.39 114.13 66.5 113.97 67.47ZM116.38 74.43C116.61 75.56 115.88 77.18 117.01 78.74C115.84 77.43 113.33 77.08 112.32 75.1C113.56 79.92 116.9 78.96 118.4 80.02C117.18 78.28 118.2 77.14 116.38 74.43ZM115.97 77.44C115.26 74.75 116.58 73.83 115.61 71.25C115.49 72.7 114.49 73.4 115.14 76.06C113.98 73.8 112.15 72.95 111.63 71.4C111.62 75.61 115.1 76.27 115.97 77.44ZM121.27 81.99C120.26 80.6 120.97 79.83 118.11 77.29C118.71 78.21 118.07 79.36 120 81.16C118.11 80.05 115.48 80.49 114.23 79.02C116.37 83.1 120.2 81.48 121.27 81.99ZM135.22 81.32C137.18 79.55 136.56 78.39 137.18 77.48C134.28 79.96 134.97 80.75 133.93 82.12C135.02 81.62 138.82 83.31 141.03 79.29C139.75 80.74 137.13 80.24 135.22 81.32ZM138.26 78.94C139.42 77.4 138.71 75.77 138.97 74.64C137.1 77.32 138.11 78.48 136.85 80.2C138.37 79.17 141.69 80.19 143.02 75.4C141.97 77.35 139.45 77.66 138.26 78.94ZM133.62 82.3C132.5 82 131.34 81.84 130.47 81.81C129.39 81.77 128.43 81.96 127.59 82.26C126.76 81.95 125.8 81.74 124.72 81.76C123.86 81.77 122.7 81.91 121.57 82.19C119.83 82.62 118.33 82.96 117.03 82.3C118.27 83.39 119.73 83.79 121.84 83.59C123.6 83.42 125.02 82.58 126.68 82.61C126.7 82.61 126.72 82.61 126.74 82.61C124.99 83.45 123.99 84.65 123.99 84.65L124.78 84.76C124.78 84.76 125.64 83.12 127.57 82.72C129.5 83.17 130.33 84.82 130.33 84.82L131.13 84.72C131.13 84.72 130.16 83.5 128.42 82.63C128.44 82.63 128.46 82.63 128.49 82.63C130.15 82.63 131.56 83.5 133.31 83.71C135.42 83.95 136.88 83.58 138.14 82.51C136.85 83.13 135.35 82.77 133.62 82.3ZM115.75 68.34C115.02 69.67 113.91 69.96 114 72.71C113.42 70.26 112 69.34 112.03 67.78C111 71.85 113.65 72.36 114.32 74.07C114.25 71.62 115.86 71.14 115.75 68.34ZM116.78 65.2C116.53 65.53 116.35 65.68 115.68 66.2C114.77 66.92 114.04 67.86 113.72 69.25C113.8 67.76 112.87 65.6 113.52 64.04C111.04 67.37 113.61 69.41 113.69 70.63C114.34 68.29 115.8 68.29 116.78 65.2ZM141.72 69.52C141.43 68.13 140.72 67.17 139.82 66.44C139.16 65.9 138.99 65.76 138.74 65.42C139.66 68.53 141.12 68.56 141.73 70.9C141.83 69.69 144.44 67.7 142.02 64.32C142.64 65.88 141.67 68.02 141.72 69.52ZM143.78 71.7C143.23 73.24 141.39 74.06 140.19 76.29C140.89 73.64 139.9 72.93 139.81 71.47C138.79 74.04 140.09 74.98 139.33 77.65C140.21 76.51 143.7 75.92 143.78 71.7ZM139.71 68.57C139.55 71.37 141.15 71.88 141.03 74.33C141.73 72.62 144.39 72.17 143.43 68.08C143.43 69.64 142 70.54 141.37 72.98C141.52 70.22 140.41 69.91 139.71 68.57ZM117.71 62.15C118.33 61.44 118.55 60.46 119.52 59.76C117.53 60.15 115.84 61.86 115.37 63.97C116.01 63.26 117.09 62.85 117.71 62.15ZM137.28 62.65C138.12 65.41 140.16 64.82 141.5 67.73C141.37 66.76 142.53 63.67 139.88 61.73C140.76 62.8 140.48 64.77 140.99 66.06C139.99 63.88 137.76 63.5 137.28 62.65ZM130.34 64.15C129.83 63.94 129.29 63.79 128.72 63.7C128.72 63.82 128.71 63.94 128.71 64.05C129.23 64.13 129.73 64.27 130.21 64.46C130.27 64.38 130.32 64.27 130.34 64.15ZM129.96 60.74L130.07 60.64L129.86 60.55L129.31 60.53L129.17 60.62L128.85 60.59L128.84 60.67C129.04 60.69 129.24 60.71 129.4 60.73L129.67 60.71L129.96 60.74ZM128.8 72.17C128.8 72.08 128.68 71.99 128.5 71.91H128.47C128.47 71.98 128.46 72.34 128.46 72.52C128.68 72.41 128.8 72.31 128.8 72.17ZM122.55 65.37C122.56 65.3 122.58 65.24 122.6 65.17C122.53 65.19 122.46 65.19 122.38 65.19L122.55 65.37ZM127.63 81.02C133.76 81.08 138.8 76.27 138.85 70.31C138.9 64.71 134.56 60.06 128.96 59.45C128.96 59.47 128.95 59.49 128.94 59.51C128.92 59.61 128.9 59.71 128.88 59.79C131.39 60.05 133.64 61.16 135.33 62.8L134.09 63.98L134.14 63.77L133.98 63.7L133.76 63.69L133.81 63.55L133.67 63.06L133.37 62.73L132.42 62.23L132.34 62.32L132.16 62.37C132.49 62.84 132.66 63.39 132.65 63.94C132.65 64.01 132.65 64.08 132.64 64.15L133.11 64.74L132.89 64.79L133.04 65.01L132.62 65.41L132.45 65.1C132.37 65.32 132.26 65.52 132.13 65.71C132.16 65.74 132.19 65.76 132.22 65.79L130.92 67.03C130.84 66.96 130.76 66.89 130.68 66.82C130.56 66.87 130.43 66.92 130.3 66.97C130.34 67 130.38 67.02 130.41 67.05L130.34 67.11L130.19 67.19L130.13 67.34L130.04 67.25L129.77 67.34L129.84 67.46L130.03 67.41L130.15 67.42L130.16 67.36L130.26 67.31L130.29 67.26L130.46 67.22L130.59 67.21C130.62 67.23 130.64 67.25 130.67 67.28L130.15 67.77L130.11 67.72L129.57 67.8L129.45 67.92L129.33 67.93L129.67 67.63L129.55 67.57L129.24 67.97L129.33 67.96L129.32 68.11L129.43 68.15L129.45 68.31L129.27 68.27L129.07 68.3L128.6 68.06C128.6 68.06 128.56 69.29 128.54 69.91C129.65 70.28 130.82 70.82 130.81 72.2C130.8 72.8 130.53 73.29 130 73.65C129.99 73.65 129.98 73.66 129.98 73.67C129.97 73.68 129.96 73.68 129.94 73.69C129.49 73.97 128.91 74.12 128.41 74.27L128.39 75.23C129.18 75.62 130.14 76.19 130.04 77.79C130.03 78.19 129.87 78.29 129.73 78.33C129.26 78.44 128.78 78.51 128.29 78.54C128.29 78.66 128.28 78.78 128.28 78.89C130.42 78.77 132.37 77.91 133.85 76.56L135.13 77.83C133.18 79.62 130.54 80.71 127.65 80.68C124.77 80.65 122.17 79.53 120.25 77.72L121.55 76.48C122.99 77.83 124.89 78.71 127 78.88C127 78.77 127 78.65 127 78.53C124.99 78.36 123.19 77.52 121.82 76.24L122.17 75.91L122.64 75.97L122.89 75.71L123.55 75.74L123.65 75.52L123.63 75.43C124.58 76.15 125.73 76.62 126.99 76.76C126.99 76.62 126.99 76.5 126.99 76.41C125.6 76.25 124.35 75.65 123.39 74.77L124.69 73.53C125 73.81 125.35 74.04 125.73 74.22C125.76 74.1 125.81 73.99 125.87 73.89C125.53 73.73 125.23 73.52 124.95 73.28L126.26 72.03C126.46 72.19 126.7 72.32 126.95 72.41C126.95 72.28 126.95 72.15 126.95 72.03C126.8 71.96 126.65 71.88 126.52 71.78L126.89 71.43C126.76 71.39 126.63 71.35 126.5 71.31L126.25 71.55C126.13 71.41 126.03 71.26 125.95 71.1C125.73 71 125.51 70.89 125.31 70.76C124.52 70.24 124.12 69.52 124.13 68.61C124.14 67.92 124.34 67.39 124.67 66.99L123.39 65.72C124.33 64.87 125.53 64.28 126.86 64.1C126.86 63.98 126.86 63.86 126.86 63.75C125.43 63.93 124.15 64.55 123.14 65.47L122.93 65.25C122.88 65.33 122.82 65.44 122.75 65.58L122.89 65.71C121.77 66.85 121.07 68.38 121.02 70.07L119.19 70.05C119.24 67.87 120.15 65.9 121.6 64.44L122.18 65.01C122.21 65.01 122.23 65.01 122.26 65.01C122.36 65 122.48 64.97 122.59 64.92L121.86 64.19C122.25 63.83 122.68 63.5 123.14 63.21C123.18 63.09 123.21 62.99 123.23 62.95C123.25 62.91 123.37 62.76 123.51 62.59C122.81 62.96 122.17 63.41 121.6 63.94L120.32 62.67C122.03 61.08 124.27 60.04 126.75 59.81C126.74 59.77 126.74 59.73 126.74 59.73C126.72 59.65 126.7 59.56 126.69 59.46C121.09 59.97 116.68 64.54 116.63 70.13C116.55 76.06 121.49 80.96 127.63 81.02ZM130.09 73.56C130.1 73.56 130.1 73.56 130.09 73.56V73.56ZM135.58 63.05C137.38 64.92 138.49 67.43 138.49 70.19L136.66 70.17C136.65 68.81 136.33 67.52 135.74 66.37L135.76 66.34L135.89 66.41L135.92 66.32L135.6 65.76L135.22 65.24L134.77 64.87C134.62 64.68 134.45 64.49 134.28 64.32L135.58 63.05ZM133.23 65.31L133.67 65.33L133.77 65.45L133.72 65.63L134.33 66.01L134.45 66L135.22 66.87L135.54 66.76C136.03 67.8 136.3 68.95 136.3 70.16L134.47 70.14C134.47 69.68 134.41 69.23 134.31 68.79L134.39 68.68L134.51 68.12L134.43 67.52L134.22 66.83L133.72 66.1L133.84 66.16L133.9 66.1L133.5 65.82L133.47 65.91L133.87 66.48L134.1 66.95L134.26 67.41L134.31 67.72L134.39 68.24L134.24 68.25C134.24 68.25 134.07 67.93 134.01 67.79L134.09 67.67L133.94 67.46V67.24L133.83 67.1L133.69 67.12C133.64 67.03 133.59 66.94 133.54 66.85L133.64 66.9L133.67 66.87L133.62 66.75L133.74 66.69L133.69 66.62L133.51 66.68L133.58 66.41L133.48 66.35L133.38 66.57C133.18 66.28 132.97 66 132.72 65.74L133.23 65.31ZM132.83 69.47L133.16 69.3L133.49 69.25L133.57 69.09L133.76 68.99L133.83 68.84L133.89 68.58C133.92 68.67 133.94 68.77 133.96 68.86L133.78 69.37L133.77 69.54L134.03 69.21C134.08 69.52 134.11 69.83 134.11 70.15L132.51 70.14L132.47 70L132.66 69.86L132.7 69.77L132.78 69.71L133 69.69L133.02 69.6L132.83 69.47ZM130.64 68.23L130.81 68.2L130.8 68.16L130.64 68.05L130.7 67.71L130.9 67.52C131.02 67.66 131.14 67.8 131.24 67.95L131.17 68.16L130.99 68.04L130.85 68.07L130.92 68.19H130.99L130.91 68.37L130.86 68.3L130.64 68.23ZM131.29 74.14L130.9 74.03L130.78 74.07L130.56 73.9L130.35 73.83C130.45 73.76 130.56 73.68 130.65 73.6L130.97 73.83L131.22 73.96L131.34 74.08L131.29 74.14ZM131.15 67.28L132.45 66.04C132.75 66.36 133.02 66.71 133.24 67.09L133.08 67.13L133.09 67.41L133.57 67.71C133.69 67.97 133.79 68.23 133.87 68.51L133.79 68.63L133.61 68.74L133.56 69L133.44 69.06L133.34 69.17L133.24 69.14L133.06 69.13L133.17 69L133.25 68.65L133.37 68.58L133.02 68.25L132.76 68.34L132.7 68.58L132.53 68.75L132.36 68.61L132.3 68.46L132.4 68.4L132.45 68.5L132.53 68.47L132.5 68.31L132.39 68.3L132.38 68.37L132.31 68.39L131.91 67.93L131.77 67.82L131.82 67.77L131.94 67.73L131.83 67.68C131.83 67.68 131.69 67.71 131.67 67.71L131.75 67.81L131.55 67.8C131.43 67.61 131.3 67.44 131.15 67.28ZM131.75 73.98L131.58 73.81L131.72 73.64L131.89 73.31L131.82 73.22L131.93 72.97L131.92 72.75L131.85 72.52L131.69 72.46L131.63 72.59L131.53 72.56C131.67 72.35 131.82 72.15 131.92 71.91L132.08 71.84L132.17 71.72L132.21 71.77L132.32 71.64L132.23 71.53L132.31 71.51L132.46 71.57L132.74 71.58L132.91 71.5L133.36 71.39L133.28 71.24L133.25 71.07L133.49 71.17L133.58 71.12L133.54 70.94L133.24 71.04L132.92 70.97L132.68 70.48L134.08 70.49C134 72.06 133.33 73.47 132.28 74.52L132.09 74.33L132.18 74.08L132.04 73.53L131.75 73.98ZM131.96 77.45L132.13 77.09L132.06 76.93L132.32 76.72V76.59L132.11 76.46L132.29 76.11L132.56 75.77L132.29 75.48H132.09L131.97 75.28C132.08 75.19 132.19 75.11 132.29 75.02L133.57 76.29C133.09 76.74 132.55 77.12 131.96 77.45ZM133.59 75.8L133.73 75.65L133.6 74.96L133.51 74.92L133.57 74.8L133.27 74.7L133.21 74.95L133.18 75.26L133.11 75.32L132.56 74.77C133.68 73.66 134.39 72.16 134.47 70.5L136.3 70.52C136.22 72.67 135.29 74.61 133.84 76.05L133.59 75.8ZM134.09 76.3C135.61 74.8 136.57 72.77 136.66 70.53L138.49 70.55C138.4 73.29 137.23 75.76 135.38 77.58L134.09 76.3ZM123.1 74.47C122.97 74.34 122.84 74.2 122.72 74.05L122.78 73.6L122.59 73.17L122.55 72.5L122.34 72.09L122.39 71.84L122.13 71.35L121.9 71.24L121.99 70.98L121.9 70.77L122 70.54H122.25L122.34 70.4H122.77L122.84 70.52L122.76 70.94L122.71 71.01L122.87 71.35L122.76 71.41L122.69 71.32L122.66 71.35L122.73 71.55L122.85 71.79H122.91L122.95 71.58L122.89 71.5L122.88 71.36L122.86 71.06L122.96 70.54L122.87 70.4H123.18C123.23 71.49 123.69 72.48 124.41 73.23L123.1 74.47ZM121.93 70.98L121.75 71.24H121.46L121.43 71.22C121.38 70.94 121.35 70.66 121.34 70.37L121.89 70.38L121.75 70.81L121.93 70.98ZM122.54 69.77L122.58 69.41L122.8 69.29L123.19 69.36L123.25 69.43C123.22 69.63 123.19 69.83 123.19 70.04H122.75L122.54 69.77ZM124.38 71.11L124.47 71.07L124.71 71.25L124.61 71.33L124.88 71.51L124.86 71.32L125.01 71.09L125.16 71.24L125.31 71.46L125.03 71.52L125.15 71.76L125.35 71.66L125.32 71.58L125.47 71.49L125.56 71.1C125.66 71.33 125.8 71.54 125.98 71.73L124.68 72.97C124.07 72.33 123.67 71.51 123.57 70.6L123.83 70.88H124.08L124.38 71.11ZM123.1 65.91L124.38 67.18C124.11 67.46 123.87 67.79 123.69 68.14L123.6 68.13L123.42 68.18L123.36 68.17L123.16 68.34L123.41 68.3L123.63 68.25C123.62 68.28 123.6 68.31 123.59 68.33L123.4 68.44H123.31L123.02 68.65L122.75 68.63L122.35 69.35L122.43 69.5L122.21 69.73L122.17 70.03L121.35 70.02C121.39 68.43 122.05 66.99 123.1 65.91ZM121.35 75.38L121.76 75.62L121.85 75.68L121.55 75.97C121.41 75.83 121.28 75.68 121.15 75.53L121.35 75.38ZM120.98 70.37C120.99 70.54 121 70.71 121.02 70.88L120.8 70.93L120.75 71.15L120.28 71.72V72.51L119.8 72.66H119.54C119.3 71.93 119.17 71.15 119.15 70.35L120.98 70.37ZM119.16 72.66L119.05 72.64L118.95 72.53L118.44 72.48L118.6 72.69L118.13 72.6L118.26 72.49L118.14 72.38L117.8 72.52L117.68 72.74L117.72 73.25L118.11 74.17L118.3 74.46L118.41 74.5L118.11 73.95L118.05 73.67L118.12 73.6L118.08 73.44L118.26 73.47L118.53 73.88L118.6 73.91V73.61L118.71 73.67L118.73 73.83L119.02 73.91L119.14 73.82L119.18 73.85L119.17 74.07L119.3 74.22L119.45 74.25L119.78 74.81L119.98 74.87L120.05 74.61C120.4 75.19 120.82 75.72 121.29 76.2L119.99 77.44C118.16 75.59 117.01 73.08 116.98 70.33L118.81 70.35C118.81 71.15 118.93 71.92 119.16 72.66ZM120.04 62.87L121.32 64.14C119.8 65.66 118.85 67.72 118.8 70L116.97 69.98C117.02 67.22 118.18 64.72 120.04 62.87ZM133.27 62.35L133.16 62.18L132.92 62.06L132.73 62.2L132.97 62.33L133.24 62.52L133.27 62.35ZM132.12 67.36L132.13 67.5L132.45 67.41L132.55 67.22L132.33 66.94L132.45 66.77L132.74 66.98L132.8 66.94L132.74 66.9L132.67 66.78L132.79 66.71L132.67 66.56L132.39 66.7L132.29 66.86L132.23 67.01L132.35 67.21L132.3 67.3L132.12 67.36ZM118.83 75.21L118.85 75.13L118.69 74.78L118.5 74.71L118.83 75.21ZM126.36 68.6C126.36 68.9 126.54 69.11 126.88 69.29C126.88 69.29 126.88 69.24 126.88 69.16L126.67 68.95L126.79 68.75L126.88 68.73C126.87 68.38 126.87 67.99 126.87 67.94H126.85C126.54 68.1 126.37 68.3 126.36 68.6Z" fill="#1C98D6"/>
<path d="M128.33 76.32C128.9 76.61 129.43 77 129.64 77.74C129.75 76.52 129.05 75.98 128.35 75.62C128.36 75.62 128.33 76.32 128.33 76.32Z" fill="#1C98D6"/>
<path d="M132.14 64.27C132.14 63.16 131.31 61.92 129.28 61.49C129.13 61.46 128.9 61.44 128.66 61.42C128.65 61.59 128.65 61.97 128.65 61.97C128.65 62.09 128.64 62.54 128.63 62.63C128.82 62.65 128.96 62.67 129.02 62.68C130.2 62.95 130.62 63.61 130.62 64.27C130.62 65.32 129.69 65.72 128.55 66.02C128.43 66.05 128.3 66.08 128.17 66.12C127.82 66.2 127.47 66.28 127.12 66.38C126.99 66.41 126.87 66.45 126.75 66.48C125.48 66.86 124.4 67.45 124.4 68.97C124.4 70.48 125.64 71.04 126.85 71.4C126.84 70.97 126.83 70.53 126.83 70.09C126.29 69.85 125.92 69.53 125.92 68.99C125.92 68.46 126.26 68.14 126.79 67.91C126.91 67.86 127.03 67.81 127.16 67.77C127.46 67.67 127.8 67.59 128.16 67.5C128.28 67.47 128.41 67.44 128.54 67.41C130.23 67.01 132.14 66.49 132.14 64.27Z" fill="#1C98D6"/>
<path d="M126.04 74.49C126.04 75.1 126.49 75.43 126.95 75.69C126.95 75.59 126.94 74.65 126.94 74.63C126.95 74.44 127.14 74.33 127.29 74.26C127.51 74.16 127.74 74.09 128.02 73.99C128.16 73.95 128.27 73.9 128.41 73.87C129.34 73.61 130.41 73.27 130.42 72.18C130.43 71.08 129.52 70.63 128.52 70.28C128.51 70.63 128.49 71.14 128.48 71.49C128.9 71.66 129.18 71.86 129.18 72.17C129.18 72.56 128.74 72.78 128.44 72.89C128.31 72.94 128.12 73 128.06 73.01C127.81 73.08 127.55 73.17 127.3 73.25C127.17 73.29 127.04 73.35 126.92 73.4C126.49 73.63 126.04 73.93 126.04 74.49Z" fill="#1C98D6"/>
<path d="M126.64 61.59C126.02 61.76 125.66 61.99 125.52 62.03C125.12 62.16 124.56 62.18 123.98 62.8C123.88 62.91 123.63 63.22 123.45 63.47C123.28 63.71 123.27 64.11 123.14 64.32C122.95 64.63 123 64.8 123 64.8L123.01 64.81C123 64.85 122.97 65.01 122.8 65.2C122.61 65.41 122.35 65.53 122.05 65.48C122.32 65.61 122.68 65.43 122.68 65.43C122.68 65.43 122.61 65.62 122.54 65.94C122.83 65.28 123.11 65.05 123.19 64.98C123.32 65.01 123.58 65 124.07 64.72C124.62 64.41 125.46 63.9 125.69 63.58C125.94 63.23 126.29 63.01 126.67 62.86C126.66 62.38 126.65 61.95 126.64 61.59ZM124.3 63.63L124.01 63.69L124.35 63.14L124.75 63.15L124.3 63.63Z" fill="#1C98D6"/>
<path d="M127.81 74.43C127.75 74.45 127.62 74.5 127.53 74.53C127.44 74.56 127.32 74.61 127.32 74.64C127.32 74.65 127.37 79.36 127.36 79.46C127.35 80.43 127.86 80.44 127.87 79.47C127.87 79.4 128.02 74.37 128.02 74.37C128.02 74.37 127.9 74.4 127.81 74.43Z" fill="#1C98D6"/>
<path d="M127.26 73.26C127.42 73.21 127.58 73.16 127.72 73.12C127.83 73.09 127.93 73.06 128.03 73.03C128.03 72.73 128.12 68.64 128.14 67.89C127.76 67.98 127.43 68.07 127.16 68.17C127.17 68.71 127.25 72.81 127.26 73.26Z" fill="#1C98D6"/>
<path d="M127.68 57.57C126.25 57.57 126.86 59.63 126.97 60.3C126.98 60.33 127.08 64.94 127.11 66C127.32 65.94 127.54 65.89 127.75 65.84C127.9 65.8 128.04 65.77 128.18 65.74C128.2 64.72 128.3 60.32 128.31 60.29C128.4 59.57 129.14 57.57 127.68 57.57Z" fill="#1C98D6"/>
<path d="M148.83 67.55C150.07 67.56 151.41 66.59 151.44 63.83C151.47 61.07 150.15 60.07 148.9 60.06C147.66 60.05 146.32 61.02 146.29 63.78C146.26 66.54 147.58 67.54 148.83 67.55ZM148.88 61.17C149.7 61.18 150.15 62.12 150.13 63.82C150.11 65.52 149.65 66.46 148.83 66.45C148.01 66.44 147.56 65.5 147.58 63.8C147.6 62.09 148.06 61.16 148.88 61.17ZM154.28 63.29C154.38 63.29 154.47 63.31 154.58 63.34L154.64 63.36L154.65 62.06L154.55 62.04L154.41 62.02C153.74 62.01 153.39 62.57 153.24 62.91C153.24 62.74 153.23 62.52 153.23 62.52L153.22 62.09H153.17L152.1 62.08L152.11 62.13C152.13 62.34 152.14 62.63 152.14 63L152.1 67.48L153.32 67.49L153.35 64.54C153.36 63.37 154.07 63.28 154.28 63.29ZM156.56 67.52C157.24 67.53 157.58 67.13 157.77 66.77V67.1C157.76 67.85 157.62 68.72 156.57 68.71C156.15 68.71 155.68 68.55 155.22 68.25L155.15 68.21L155.07 69.46L155.1 69.47C155.63 69.7 156.18 69.81 156.72 69.82C158.68 69.84 158.94 68.3 158.96 66.95L159 63.04L159.04 62.18L158.99 62.16L157.92 62.15L157.9 62.53C157.9 62.53 157.89 62.76 157.88 62.9C157.65 62.47 157.32 62.06 156.66 62.05C155.55 62.04 154.91 63.05 154.9 64.83C154.88 67.31 156.16 67.52 156.56 67.52ZM156.95 63.11C157.12 63.11 157.26 63.17 157.38 63.29C157.65 63.55 157.79 64.08 157.79 64.77C157.78 65.98 157.49 66.5 156.83 66.49C156.51 66.49 156.15 66.03 156.16 64.76C156.17 63.64 156.42 63.11 156.95 63.11ZM163.59 67.53C163.57 67.35 163.53 67 163.54 66.6L163.56 64.28C163.57 62.97 163.27 62.1 161.74 62.08C161 62.07 160.54 62.31 160.23 62.46L160.2 62.48L160.26 63.65L160.34 63.58C160.54 63.4 161.03 63.09 161.59 63.09C162.33 63.1 162.4 63.77 162.4 64.06V64.21H162.22C161.05 64.2 159.71 64.4 159.69 66.04C159.68 67.09 160.4 67.65 161.12 67.66C161.78 67.66 162.14 67.32 162.41 66.95C162.41 67.16 162.42 67.37 162.46 67.55L162.47 67.59L163.58 67.6L163.59 67.53ZM162.39 65.23C162.38 66.23 162.1 66.69 161.51 66.69C161.1 66.69 160.84 66.38 160.85 65.92C160.86 65.24 161.29 64.98 162.34 64.99H162.39V65.23ZM168.26 67.63L168.29 64.16C168.3 62.82 167.83 62.14 166.88 62.13C166.18 62.12 165.83 62.6 165.65 62.91C165.65 62.77 165.64 62.57 165.64 62.57L165.63 62.2H165.58L164.47 62.19L164.48 62.24C164.5 62.45 164.51 62.74 164.51 63.11L164.47 67.59L165.7 67.6L165.73 64.46C165.73 64.01 165.84 63.26 166.49 63.27C166.85 63.27 167.08 63.46 167.08 64.38L167.05 67.61L168.26 67.63ZM170.46 62.25L169.23 62.24L169.18 67.64L170.4 67.65L170.46 62.25ZM170.49 60L169.23 59.99L169.22 61.34L170.48 61.35L170.49 60ZM173.52 64.77L172.97 64.36C172.64 64.12 172.47 63.98 172.47 63.72C172.47 63.4 172.67 63.25 173.07 63.26C173.47 63.26 173.77 63.38 174.04 63.5L174.11 63.53L174.19 62.44L174.16 62.43C173.78 62.28 173.37 62.2 172.97 62.2C171.94 62.19 171.3 62.99 171.29 63.74C171.28 64.59 171.81 64.95 172.27 65.27C172.29 65.28 172.75 65.59 172.75 65.59C173.15 65.86 173.22 66.04 173.22 66.22C173.22 66.55 173.01 66.7 172.54 66.69C172.1 66.69 171.7 66.48 171.48 66.38L171.32 66.3V66.37L171.25 67.46L171.28 67.47C171.42 67.53 171.93 67.74 172.6 67.74C173.67 67.75 174.4 67.11 174.41 66.14C174.4 65.53 174.13 65.23 173.52 64.77ZM177.78 67.08C177.78 67.29 177.79 67.51 177.84 67.69L177.85 67.73L178.96 67.74L178.95 67.69C178.93 67.51 178.89 67.15 178.89 66.76L178.91 64.44C178.92 63.13 178.62 62.26 177.09 62.24C176.35 62.23 175.89 62.47 175.58 62.62L175.55 62.64L175.61 63.81L175.69 63.74C175.89 63.56 176.38 63.25 176.94 63.25C177.68 63.26 177.76 63.93 177.75 64.22V64.37H177.57C176.4 64.36 175.06 64.56 175.04 66.2C175.03 67.25 175.75 67.81 176.47 67.82C177.15 67.8 177.51 67.45 177.78 67.08ZM176.87 66.83C176.46 66.83 176.21 66.52 176.21 66.06C176.22 65.39 176.65 65.11 177.7 65.13H177.75V65.38C177.74 66.38 177.46 66.84 176.87 66.83ZM181.42 60.85L180.19 61.26L180.18 62.34L179.44 62.33L179.43 63.36L180.17 63.37L180.14 66.22C180.13 67.29 180.57 67.82 181.48 67.83C181.77 67.83 182.03 67.77 182.26 67.66L182.29 67.65L182.3 66.63L182.22 66.68C182.16 66.72 182.02 66.78 181.82 66.78C181.55 66.78 181.36 66.66 181.37 66.09L181.39 63.39L182.32 63.4L182.33 62.37L181.4 62.36L181.42 60.85ZM184.46 62.38L183.24 62.37L183.19 67.77L184.41 67.78L184.46 62.38ZM184.5 60.13L183.24 60.12L183.23 61.47L184.49 61.48L184.5 60.13ZM189.44 65.13C189.46 62.62 188 62.34 187.37 62.33C186.74 62.32 185.26 62.58 185.23 65.09C185.21 67.52 186.53 67.89 187.32 67.9C188.09 67.9 189.41 67.55 189.44 65.13ZM187.32 66.89C186.62 66.88 186.48 65.91 186.49 65.1C186.5 64.29 186.65 63.33 187.35 63.33C187.91 63.34 188.18 63.94 188.17 65.11C188.16 66.3 187.88 66.9 187.32 66.89ZM192.67 62.38C191.96 62.37 191.62 62.85 191.44 63.16C191.43 63.01 191.43 62.81 191.43 62.81L191.42 62.45H191.37L190.26 62.44L190.27 62.49C190.29 62.7 190.3 62.98 190.3 63.36L190.26 67.84L191.48 67.85L191.51 64.71C191.51 64.26 191.62 63.51 192.27 63.52C192.63 63.52 192.86 63.71 192.85 64.63L192.82 67.86L194.05 67.87L194.08 64.4C194.09 63.07 193.62 62.39 192.67 62.38ZM151.33 72.28C150.7 72.27 150.35 72.64 150.08 73.06C149.93 72.75 149.66 72.26 148.9 72.26C148.27 72.25 147.92 72.7 147.74 73.04C147.74 72.89 147.73 72.71 147.73 72.71L147.72 72.33H147.67L146.49 72.32L146.52 73.23L146.48 77.72L147.7 77.73L147.73 74.47C147.74 73.95 147.96 73.4 148.45 73.4C148.69 73.4 149 73.5 148.99 74.34L148.96 77.74L150.19 77.75L150.22 74.49C150.22 73.97 150.45 73.42 150.94 73.42C151.18 73.42 151.49 73.52 151.48 74.36L151.45 77.76L152.68 77.77L152.71 74.44C152.71 73.52 152.58 72.29 151.33 72.28ZM155.43 72.31C154.8 72.3 153.32 72.56 153.3 75.07C153.28 77.5 154.59 77.87 155.38 77.88C156.16 77.89 157.49 77.54 157.51 75.11C157.53 72.61 156.06 72.32 155.43 72.31ZM155.39 76.88C154.69 76.87 154.55 75.9 154.56 75.09C154.57 74.28 154.72 73.32 155.43 73.32C155.99 73.33 156.26 73.92 156.25 75.1C156.23 76.28 155.94 76.88 155.39 76.88ZM160.63 72.36C159.93 72.35 159.58 72.83 159.41 73.14C159.4 72.99 159.4 72.8 159.4 72.8L159.38 72.43H159.33L158.22 72.42L158.23 72.48C158.25 72.69 158.26 72.98 158.26 73.35L158.22 77.83L159.45 77.84L159.48 74.7C159.48 74.25 159.59 73.51 160.24 73.51C160.6 73.51 160.83 73.7 160.83 74.62L160.8 77.85L162.02 77.86L162.05 74.39C162.05 73.06 161.58 72.37 160.63 72.36ZM166.71 76.95L166.77 70.08L165.54 70.07L165.51 73.12C165.36 72.82 165.02 72.4 164.34 72.4C163.3 72.39 162.66 73.43 162.65 75.17C162.63 76.91 163.26 77.95 164.32 77.96C164.89 77.97 165.29 77.69 165.55 77.16C165.55 77.47 165.57 77.72 165.58 77.85V77.89L166.74 77.9L166.73 77.85C166.71 77.68 166.71 77.38 166.71 76.95ZM164.64 76.93C164.07 76.93 163.87 76.44 163.88 75.13C163.89 73.98 164.16 73.43 164.69 73.44C165.4 73.45 165.5 74.53 165.5 75.18C165.49 75.98 165.34 76.94 164.64 76.93ZM167.73 71.61L168.99 71.62L169 70.27L167.74 70.26L167.73 71.61ZM167.69 77.91L168.92 77.92L168.97 72.52L167.75 72.51L167.69 77.91ZM173.38 76.98L173.4 74.66C173.41 73.35 173.11 72.48 171.58 72.46C170.84 72.45 170.38 72.69 170.07 72.84L170.04 72.85L170.1 74.02L170.18 73.95C170.38 73.77 170.87 73.46 171.43 73.46C172.17 73.47 172.24 74.14 172.24 74.43V74.58H172.06C170.89 74.57 169.55 74.77 169.53 76.41C169.52 77.46 170.24 78.02 170.96 78.03C171.62 78.04 171.98 77.69 172.25 77.32C172.25 77.53 172.26 77.74 172.31 77.93L172.32 77.97L173.43 77.98L173.42 77.92C173.41 77.73 173.38 77.38 173.38 76.98ZM172.24 75.61C172.23 76.61 171.95 77.07 171.36 77.07C170.95 77.07 170.7 76.76 170.7 76.3C170.71 75.63 171.14 75.35 172.19 75.36H172.24V75.61ZM174.37 77.98L175.59 77.99L175.66 70.17L174.44 70.16L174.37 77.98ZM178.46 72.53C177.3 72.52 176.47 73.69 176.46 75.37C176.45 76.68 177.02 78.08 178.65 78.1C179.35 78.11 179.86 77.87 180.07 77.77L180.1 77.76L180.05 76.62L179.97 76.68C179.72 76.89 179.4 77.07 178.77 77.07C178.01 77.06 177.65 76.63 177.65 75.7L180.35 75.73V75.43C180.38 73.05 179.34 72.54 178.46 72.53ZM177.66 74.8C177.68 74.18 177.89 73.49 178.46 73.49C179.05 73.5 179.18 74.2 179.18 74.81L177.66 74.8ZM187.14 77.14L187.2 70.27L185.97 70.26L185.94 73.31C185.78 73.01 185.45 72.59 184.77 72.59C183.73 72.58 183.1 73.62 183.08 75.36C183.06 77.1 183.69 78.15 184.75 78.16C185.32 78.16 185.72 77.89 185.98 77.36C185.98 77.67 185.99 77.92 186.01 78.05L186.02 78.09L187.17 78.1L187.16 78.04C187.15 77.87 187.14 77.57 187.14 77.14ZM185.08 77.13C184.51 77.12 184.31 76.64 184.32 75.33C184.33 74.19 184.6 73.63 185.13 73.64C185.85 73.65 185.94 74.73 185.94 75.38C185.93 76.18 185.77 77.13 185.08 77.13ZM189.75 72.64C188.59 72.63 187.76 73.8 187.75 75.48C187.74 76.79 188.3 78.19 189.94 78.2C190.64 78.21 191.15 77.97 191.36 77.87L191.39 77.85L191.34 76.71L191.26 76.77C191.01 76.98 190.69 77.17 190.06 77.16C189.29 77.15 188.94 76.72 188.93 75.79L191.64 75.82V75.53C191.66 73.16 190.63 72.65 189.75 72.64ZM188.94 74.91C188.96 74.29 189.17 73.6 189.74 73.6C190.21 73.61 190.45 74.05 190.45 74.92L188.94 74.91ZM194.74 78.17L195.97 78.18L196.04 70.36L194.82 70.35L194.74 78.17ZM200.25 77.24L200.27 74.92C200.28 73.64 200.17 72.74 198.64 72.72C197.9 72.71 197.44 72.95 197.13 73.1L197.1 73.11L197.16 74.28L197.24 74.21C197.44 74.03 197.92 73.72 198.49 73.72C199.23 73.73 199.31 74.4 199.3 74.69V74.84H199.12C197.95 74.83 196.61 75.03 196.59 76.67C196.58 77.72 197.3 78.28 198.02 78.29C198.68 78.3 199.04 77.95 199.31 77.58C199.31 77.79 199.32 78.01 199.37 78.19L199.38 78.23L200.31 78.24L200.3 78.18C200.28 77.95 200.25 77.61 200.25 77.24ZM199.3 75.87C199.29 76.87 199.01 77.33 198.42 77.33C198.01 77.33 197.75 77.02 197.76 76.56C197.77 75.88 198.2 75.61 199.26 75.62H199.31V75.87H199.3ZM205.71 74.19L205.03 73.75C204.68 73.53 204.39 73.33 204.39 72.82C204.4 72.32 204.71 72.03 205.23 72.03C205.71 72.04 206.05 72.19 206.33 72.32L206.46 72.38L206.53 71.17L206.43 71.14C206.22 71.06 205.77 70.89 205.16 70.89C204.14 70.88 203.11 71.49 203.09 72.88C203.08 73.74 203.41 74.36 204.13 74.82L204.71 75.2C205.25 75.55 205.51 75.76 205.5 76.26C205.49 76.99 205.02 77.25 204.58 77.24C203.92 77.23 203.41 76.9 203.27 76.79L203.2 76.73L203.12 78.02L203.14 78.04C203.46 78.26 203.95 78.37 204.61 78.38C205.97 78.4 206.79 77.58 206.8 76.19C206.83 75.12 206.44 74.66 205.71 74.19ZM211.25 77.34L211.27 75.02C211.28 73.71 210.98 72.84 209.45 72.82C208.71 72.81 208.25 73.05 207.94 73.2L207.91 73.21L207.97 74.38L208.05 74.31C208.25 74.13 208.74 73.82 209.3 73.82C210.04 73.83 210.12 74.5 210.12 74.79V74.94H209.94C208.77 74.93 207.43 75.13 207.41 76.77C207.4 77.82 208.12 78.38 208.84 78.39C209.5 78.4 209.86 78.05 210.13 77.68C210.13 77.89 210.14 78.11 210.18 78.28L210.19 78.32L211.3 78.33L211.29 78.28C211.29 78.1 211.25 77.74 211.25 77.34ZM210.12 75.97C210.11 76.97 209.83 77.43 209.24 77.43C208.84 77.43 208.58 77.12 208.58 76.66C208.59 75.99 209.02 75.71 210.07 75.73H210.12V75.97ZM214.49 72.87C213.79 72.86 213.44 73.34 213.27 73.65C213.26 73.5 213.26 73.31 213.26 73.31L213.25 72.94H213.2L212.09 72.93L212.1 72.98C212.12 73.19 212.13 73.48 212.13 73.85L212.09 78.33L213.31 78.34L213.34 75.2C213.34 74.75 213.45 74 214.1 74.01C214.46 74.01 214.69 74.2 214.68 75.12L214.65 78.35L215.88 78.36L215.91 74.89C215.92 73.57 215.44 72.88 214.49 72.87ZM218.39 71.49L217.16 71.9L217.15 72.98L216.41 72.97L216.4 74.01L217.14 74.02L217.11 76.88C217.1 77.95 217.54 78.48 218.45 78.49C218.74 78.49 219 78.43 219.23 78.32L219.25 78.31L219.26 77.28L219.18 77.33C219.12 77.37 218.98 77.43 218.78 77.43C218.51 77.43 218.32 77.31 218.33 76.74L218.36 74.04L219.29 74.05L219.3 73.02L218.37 73.01L218.39 71.49ZM223 70.97L221.82 70.96L221.19 72.53L222 72.54L223 70.97ZM223.72 75.84C223.74 73.46 222.7 72.95 221.83 72.94C220.67 72.93 219.84 74.1 219.83 75.78C219.82 77.09 220.38 78.49 222.01 78.51C222.71 78.52 223.22 78.28 223.43 78.18L223.46 78.16L223.41 77.02L223.33 77.08C223.08 77.29 222.76 77.48 222.13 77.47C221.37 77.46 221.01 77.03 221.01 76.1L223.71 76.13L223.72 75.84ZM221.02 75.21C221.04 74.59 221.25 73.9 221.81 73.9C222.4 73.91 222.53 74.61 222.53 75.22L221.02 75.21Z" fill="#1C98D6"/>
<path d="M149.96 88.84L147.81 88.82L147.35 90.36L146.2 90.35L148.36 83.98L149.61 83.99L151.57 90.4L150.39 90.39L149.96 88.84ZM149.72 87.94L148.96 84.95H148.94L148.05 87.93L149.72 87.94Z" fill="#1C98D6"/>
<path d="M151.99 86.45C151.99 86.11 151.98 85.86 151.96 85.68L153.07 85.69C153.08 85.94 153.1 86.18 153.1 86.43H153.12C153.29 86.07 153.66 85.62 154.29 85.63C155.07 85.64 155.32 86.13 155.45 86.39C155.68 86.06 156.01 85.6399 156.69 85.6499C157.69 85.6599 158.01 86.39 158 87.54L157.97 90.45L156.86 90.44L156.89 87.4599C156.9 86.8699 156.72 86.58 156.31 86.58C155.82 86.58 155.55 87.05 155.55 87.57L155.52 90.43L154.41 90.42L154.44 87.44C154.45 86.85 154.27 86.56 153.86 86.56C153.37 86.56 153.1 87.03 153.1 87.55L153.07 90.41L151.96 90.3999" fill="#1C98D6"/>
<path d="M162.2 90.27C161.96 90.37 161.48 90.57 160.82 90.56C159.33 90.55 158.69 89.45 158.71 88.18C158.72 86.77 159.46 85.69 160.63 85.7C161.62 85.71 162.47 86.31 162.45 88.24V88.46L159.78 88.44C159.77 89.25 160.08 89.73 160.94 89.74C161.62 89.75 161.95 89.54 162.15 89.39L162.2 90.27ZM161.38 87.72C161.39 86.89 161.12 86.46 160.62 86.46C160.04 86.45 159.79 87.08 159.78 87.71L161.38 87.72ZM160.66 83.92L161.7 83.93L160.77 85.24L160.07 85.23L160.66 83.92Z" fill="#1C98D6"/>
<path d="M163.22 86.56C163.22 86.27 163.22 86 163.19 85.78L164.2 85.79C164.21 86.08 164.23 86.37 164.23 86.65H164.25C164.39 86.29 164.75 85.72 165.43 85.73C165.5 85.73 165.56 85.75 165.62 85.76L165.61 86.82C165.51 86.79 165.41 86.77 165.3 86.77C164.84 86.77 164.34 87.05 164.33 87.92L164.31 90.5L163.2 90.49" fill="#1C98D6"/>
<path d="M166.32 83.81L167.47 83.82L167.46 84.94L166.31 84.93L166.32 83.81ZM166.31 85.82L167.42 85.83L167.38 90.55L166.27 90.54L166.31 85.82Z" fill="#1C98D6"/>
<path d="M171.04 89.9H171.02C170.86 90.27 170.48 90.65 169.82 90.64C168.82 90.63 168.23 89.73 168.25 88.19C168.26 86.88 168.74 85.77 169.9 85.78C170.62 85.79 170.95 86.19 171.12 86.6H171.14C171.14 86.28 171.16 86 171.18 85.87L172.22 85.88C172.19 86.05 172.18 86.35 172.17 86.69L172.12 92.58L171.01 92.57L171.04 89.9ZM170.18 89.81C170.79 89.82 171.05 89.15 171.06 88.23C171.07 87.34 170.85 86.62 170.2 86.61C169.55 86.6 169.38 87.15 169.37 88.24C169.35 89.19 169.56 89.8 170.18 89.81Z" fill="#1C98D6"/>
<path d="M176.68 89.85C176.68 90.14 176.69 90.42 176.71 90.63L175.67 90.62C175.66 90.38 175.64 90.13 175.64 89.9L175.61 89.89L175.62 89.9C175.4 90.25 175.11 90.69 174.38 90.69C173.33 90.68 173.02 89.88 173.03 88.93L173.06 85.89L174.17 85.9L174.14 88.73C174.13 89.45 174.33 89.76 174.79 89.76C175.38 89.77 175.56 89.22 175.56 88.61L175.59 85.91L176.7 85.92" fill="#1C98D6"/>
<path d="M180.93 90.44C180.7 90.54 180.21 90.74 179.55 90.73C178.06 90.72 177.43 89.62 177.44 88.35C177.45 86.94 178.19 85.86 179.37 85.87C180.36 85.88 181.21 86.48 181.19 88.41V88.63L178.52 88.6C178.51 89.41 178.82 89.9 179.68 89.9C180.36 89.91 180.68 89.7 180.89 89.55L180.93 90.44ZM180.11 87.9C180.12 87.07 179.85 86.64 179.35 86.64C178.77 86.63 178.52 87.26 178.51 87.89L180.11 87.9Z" fill="#1C98D6"/>
<path d="M181.76 89.58C181.94 89.66 182.39 89.9 182.91 89.9C183.31 89.9 183.63 89.81 183.63 89.44C183.63 89.26 183.54 89.08 183.14 88.84L182.69 88.56C182.23 88.27 181.72 87.97 181.72 87.22C181.73 86.57 182.35 85.89 183.33 85.9C183.92 85.91 184.38 86.07 184.48 86.1L184.41 86.98C184.13 86.87 183.84 86.76 183.43 86.76C182.98 86.75 182.79 86.9299 182.79 87.2099C182.79 87.4699 182.98 87.61 183.3 87.82L183.85 88.18C184.42 88.56 184.7 88.83 184.7 89.38C184.69 90.25 183.97 90.77 182.97 90.76C182.4 90.75 181.92 90.61 181.69 90.52" fill="#1C98D6"/>
<path d="M223.7 82.21L146.48 81.48L146.49 80.81L223.7 81.55V82.21Z" fill="#1C98D6"/>
<path d="M112.21 87.17L112.89 87.18C113.37 87.18 113.59 87.4 113.59 87.89C113.59 88.34 113.35 88.47 113.2 88.54V88.55C113.38 88.6 113.64 88.76 113.63 89.23C113.62 89.75 113.31 90.02 112.9 90.02H112.19L112.21 87.17ZM112.62 88.36H112.84C113.05 88.36 113.18 88.17 113.18 87.94C113.18 87.7 113.04 87.56 112.84 87.55H112.63L112.62 88.36ZM112.61 89.61H112.85C113.08 89.61 113.21 89.44 113.21 89.18C113.21 88.93 113.11 88.75 112.84 88.74H112.62L112.61 89.61Z" fill="#1C98D6"/>
<path d="M114.33 87.19L114.31 89.03C114.3 89.5 114.42 89.66 114.67 89.66C114.91 89.66 115.03 89.51 115.04 89.04L115.06 87.2H115.49L115.47 89.04C115.46 89.79 115.11 90.08 114.67 90.08C114.23 90.08 113.88 89.78 113.88 89.03L113.9 87.19" fill="#1C98D6"/>
<path d="M115.83 87.2L116.56 87.21C116.97 87.21 117.25 87.44 117.25 87.97C117.25 88.34 117.05 88.59 116.79 88.63V88.64C116.88 88.66 116.97 88.71 117.04 88.97L117.34 90.05H116.88L116.66 89.12C116.61 88.89 116.5 88.82 116.34 88.82H116.24L116.23 90.04H115.8L115.83 87.2ZM116.42 88.44C116.65 88.44 116.8 88.3 116.8 88.01C116.8 87.68 116.66 87.6 116.42 87.6H116.25L116.24 88.44H116.42Z" fill="#1C98D6"/>
<path d="M117.59 87.22L118.82 87.23L118.81 87.65L118.02 87.64L118.01 88.4H118.76V88.82L118 88.81V89.65L118.83 89.66L118.82 90.07L117.57 90.06" fill="#1C98D6"/>
<path d="M120.3 89.4L119.5 89.39L119.33 90.07H118.9L119.71 87.24L120.18 87.25L120.91 90.1H120.47L120.3 89.4ZM120.21 89L119.93 87.67H119.92L119.59 88.99L120.21 89Z" fill="#1C98D6"/>
<path d="M121.4 87.26L121.38 89.1C121.38 89.57 121.49 89.73 121.74 89.73C121.98 89.73 122.11 89.58 122.11 89.11L122.12 87.27H122.55L122.53 89.11C122.52 89.86 122.17 90.15 121.73 90.15C121.29 90.15 120.94 89.85 120.94 89.1L120.96 87.26" fill="#1C98D6"/>
<path d="M123.65 87.28L124.38 87.29C124.8 87.3 125.07 87.52 125.07 88.05C125.07 88.42 124.87 88.67 124.61 88.71V88.72C124.7 88.74 124.79 88.79 124.87 89.05L125.16 90.14H124.71L124.48 89.22C124.43 89 124.32 88.92 124.16 88.92H124.06L124.05 90.14H123.62L123.65 87.28ZM124.24 88.52C124.47 88.52 124.62 88.38 124.63 88.09C124.63 87.76 124.49 87.68 124.25 87.68H124.08L124.07 88.52H124.24Z" fill="#1C98D6"/>
<path d="M125.41 87.29L126.64 87.3V87.72L125.84 87.71L125.83 88.47L126.59 88.48V88.9L125.84 88.89L125.83 89.73L126.66 89.74V90.15L125.4 90.14L125.41 87.29ZM126.05 86.58H126.44L126.09 87.16H125.83L126.05 86.58Z" fill="#1C98D6"/>
<path d="M127.88 88.56L128.63 88.57L128.62 90.06C128.5 90.14 128.29 90.21 127.99 90.2C127.24 90.19 126.85 89.57 126.86 88.73C126.87 87.89 127.27 87.27 128.02 87.28C128.29 87.28 128.5 87.36 128.59 87.41L128.56 87.88C128.42 87.78 128.24 87.7 128.02 87.7C127.57 87.7 127.32 88.15 127.31 88.74C127.3 89.38 127.54 89.79 127.97 89.79C128.07 89.79 128.16 89.77 128.22 89.74L128.23 88.97H127.87" fill="#1C98D6"/>
<path d="M129.043 87.3181L129.017 90.1581L129.447 90.1621L129.473 87.3221L129.043 87.3181Z" fill="#1C98D6"/>
<path d="M130.66 87.35C131.15 87.35 131.59 87.8 131.58 88.82C131.57 89.84 131.12 90.28 130.64 90.27C130.16 90.27 129.72 89.82 129.73 88.8C129.73 87.78 130.18 87.35 130.66 87.35ZM130.64 89.87C130.91 89.87 131.13 89.59 131.14 88.81C131.15 88.03 130.93 87.75 130.66 87.75C130.39 87.75 130.17 88.03 130.16 88.81C130.15 89.59 130.37 89.87 130.64 89.87Z" fill="#1C98D6"/>
<path d="M131.87 87.35L132.38 87.36L133.13 89.6H133.14L133.16 87.37H133.55L133.52 90.21H133.01L132.26 87.98H132.25L132.23 90.2L131.84 90.19" fill="#1C98D6"/>
<path d="M135.07 89.54L134.27 89.53L134.09 90.21H133.66L134.47 87.38L134.94 87.39L135.67 90.24H135.23L135.07 89.54ZM134.99 89.14L134.71 87.81H134.7L134.37 89.13L134.99 89.14Z" fill="#1C98D6"/>
<path d="M135.83 87.39L136.26 87.4L136.23 89.82L137 89.83V90.25L135.8 90.23" fill="#1C98D6"/>
<path d="M137.87 87.47L138.48 87.48C139.21 87.49 139.6 87.96 139.59 88.89C139.58 89.83 139.11 90.28 138.45 90.28L137.84 90.27L137.87 87.47ZM138.28 89.88H138.42C138.9 89.89 139.12 89.49 139.13 88.88C139.14 88.27 138.92 87.87 138.44 87.87H138.3L138.28 89.88Z" fill="#1C98D6"/>
<path d="M139.89 87.49L141.12 87.5V87.91L140.32 87.9L140.31 88.65H141.07V89.06L140.31 89.05L140.3 89.88L141.14 89.89L141.13 90.3L139.87 90.28" fill="#1C98D6"/>
<path d="M141.46 89.76C141.54 89.82 141.73 89.93 141.96 89.94C142.15 89.94 142.32 89.82 142.32 89.54C142.32 89.34 142.23 89.25 142.02 89.11L141.8 88.9599C141.57 88.8099 141.42 88.5799 141.42 88.2199C141.42 87.7199 141.77 87.4599 142.17 87.4699C142.42 87.4699 142.6 87.55 142.66 87.57L142.64 88C142.54 87.95 142.4 87.88 142.2 87.88C141.99 87.88 141.87 88.0199 141.87 88.2099C141.87 88.4199 141.99 88.4999 142.12 88.5899L142.37 88.76C142.64 88.95 142.77 89.12 142.77 89.52C142.76 90.09 142.42 90.3599 141.98 90.3499C141.74 90.3499 141.56 90.3099 141.45 90.2199" fill="#1C98D6"/>
<path d="M13.33 85.56L13.83 85.74L12.13 87.63L11.67 87.46L11.8 85.02L12.32 85.2L12.13 87.02" fill="#1C98D6"/>
<path d="M14.17 88.19L13.67 88.07L14.31 85.84L14.82 85.97" fill="#1C98D6"/>
<path d="M20.1 88.37L19.61 88.4L19.47 86.47H19.46L19.14 88.43L18.62 88.46L18.02 86.56L18.16 88.49L17.67 88.52L17.5 86.21L18.26 86.16L18.85 87.95H18.86L19.17 86.1L19.93 86.05" fill="#1C98D6"/>
<path d="M23 86.93C23.16 87.52 22.85 87.87 22.24 88.01C22.02 88.06 21.67 88.09 21.39 87.92C21.22 87.81 21.12 87.64 21.05 87.42L20.63 85.92L21.15 85.8L21.56 87.27C21.65 87.58 21.88 87.68 22.12 87.62C22.47 87.54 22.56 87.35 22.49 87.07L22.08 85.58L22.6 85.46" fill="#1C98D6"/>
<path d="M17.6 90.02C8.24999 90.02 0.649994 82.84 0.649994 74.02C0.649994 65.2 8.24999 58.02 17.6 58.02C26.94 58.02 34.55 65.2 34.55 74.02C34.55 82.84 26.95 90.02 17.6 90.02ZM17.6 58.75C8.67999 58.75 1.41999 65.6 1.41999 74.02C1.41999 82.44 8.67999 89.29 17.6 89.29C26.52 89.29 33.77 82.44 33.77 74.02C33.77 65.6 26.52 58.75 17.6 58.75Z" fill="#1C98D6"/>
<path d="M17.6 85.62C10.64 85.62 4.98 80.42 4.98 74.02C4.98 67.62 10.64 62.42 17.6 62.42C24.56 62.42 30.22 67.62 30.22 74.02C30.22 80.41 24.56 85.62 17.6 85.62ZM17.6 63.23C11.12 63.23 5.84 68.07 5.84 74.01C5.84 79.95 11.11 84.79 17.6 84.79C24.08 84.79 29.35 79.95 29.35 74.01C29.36 68.07 24.08 63.23 17.6 63.23Z" fill="#1C98D6"/>
<path d="M4.20999 68.45L4.42999 69.23H5.23999L4.65999 69.67L4.87999 70.36L4.17999 69.82L3.49999 70.41L3.76999 69.67L3.06999 69.23L3.87999 69.25" fill="#1C98D6"/>
<path d="M4.95999 70.47L4.17999 69.87L3.52999 70.44L3.45999 70.4L3.71999 69.7L2.92999 69.2L3.85999 69.22L4.22999 68.33L4.47999 69.2H5.37999L4.71999 69.69L4.95999 70.47ZM3.21999 69.28L3.81999 69.66L3.58999 70.27L4.16999 69.77L4.78999 70.25L4.59999 69.67L5.10999 69.29H4.39999L4.19999 68.6L3.90999 69.31L3.21999 69.28Z" fill="#1C98D6"/>
<path d="M30.07 79.55L30.29 80.33H31.1L30.51 80.77L30.73 81.46L30.03 80.92L29.35 81.51L29.63 80.77L28.92 80.33L29.74 80.35" fill="#1C98D6"/>
<path d="M30.81 81.58L30.03 80.97L29.38 81.54L29.31 81.5L29.58 80.8L28.78 80.3L29.71 80.32L30.08 79.43L30.33 80.3H31.23L30.57 80.8L30.81 81.58ZM29.07 80.38L29.67 80.76L29.44 81.37L30.02 80.87L30.64 81.35L30.45 80.77L30.96 80.38H30.24L30.04 79.69L29.75 80.4L29.07 80.38Z" fill="#1C98D6"/>
<path d="M5.07999 79.37L5.29999 80.16H6.10999L5.51999 80.6L5.73999 81.28L5.03999 80.74L4.35999 81.33L4.63999 80.6L3.93999 80.16L4.74999 80.18" fill="#1C98D6"/>
<path d="M5.81999 81.4L5.03999 80.8L4.38999 81.36L4.31999 81.32L4.57999 80.62L3.78999 80.12L4.71999 80.14L5.08999 79.25L5.33999 80.12H6.23999L5.57999 80.62L5.81999 81.4ZM4.08999 80.2L4.68999 80.58L4.45999 81.19L5.03999 80.69L5.65999 81.17L5.46999 80.59L5.97999 80.2H5.26999L5.06999 79.51L4.77999 80.22L4.08999 80.2Z" fill="#1C98D6"/>
<path d="M31.07 67.88L31.37 68.67H32.1L31.51 69.11L31.73 69.79L31.07 69.21L30.35 69.84L30.63 69.11L29.93 68.67L30.74 68.69" fill="#1C98D6"/>
<path d="M31.82 69.93L31.07 69.27L30.38 69.87L30.31 69.83L30.57 69.13L29.77 68.63L30.7 68.65L31.06 67.77L31.38 68.63H32.21L31.55 69.12L31.82 69.93ZM30.08 68.72L30.68 69.1L30.45 69.71L31.07 69.17L31.65 69.67L31.47 69.1L31.98 68.72H31.34L31.08 68.01L30.78 68.74L30.08 68.72Z" fill="#1C98D6"/>
<path d="M9.01 83.11L9.37 83.41L7.68 85.14L7.3 84.81L7.76 82.93L6.55 84.16L6.2 83.85L7.89 82.13L8.29 82.47L7.83 84.3H7.84" fill="#1C98D6"/>
<path d="M18.23 61.77L17.68 61.72L18.82 59.49L19.42 59.55L20.06 61.94L19.49 61.89L19.38 61.4L18.45 61.31L18.23 61.77ZM18.64 60.92L19.28 60.98L19.07 60.04H19.06L18.64 60.92Z" fill="#1C98D6"/>
<path d="M21.61 61.88L22.8 62.23L22.66 62.63L20.97 62.12L21.77 59.94L22.27 60.09" fill="#1C98D6"/>
<path d="M25.44 63.3C25.08 63.81 24.6 63.83 24.07 63.51C23.88 63.4 23.62 63.18 23.57 62.88C23.54 62.7 23.61 62.51 23.74 62.31L24.65 61.03L25.09 61.3L24.2 62.56C24.01 62.83 24.09 63.05 24.3 63.17C24.6 63.35 24.82 63.29 24.98 63.05L25.88 61.78L26.32 62.05" fill="#1C98D6"/>
<path d="M26.57 65.14L26.17 64.83L27.5 63.37L26.91 62.93L27.2 62.61L28.77 63.81L28.49 64.12L27.9 63.68" fill="#1C98D6"/>
<path d="M15.45 61.22C15.48 61.35 15.59 61.58 16.04 61.52C16.28 61.49 16.55 61.3899 16.5 61.1499C16.47 60.9699 16.27 60.95 16 60.92L15.72 60.8999C15.31 60.8699 14.9 60.83 14.82 60.33C14.77 60.07 14.84 59.6 15.65 59.49C16.41 59.38 16.69 59.82 16.75 60.1L16.26 60.17C16.23 60.07 16.14 59.83 15.69 59.89C15.49 59.92 15.27 60.02 15.31 60.23C15.34 60.41 15.51 60.43 15.61 60.44L16.24 60.49C16.59 60.52 16.92 60.61 17 61.02C17.12 61.71 16.37 61.88 16.16 61.91C15.26 62.04 15.02 61.57 14.97 61.29" fill="#1C98D6"/>
<path d="M9.78 61.29C10.08 61.15 10.91 60.89 11.46 61.86C12 62.83 11.3 63.32 11 63.46C10.71 63.6 9.87 63.86 9.32 62.89C8.78 61.92 9.49 61.43 9.78 61.29ZM10.8 63.09C11.05 62.97 11.32 62.66 11 62.08C10.68 61.5 10.24 61.53 9.99 61.65C9.74 61.77 9.47 62.09 9.79 62.66C10.11 63.24 10.55 63.22 10.8 63.09Z" fill="#1C98D6"/>
<path d="M6.17 64.09L7.04 63.24C7.5 62.79 7.93 63.02 8.09 63.16C8.29 63.33 8.36 63.58 8.25 63.8C8.45 63.72 8.59 63.69 8.92 63.99C9.18 64.22 9.24 64.28 9.35 64.23L9.4 64.27L9 64.66C8.89 64.61 8.79 64.54 8.6 64.38C8.36 64.16 8.25 64.09 7.98 64.35L7.61 64.71L8.31 65.33L7.96 65.67L6.17 64.09ZM7.73 64.03C7.92 63.85 7.94 63.7 7.77 63.54C7.68 63.46 7.49 63.37 7.28 63.58L6.83 64.01L7.31 64.43L7.73 64.03Z" fill="#1C98D6"/>
<path d="M24.4 84.48L24.83 84.26L26.04 86.26L25.59 86.5L23.83 85.53L24.69 86.96L24.27 87.18L23.05 85.17L23.53 84.93L25.24 85.88L25.25 85.87" fill="#1C98D6"/>
<path d="M25.31 83.83L26.18 83.2C26.84 82.72 27.42 83.15 27.72 83.49C28.05 83.88 28.36 84.5699 27.71 85.0399L26.86 85.6499L25.31 83.83ZM26.99 85.05L27.39 84.76C27.73 84.52 27.58 84.12 27.32 83.82C26.87 83.28 26.55 83.44 26.38 83.56L25.98 83.8399L26.99 85.05Z" fill="#1C98D6"/>
<path d="M29.49 83.49L29.14 83.86L27.27 82.33L27.61 81.97" fill="#1C98D6"/>
<path d="M30.29 66.28L29.48 65.3L29.07 65.6L29.8 66.5L29.45 66.74L28.71 65.85L28.2 66.21L29.04 67.23L28.68 67.48L27.54 66.08L29.53 64.68L30.64 66.04" fill="#1C98D6"/>
<path d="M10.67 84.3C10.94 84.48 11.57 85.05 10.91 85.94C10.24 86.83 9.45 86.48 9.18 86.3C8.91 86.12 8.28 85.55 8.94 84.66C9.61 83.78 10.4 84.13 10.67 84.3ZM9.43 85.97C9.66 86.12 10.08 86.2 10.48 85.67C10.88 85.14 10.65 84.79 10.42 84.65C10.19 84.5 9.77 84.42 9.37 84.95C8.97 85.48 9.2 85.82 9.43 85.97Z" fill="#1C98D6"/>
<path d="M6.42999 67.48L6.13999 67.89L4.06999 66.58L4.70999 65.69C4.97999 65.32 5.39999 65.25 5.80999 65.51C5.99999 65.63 6.39999 66.02 6.01999 66.55L5.67999 67.01L6.42999 67.48ZM5.59999 66.41C5.81999 66.11 5.58999 65.96 5.49999 65.9C5.29999 65.77 5.13999 65.83 4.95999 66.08L4.72999 66.4L5.33999 66.79L5.59999 66.41Z" fill="#1C98D6"/>
<path d="M20.07 83.13C20.25 83.53 19.78 83.43 19.6 83.57H19.45C19.48 83.35 19.74 82.98 20.07 83.13Z" fill="#1C98D6"/>
<path d="M17.38 76.06V76.22H16.74C16.68 75.88 17.23 75.82 17.38 76.06Z" fill="#1C98D6"/>
<path d="M18.5 72.02L18.81 71.66L19.63 71.6L20.01 71.53L19.84 71.86L19.39 72.02L19.46 71.86L18.95 71.82L18.67 72.02" fill="#1C98D6"/>
<path d="M20.53 71.56L20.8 71.53L21.11 71.66L20.94 71.85L20.63 71.92L20.49 72.08L20.32 71.95L20.05 72.02L20.01 71.89L20.25 71.82L20.15 71.69L20.25 71.6" fill="#1C98D6"/>
<path d="M21.38 71.87L21.55 71.74L21.86 71.77L21.79 71.93L21.34 72.03" fill="#1C98D6"/>
<path d="M19.29 72.22H18.88V72.41H19.29V72.22Z" fill="#1C98D6"/>
<path d="M21.28 72.2L21.49 72.05L21.6 72.15L21.46 72.26" fill="#1C98D6"/>
<path d="M21.11 72.51L21.28 72.71L21.42 72.64L21.31 72.32" fill="#1C98D6"/>
<path d="M21.73 72.64L21.84 72.51L21.53 72.34" fill="#1C98D6"/>
<path d="M22.08 72.49L22.2 72.54L22.15 73.01L21.98 72.58" fill="#1C98D6"/>
<path d="M16.59 65.19C16.71 65.06 16.62 64.51 16.42 64.45C16.19 64.79 16.89 64.95 16.42 65.19H16.59ZM17.69 66.96C17.66 66.69 17.59 66.13 17.85 65.78L18.01 65.63C17.95 65.67 17.9 65.73 17.85 65.78L17.53 65.49L17.68 65.33C17.45 65.4 17.37 65.15 17.21 65.05C17 65.6 18.37 66.31 17.06 66.37C16.97 66.29 16.85 66.21 16.89 66.07H16.74V66.23H16.89C16.8 66.3 16.72 66.41 16.58 66.37C16.57 66.54 16.61 66.72 16.41 66.81H16.73C16.82 66.9 16.94 66.97 16.88 67.11C17.09 67.17 17.42 66.98 17.52 67.25C17.49 67.11 17.61 67.04 17.69 66.96ZM19.37 74.01C19.71 73.81 19.9 73.68 20.39 73.57C20.34 73.71 20.46 73.78 20.54 73.87C20.89 73.49 21.1 73.8 21.37 74.01C21.5 74.11 21.64 74.2 21.81 74.15C21.82 74.1 21.84 74.06 21.87 74.01H22.04C22.28 74.56 23.17 74.88 23.25 75.49C23.8 75.74 24.57 75.53 24.99 76.07C26.11 77.24 23.65 77.67 24.04 78.88C23.84 79.66 23.22 79.79 22.45 79.9C22.2 80.49 21.72 80.74 21.18 81.08C20.39 81.05 20.28 81.6 19.59 81.82C19.34 82.59 18.67 82.8 18.47 83.59C18.59 83.83 19.02 83.69 18.94 84.03C18.39 84.04 17.69 83.73 17.67 83.15C17.88 81.51 19.15 80.26 19.26 78.59C18.41 78 18.27 76.86 18.31 75.8C18.86 75.53 18.74 75.01 18.93 74.63L18.62 74.33C18.3 74.77 18.08 74.1 17.66 74.33C17.63 74.22 17.57 74.12 17.5 74.03C17.32 73.82 17.06 73.65 16.86 73.44C16.24 73.26 15.53 73.22 14.97 72.86C14.25 72.8 14.66 72.04 14.02 71.83C13.93 71.91 13.81 71.99 13.85 72.13C12.83 71.87 13.24 70.81 12.75 70.22C12.86 69.8 12.88 69.41 12.78 69.04C12.72 68.79 12.6 68.54 12.42 68.3C11.41 67.25 10.3 69.07 9.09 68.44C9.53 68.41 9.9 68.21 10.19 67.86C10.1 67.72 9.82 67.63 9.88 67.42L10.03 67.26L9.88 67.12L10.03 66.98C9.94 66.9 9.82 66.82 9.88 66.68C10.48 66.23 11.29 65.6 12.25 65.65C12.98 65.39 13.98 66.22 14.64 65.35C14.3 65.34 13.95 64.87 14.32 64.63C14.55 64.66 14.8 64.28 14.97 64.63C15.17 64.53 15.12 64.34 15.12 64.18C15.64 63.91 16.21 64.75 16.39 64.04H16.71C16.66 64.18 16.79 64.25 16.86 64.34L17.03 64.18L17.18 64.34C17.61 63.94 17.88 64.75 18.45 64.48C18.88 64.74 19.14 65.3 19.24 65.81C19.07 65.81 18.87 65.77 18.77 65.95L19.41 66.55C19.61 66.45 19.56 66.27 19.56 66.1C20.32 66.47 20.78 67.22 21.15 67.87C20.32 68 19.57 68.34 19.09 69.04C19.59 70.23 17.47 70.2 18.45 71.39L18.14 71.69C18.1 71.42 18.01 71.17 17.83 70.95C17.01 71.45 15.57 70.45 15.77 71.99C15.98 72.16 15.97 72.41 16.24 72.57C16.64 72.74 16.78 72.27 17.03 72.13V71.99H17.66C17.99 72.53 16.96 73.17 17.98 73.31C17.98 73.48 18.03 73.66 17.83 73.75C17.91 73.95 18.05 74.03 18.21 74.04C18.33 74.06 18.45 74.05 18.58 74.04H18.78C18.9 74.05 19.02 74.09 19.1 74.18C19.22 74.1 19.3 74.05 19.37 74.01Z" fill="#1C98D6"/>
<path d="M31.1 71.1C31.22 71.08 31.39 71.07 31.64 71.07C31.88 71.07 32.04 71.11 32.16 71.19C32.27 71.27 32.35 71.41 32.35 71.57C32.35 71.73 32.29 71.86 32.19 71.95C32.06 72.06 31.86 72.11 31.64 72.11C31.6 72.11 31.56 72.11 31.53 72.11V72.64H31.1V71.1ZM31.53 71.79C31.55 71.79 31.58 71.8 31.63 71.8C31.8 71.8 31.91 71.72 31.91 71.58C31.91 71.47 31.83 71.39 31.66 71.39C31.59 71.39 31.55 71.39 31.53 71.4V71.79Z" fill="#1C98D6"/>
<path d="M31.81 74.42L31.72 74.78H31.27L31.75 73.23H32.33L32.82 74.78H32.35L32.25 74.42H31.81ZM32.17 74.12L32.09 73.84C32.06 73.75 32.03 73.63 32.01 73.53C31.99 73.62 31.96 73.75 31.94 73.84L31.87 74.12H32.17Z" fill="#1C98D6"/>
<path d="M31.46 75.44V76.02H31.99V75.44H32.43V77H31.99V76.38H31.46V77H31.02V75.44" fill="#1C98D6"/>
<path d="M32.04 78.4C32.04 78.9 31.72 79.22 31.22 79.22C30.71 79.22 30.43 78.86 30.43 78.43C30.43 77.98 30.74 77.62 31.25 77.62C31.77 77.62 32.04 77.99 32.04 78.4ZM30.89 78.42C30.89 78.71 31.02 78.89 31.24 78.89C31.45 78.89 31.58 78.69 31.58 78.42C31.58 78.15 31.45 77.95 31.24 77.95C31.02 77.94 30.89 78.13 30.89 78.42Z" fill="#1C98D6"/>
<path d="M4.33 72.66C4.33 73.16 4.01 73.48 3.51 73.48C3 73.48 2.72 73.12 2.72 72.69C2.72 72.24 3.03 71.88 3.53 71.88C4.07 71.88 4.33 72.25 4.33 72.66ZM3.19 72.68C3.19 72.97 3.33 73.15 3.54 73.15C3.75 73.15 3.88 72.95 3.88 72.68C3.88 72.41 3.75 72.21 3.54 72.21C3.32 72.21 3.19 72.4 3.19 72.68Z" fill="#1C98D6"/>
<path d="M2.72 74.4C2.84 74.38 3.01 74.37 3.26 74.37C3.5 74.37 3.66 74.41 3.78 74.49C3.89 74.57 3.97 74.71 3.97 74.87C3.97 75.03 3.91 75.17 3.81 75.25C3.68 75.36 3.48 75.41 3.26 75.41C3.22 75.41 3.18 75.41 3.15 75.41V75.94H2.72V74.4ZM3.16 75.09C3.18 75.09 3.21 75.1 3.26 75.1C3.43 75.1 3.54 75.02 3.54 74.88C3.54 74.77 3.46 74.69 3.29 74.69C3.22 74.69 3.18 74.7 3.16 74.7V75.09Z" fill="#1C98D6"/>
<path d="M3.43 77.69C3.53 77.74 3.69 77.79 3.86 77.79C4.01 77.79 4.08 77.74 4.08 77.66C4.08 77.58 4.01 77.54 3.82 77.48C3.54 77.39 3.36 77.24 3.36 77.01C3.36 76.74 3.6 76.53 4.02 76.53C4.22 76.53 4.36 76.57 4.47 76.61L4.38 76.94C4.31 76.91 4.19 76.87 4.02 76.87C3.89 76.87 3.81 76.92 3.81 76.98C3.81 77.06 3.9 77.09 4.11 77.16C4.4 77.26 4.54 77.41 4.54 77.63C4.54 77.9 4.32 78.13 3.84 78.13C3.64 78.13 3.45 78.08 3.36 78.04" fill="#1C98D6"/>
<path d="M40.7 60C42.31 60 43.78 61.25 43.78 64.14C43.78 67.04 42.3 68.28 40.7 68.28C39.09 68.28 37.62 67.03 37.62 64.14C37.61 61.25 39.09 60 40.7 60ZM40.7 67.16C41.6 67.16 42.32 66.36 42.32 64.15C42.32 61.93 41.6 61.14 40.7 61.14C39.8 61.14 39.08 61.93 39.08 64.15C39.08 66.36 39.8 67.16 40.7 67.16Z" fill="#1C98D6"/>
<path d="M44.79 63.21C44.79 62.84 44.78 62.5 44.75 62.23H45.99C46 62.59 46.03 62.96 46.03 63.31H46.05C46.22 62.85 46.65 62.13 47.5 62.13C47.59 62.13 47.65 62.15 47.73 62.16V63.5C47.61 63.47 47.49 63.44 47.34 63.44C46.77 63.44 46.15 63.8 46.15 64.91V68.17H44.78" fill="#1C98D6"/>
<path d="M48.55 69.1C48.87 69.28 49.51 69.61 50.23 69.61C51.53 69.61 51.74 68.68 51.74 67.74V67.17H51.72C51.5 67.63 51.11 68.18 50.21 68.18C49.41 68.18 48.21 67.63 48.21 65.22C48.21 63.58 48.78 62.14 50.27 62.14C51.1 62.14 51.49 62.64 51.78 63.16H51.83C51.83 62.85 51.86 62.55 51.87 62.24H53.11C53.09 62.55 53.07 62.86 53.07 63.17V67.56C53.07 69.42 52.53 70.74 50.43 70.74C49.52 70.74 48.8 70.5 48.47 70.37L48.55 69.1ZM50.53 67.12C51.39 67.12 51.74 66.47 51.74 65.12C51.74 63.87 51.28 63.2 50.63 63.22C49.91 63.23 49.63 63.93 49.63 65.14C49.63 66.53 50.07 67.12 50.53 67.12Z" fill="#1C98D6"/>
<path d="M54.43 62.57C54.82 62.39 55.36 62.13 56.24 62.13C58.01 62.13 58.42 63.03 58.42 64.52V67.12C58.42 67.55 58.46 67.94 58.5 68.17H57.26C57.19 67.94 57.18 67.65 57.18 67.36H57.16C56.81 67.85 56.38 68.26 55.56 68.26C54.67 68.26 53.85 67.62 53.85 66.52C53.85 64.9 55.11 64.5 56.85 64.5H57.13V64.28C57.13 63.69 56.85 63.15 56.07 63.15C55.38 63.15 54.77 63.5 54.51 63.73L54.43 62.57ZM57.14 65.26H57.02C55.84 65.26 55.15 65.51 55.15 66.38C55.15 66.92 55.49 67.29 56.03 67.29C56.85 67.29 57.15 66.65 57.15 65.59V65.26H57.14Z" fill="#1C98D6"/>
<path d="M59.53 63.21C59.53 62.84 59.52 62.5 59.49 62.23H60.78C60.79 62.53 60.82 62.84 60.82 63.14H60.85H60.84C61.04 62.78 61.43 62.13 62.36 62.13C63.66 62.13 64.05 63.14 64.05 64.34V68.17H62.67V64.6C62.67 63.69 62.45 63.31 61.88 63.31C61.16 63.31 60.9 63.94 60.9 64.71V68.17H59.53" fill="#1C98D6"/>
<path d="M65.23 59.7H66.65V61.11H65.23V59.7ZM65.25 62.23H66.62V68.17H65.25V62.23Z" fill="#1C98D6"/>
<path d="M67.68 66.79C67.9 66.88 68.47 67.18 69.11 67.18C69.61 67.18 70 67.06 70 66.59C70 66.36 69.89 66.14 69.39 65.84L68.82 65.49C68.24 65.13 67.61 64.75 67.61 63.82C67.61 63 68.37 62.14 69.58 62.14C70.31 62.14 70.88 62.34 71.01 62.38L70.93 63.49C70.59 63.35 70.22 63.22 69.72 63.22C69.16 63.22 68.93 63.44 68.93 63.8C68.93 64.12 69.17 64.3 69.57 64.56L70.25 65.01C70.96 65.48 71.31 65.82 71.31 66.51C71.31 67.61 70.43 68.26 69.18 68.26C68.47 68.26 67.88 68.09 67.59 67.97" fill="#1C98D6"/>
<path d="M72.46 62.57C72.85 62.39 73.39 62.13 74.27 62.13C76.04 62.13 76.45 63.03 76.45 64.52V67.12C76.45 67.55 76.5 67.94 76.53 68.17H75.29C75.22 67.94 75.21 67.65 75.21 67.36H75.19C74.85 67.85 74.42 68.26 73.59 68.26C72.7 68.26 71.88 67.62 71.88 66.52C71.88 64.9 73.14 64.5 74.88 64.5H75.16V64.28C75.16 63.69 74.88 63.15 74.1 63.15C73.41 63.15 72.8 63.5 72.53 63.73L72.46 62.57ZM75.16 65.26H75.04C73.87 65.26 73.17 65.51 73.17 66.38C73.17 66.92 73.51 67.29 74.05 67.29C74.87 67.29 75.17 66.65 75.17 65.59V65.26H75.16Z" fill="#1C98D6"/>
<path d="M78.07 61L79.44 60.56V62.22H80.58V63.27H79.44V66.35C79.44 66.99 79.66 67.17 80.06 67.17C80.3 67.17 80.48 67.1 80.58 67.04V68.05C80.37 68.16 80.07 68.25 79.66 68.25C78.64 68.25 78.06 67.76 78.06 66.52V63.27H77.15V62.22H78.06" fill="#1C98D6"/>
<path d="M81.4 59.7H82.82V61.11H81.4V59.7ZM81.43 62.23H82.8V68.17H81.43V62.23Z" fill="#1C98D6"/>
<path d="M86.37 62.14C87.53 62.14 88.88 62.78 88.88 65.2C88.88 67.69 87.54 68.27 86.37 68.27C85.21 68.27 83.85 67.69 83.85 65.2C83.85 62.77 85.21 62.14 86.37 62.14ZM86.37 67.25C87.26 67.25 87.46 66.19 87.46 65.19C87.46 64.2 87.26 63.15 86.37 63.15C85.48 63.15 85.27 64.2 85.27 65.19C85.27 66.19 85.48 67.25 86.37 67.25Z" fill="#1C98D6"/>
<path d="M89.8 63.21C89.8 62.84 89.79 62.5 89.76 62.23H91.05C91.06 62.53 91.09 62.84 91.09 63.14H91.12H91.1C91.3 62.78 91.69 62.13 92.62 62.13C93.92 62.13 94.31 63.14 94.31 64.34V68.17H92.93V64.6C92.93 63.69 92.71 63.31 92.14 63.31C91.42 63.31 91.16 63.94 91.16 64.71V68.17H89.8" fill="#1C98D6"/>
<path d="M43.88 72.7C44.27 72.51 44.81 72.26 45.69 72.26C47.46 72.26 47.87 73.16 47.87 74.65V77.25C47.87 77.68 47.91 78.07 47.95 78.3H46.71C46.64 78.07 46.63 77.78 46.63 77.49H46.6C46.26 77.97 45.83 78.39 45 78.39C44.11 78.39 43.29 77.75 43.29 76.65C43.29 75.03 44.55 74.63 46.29 74.63H46.57V74.41C46.57 73.82 46.29 73.28 45.51 73.28C44.82 73.28 44.21 73.62 43.95 73.86L43.88 72.7ZM46.58 75.39H46.46C45.29 75.39 44.59 75.64 44.59 76.51C44.59 77.05 44.93 77.42 45.46 77.42C46.28 77.42 46.58 76.79 46.58 75.72V75.39Z" fill="#1C98D6"/>
<path d="M48.98 73.33C48.98 72.96 48.97 72.62 48.94 72.35H50.23C50.24 72.65 50.27 72.96 50.27 73.26H50.3H50.29C50.49 72.9 50.88 72.26 51.81 72.26C53.11 72.26 53.5 73.26 53.5 74.46V78.29H52.12V74.72C52.12 73.81 51.9 73.43 51.33 73.43C50.61 73.43 50.35 74.07 50.35 74.83V78.29H48.98" fill="#1C98D6"/>
<path d="M54.84 72.7C55.23 72.51 55.77 72.26 56.65 72.26C58.42 72.26 58.83 73.16 58.83 74.65V77.25C58.83 77.68 58.87 78.07 58.91 78.3H57.67C57.6 78.07 57.59 77.78 57.59 77.49H57.57C57.22 77.97 56.8 78.39 55.97 78.39C55.08 78.39 54.26 77.75 54.26 76.65C54.26 75.03 55.52 74.63 57.27 74.63H57.55V74.41C57.55 73.82 57.27 73.28 56.49 73.28C55.8 73.28 55.19 73.62 54.93 73.86L54.84 72.7ZM57.55 75.39H57.43C56.25 75.39 55.56 75.64 55.56 76.51C55.56 77.05 55.9 77.42 56.44 77.42C57.26 77.42 57.56 76.79 57.56 75.72V75.39H57.55Z" fill="#1C98D6"/>
<path d="M59.91 73.32C59.91 72.89 59.89 72.57 59.87 72.35H61.24C61.25 72.66 61.29 72.97 61.29 73.29H61.31C61.52 72.83 61.96 72.26 62.75 72.26C63.71 72.26 64.02 72.88 64.19 73.21C64.47 72.8 64.88 72.26 65.72 72.26C66.96 72.26 67.36 73.18 67.36 74.63V78.3H65.99V74.55C65.99 73.81 65.77 73.44 65.26 73.44C64.65 73.44 64.33 74.04 64.33 74.7V78.3H62.95V74.55C62.95 73.81 62.73 73.44 62.22 73.44C61.61 73.44 61.29 74.04 61.29 74.7V78.3H59.92" fill="#1C98D6"/>
<path d="M72.59 78.01C72.3 78.13 71.7 78.39 70.88 78.39C69.04 78.39 68.24 77.02 68.24 75.41C68.24 73.63 69.14 72.26 70.59 72.26C71.82 72.26 72.88 73.01 72.88 75.43V75.71H69.58C69.58 76.73 69.97 77.34 71.03 77.34C71.87 77.34 72.27 77.07 72.53 76.88L72.59 78.01ZM71.55 74.81C71.55 73.76 71.22 73.23 70.6 73.23C69.88 73.23 69.58 74.03 69.58 74.81H71.55ZM70.61 70.03H71.9L70.77 71.69H69.9L70.61 70.03Z" fill="#1C98D6"/>
<path d="M73.82 73.33C73.82 72.96 73.81 72.62 73.78 72.35H75.02C75.03 72.71 75.06 73.08 75.06 73.43H75.08C75.25 72.97 75.68 72.26 76.53 72.26C76.62 72.26 76.68 72.28 76.76 72.29V73.63C76.64 73.6 76.52 73.57 76.37 73.57C75.8 73.57 75.18 73.93 75.18 75.04V78.3H73.8" fill="#1C98D6"/>
<path d="M77.62 69.82H79.04V71.23H77.62V69.82ZM77.65 72.35H79.02V78.3H77.65V72.35Z" fill="#1C98D6"/>
<path d="M84.11 78.15C83.79 78.28 83.31 78.39 82.76 78.39C80.88 78.39 80.08 77.02 80.08 75.33C80.08 73.63 80.93 72.26 82.84 72.26C83.27 72.26 83.78 72.4 84.04 72.5L83.96 73.63C83.72 73.5 83.37 73.34 83 73.34C81.96 73.34 81.5 74.07 81.5 75.34C81.5 76.45 82.01 77.3 83.06 77.3C83.39 77.3 83.85 77.14 84.04 77.01" fill="#1C98D6"/>
<path d="M85.06 72.7C85.45 72.51 85.99 72.26 86.87 72.26C88.64 72.26 89.05 73.16 89.05 74.65V77.25C89.05 77.68 89.09 78.07 89.13 78.3H87.89C87.82 78.07 87.81 77.78 87.81 77.49H87.79C87.45 77.97 87.02 78.39 86.19 78.39C85.3 78.39 84.48 77.75 84.48 76.65C84.48 75.03 85.74 74.63 87.48 74.63H87.76V74.41C87.76 73.82 87.48 73.28 86.7 73.28C86.01 73.28 85.4 73.62 85.13 73.86L85.06 72.7ZM87.77 75.39H87.65C86.47 75.39 85.78 75.64 85.78 76.51C85.78 77.05 86.12 77.42 86.66 77.42C87.48 77.42 87.78 76.79 87.78 75.72V75.39H87.77Z" fill="#1C98D6"/>
<path d="M90.27 69.82H91.69V71.23H90.27V69.82ZM90.3 72.35H91.67V78.3H90.3V72.35Z" fill="#1C98D6"/>
<path d="M92.88 73.33C92.88 72.96 92.87 72.62 92.84 72.35H94.13C94.14 72.65 94.17 72.96 94.17 73.26H94.2H94.19C94.39 72.9 94.78 72.26 95.71 72.26C97.01 72.26 97.4 73.26 97.4 74.46V78.29H96.02V74.72C96.02 73.81 95.8 73.43 95.23 73.43C94.51 73.43 94.25 74.07 94.25 74.83V78.29H92.87" fill="#1C98D6"/>
<path d="M102.66 78.01C102.37 78.14 101.77 78.39 100.95 78.39C99.11 78.39 98.31 77.02 98.31 75.41C98.31 73.63 99.21 72.26 100.66 72.26C101.89 72.26 102.94 73.01 102.94 75.43V75.71H99.64C99.64 76.73 100.03 77.34 101.09 77.34C101.93 77.34 102.33 77.07 102.59 76.88L102.66 78.01ZM101.61 74.81C101.61 73.76 101.28 73.23 100.66 73.23C99.94 73.23 99.64 74.03 99.64 74.81H101.61Z" fill="#1C98D6"/>
<path d="M42.41 79.77V87.41C42.41 87.84 42.42 88.21 42.45 88.43H41.16C41.14 88.26 41.12 87.91 41.12 87.51H41.09C40.87 88.02 40.46 88.53 39.57 88.53C38.15 88.53 37.57 87.12 37.57 85.47C37.57 83.53 38.31 82.4 39.54 82.4C40.36 82.4 40.81 82.89 41.01 83.35H41.03V79.78L42.41 79.77ZM39.95 87.47C40.76 87.47 41.04 86.56 41.04 85.44C41.04 84.29 40.73 83.45 39.98 83.45C39.21 83.45 38.95 84.22 38.95 85.41C38.94 86.77 39.15 87.47 39.95 87.47Z" fill="#1C98D6"/>
<path d="M47.7 88.13C47.41 88.26 46.81 88.51 45.99 88.51C44.15 88.51 43.35 87.14 43.35 85.53C43.35 83.75 44.25 82.38 45.7 82.38C46.93 82.38 47.98 83.13 47.98 85.55V85.83H44.68C44.68 86.85 45.07 87.46 46.13 87.46C46.98 87.46 47.37 87.19 47.63 87L47.7 88.13ZM46.66 84.94C46.66 83.89 46.33 83.36 45.7 83.36C44.98 83.36 44.68 84.16 44.68 84.94H46.66Z" fill="#1C98D6"/>
<path d="M53.11 79.76H51.74V88.42H53.11V79.76Z" fill="#1C98D6"/>
<path d="M54.6 82.82C54.99 82.64 55.53 82.38 56.41 82.38C58.18 82.38 58.59 83.28 58.59 84.77V87.37C58.59 87.8 58.63 88.19 58.67 88.42H57.43C57.36 88.19 57.35 87.9 57.35 87.61H57.33C56.99 88.09 56.56 88.51 55.73 88.51C54.84 88.51 54.02 87.87 54.02 86.77C54.02 85.16 55.28 84.75 57.02 84.75H57.3V84.53C57.3 83.94 57.02 83.4 56.23 83.4C55.54 83.4 54.93 83.74 54.67 83.98L54.6 82.82ZM57.3 85.51H57.18C56.01 85.51 55.31 85.76 55.31 86.63C55.31 87.17 55.65 87.54 56.19 87.54C57.01 87.54 57.31 86.91 57.31 85.84V85.51H57.3Z" fill="#1C98D6"/>
<path d="M62.51 86.86C62.79 87.05 63.4 87.36 64.15 87.36C64.77 87.36 65.32 87 65.32 86.2C65.32 85.62 65 85.37 64.31 84.98L63.59 84.57C62.83 84.13 62.33 83.49 62.33 82.46C62.33 81.02 63.47 80.27 64.77 80.27C65.59 80.27 66.17 80.49 66.39 80.56L66.32 81.79C65.98 81.65 65.52 81.44 64.87 81.44C64.16 81.44 63.79 81.83 63.79 82.39C63.79 82.99 64.18 83.22 64.61 83.48L65.44 83.96C66.35 84.49 66.78 85 66.78 86.13C66.78 87.77 65.66 88.55 64.18 88.55C63.41 88.55 62.81 88.43 62.42 88.19" fill="#1C98D6"/>
<path d="M68.06 82.82C68.45 82.64 68.99 82.38 69.87 82.38C71.64 82.38 72.05 83.28 72.05 84.77V87.37C72.05 87.8 72.09 88.19 72.13 88.42H70.89C70.82 88.19 70.81 87.9 70.81 87.61H70.79C70.44 88.09 70.01 88.51 69.19 88.51C68.3 88.51 67.48 87.87 67.48 86.77C67.48 85.16 68.74 84.75 70.49 84.75H70.77V84.53C70.77 83.94 70.49 83.4 69.71 83.4C69.02 83.4 68.41 83.74 68.15 83.98L68.06 82.82ZM70.77 85.51H70.65C69.47 85.51 68.78 85.76 68.78 86.63C68.78 87.17 69.13 87.54 69.66 87.54C70.48 87.54 70.78 86.91 70.78 85.84V85.51H70.77Z" fill="#1C98D6"/>
<path d="M73.17 83.46C73.17 83.09 73.16 82.74 73.13 82.48H74.42C74.43 82.78 74.46 83.09 74.46 83.39H74.49H74.48C74.68 83.03 75.07 82.39 76 82.39C77.3 82.39 77.69 83.39 77.69 84.59V88.42H76.3V84.85C76.3 83.94 76.08 83.56 75.51 83.56C74.79 83.56 74.53 84.19 74.53 84.96V88.42H73.16" fill="#1C98D6"/>
<path d="M79.26 81.25L80.64 80.81V82.47H81.78V83.52H80.64V86.6C80.64 87.24 80.86 87.42 81.26 87.42C81.51 87.42 81.68 87.35 81.78 87.29V88.3C81.57 88.4 81.27 88.5 80.86 88.5C79.84 88.5 79.26 88.01 79.26 86.77V83.51H78.35V82.46H79.26" fill="#1C98D6"/>
<path d="M86.68 88.13C86.39 88.26 85.79 88.51 84.97 88.51C83.13 88.51 82.33 87.14 82.33 85.53C82.33 83.75 83.23 82.38 84.68 82.38C85.91 82.38 86.96 83.13 86.96 85.55V85.83H83.66C83.66 86.85 84.05 87.46 85.11 87.46C85.95 87.46 86.35 87.19 86.61 87L86.68 88.13ZM85.64 84.94C85.64 83.89 85.31 83.36 84.69 83.36C83.97 83.36 83.67 84.16 83.67 84.94H85.64ZM84.69 80.16H85.98L84.85 81.82H83.99L84.69 80.16Z" fill="#1C98D6"/>
<path d="M37.63 73.29C37.63 72.85 37.62 72.48 37.58 72.25H38.95C38.97 72.43 39 72.78 39 73.19H39.04C39.27 72.67 39.71 72.15 40.66 72.15C42.17 72.15 42.8 73.59 42.8 75.28C42.8 77.26 42.01 78.42 40.7 78.42C39.83 78.42 39.34 77.92 39.13 77.45H39.11V80.87H37.65V73.29H37.63ZM40.22 77.35C41.03 77.35 41.32 76.56 41.32 75.34C41.32 73.94 41.09 73.23 40.25 73.23C39.39 73.23 39.09 74.16 39.09 75.31C39.09 76.49 39.42 77.35 40.22 77.35Z" fill="#1C98D6"/>
</svg>
