<?xml version="1.0" encoding="UTF-8" standalone="no"?>
<!DOCTYPE svg PUBLIC "-//W3C//DTD SVG 1.1//EN"
 "http://www.w3.org/Graphics/SVG/1.1/DTD/svg11.dtd">
<!-- Generated by graphviz version 2.47.0 (20210316.0004)
 -->
<!-- Title: dependencies Pages: 1 -->
<svg width="8343pt" height="284pt"
 viewBox="0.00 0.00 8343.00 284.00" xmlns="http://www.w3.org/2000/svg" xmlns:xlink="http://www.w3.org/1999/xlink">
<g id="graph0" class="graph" transform="scale(1 1) rotate(0) translate(4 280)">
<title>dependencies</title>
<polygon fill="white" stroke="transparent" points="-4,4 -4,-280 8339,-280 8339,4 -4,4"/>
<text text-anchor="start" x="4146.51" y="-42.4" font-family="sans-serif" font-weight="bold" font-size="14.00">Legend</text>
<polygon fill="#ffffb3" stroke="transparent" points="3933.5,-10 3933.5,-30 3953.5,-30 3953.5,-10 3933.5,-10"/>
<text text-anchor="start" x="3957.13" y="-15.4" font-family="sans-serif" font-size="14.00"> &#160;Declarations</text>
<polygon fill="#8dd3c7" stroke="transparent" points="4046.5,-10 4046.5,-30 4066.5,-30 4066.5,-10 4046.5,-10"/>
<text text-anchor="start" x="4070.23" y="-15.4" font-family="sans-serif" font-size="14.00"> &#160;Module</text>
<polygon fill="#80b1d3" stroke="transparent" points="4132.5,-10 4132.5,-30 4152.5,-30 4152.5,-10 4132.5,-10"/>
<text text-anchor="start" x="4156.28" y="-15.4" font-family="sans-serif" font-size="14.00"> &#160;Bootstrap</text>
<polygon fill="#fdb462" stroke="transparent" points="4229.5,-10 4229.5,-30 4249.5,-30 4249.5,-10 4229.5,-10"/>
<text text-anchor="start" x="4253.17" y="-15.4" font-family="sans-serif" font-size="14.00"> &#160;Providers</text>
<polygon fill="#fb8072" stroke="transparent" points="4325.5,-10 4325.5,-30 4345.5,-30 4345.5,-10 4325.5,-10"/>
<text text-anchor="start" x="4349.23" y="-15.4" font-family="sans-serif" font-size="14.00"> &#160;Exports</text>
<g id="clust1" class="cluster">
<title>cluster_AppModule</title>
<polygon fill="none" stroke="black" stroke-dasharray="1,5" points="8,-70 8,-268 8327,-268 8327,-70 8,-70"/>
</g>
<g id="clust46" class="cluster">
<title>cluster_AppModule_providers</title>
<polygon fill="none" stroke="black" points="8089,-78 8089,-130 8319,-130 8319,-78 8089,-78"/>
</g>
<g id="clust43" class="cluster">
<title>cluster_AppModule_imports</title>
<polygon fill="none" stroke="black" points="6220,-78 6220,-130 8081,-130 8081,-78 6220,-78"/>
</g>
<g id="clust45" class="cluster">
<title>cluster_AppModule_bootstrap</title>
<polygon fill="none" stroke="black" points="4251,-208 4251,-260 4375,-260 4375,-208 4251,-208"/>
</g>
<g id="clust2" class="cluster">
<title>cluster_AppModule_declarations</title>
<polygon fill="none" stroke="black" points="16,-78 16,-130 6212,-130 6212,-78 16,-78"/>
</g>
<!-- AppComponent -->
<g id="node1" class="node">
<title>AppComponent</title>
<polygon fill="#ffffb3" stroke="black" points="6203.94,-122 6098.06,-122 6098.06,-86 6203.94,-86 6203.94,-122"/>
<text text-anchor="middle" x="6151" y="-99.8" font-family="Times,serif" font-size="14.00">AppComponent</text>
</g>
<!-- AppModule -->
<g id="node41" class="node">
<title>AppModule</title>
<polygon fill="#8dd3c7" stroke="black" points="4354.66,-187 4351.66,-191 4330.66,-191 4327.66,-187 4271.34,-187 4271.34,-151 4354.66,-151 4354.66,-187"/>
<text text-anchor="middle" x="4313" y="-164.8" font-family="Times,serif" font-size="14.00">AppModule</text>
</g>
<!-- AppComponent&#45;&gt;AppModule -->
<g id="edge1" class="edge">
<title>AppComponent&#45;&gt;AppModule</title>
<path fill="none" stroke="black" d="M6151,-122.11C6151,-141.34 6151,-169 6151,-169 6151,-169 4364.84,-169 4364.84,-169"/>
<polygon fill="black" stroke="black" points="4364.84,-165.5 4354.84,-169 4364.84,-172.5 4364.84,-165.5"/>
</g>
<!-- HeaderComponent -->
<g id="node2" class="node">
<title>HeaderComponent</title>
<polygon fill="#ffffb3" stroke="black" points="6079.74,-122 5958.26,-122 5958.26,-86 6079.74,-86 6079.74,-122"/>
<text text-anchor="middle" x="6019" y="-99.8" font-family="Times,serif" font-size="14.00">HeaderComponent</text>
</g>
<!-- HeaderComponent&#45;&gt;AppModule -->
<g id="edge2" class="edge">
<title>HeaderComponent&#45;&gt;AppModule</title>
<path fill="none" stroke="black" d="M6019,-122.17C6019,-141.09 6019,-168 6019,-168 6019,-168 4364.75,-168 4364.75,-168"/>
<polygon fill="black" stroke="black" points="4364.75,-164.5 4354.75,-168 4364.75,-171.5 4364.75,-164.5"/>
</g>
<!-- FooterComponent -->
<g id="node3" class="node">
<title>FooterComponent</title>
<polygon fill="#ffffb3" stroke="black" points="5939.88,-122 5822.12,-122 5822.12,-86 5939.88,-86 5939.88,-122"/>
<text text-anchor="middle" x="5881" y="-99.8" font-family="Times,serif" font-size="14.00">FooterComponent</text>
</g>
<!-- FooterComponent&#45;&gt;AppModule -->
<g id="edge3" class="edge">
<title>FooterComponent&#45;&gt;AppModule</title>
<path fill="none" stroke="black" d="M5881,-122.22C5881,-140.83 5881,-167 5881,-167 5881,-167 4364.94,-167 4364.94,-167"/>
<polygon fill="black" stroke="black" points="4364.94,-163.5 4354.94,-167 4364.94,-170.5 4364.94,-163.5"/>
</g>
<!-- LoginComponent -->
<g id="node4" class="node">
<title>LoginComponent</title>
<polygon fill="#ffffb3" stroke="black" points="5804.28,-122 5689.72,-122 5689.72,-86 5804.28,-86 5804.28,-122"/>
<text text-anchor="middle" x="5747" y="-99.8" font-family="Times,serif" font-size="14.00">LoginComponent</text>
</g>
<!-- LoginComponent&#45;&gt;AppModule -->
<g id="edge4" class="edge">
<title>LoginComponent&#45;&gt;AppModule</title>
<path fill="none" stroke="black" d="M5747,-122.3C5747,-140.27 5747,-165 5747,-165 5747,-165 4364.75,-165 4364.75,-165"/>
<polygon fill="black" stroke="black" points="4364.75,-161.5 4354.75,-165 4364.75,-168.5 4364.75,-161.5"/>
</g>
<!-- UsersComponent -->
<g id="node5" class="node">
<title>UsersComponent</title>
<polygon fill="#ffffb3" stroke="black" points="5671.7,-122 5558.3,-122 5558.3,-86 5671.7,-86 5671.7,-122"/>
<text text-anchor="middle" x="5615" y="-99.8" font-family="Times,serif" font-size="14.00">UsersComponent</text>
</g>
<!-- UsersComponent&#45;&gt;AppModule -->
<g id="edge5" class="edge">
<title>UsersComponent&#45;&gt;AppModule</title>
<path fill="none" stroke="black" d="M5615,-122C5615,-139.68 5615,-164 5615,-164 5615,-164 4364.85,-164 4364.85,-164"/>
<polygon fill="black" stroke="black" points="4364.85,-160.5 4354.85,-164 4364.85,-167.5 4364.85,-160.5"/>
</g>
<!-- ProfilesComponent -->
<g id="node6" class="node">
<title>ProfilesComponent</title>
<polygon fill="#ffffb3" stroke="black" points="5540.38,-122 5415.62,-122 5415.62,-86 5540.38,-86 5540.38,-122"/>
<text text-anchor="middle" x="5478" y="-99.8" font-family="Times,serif" font-size="14.00">ProfilesComponent</text>
</g>
<!-- ProfilesComponent&#45;&gt;AppModule -->
<g id="edge6" class="edge">
<title>ProfilesComponent&#45;&gt;AppModule</title>
<path fill="none" stroke="black" d="M5478,-122.02C5478,-139.37 5478,-163 5478,-163 5478,-163 4364.81,-163 4364.81,-163"/>
<polygon fill="black" stroke="black" points="4364.81,-159.5 4354.81,-163 4364.81,-166.5 4364.81,-159.5"/>
</g>
<!-- UsertableComponent -->
<g id="node7" class="node">
<title>UsertableComponent</title>
<polygon fill="#ffffb3" stroke="black" points="5397.47,-122 5262.53,-122 5262.53,-86 5397.47,-86 5397.47,-122"/>
<text text-anchor="middle" x="5330" y="-99.8" font-family="Times,serif" font-size="14.00">UsertableComponent</text>
</g>
<!-- UsertableComponent&#45;&gt;AppModule -->
<g id="edge7" class="edge">
<title>UsertableComponent&#45;&gt;AppModule</title>
<path fill="none" stroke="black" d="M5330,-122.04C5330,-138.73 5330,-161 5330,-161 5330,-161 4364.76,-161 4364.76,-161"/>
<polygon fill="black" stroke="black" points="4364.76,-157.5 4354.76,-161 4364.76,-164.5 4364.76,-157.5"/>
</g>
<!-- ProfiletableComponent -->
<g id="node8" class="node">
<title>ProfiletableComponent</title>
<polygon fill="#ffffb3" stroke="black" points="5244.14,-122 5097.86,-122 5097.86,-86 5244.14,-86 5244.14,-122"/>
<text text-anchor="middle" x="5171" y="-99.8" font-family="Times,serif" font-size="14.00">ProfiletableComponent</text>
</g>
<!-- ProfiletableComponent&#45;&gt;AppModule -->
<g id="edge8" class="edge">
<title>ProfiletableComponent&#45;&gt;AppModule</title>
<path fill="none" stroke="black" d="M5171,-122.03C5171,-138.4 5171,-160 5171,-160 5171,-160 4364.67,-160 4364.67,-160"/>
<polygon fill="black" stroke="black" points="4364.67,-156.5 4354.67,-160 4364.67,-163.5 4364.67,-156.5"/>
</g>
<!-- UserComponent -->
<g id="node9" class="node">
<title>UserComponent</title>
<polygon fill="#ffffb3" stroke="black" points="5079.76,-122 4972.24,-122 4972.24,-86 5079.76,-86 5079.76,-122"/>
<text text-anchor="middle" x="5026" y="-99.8" font-family="Times,serif" font-size="14.00">UserComponent</text>
</g>
<!-- UserComponent&#45;&gt;AppModule -->
<g id="edge9" class="edge">
<title>UserComponent&#45;&gt;AppModule</title>
<path fill="none" stroke="black" d="M5026,-122.28C5026,-137.95 5026,-158 5026,-158 5026,-158 4364.68,-158 4364.68,-158"/>
<polygon fill="black" stroke="black" points="4364.68,-154.5 4354.68,-158 4364.68,-161.5 4364.68,-154.5"/>
</g>
<!-- ProfileComponent -->
<g id="node10" class="node">
<title>ProfileComponent</title>
<polygon fill="#ffffb3" stroke="black" points="4953.93,-122 4834.07,-122 4834.07,-86 4953.93,-86 4953.93,-122"/>
<text text-anchor="middle" x="4894" y="-99.8" font-family="Times,serif" font-size="14.00">ProfileComponent</text>
</g>
<!-- ProfileComponent&#45;&gt;AppModule -->
<g id="edge10" class="edge">
<title>ProfileComponent&#45;&gt;AppModule</title>
<path fill="none" stroke="black" d="M4894,-122.24C4894,-137.57 4894,-157 4894,-157 4894,-157 4364.78,-157 4364.78,-157"/>
<polygon fill="black" stroke="black" points="4364.78,-153.5 4354.78,-157 4364.78,-160.5 4364.78,-153.5"/>
</g>
<!-- ErrorComponent -->
<g id="node11" class="node">
<title>ErrorComponent</title>
<polygon fill="#ffffb3" stroke="black" points="4816.37,-122 4705.63,-122 4705.63,-86 4816.37,-86 4816.37,-122"/>
<text text-anchor="middle" x="4761" y="-99.8" font-family="Times,serif" font-size="14.00">ErrorComponent</text>
</g>
<!-- ErrorComponent&#45;&gt;AppModule -->
<g id="edge11" class="edge">
<title>ErrorComponent&#45;&gt;AppModule</title>
<path fill="none" stroke="black" d="M4761,-122.19C4761,-137.18 4761,-156 4761,-156 4761,-156 4364.74,-156 4364.74,-156"/>
<polygon fill="black" stroke="black" points="4364.74,-152.5 4354.74,-156 4364.74,-159.5 4364.74,-152.5"/>
</g>
<!-- LogComponent -->
<g id="node12" class="node">
<title>LogComponent</title>
<polygon fill="#ffffb3" stroke="black" points="4687.89,-122 4584.11,-122 4584.11,-86 4687.89,-86 4687.89,-122"/>
<text text-anchor="middle" x="4636" y="-99.8" font-family="Times,serif" font-size="14.00">LogComponent</text>
</g>
<!-- LogComponent&#45;&gt;AppModule -->
<g id="edge12" class="edge">
<title>LogComponent&#45;&gt;AppModule</title>
<path fill="none" stroke="black" d="M4636,-122.05C4636,-136.37 4636,-154 4636,-154 4636,-154 4364.9,-154 4364.9,-154"/>
<polygon fill="black" stroke="black" points="4364.9,-150.5 4354.9,-154 4364.9,-157.5 4364.9,-150.5"/>
</g>
<!-- LogsComponent -->
<g id="node13" class="node">
<title>LogsComponent</title>
<polygon fill="#ffffb3" stroke="black" points="4565.83,-122 4456.17,-122 4456.17,-86 4565.83,-86 4565.83,-122"/>
<text text-anchor="middle" x="4511" y="-99.8" font-family="Times,serif" font-size="14.00">LogsComponent</text>
</g>
<!-- LogsComponent&#45;&gt;AppModule -->
<g id="edge13" class="edge">
<title>LogsComponent&#45;&gt;AppModule</title>
<path fill="none" stroke="black" d="M4511,-122.25C4511,-136.18 4511,-153 4511,-153 4511,-153 4364.99,-153 4364.99,-153"/>
<polygon fill="black" stroke="black" points="4364.99,-149.5 4354.99,-153 4364.99,-156.5 4364.99,-149.5"/>
</g>
<!-- NewsComponent -->
<g id="node14" class="node">
<title>NewsComponent</title>
<polygon fill="#ffffb3" stroke="black" points="4438.7,-122 4325.3,-122 4325.3,-86 4438.7,-86 4438.7,-122"/>
<text text-anchor="middle" x="4382" y="-99.8" font-family="Times,serif" font-size="14.00">NewsComponent</text>
</g>
<!-- NewsComponent&#45;&gt;AppModule -->
<g id="edge14" class="edge">
<title>NewsComponent&#45;&gt;AppModule</title>
<path fill="none" stroke="black" d="M4340.11,-122.11C4340.11,-122.11 4340.11,-140.99 4340.11,-140.99"/>
<polygon fill="black" stroke="black" points="4336.61,-140.99 4340.11,-150.99 4343.61,-140.99 4336.61,-140.99"/>
</g>
<!-- ArchiveComponent -->
<g id="node15" class="node">
<title>ArchiveComponent</title>
<polygon fill="#ffffb3" stroke="black" points="4307.42,-122 4180.58,-122 4180.58,-86 4307.42,-86 4307.42,-122"/>
<text text-anchor="middle" x="4244" y="-99.8" font-family="Times,serif" font-size="14.00">ArchiveComponent</text>
</g>
<!-- ArchiveComponent&#45;&gt;AppModule -->
<g id="edge15" class="edge">
<title>ArchiveComponent&#45;&gt;AppModule</title>
<path fill="none" stroke="black" d="M4289.19,-122.11C4289.19,-122.11 4289.19,-140.99 4289.19,-140.99"/>
<polygon fill="black" stroke="black" points="4285.69,-140.99 4289.19,-150.99 4292.69,-140.99 4285.69,-140.99"/>
</g>
<!-- EditorComponent -->
<g id="node16" class="node">
<title>EditorComponent</title>
<polygon fill="#ffffb3" stroke="black" points="4163.33,-122 4046.67,-122 4046.67,-86 4163.33,-86 4163.33,-122"/>
<text text-anchor="middle" x="4105" y="-99.8" font-family="Times,serif" font-size="14.00">EditorComponent</text>
</g>
<!-- EditorComponent&#45;&gt;AppModule -->
<g id="edge16" class="edge">
<title>EditorComponent&#45;&gt;AppModule</title>
<path fill="none" stroke="black" d="M4105,-122.25C4105,-136.18 4105,-153 4105,-153 4105,-153 4260.91,-153 4260.91,-153"/>
<polygon fill="black" stroke="black" points="4260.91,-156.5 4270.91,-153 4260.91,-149.5 4260.91,-156.5"/>
</g>
<!-- NewstableComponent -->
<g id="node17" class="node">
<title>NewstableComponent</title>
<polygon fill="#ffffb3" stroke="black" points="4029.42,-122 3888.58,-122 3888.58,-86 4029.42,-86 4029.42,-122"/>
<text text-anchor="middle" x="3959" y="-99.8" font-family="Times,serif" font-size="14.00">NewstableComponent</text>
</g>
<!-- NewstableComponent&#45;&gt;AppModule -->
<g id="edge17" class="edge">
<title>NewstableComponent&#45;&gt;AppModule</title>
<path fill="none" stroke="black" d="M3959,-122.05C3959,-136.37 3959,-154 3959,-154 3959,-154 4261,-154 4261,-154"/>
<polygon fill="black" stroke="black" points="4261,-157.5 4271,-154 4261,-150.5 4261,-157.5"/>
</g>
<!-- VaccineComponent -->
<g id="node18" class="node">
<title>VaccineComponent</title>
<polygon fill="#ffffb3" stroke="black" points="3870.69,-122 3743.31,-122 3743.31,-86 3870.69,-86 3870.69,-122"/>
<text text-anchor="middle" x="3807" y="-99.8" font-family="Times,serif" font-size="14.00">VaccineComponent</text>
</g>
<!-- VaccineComponent&#45;&gt;AppModule -->
<g id="edge18" class="edge">
<title>VaccineComponent&#45;&gt;AppModule</title>
<path fill="none" stroke="black" d="M3807,-122.19C3807,-137.18 3807,-156 3807,-156 3807,-156 4261.16,-156 4261.16,-156"/>
<polygon fill="black" stroke="black" points="4261.16,-159.5 4271.16,-156 4261.16,-152.5 4261.16,-159.5"/>
</g>
<!-- VaccinepageComponent -->
<g id="node19" class="node">
<title>VaccinepageComponent</title>
<polygon fill="#ffffb3" stroke="black" points="3725.62,-122 3572.38,-122 3572.38,-86 3725.62,-86 3725.62,-122"/>
<text text-anchor="middle" x="3649" y="-99.8" font-family="Times,serif" font-size="14.00">VaccinepageComponent</text>
</g>
<!-- VaccinepageComponent&#45;&gt;AppModule -->
<g id="edge19" class="edge">
<title>VaccinepageComponent&#45;&gt;AppModule</title>
<path fill="none" stroke="black" d="M3649,-122.24C3649,-137.57 3649,-157 3649,-157 3649,-157 4261.21,-157 4261.21,-157"/>
<polygon fill="black" stroke="black" points="4261.21,-160.5 4271.21,-157 4261.21,-153.5 4261.21,-160.5"/>
</g>
<!-- LobbyComponent -->
<g id="node20" class="node">
<title>LobbyComponent</title>
<polygon fill="#ffffb3" stroke="black" points="3553.89,-122 3436.11,-122 3436.11,-86 3553.89,-86 3553.89,-122"/>
<text text-anchor="middle" x="3495" y="-99.8" font-family="Times,serif" font-size="14.00">LobbyComponent</text>
</g>
<!-- LobbyComponent&#45;&gt;AppModule -->
<g id="edge20" class="edge">
<title>LobbyComponent&#45;&gt;AppModule</title>
<path fill="none" stroke="black" d="M3495,-122.28C3495,-137.95 3495,-158 3495,-158 3495,-158 4261.31,-158 4261.31,-158"/>
<polygon fill="black" stroke="black" points="4261.31,-161.5 4271.31,-158 4261.31,-154.5 4261.31,-161.5"/>
</g>
<!-- DiseasepageComponent -->
<g id="node21" class="node">
<title>DiseasepageComponent</title>
<polygon fill="#ffffb3" stroke="black" points="3417.79,-122 3266.21,-122 3266.21,-86 3417.79,-86 3417.79,-122"/>
<text text-anchor="middle" x="3342" y="-99.8" font-family="Times,serif" font-size="14.00">DiseasepageComponent</text>
</g>
<!-- DiseasepageComponent&#45;&gt;AppModule -->
<g id="edge21" class="edge">
<title>DiseasepageComponent&#45;&gt;AppModule</title>
<path fill="none" stroke="black" d="M3342,-122.03C3342,-138.4 3342,-160 3342,-160 3342,-160 4261.28,-160 4261.28,-160"/>
<polygon fill="black" stroke="black" points="4261.28,-163.5 4271.28,-160 4261.28,-156.5 4261.28,-163.5"/>
</g>
<!-- DiseaseComponent -->
<g id="node22" class="node">
<title>DiseaseComponent</title>
<polygon fill="#ffffb3" stroke="black" points="3248.36,-122 3123.64,-122 3123.64,-86 3248.36,-86 3248.36,-122"/>
<text text-anchor="middle" x="3186" y="-99.8" font-family="Times,serif" font-size="14.00">DiseaseComponent</text>
</g>
<!-- DiseaseComponent&#45;&gt;AppModule -->
<g id="edge22" class="edge">
<title>DiseaseComponent&#45;&gt;AppModule</title>
<path fill="none" stroke="black" d="M3186,-122.04C3186,-138.73 3186,-161 3186,-161 3186,-161 4261.22,-161 4261.22,-161"/>
<polygon fill="black" stroke="black" points="4261.22,-164.5 4271.22,-161 4261.22,-157.5 4261.22,-164.5"/>
</g>
<!-- EffectsComponent -->
<g id="node23" class="node">
<title>EffectsComponent</title>
<polygon fill="#ffffb3" stroke="black" points="3105.47,-122 2984.53,-122 2984.53,-86 3105.47,-86 3105.47,-122"/>
<text text-anchor="middle" x="3045" y="-99.8" font-family="Times,serif" font-size="14.00">EffectsComponent</text>
</g>
<!-- EffectsComponent&#45;&gt;AppModule -->
<g id="edge23" class="edge">
<title>EffectsComponent&#45;&gt;AppModule</title>
<path fill="none" stroke="black" d="M3045,-122.02C3045,-139.37 3045,-163 3045,-163 3045,-163 4261.17,-163 4261.17,-163"/>
<polygon fill="black" stroke="black" points="4261.17,-166.5 4271.17,-163 4261.17,-159.5 4261.17,-166.5"/>
</g>
<!-- EffectspageComponent -->
<g id="node24" class="node">
<title>EffectspageComponent</title>
<polygon fill="#ffffb3" stroke="black" points="2966.9,-122 2819.1,-122 2819.1,-86 2966.9,-86 2966.9,-122"/>
<text text-anchor="middle" x="2893" y="-99.8" font-family="Times,serif" font-size="14.00">EffectspageComponent</text>
</g>
<!-- EffectspageComponent&#45;&gt;AppModule -->
<g id="edge24" class="edge">
<title>EffectspageComponent&#45;&gt;AppModule</title>
<path fill="none" stroke="black" d="M2893,-122C2893,-139.68 2893,-164 2893,-164 2893,-164 4261.27,-164 4261.27,-164"/>
<polygon fill="black" stroke="black" points="4261.27,-167.5 4271.27,-164 4261.27,-160.5 4261.27,-167.5"/>
</g>
<!-- CountrypageComponent -->
<g id="node25" class="node">
<title>CountrypageComponent</title>
<polygon fill="#ffffb3" stroke="black" points="2800.65,-122 2647.35,-122 2647.35,-86 2800.65,-86 2800.65,-122"/>
<text text-anchor="middle" x="2724" y="-99.8" font-family="Times,serif" font-size="14.00">CountrypageComponent</text>
</g>
<!-- CountrypageComponent&#45;&gt;AppModule -->
<g id="edge25" class="edge">
<title>CountrypageComponent&#45;&gt;AppModule</title>
<path fill="none" stroke="black" d="M2724,-122.3C2724,-140.27 2724,-165 2724,-165 2724,-165 4261.31,-165 4261.31,-165"/>
<polygon fill="black" stroke="black" points="4261.31,-168.5 4271.31,-165 4261.31,-161.5 4261.31,-168.5"/>
</g>
<!-- CountryComponent -->
<g id="node26" class="node">
<title>CountryComponent</title>
<polygon fill="#ffffb3" stroke="black" points="2629.72,-122 2502.28,-122 2502.28,-86 2629.72,-86 2629.72,-122"/>
<text text-anchor="middle" x="2566" y="-99.8" font-family="Times,serif" font-size="14.00">CountryComponent</text>
</g>
<!-- CountryComponent&#45;&gt;AppModule -->
<g id="edge26" class="edge">
<title>CountryComponent&#45;&gt;AppModule</title>
<path fill="none" stroke="black" d="M2566,-122.22C2566,-140.83 2566,-167 2566,-167 2566,-167 4261.11,-167 4261.11,-167"/>
<polygon fill="black" stroke="black" points="4261.11,-170.5 4271.11,-167 4261.11,-163.5 4261.11,-170.5"/>
</g>
<!-- SchemeComponent -->
<g id="node27" class="node">
<title>SchemeComponent</title>
<polygon fill="#ffffb3" stroke="black" points="2484.65,-122 2359.35,-122 2359.35,-86 2484.65,-86 2484.65,-122"/>
<text text-anchor="middle" x="2422" y="-99.8" font-family="Times,serif" font-size="14.00">SchemeComponent</text>
</g>
<!-- SchemeComponent&#45;&gt;AppModule -->
<g id="edge27" class="edge">
<title>SchemeComponent&#45;&gt;AppModule</title>
<path fill="none" stroke="black" d="M2422,-122.17C2422,-141.09 2422,-168 2422,-168 2422,-168 4261.3,-168 4261.3,-168"/>
<polygon fill="black" stroke="black" points="4261.3,-171.5 4271.3,-168 4261.3,-164.5 4261.3,-171.5"/>
</g>
<!-- SchemepageComponent -->
<g id="node28" class="node">
<title>SchemepageComponent</title>
<polygon fill="#ffffb3" stroke="black" points="2341.08,-122 2188.92,-122 2188.92,-86 2341.08,-86 2341.08,-122"/>
<text text-anchor="middle" x="2265" y="-99.8" font-family="Times,serif" font-size="14.00">SchemepageComponent</text>
</g>
<!-- SchemepageComponent&#45;&gt;AppModule -->
<g id="edge28" class="edge">
<title>SchemepageComponent&#45;&gt;AppModule</title>
<path fill="none" stroke="black" d="M2265,-122.11C2265,-141.34 2265,-169 2265,-169 2265,-169 4261.16,-169 4261.16,-169"/>
<polygon fill="black" stroke="black" points="4261.16,-172.5 4271.16,-169 4261.16,-165.5 4261.16,-172.5"/>
</g>
<!-- TravelVaccineComponent -->
<g id="node29" class="node">
<title>TravelVaccineComponent</title>
<polygon fill="#ffffb3" stroke="black" points="2170.72,-122 2007.28,-122 2007.28,-86 2170.72,-86 2170.72,-122"/>
<text text-anchor="middle" x="2089" y="-99.8" font-family="Times,serif" font-size="14.00">TravelVaccineComponent</text>
</g>
<!-- TravelVaccineComponent&#45;&gt;AppModule -->
<g id="edge29" class="edge">
<title>TravelVaccineComponent&#45;&gt;AppModule</title>
<path fill="none" stroke="black" d="M2089,-122.31C2089,-142.15 2089,-171 2089,-171 2089,-171 4261.05,-171 4261.05,-171"/>
<polygon fill="black" stroke="black" points="4261.05,-174.5 4271.05,-171 4261.05,-167.5 4261.05,-174.5"/>
</g>
<!-- TravelComponent -->
<g id="node30" class="node">
<title>TravelComponent</title>
<polygon fill="#ffffb3" stroke="black" points="1988.87,-122 1871.13,-122 1871.13,-86 1988.87,-86 1988.87,-122"/>
<text text-anchor="middle" x="1930" y="-99.8" font-family="Times,serif" font-size="14.00">TravelComponent</text>
</g>
<!-- TravelComponent&#45;&gt;AppModule -->
<g id="edge30" class="edge">
<title>TravelComponent&#45;&gt;AppModule</title>
<path fill="none" stroke="black" d="M1930,-122.22C1930,-142.37 1930,-172 1930,-172 1930,-172 4261.13,-172 4261.13,-172"/>
<polygon fill="black" stroke="black" points="4261.13,-175.5 4271.13,-172 4261.13,-168.5 4261.13,-175.5"/>
</g>
<!-- VaccineCountryComponent -->
<g id="node31" class="node">
<title>VaccineCountryComponent</title>
<polygon fill="#ffffb3" stroke="black" points="1853.58,-122 1680.42,-122 1680.42,-86 1853.58,-86 1853.58,-122"/>
<text text-anchor="middle" x="1767" y="-99.8" font-family="Times,serif" font-size="14.00">VaccineCountryComponent</text>
</g>
<!-- VaccineCountryComponent&#45;&gt;AppModule -->
<g id="edge31" class="edge">
<title>VaccineCountryComponent&#45;&gt;AppModule</title>
<path fill="none" stroke="black" d="M1767,-122.03C1767,-142.77 1767,-174 1767,-174 1767,-174 4261.2,-174 4261.2,-174"/>
<polygon fill="black" stroke="black" points="4261.2,-177.5 4271.2,-174 4261.2,-170.5 4261.2,-177.5"/>
</g>
<!-- VaccineCountryPageComponent -->
<g id="node32" class="node">
<title>VaccineCountryPageComponent</title>
<polygon fill="#ffffb3" stroke="black" points="1662.29,-122 1461.71,-122 1461.71,-86 1662.29,-86 1662.29,-122"/>
<text text-anchor="middle" x="1562" y="-99.8" font-family="Times,serif" font-size="14.00">VaccineCountryPageComponent</text>
</g>
<!-- VaccineCountryPageComponent&#45;&gt;AppModule -->
<g id="edge32" class="edge">
<title>VaccineCountryPageComponent&#45;&gt;AppModule</title>
<path fill="none" stroke="black" d="M1562,-122.28C1562,-143.32 1562,-175 1562,-175 1562,-175 4261.16,-175 4261.16,-175"/>
<polygon fill="black" stroke="black" points="4261.16,-178.5 4271.16,-175 4261.16,-171.5 4261.16,-178.5"/>
</g>
<!-- VaccinationPointComponent -->
<g id="node33" class="node">
<title>VaccinationPointComponent</title>
<polygon fill="#ffffb3" stroke="black" points="1444.03,-122 1265.97,-122 1265.97,-86 1444.03,-86 1444.03,-122"/>
<text text-anchor="middle" x="1355" y="-99.8" font-family="Times,serif" font-size="14.00">VaccinationPointComponent</text>
</g>
<!-- VaccinationPointComponent&#45;&gt;AppModule -->
<g id="edge33" class="edge">
<title>VaccinationPointComponent&#45;&gt;AppModule</title>
<path fill="none" stroke="black" d="M1355,-122.17C1355,-143.5 1355,-176 1355,-176 1355,-176 4261.18,-176 4261.18,-176"/>
<polygon fill="black" stroke="black" points="4261.18,-179.5 4271.18,-176 4261.18,-172.5 4261.18,-179.5"/>
</g>
<!-- VpointPageComponent -->
<g id="node34" class="node">
<title>VpointPageComponent</title>
<polygon fill="#ffffb3" stroke="black" points="1247.93,-122 1100.07,-122 1100.07,-86 1247.93,-86 1247.93,-122"/>
<text text-anchor="middle" x="1174" y="-99.8" font-family="Times,serif" font-size="14.00">VpointPageComponent</text>
</g>
<!-- VpointPageComponent&#45;&gt;AppModule -->
<g id="edge34" class="edge">
<title>VpointPageComponent&#45;&gt;AppModule</title>
<path fill="none" stroke="black" d="M1174,-122.29C1174,-144.21 1174,-178 1174,-178 1174,-178 4261.29,-178 4261.29,-178"/>
<polygon fill="black" stroke="black" points="4261.29,-181.5 4271.29,-178 4261.29,-174.5 4261.29,-181.5"/>
</g>
<!-- HealthCenterComponent -->
<g id="node35" class="node">
<title>HealthCenterComponent</title>
<polygon fill="#ffffb3" stroke="black" points="1081.97,-122 926.03,-122 926.03,-86 1081.97,-86 1081.97,-122"/>
<text text-anchor="middle" x="1004" y="-99.8" font-family="Times,serif" font-size="14.00">HealthCenterComponent</text>
</g>
<!-- HealthCenterComponent&#45;&gt;AppModule -->
<g id="edge35" class="edge">
<title>HealthCenterComponent&#45;&gt;AppModule</title>
<path fill="none" stroke="black" d="M1004,-122.16C1004,-144.35 1004,-179 1004,-179 1004,-179 4261.16,-179 4261.16,-179"/>
<polygon fill="black" stroke="black" points="4261.16,-182.5 4271.16,-179 4261.16,-175.5 4261.16,-182.5"/>
</g>
<!-- HealthCenterPageComponent -->
<g id="node36" class="node">
<title>HealthCenterPageComponent</title>
<polygon fill="#ffffb3" stroke="black" points="907.68,-122 724.32,-122 724.32,-86 907.68,-86 907.68,-122"/>
<text text-anchor="middle" x="816" y="-99.8" font-family="Times,serif" font-size="14.00">HealthCenterPageComponent</text>
</g>
<!-- HealthCenterPageComponent&#45;&gt;AppModule -->
<g id="edge36" class="edge">
<title>HealthCenterPageComponent&#45;&gt;AppModule</title>
<path fill="none" stroke="black" d="M816,-122.25C816,-145.02 816,-181 816,-181 816,-181 4261.29,-181 4261.29,-181"/>
<polygon fill="black" stroke="black" points="4261.29,-184.5 4271.29,-181 4261.29,-177.5 4261.29,-184.5"/>
</g>
<!-- VaccineCenterPageComponent -->
<g id="node37" class="node">
<title>VaccineCenterPageComponent</title>
<polygon fill="#ffffb3" stroke="black" points="706.72,-122 515.28,-122 515.28,-86 706.72,-86 706.72,-122"/>
<text text-anchor="middle" x="611" y="-99.8" font-family="Times,serif" font-size="14.00">VaccineCenterPageComponent</text>
</g>
<!-- VaccineCenterPageComponent&#45;&gt;AppModule -->
<g id="edge37" class="edge">
<title>VaccineCenterPageComponent&#45;&gt;AppModule</title>
<path fill="none" stroke="black" d="M611,-122.09C611,-145.13 611,-182 611,-182 611,-182 4261.11,-182 4261.11,-182"/>
<polygon fill="black" stroke="black" points="4261.11,-185.5 4271.11,-182 4261.11,-178.5 4261.11,-185.5"/>
</g>
<!-- VaccineCenterComponent -->
<g id="node38" class="node">
<title>VaccineCenterComponent</title>
<polygon fill="#ffffb3" stroke="black" points="497.01,-122 332.99,-122 332.99,-86 497.01,-86 497.01,-122"/>
<text text-anchor="middle" x="415" y="-99.8" font-family="Times,serif" font-size="14.00">VaccineCenterComponent</text>
</g>
<!-- VaccineCenterComponent&#45;&gt;AppModule -->
<g id="edge38" class="edge">
<title>VaccineCenterComponent&#45;&gt;AppModule</title>
<path fill="none" stroke="black" d="M415,-122.32C415,-145.66 415,-183 415,-183 415,-183 4261.21,-183 4261.21,-183"/>
<polygon fill="black" stroke="black" points="4261.21,-186.5 4271.21,-183 4261.21,-179.5 4261.21,-186.5"/>
</g>
<!-- UploadComponent -->
<g id="node39" class="node">
<title>UploadComponent</title>
<polygon fill="#ffffb3" stroke="black" points="314.05,-122 191.95,-122 191.95,-86 314.05,-86 314.05,-122"/>
<text text-anchor="middle" x="253" y="-99.8" font-family="Times,serif" font-size="14.00">UploadComponent</text>
</g>
<!-- UploadComponent&#45;&gt;AppModule -->
<g id="edge39" class="edge">
<title>UploadComponent&#45;&gt;AppModule</title>
<path fill="none" stroke="black" d="M253,-122.38C253,-146.28 253,-185 253,-185 253,-185 4261.16,-185 4261.16,-185"/>
<polygon fill="black" stroke="black" points="4261.16,-188.5 4271.16,-185 4261.16,-181.5 4261.16,-188.5"/>
</g>
<!-- UploadPageComponent -->
<g id="node40" class="node">
<title>UploadPageComponent</title>
<polygon fill="#ffffb3" stroke="black" points="173.76,-122 24.24,-122 24.24,-86 173.76,-86 173.76,-122"/>
<text text-anchor="middle" x="99" y="-99.8" font-family="Times,serif" font-size="14.00">UploadPageComponent</text>
</g>
<!-- UploadPageComponent&#45;&gt;AppModule -->
<g id="edge40" class="edge">
<title>UploadPageComponent&#45;&gt;AppModule</title>
<path fill="none" stroke="black" d="M99,-122.2C99,-146.36 99,-186 99,-186 99,-186 4261.29,-186 4261.29,-186"/>
<polygon fill="black" stroke="black" points="4261.29,-189.5 4271.29,-186 4261.29,-182.5 4261.29,-189.5"/>
</g>
<!-- AppComponent  -->
<g id="node53" class="node">
<title>AppComponent </title>
<polygon fill="#80b1d3" stroke="black" points="4367.44,-252 4258.56,-252 4258.56,-216 4367.44,-216 4367.44,-252"/>
<text text-anchor="middle" x="4313" y="-229.8" font-family="Times,serif" font-size="14.00">AppComponent </text>
</g>
<!-- AppModule&#45;&gt;AppComponent  -->
<g id="edge52" class="edge">
<title>AppModule&#45;&gt;AppComponent </title>
<path fill="none" stroke="black" stroke-dasharray="1,5" d="M4313,-187.11C4313,-187.11 4313,-205.99 4313,-205.99"/>
<polygon fill="black" stroke="black" points="4309.5,-205.99 4313,-215.99 4316.5,-205.99 4309.5,-205.99"/>
</g>
<!-- BrowserModule -->
<g id="node42" class="node">
<title>BrowserModule</title>
<polygon fill="#8dd3c7" stroke="black" points="8073.47,-122 8070.47,-126 8049.47,-126 8046.47,-122 7966.53,-122 7966.53,-86 8073.47,-86 8073.47,-122"/>
<text text-anchor="middle" x="8020" y="-99.8" font-family="Times,serif" font-size="14.00">BrowserModule</text>
</g>
<!-- BrowserModule&#45;&gt;AppModule -->
<g id="edge41" class="edge">
<title>BrowserModule&#45;&gt;AppModule</title>
<path fill="none" stroke="black" d="M8020,-122.38C8020,-146.28 8020,-185 8020,-185 8020,-185 4364.95,-185 4364.95,-185"/>
<polygon fill="black" stroke="black" points="4364.95,-181.5 4354.95,-185 4364.95,-188.5 4364.95,-181.5"/>
</g>
<!-- HttpClientModule -->
<g id="node43" class="node">
<title>HttpClientModule</title>
<polygon fill="#8dd3c7" stroke="black" points="7948.16,-122 7945.16,-126 7924.16,-126 7921.16,-122 7829.84,-122 7829.84,-86 7948.16,-86 7948.16,-122"/>
<text text-anchor="middle" x="7889" y="-99.8" font-family="Times,serif" font-size="14.00">HttpClientModule</text>
</g>
<!-- HttpClientModule&#45;&gt;AppModule -->
<g id="edge42" class="edge">
<title>HttpClientModule&#45;&gt;AppModule</title>
<path fill="none" stroke="black" d="M7889,-122.32C7889,-145.66 7889,-183 7889,-183 7889,-183 4364.71,-183 4364.71,-183"/>
<polygon fill="black" stroke="black" points="4364.71,-179.5 4354.71,-183 4364.71,-186.5 4364.71,-179.5"/>
</g>
<!-- AppRoutingModule -->
<g id="node44" class="node">
<title>AppRoutingModule</title>
<polygon fill="#8dd3c7" stroke="black" points="7811.27,-122 7808.27,-126 7787.27,-126 7784.27,-122 7682.73,-122 7682.73,-86 7811.27,-86 7811.27,-122"/>
<text text-anchor="middle" x="7747" y="-99.8" font-family="Times,serif" font-size="14.00">AppRoutingModule</text>
</g>
<!-- AppRoutingModule&#45;&gt;AppModule -->
<g id="edge43" class="edge">
<title>AppRoutingModule&#45;&gt;AppModule</title>
<path fill="none" stroke="black" d="M7747,-122.09C7747,-145.13 7747,-182 7747,-182 7747,-182 4364.87,-182 4364.87,-182"/>
<polygon fill="black" stroke="black" points="4364.87,-178.5 4354.87,-182 4364.87,-185.5 4364.87,-178.5"/>
</g>
<!-- FormsModule -->
<g id="node45" class="node">
<title>FormsModule</title>
<polygon fill="#8dd3c7" stroke="black" points="7664.83,-122 7661.83,-126 7640.83,-126 7637.83,-122 7569.17,-122 7569.17,-86 7664.83,-86 7664.83,-122"/>
<text text-anchor="middle" x="7617" y="-99.8" font-family="Times,serif" font-size="14.00">FormsModule</text>
</g>
<!-- FormsModule&#45;&gt;AppModule -->
<g id="edge44" class="edge">
<title>FormsModule&#45;&gt;AppModule</title>
<path fill="none" stroke="black" d="M7617,-122.25C7617,-145.02 7617,-181 7617,-181 7617,-181 4364.77,-181 4364.77,-181"/>
<polygon fill="black" stroke="black" points="4364.77,-177.5 4354.77,-181 4364.77,-184.5 4364.77,-177.5"/>
</g>
<!-- BrowserAnimationsModule -->
<g id="node46" class="node">
<title>BrowserAnimationsModule</title>
<polygon fill="#8dd3c7" stroke="black" points="7551.3,-122 7548.3,-126 7527.3,-126 7524.3,-122 7378.7,-122 7378.7,-86 7551.3,-86 7551.3,-122"/>
<text text-anchor="middle" x="7465" y="-99.8" font-family="Times,serif" font-size="14.00">BrowserAnimationsModule</text>
</g>
<!-- BrowserAnimationsModule&#45;&gt;AppModule -->
<g id="edge45" class="edge">
<title>BrowserAnimationsModule&#45;&gt;AppModule</title>
<path fill="none" stroke="black" d="M7465,-122.16C7465,-144.35 7465,-179 7465,-179 7465,-179 4364.88,-179 4364.88,-179"/>
<polygon fill="black" stroke="black" points="4364.88,-175.5 4354.88,-179 4364.88,-182.5 4364.88,-175.5"/>
</g>
<!-- ReactiveFormsModule -->
<g id="node47" class="node">
<title>ReactiveFormsModule</title>
<polygon fill="#8dd3c7" stroke="black" points="7361.3,-122 7358.3,-126 7337.3,-126 7334.3,-122 7216.7,-122 7216.7,-86 7361.3,-86 7361.3,-122"/>
<text text-anchor="middle" x="7289" y="-99.8" font-family="Times,serif" font-size="14.00">ReactiveFormsModule</text>
</g>
<!-- ReactiveFormsModule&#45;&gt;AppModule -->
<g id="edge46" class="edge">
<title>ReactiveFormsModule&#45;&gt;AppModule</title>
<path fill="none" stroke="black" d="M7289,-122.29C7289,-144.21 7289,-178 7289,-178 7289,-178 4364.79,-178 4364.79,-178"/>
<polygon fill="black" stroke="black" points="4364.79,-174.5 4354.79,-178 4364.79,-181.5 4364.79,-174.5"/>
</g>
<!-- NgxBootstrapIconsModule.forRoot(args) -->
<g id="node48" class="node">
<title>NgxBootstrapIconsModule.forRoot(args)</title>
<polygon fill="#8dd3c7" stroke="black" points="7199.1,-122 7196.1,-126 7175.1,-126 7172.1,-122 6950.9,-122 6950.9,-86 7199.1,-86 7199.1,-122"/>
<text text-anchor="middle" x="7075" y="-99.8" font-family="Times,serif" font-size="14.00">NgxBootstrapIconsModule.forRoot(args)</text>
</g>
<!-- NgxBootstrapIconsModule.forRoot(args)&#45;&gt;AppModule -->
<g id="edge47" class="edge">
<title>NgxBootstrapIconsModule.forRoot(args)&#45;&gt;AppModule</title>
<path fill="none" stroke="black" d="M7075,-122.17C7075,-143.5 7075,-176 7075,-176 7075,-176 4364.73,-176 4364.73,-176"/>
<polygon fill="black" stroke="black" points="4364.73,-172.5 4354.73,-176 4364.73,-179.5 4364.73,-172.5"/>
</g>
<!-- ToastrModule.forRoot(args) -->
<g id="node49" class="node">
<title>ToastrModule.forRoot(args)</title>
<polygon fill="#8dd3c7" stroke="black" points="6932.5,-122 6929.5,-126 6908.5,-126 6905.5,-122 6757.5,-122 6757.5,-86 6932.5,-86 6932.5,-122"/>
<text text-anchor="middle" x="6845" y="-99.8" font-family="Times,serif" font-size="14.00">ToastrModule.forRoot(args)</text>
</g>
<!-- ToastrModule.forRoot(args)&#45;&gt;AppModule -->
<g id="edge48" class="edge">
<title>ToastrModule.forRoot(args)&#45;&gt;AppModule</title>
<path fill="none" stroke="black" d="M6845,-122.28C6845,-143.32 6845,-175 6845,-175 6845,-175 4364.84,-175 4364.84,-175"/>
<polygon fill="black" stroke="black" points="4364.84,-171.5 4354.84,-175 4364.84,-178.5 4364.84,-171.5"/>
</g>
<!-- TranslateModule.forRoot(args) -->
<g id="node50" class="node">
<title>TranslateModule.forRoot(args)</title>
<polygon fill="#8dd3c7" stroke="black" points="6739.82,-122 6736.82,-126 6715.82,-126 6712.82,-122 6548.18,-122 6548.18,-86 6739.82,-86 6739.82,-122"/>
<text text-anchor="middle" x="6644" y="-99.8" font-family="Times,serif" font-size="14.00">TranslateModule.forRoot(args)</text>
</g>
<!-- TranslateModule.forRoot(args)&#45;&gt;AppModule -->
<g id="edge49" class="edge">
<title>TranslateModule.forRoot(args)&#45;&gt;AppModule</title>
<path fill="none" stroke="black" d="M6644,-122.03C6644,-142.77 6644,-174 6644,-174 6644,-174 4364.95,-174 4364.95,-174"/>
<polygon fill="black" stroke="black" points="4364.95,-170.5 4354.95,-174 4364.95,-177.5 4364.95,-170.5"/>
</g>
<!-- AngularEditorModule -->
<g id="node51" class="node">
<title>AngularEditorModule</title>
<polygon fill="#8dd3c7" stroke="black" points="6530.42,-122 6527.42,-126 6506.42,-126 6503.42,-122 6389.58,-122 6389.58,-86 6530.42,-86 6530.42,-122"/>
<text text-anchor="middle" x="6460" y="-99.8" font-family="Times,serif" font-size="14.00">AngularEditorModule</text>
</g>
<!-- AngularEditorModule&#45;&gt;AppModule -->
<g id="edge50" class="edge">
<title>AngularEditorModule&#45;&gt;AppModule</title>
<path fill="none" stroke="black" d="M6460,-122.22C6460,-142.37 6460,-172 6460,-172 6460,-172 4364.92,-172 4364.92,-172"/>
<polygon fill="black" stroke="black" points="4364.92,-168.5 4354.92,-172 4364.92,-175.5 4364.92,-168.5"/>
</g>
<!-- NgxPaginationModule -->
<g id="node52" class="node">
<title>NgxPaginationModule</title>
<polygon fill="#8dd3c7" stroke="black" points="6371.54,-122 6368.54,-126 6347.54,-126 6344.54,-122 6228.46,-122 6228.46,-86 6371.54,-86 6371.54,-122"/>
<text text-anchor="middle" x="6300" y="-99.8" font-family="Times,serif" font-size="14.00">NgxPaginationModule</text>
</g>
<!-- NgxPaginationModule&#45;&gt;AppModule -->
<g id="edge51" class="edge">
<title>NgxPaginationModule&#45;&gt;AppModule</title>
<path fill="none" stroke="black" d="M6300,-122.31C6300,-142.15 6300,-171 6300,-171 6300,-171 4364.96,-171 4364.96,-171"/>
<polygon fill="black" stroke="black" points="4364.96,-167.5 4354.96,-171 4364.96,-174.5 4364.96,-167.5"/>
</g>
<!-- authInterceptorProviders -->
<g id="node54" class="node">
<title>authInterceptorProviders</title>
<ellipse fill="#fdb462" stroke="black" cx="8204" cy="-104" rx="107.06" ry="18"/>
<text text-anchor="middle" x="8204" y="-99.8" font-family="Times,serif" font-size="14.00">authInterceptorProviders</text>
</g>
<!-- authInterceptorProviders&#45;&gt;AppModule -->
<g id="edge53" class="edge">
<title>authInterceptorProviders&#45;&gt;AppModule</title>
<path fill="none" stroke="black" d="M8204,-122.2C8204,-146.36 8204,-186 8204,-186 8204,-186 4364.72,-186 4364.72,-186"/>
<polygon fill="black" stroke="black" points="4364.72,-182.5 4354.72,-186 4364.72,-189.5 4364.72,-182.5"/>
</g>
</g>
</svg>
