<?xml version="1.0" encoding="UTF-8" standalone="no"?>
<!DOCTYPE svg PUBLIC "-//W3C//DTD SVG 1.1//EN"
 "http://www.w3.org/Graphics/SVG/1.1/DTD/svg11.dtd">
<!-- Generated by graphviz version 2.47.0 (20210316.0004)
 -->
<!-- Title: dependencies Pages: 1 -->
<svg width="8343pt" height="284pt"
 viewBox="0.00 0.00 8343.00 284.00" xmlns="http://www.w3.org/2000/svg" xmlns:xlink="http://www.w3.org/1999/xlink">
<g id="graph0" class="graph" transform="scale(1 1) rotate(0) translate(4 280)">
<title>dependencies</title>
<polygon fill="white" stroke="transparent" points="-4,4 -4,-280 8339,-280 8339,4 -4,4"/>
<text text-anchor="start" x="4146.51" y="-42.4" font-family="sans-serif" font-weight="bold" font-size="14.00">Legend</text>
<polygon fill="#ffffb3" stroke="transparent" points="3933.5,-10 3933.5,-30 3953.5,-30 3953.5,-10 3933.5,-10"/>
<text text-anchor="start" x="3957.13" y="-15.4" font-family="sans-serif" font-size="14.00"> &#160;Declarations</text>
<polygon fill="#8dd3c7" stroke="transparent" points="4046.5,-10 4046.5,-30 4066.5,-30 4066.5,-10 4046.5,-10"/>
<text text-anchor="start" x="4070.23" y="-15.4" font-family="sans-serif" font-size="14.00"> &#160;Module</text>
<polygon fill="#80b1d3" stroke="transparent" points="4132.5,-10 4132.5,-30 4152.5,-30 4152.5,-10 4132.5,-10"/>
<text text-anchor="start" x="4156.28" y="-15.4" font-family="sans-serif" font-size="14.00"> &#160;Bootstrap</text>
<polygon fill="#fdb462" stroke="transparent" points="4229.5,-10 4229.5,-30 4249.5,-30 4249.5,-10 4229.5,-10"/>
<text text-anchor="start" x="4253.17" y="-15.4" font-family="sans-serif" font-size="14.00"> &#160;Providers</text>
<polygon fill="#fb8072" stroke="transparent" points="4325.5,-10 4325.5,-30 4345.5,-30 4345.5,-10 4325.5,-10"/>
<text text-anchor="start" x="4349.23" y="-15.4" font-family="sans-serif" font-size="14.00"> &#160;Exports</text>
<g id="clust1" class="cluster">
<title>cluster_AppModule</title>
<polygon fill="none" stroke="black" stroke-dasharray="1,5" points="8,-70 8,-268 8327,-268 8327,-70 8,-70"/>
</g>
<g id="clust2" class="cluster">
<title>cluster_AppModule_declarations</title>
<polygon fill="none" stroke="black" points="2123,-78 2123,-130 8319,-130 8319,-78 2123,-78"/>
</g>
<g id="clust43" class="cluster">
<title>cluster_AppModule_imports</title>
<polygon fill="none" stroke="black" points="254,-78 254,-130 2115,-130 2115,-78 254,-78"/>
</g>
<g id="clust45" class="cluster">
<title>cluster_AppModule_bootstrap</title>
<polygon fill="none" stroke="black" points="4539,-208 4539,-260 4663,-260 4663,-208 4539,-208"/>
</g>
<g id="clust46" class="cluster">
<title>cluster_AppModule_providers</title>
<polygon fill="none" stroke="black" points="16,-78 16,-130 246,-130 246,-78 16,-78"/>
</g>
<!-- AppComponent -->
<g id="node1" class="node">
<title>AppComponent</title>
<polygon fill="#ffffb3" stroke="black" points="8310.94,-122 8205.06,-122 8205.06,-86 8310.94,-86 8310.94,-122"/>
<text text-anchor="middle" x="8258" y="-99.8" font-family="Times,serif" font-size="14.00">AppComponent</text>
</g>
<!-- AppModule -->
<g id="node41" class="node">
<title>AppModule</title>
<polygon fill="#8dd3c7" stroke="black" points="4642.66,-187 4639.66,-191 4618.66,-191 4615.66,-187 4559.34,-187 4559.34,-151 4642.66,-151 4642.66,-187"/>
<text text-anchor="middle" x="4601" y="-164.8" font-family="Times,serif" font-size="14.00">AppModule</text>
</g>
<!-- AppComponent&#45;&gt;AppModule -->
<g id="edge1" class="edge">
<title>AppComponent&#45;&gt;AppModule</title>
<path fill="none" stroke="black" d="M8258,-122.2C8258,-146.36 8258,-186 8258,-186 8258,-186 4652.7,-186 4652.7,-186"/>
<polygon fill="black" stroke="black" points="4652.7,-182.5 4642.7,-186 4652.7,-189.5 4652.7,-182.5"/>
</g>
<!-- HeaderComponent -->
<g id="node2" class="node">
<title>HeaderComponent</title>
<polygon fill="#ffffb3" stroke="black" points="8186.74,-122 8065.26,-122 8065.26,-86 8186.74,-86 8186.74,-122"/>
<text text-anchor="middle" x="8126" y="-99.8" font-family="Times,serif" font-size="14.00">HeaderComponent</text>
</g>
<!-- HeaderComponent&#45;&gt;AppModule -->
<g id="edge2" class="edge">
<title>HeaderComponent&#45;&gt;AppModule</title>
<path fill="none" stroke="black" d="M8126,-122.38C8126,-146.28 8126,-185 8126,-185 8126,-185 4652.73,-185 4652.73,-185"/>
<polygon fill="black" stroke="black" points="4652.73,-181.5 4642.73,-185 4652.73,-188.5 4652.73,-181.5"/>
</g>
<!-- FooterComponent -->
<g id="node3" class="node">
<title>FooterComponent</title>
<polygon fill="#ffffb3" stroke="black" points="8046.88,-122 7929.12,-122 7929.12,-86 8046.88,-86 8046.88,-122"/>
<text text-anchor="middle" x="7988" y="-99.8" font-family="Times,serif" font-size="14.00">FooterComponent</text>
</g>
<!-- FooterComponent&#45;&gt;AppModule -->
<g id="edge3" class="edge">
<title>FooterComponent&#45;&gt;AppModule</title>
<path fill="none" stroke="black" d="M7988,-122.32C7988,-145.66 7988,-183 7988,-183 7988,-183 4652.91,-183 4652.91,-183"/>
<polygon fill="black" stroke="black" points="4652.91,-179.5 4642.91,-183 4652.91,-186.5 4652.91,-179.5"/>
</g>
<!-- LoginComponent -->
<g id="node4" class="node">
<title>LoginComponent</title>
<polygon fill="#ffffb3" stroke="black" points="7911.28,-122 7796.72,-122 7796.72,-86 7911.28,-86 7911.28,-122"/>
<text text-anchor="middle" x="7854" y="-99.8" font-family="Times,serif" font-size="14.00">LoginComponent</text>
</g>
<!-- LoginComponent&#45;&gt;AppModule -->
<g id="edge4" class="edge">
<title>LoginComponent&#45;&gt;AppModule</title>
<path fill="none" stroke="black" d="M7854,-122.09C7854,-145.13 7854,-182 7854,-182 7854,-182 4652.72,-182 4652.72,-182"/>
<polygon fill="black" stroke="black" points="4652.72,-178.5 4642.72,-182 4652.72,-185.5 4652.72,-178.5"/>
</g>
<!-- UsersComponent -->
<g id="node5" class="node">
<title>UsersComponent</title>
<polygon fill="#ffffb3" stroke="black" points="7778.7,-122 7665.3,-122 7665.3,-86 7778.7,-86 7778.7,-122"/>
<text text-anchor="middle" x="7722" y="-99.8" font-family="Times,serif" font-size="14.00">UsersComponent</text>
</g>
<!-- UsersComponent&#45;&gt;AppModule -->
<g id="edge5" class="edge">
<title>UsersComponent&#45;&gt;AppModule</title>
<path fill="none" stroke="black" d="M7722,-122.25C7722,-145.02 7722,-181 7722,-181 7722,-181 4652.76,-181 4652.76,-181"/>
<polygon fill="black" stroke="black" points="4652.76,-177.5 4642.76,-181 4652.76,-184.5 4652.76,-177.5"/>
</g>
<!-- ProfilesComponent -->
<g id="node6" class="node">
<title>ProfilesComponent</title>
<polygon fill="#ffffb3" stroke="black" points="7647.38,-122 7522.62,-122 7522.62,-86 7647.38,-86 7647.38,-122"/>
<text text-anchor="middle" x="7585" y="-99.8" font-family="Times,serif" font-size="14.00">ProfilesComponent</text>
</g>
<!-- ProfilesComponent&#45;&gt;AppModule -->
<g id="edge6" class="edge">
<title>ProfilesComponent&#45;&gt;AppModule</title>
<path fill="none" stroke="black" d="M7585,-122.16C7585,-144.35 7585,-179 7585,-179 7585,-179 4652.9,-179 4652.9,-179"/>
<polygon fill="black" stroke="black" points="4652.9,-175.5 4642.9,-179 4652.9,-182.5 4652.9,-175.5"/>
</g>
<!-- UsertableComponent -->
<g id="node7" class="node">
<title>UsertableComponent</title>
<polygon fill="#ffffb3" stroke="black" points="7504.47,-122 7369.53,-122 7369.53,-86 7504.47,-86 7504.47,-122"/>
<text text-anchor="middle" x="7437" y="-99.8" font-family="Times,serif" font-size="14.00">UsertableComponent</text>
</g>
<!-- UsertableComponent&#45;&gt;AppModule -->
<g id="edge7" class="edge">
<title>UsertableComponent&#45;&gt;AppModule</title>
<path fill="none" stroke="black" d="M7437,-122.29C7437,-144.21 7437,-178 7437,-178 7437,-178 4652.74,-178 4652.74,-178"/>
<polygon fill="black" stroke="black" points="4652.74,-174.5 4642.74,-178 4652.74,-181.5 4652.74,-174.5"/>
</g>
<!-- ProfiletableComponent -->
<g id="node8" class="node">
<title>ProfiletableComponent</title>
<polygon fill="#ffffb3" stroke="black" points="7351.14,-122 7204.86,-122 7204.86,-86 7351.14,-86 7351.14,-122"/>
<text text-anchor="middle" x="7278" y="-99.8" font-family="Times,serif" font-size="14.00">ProfiletableComponent</text>
</g>
<!-- ProfiletableComponent&#45;&gt;AppModule -->
<g id="edge8" class="edge">
<title>ProfiletableComponent&#45;&gt;AppModule</title>
<path fill="none" stroke="black" d="M7278,-122.17C7278,-143.5 7278,-176 7278,-176 7278,-176 4652.78,-176 4652.78,-176"/>
<polygon fill="black" stroke="black" points="4652.78,-172.5 4642.78,-176 4652.78,-179.5 4652.78,-172.5"/>
</g>
<!-- UserComponent -->
<g id="node9" class="node">
<title>UserComponent</title>
<polygon fill="#ffffb3" stroke="black" points="7186.76,-122 7079.24,-122 7079.24,-86 7186.76,-86 7186.76,-122"/>
<text text-anchor="middle" x="7133" y="-99.8" font-family="Times,serif" font-size="14.00">UserComponent</text>
</g>
<!-- UserComponent&#45;&gt;AppModule -->
<g id="edge9" class="edge">
<title>UserComponent&#45;&gt;AppModule</title>
<path fill="none" stroke="black" d="M7133,-122.28C7133,-143.32 7133,-175 7133,-175 7133,-175 4652.84,-175 4652.84,-175"/>
<polygon fill="black" stroke="black" points="4652.84,-171.5 4642.84,-175 4652.84,-178.5 4652.84,-171.5"/>
</g>
<!-- ProfileComponent -->
<g id="node10" class="node">
<title>ProfileComponent</title>
<polygon fill="#ffffb3" stroke="black" points="7060.93,-122 6941.07,-122 6941.07,-86 7060.93,-86 7060.93,-122"/>
<text text-anchor="middle" x="7001" y="-99.8" font-family="Times,serif" font-size="14.00">ProfileComponent</text>
</g>
<!-- ProfileComponent&#45;&gt;AppModule -->
<g id="edge10" class="edge">
<title>ProfileComponent&#45;&gt;AppModule</title>
<path fill="none" stroke="black" d="M7001,-122.03C7001,-142.77 7001,-174 7001,-174 7001,-174 4652.91,-174 4652.91,-174"/>
<polygon fill="black" stroke="black" points="4652.91,-170.5 4642.91,-174 4652.91,-177.5 4652.91,-170.5"/>
</g>
<!-- ErrorComponent -->
<g id="node11" class="node">
<title>ErrorComponent</title>
<polygon fill="#ffffb3" stroke="black" points="6923.37,-122 6812.63,-122 6812.63,-86 6923.37,-86 6923.37,-122"/>
<text text-anchor="middle" x="6868" y="-99.8" font-family="Times,serif" font-size="14.00">ErrorComponent</text>
</g>
<!-- ErrorComponent&#45;&gt;AppModule -->
<g id="edge11" class="edge">
<title>ErrorComponent&#45;&gt;AppModule</title>
<path fill="none" stroke="black" d="M6868,-122.22C6868,-142.37 6868,-172 6868,-172 6868,-172 4652.77,-172 4652.77,-172"/>
<polygon fill="black" stroke="black" points="4652.77,-168.5 4642.77,-172 4652.77,-175.5 4652.77,-168.5"/>
</g>
<!-- LogComponent -->
<g id="node12" class="node">
<title>LogComponent</title>
<polygon fill="#ffffb3" stroke="black" points="6794.89,-122 6691.11,-122 6691.11,-86 6794.89,-86 6794.89,-122"/>
<text text-anchor="middle" x="6743" y="-99.8" font-family="Times,serif" font-size="14.00">LogComponent</text>
</g>
<!-- LogComponent&#45;&gt;AppModule -->
<g id="edge12" class="edge">
<title>LogComponent&#45;&gt;AppModule</title>
<path fill="none" stroke="black" d="M6743,-122.31C6743,-142.15 6743,-171 6743,-171 6743,-171 4652.83,-171 4652.83,-171"/>
<polygon fill="black" stroke="black" points="4652.83,-167.5 4642.83,-171 4652.83,-174.5 4652.83,-167.5"/>
</g>
<!-- LogsComponent -->
<g id="node13" class="node">
<title>LogsComponent</title>
<polygon fill="#ffffb3" stroke="black" points="6672.83,-122 6563.17,-122 6563.17,-86 6672.83,-86 6672.83,-122"/>
<text text-anchor="middle" x="6618" y="-99.8" font-family="Times,serif" font-size="14.00">LogsComponent</text>
</g>
<!-- LogsComponent&#45;&gt;AppModule -->
<g id="edge13" class="edge">
<title>LogsComponent&#45;&gt;AppModule</title>
<path fill="none" stroke="black" d="M6618,-122.11C6618,-141.34 6618,-169 6618,-169 6618,-169 4652.66,-169 4652.66,-169"/>
<polygon fill="black" stroke="black" points="4652.66,-165.5 4642.66,-169 4652.66,-172.5 4652.66,-165.5"/>
</g>
<!-- NewsComponent -->
<g id="node14" class="node">
<title>NewsComponent</title>
<polygon fill="#ffffb3" stroke="black" points="6545.7,-122 6432.3,-122 6432.3,-86 6545.7,-86 6545.7,-122"/>
<text text-anchor="middle" x="6489" y="-99.8" font-family="Times,serif" font-size="14.00">NewsComponent</text>
</g>
<!-- NewsComponent&#45;&gt;AppModule -->
<g id="edge14" class="edge">
<title>NewsComponent&#45;&gt;AppModule</title>
<path fill="none" stroke="black" d="M6489,-122.17C6489,-141.09 6489,-168 6489,-168 6489,-168 4653.08,-168 4653.08,-168"/>
<polygon fill="black" stroke="black" points="4653.08,-164.5 4643.08,-168 4653.08,-171.5 4653.08,-164.5"/>
</g>
<!-- ArchiveComponent -->
<g id="node15" class="node">
<title>ArchiveComponent</title>
<polygon fill="#ffffb3" stroke="black" points="6414.42,-122 6287.58,-122 6287.58,-86 6414.42,-86 6414.42,-122"/>
<text text-anchor="middle" x="6351" y="-99.8" font-family="Times,serif" font-size="14.00">ArchiveComponent</text>
</g>
<!-- ArchiveComponent&#45;&gt;AppModule -->
<g id="edge15" class="edge">
<title>ArchiveComponent&#45;&gt;AppModule</title>
<path fill="none" stroke="black" d="M6351,-122.22C6351,-140.83 6351,-167 6351,-167 6351,-167 4652.96,-167 4652.96,-167"/>
<polygon fill="black" stroke="black" points="4652.96,-163.5 4642.96,-167 4652.96,-170.5 4652.96,-163.5"/>
</g>
<!-- EditorComponent -->
<g id="node16" class="node">
<title>EditorComponent</title>
<polygon fill="#ffffb3" stroke="black" points="6270.33,-122 6153.67,-122 6153.67,-86 6270.33,-86 6270.33,-122"/>
<text text-anchor="middle" x="6212" y="-99.8" font-family="Times,serif" font-size="14.00">EditorComponent</text>
</g>
<!-- EditorComponent&#45;&gt;AppModule -->
<g id="edge16" class="edge">
<title>EditorComponent&#45;&gt;AppModule</title>
<path fill="none" stroke="black" d="M6212,-122.3C6212,-140.27 6212,-165 6212,-165 6212,-165 4652.85,-165 4652.85,-165"/>
<polygon fill="black" stroke="black" points="4652.85,-161.5 4642.85,-165 4652.85,-168.5 4652.85,-161.5"/>
</g>
<!-- NewstableComponent -->
<g id="node17" class="node">
<title>NewstableComponent</title>
<polygon fill="#ffffb3" stroke="black" points="6136.42,-122 5995.58,-122 5995.58,-86 6136.42,-86 6136.42,-122"/>
<text text-anchor="middle" x="6066" y="-99.8" font-family="Times,serif" font-size="14.00">NewstableComponent</text>
</g>
<!-- NewstableComponent&#45;&gt;AppModule -->
<g id="edge17" class="edge">
<title>NewstableComponent&#45;&gt;AppModule</title>
<path fill="none" stroke="black" d="M6066,-122C6066,-139.68 6066,-164 6066,-164 6066,-164 4652.87,-164 4652.87,-164"/>
<polygon fill="black" stroke="black" points="4652.87,-160.5 4642.87,-164 4652.87,-167.5 4652.87,-160.5"/>
</g>
<!-- VaccineComponent -->
<g id="node18" class="node">
<title>VaccineComponent</title>
<polygon fill="#ffffb3" stroke="black" points="5977.69,-122 5850.31,-122 5850.31,-86 5977.69,-86 5977.69,-122"/>
<text text-anchor="middle" x="5914" y="-99.8" font-family="Times,serif" font-size="14.00">VaccineComponent</text>
</g>
<!-- VaccineComponent&#45;&gt;AppModule -->
<g id="edge18" class="edge">
<title>VaccineComponent&#45;&gt;AppModule</title>
<path fill="none" stroke="black" d="M5914,-122.02C5914,-139.37 5914,-163 5914,-163 5914,-163 4652.83,-163 4652.83,-163"/>
<polygon fill="black" stroke="black" points="4652.83,-159.5 4642.83,-163 4652.83,-166.5 4652.83,-159.5"/>
</g>
<!-- VaccinepageComponent -->
<g id="node19" class="node">
<title>VaccinepageComponent</title>
<polygon fill="#ffffb3" stroke="black" points="5832.62,-122 5679.38,-122 5679.38,-86 5832.62,-86 5832.62,-122"/>
<text text-anchor="middle" x="5756" y="-99.8" font-family="Times,serif" font-size="14.00">VaccinepageComponent</text>
</g>
<!-- VaccinepageComponent&#45;&gt;AppModule -->
<g id="edge19" class="edge">
<title>VaccinepageComponent&#45;&gt;AppModule</title>
<path fill="none" stroke="black" d="M5756,-122.04C5756,-138.73 5756,-161 5756,-161 5756,-161 4652.79,-161 4652.79,-161"/>
<polygon fill="black" stroke="black" points="4652.79,-157.5 4642.79,-161 4652.79,-164.5 4652.79,-157.5"/>
</g>
<!-- LobbyComponent -->
<g id="node20" class="node">
<title>LobbyComponent</title>
<polygon fill="#ffffb3" stroke="black" points="5660.89,-122 5543.11,-122 5543.11,-86 5660.89,-86 5660.89,-122"/>
<text text-anchor="middle" x="5602" y="-99.8" font-family="Times,serif" font-size="14.00">LobbyComponent</text>
</g>
<!-- LobbyComponent&#45;&gt;AppModule -->
<g id="edge20" class="edge">
<title>LobbyComponent&#45;&gt;AppModule</title>
<path fill="none" stroke="black" d="M5602,-122.03C5602,-138.4 5602,-160 5602,-160 5602,-160 4652.74,-160 4652.74,-160"/>
<polygon fill="black" stroke="black" points="4652.74,-156.5 4642.74,-160 4652.74,-163.5 4652.74,-156.5"/>
</g>
<!-- DiseasepageComponent -->
<g id="node21" class="node">
<title>DiseasepageComponent</title>
<polygon fill="#ffffb3" stroke="black" points="5524.79,-122 5373.21,-122 5373.21,-86 5524.79,-86 5524.79,-122"/>
<text text-anchor="middle" x="5449" y="-99.8" font-family="Times,serif" font-size="14.00">DiseasepageComponent</text>
</g>
<!-- DiseasepageComponent&#45;&gt;AppModule -->
<g id="edge21" class="edge">
<title>DiseasepageComponent&#45;&gt;AppModule</title>
<path fill="none" stroke="black" d="M5449,-122.28C5449,-137.95 5449,-158 5449,-158 5449,-158 4652.76,-158 4652.76,-158"/>
<polygon fill="black" stroke="black" points="4652.76,-154.5 4642.76,-158 4652.76,-161.5 4652.76,-154.5"/>
</g>
<!-- DiseaseComponent -->
<g id="node22" class="node">
<title>DiseaseComponent</title>
<polygon fill="#ffffb3" stroke="black" points="5355.36,-122 5230.64,-122 5230.64,-86 5355.36,-86 5355.36,-122"/>
<text text-anchor="middle" x="5293" y="-99.8" font-family="Times,serif" font-size="14.00">DiseaseComponent</text>
</g>
<!-- DiseaseComponent&#45;&gt;AppModule -->
<g id="edge22" class="edge">
<title>DiseaseComponent&#45;&gt;AppModule</title>
<path fill="none" stroke="black" d="M5293,-122.24C5293,-137.57 5293,-157 5293,-157 5293,-157 4652.73,-157 4652.73,-157"/>
<polygon fill="black" stroke="black" points="4652.73,-153.5 4642.73,-157 4652.73,-160.5 4652.73,-153.5"/>
</g>
<!-- EffectsComponent -->
<g id="node23" class="node">
<title>EffectsComponent</title>
<polygon fill="#ffffb3" stroke="black" points="5212.47,-122 5091.53,-122 5091.53,-86 5212.47,-86 5212.47,-122"/>
<text text-anchor="middle" x="5152" y="-99.8" font-family="Times,serif" font-size="14.00">EffectsComponent</text>
</g>
<!-- EffectsComponent&#45;&gt;AppModule -->
<g id="edge23" class="edge">
<title>EffectsComponent&#45;&gt;AppModule</title>
<path fill="none" stroke="black" d="M5152,-122.19C5152,-137.18 5152,-156 5152,-156 5152,-156 4652.87,-156 4652.87,-156"/>
<polygon fill="black" stroke="black" points="4652.87,-152.5 4642.87,-156 4652.87,-159.5 4652.87,-152.5"/>
</g>
<!-- EffectspageComponent -->
<g id="node24" class="node">
<title>EffectspageComponent</title>
<polygon fill="#ffffb3" stroke="black" points="5073.9,-122 4926.1,-122 4926.1,-86 5073.9,-86 5073.9,-122"/>
<text text-anchor="middle" x="5000" y="-99.8" font-family="Times,serif" font-size="14.00">EffectspageComponent</text>
</g>
<!-- EffectspageComponent&#45;&gt;AppModule -->
<g id="edge24" class="edge">
<title>EffectspageComponent&#45;&gt;AppModule</title>
<path fill="none" stroke="black" d="M5000,-122.05C5000,-136.37 5000,-154 5000,-154 5000,-154 4652.95,-154 4652.95,-154"/>
<polygon fill="black" stroke="black" points="4652.95,-150.5 4642.95,-154 4652.95,-157.5 4652.95,-150.5"/>
</g>
<!-- CountrypageComponent -->
<g id="node25" class="node">
<title>CountrypageComponent</title>
<polygon fill="#ffffb3" stroke="black" points="4907.65,-122 4754.35,-122 4754.35,-86 4907.65,-86 4907.65,-122"/>
<text text-anchor="middle" x="4831" y="-99.8" font-family="Times,serif" font-size="14.00">CountrypageComponent</text>
</g>
<!-- CountrypageComponent&#45;&gt;AppModule -->
<g id="edge25" class="edge">
<title>CountrypageComponent&#45;&gt;AppModule</title>
<path fill="none" stroke="black" d="M4831,-122.25C4831,-136.18 4831,-153 4831,-153 4831,-153 4652.92,-153 4652.92,-153"/>
<polygon fill="black" stroke="black" points="4652.92,-149.5 4642.92,-153 4652.92,-156.5 4652.92,-149.5"/>
</g>
<!-- CountryComponent -->
<g id="node26" class="node">
<title>CountryComponent</title>
<polygon fill="#ffffb3" stroke="black" points="4736.72,-122 4609.28,-122 4609.28,-86 4736.72,-86 4736.72,-122"/>
<text text-anchor="middle" x="4673" y="-99.8" font-family="Times,serif" font-size="14.00">CountryComponent</text>
</g>
<!-- CountryComponent&#45;&gt;AppModule -->
<g id="edge26" class="edge">
<title>CountryComponent&#45;&gt;AppModule</title>
<path fill="none" stroke="black" d="M4626.11,-122.11C4626.11,-122.11 4626.11,-140.99 4626.11,-140.99"/>
<polygon fill="black" stroke="black" points="4622.61,-140.99 4626.11,-150.99 4629.61,-140.99 4622.61,-140.99"/>
</g>
<!-- SchemeComponent -->
<g id="node27" class="node">
<title>SchemeComponent</title>
<polygon fill="#ffffb3" stroke="black" points="4591.65,-122 4466.35,-122 4466.35,-86 4591.65,-86 4591.65,-122"/>
<text text-anchor="middle" x="4529" y="-99.8" font-family="Times,serif" font-size="14.00">SchemeComponent</text>
</g>
<!-- SchemeComponent&#45;&gt;AppModule -->
<g id="edge27" class="edge">
<title>SchemeComponent&#45;&gt;AppModule</title>
<path fill="none" stroke="black" d="M4575.5,-122.11C4575.5,-122.11 4575.5,-140.99 4575.5,-140.99"/>
<polygon fill="black" stroke="black" points="4572,-140.99 4575.5,-150.99 4579,-140.99 4572,-140.99"/>
</g>
<!-- SchemepageComponent -->
<g id="node28" class="node">
<title>SchemepageComponent</title>
<polygon fill="#ffffb3" stroke="black" points="4448.08,-122 4295.92,-122 4295.92,-86 4448.08,-86 4448.08,-122"/>
<text text-anchor="middle" x="4372" y="-99.8" font-family="Times,serif" font-size="14.00">SchemepageComponent</text>
</g>
<!-- SchemepageComponent&#45;&gt;AppModule -->
<g id="edge28" class="edge">
<title>SchemepageComponent&#45;&gt;AppModule</title>
<path fill="none" stroke="black" d="M4372,-122.25C4372,-136.18 4372,-153 4372,-153 4372,-153 4549.26,-153 4549.26,-153"/>
<polygon fill="black" stroke="black" points="4549.26,-156.5 4559.26,-153 4549.26,-149.5 4549.26,-156.5"/>
</g>
<!-- TravelVaccineComponent -->
<g id="node29" class="node">
<title>TravelVaccineComponent</title>
<polygon fill="#ffffb3" stroke="black" points="4277.72,-122 4114.28,-122 4114.28,-86 4277.72,-86 4277.72,-122"/>
<text text-anchor="middle" x="4196" y="-99.8" font-family="Times,serif" font-size="14.00">TravelVaccineComponent</text>
</g>
<!-- TravelVaccineComponent&#45;&gt;AppModule -->
<g id="edge29" class="edge">
<title>TravelVaccineComponent&#45;&gt;AppModule</title>
<path fill="none" stroke="black" d="M4196,-122.05C4196,-136.37 4196,-154 4196,-154 4196,-154 4549.18,-154 4549.18,-154"/>
<polygon fill="black" stroke="black" points="4549.18,-157.5 4559.18,-154 4549.18,-150.5 4549.18,-157.5"/>
</g>
<!-- TravelComponent -->
<g id="node30" class="node">
<title>TravelComponent</title>
<polygon fill="#ffffb3" stroke="black" points="4095.87,-122 3978.13,-122 3978.13,-86 4095.87,-86 4095.87,-122"/>
<text text-anchor="middle" x="4037" y="-99.8" font-family="Times,serif" font-size="14.00">TravelComponent</text>
</g>
<!-- TravelComponent&#45;&gt;AppModule -->
<g id="edge30" class="edge">
<title>TravelComponent&#45;&gt;AppModule</title>
<path fill="none" stroke="black" d="M4037,-122.19C4037,-137.18 4037,-156 4037,-156 4037,-156 4549.07,-156 4549.07,-156"/>
<polygon fill="black" stroke="black" points="4549.07,-159.5 4559.07,-156 4549.07,-152.5 4549.07,-159.5"/>
</g>
<!-- VaccineCountryComponent -->
<g id="node31" class="node">
<title>VaccineCountryComponent</title>
<polygon fill="#ffffb3" stroke="black" points="3960.58,-122 3787.42,-122 3787.42,-86 3960.58,-86 3960.58,-122"/>
<text text-anchor="middle" x="3874" y="-99.8" font-family="Times,serif" font-size="14.00">VaccineCountryComponent</text>
</g>
<!-- VaccineCountryComponent&#45;&gt;AppModule -->
<g id="edge31" class="edge">
<title>VaccineCountryComponent&#45;&gt;AppModule</title>
<path fill="none" stroke="black" d="M3874,-122.24C3874,-137.57 3874,-157 3874,-157 3874,-157 4549.3,-157 4549.3,-157"/>
<polygon fill="black" stroke="black" points="4549.3,-160.5 4559.3,-157 4549.3,-153.5 4549.3,-160.5"/>
</g>
<!-- VaccineCountryPageComponent -->
<g id="node32" class="node">
<title>VaccineCountryPageComponent</title>
<polygon fill="#ffffb3" stroke="black" points="3769.29,-122 3568.71,-122 3568.71,-86 3769.29,-86 3769.29,-122"/>
<text text-anchor="middle" x="3669" y="-99.8" font-family="Times,serif" font-size="14.00">VaccineCountryPageComponent</text>
</g>
<!-- VaccineCountryPageComponent&#45;&gt;AppModule -->
<g id="edge32" class="edge">
<title>VaccineCountryPageComponent&#45;&gt;AppModule</title>
<path fill="none" stroke="black" d="M3669,-122.28C3669,-137.95 3669,-158 3669,-158 3669,-158 4549.14,-158 4549.14,-158"/>
<polygon fill="black" stroke="black" points="4549.14,-161.5 4559.14,-158 4549.14,-154.5 4549.14,-161.5"/>
</g>
<!-- VaccinationPointComponent -->
<g id="node33" class="node">
<title>VaccinationPointComponent</title>
<polygon fill="#ffffb3" stroke="black" points="3551.03,-122 3372.97,-122 3372.97,-86 3551.03,-86 3551.03,-122"/>
<text text-anchor="middle" x="3462" y="-99.8" font-family="Times,serif" font-size="14.00">VaccinationPointComponent</text>
</g>
<!-- VaccinationPointComponent&#45;&gt;AppModule -->
<g id="edge33" class="edge">
<title>VaccinationPointComponent&#45;&gt;AppModule</title>
<path fill="none" stroke="black" d="M3462,-122.03C3462,-138.4 3462,-160 3462,-160 3462,-160 4549.11,-160 4549.11,-160"/>
<polygon fill="black" stroke="black" points="4549.11,-163.5 4559.11,-160 4549.11,-156.5 4549.11,-163.5"/>
</g>
<!-- VpointPageComponent -->
<g id="node34" class="node">
<title>VpointPageComponent</title>
<polygon fill="#ffffb3" stroke="black" points="3354.93,-122 3207.07,-122 3207.07,-86 3354.93,-86 3354.93,-122"/>
<text text-anchor="middle" x="3281" y="-99.8" font-family="Times,serif" font-size="14.00">VpointPageComponent</text>
</g>
<!-- VpointPageComponent&#45;&gt;AppModule -->
<g id="edge34" class="edge">
<title>VpointPageComponent&#45;&gt;AppModule</title>
<path fill="none" stroke="black" d="M3281,-122.04C3281,-138.73 3281,-161 3281,-161 3281,-161 4549.31,-161 4549.31,-161"/>
<polygon fill="black" stroke="black" points="4549.31,-164.5 4559.31,-161 4549.31,-157.5 4549.31,-164.5"/>
</g>
<!-- HealthCenterComponent -->
<g id="node35" class="node">
<title>HealthCenterComponent</title>
<polygon fill="#ffffb3" stroke="black" points="3188.97,-122 3033.03,-122 3033.03,-86 3188.97,-86 3188.97,-122"/>
<text text-anchor="middle" x="3111" y="-99.8" font-family="Times,serif" font-size="14.00">HealthCenterComponent</text>
</g>
<!-- HealthCenterComponent&#45;&gt;AppModule -->
<g id="edge35" class="edge">
<title>HealthCenterComponent&#45;&gt;AppModule</title>
<path fill="none" stroke="black" d="M3111,-122.02C3111,-139.37 3111,-163 3111,-163 3111,-163 4549.2,-163 4549.2,-163"/>
<polygon fill="black" stroke="black" points="4549.2,-166.5 4559.2,-163 4549.2,-159.5 4549.2,-166.5"/>
</g>
<!-- HealthCenterPageComponent -->
<g id="node36" class="node">
<title>HealthCenterPageComponent</title>
<polygon fill="#ffffb3" stroke="black" points="3014.68,-122 2831.32,-122 2831.32,-86 3014.68,-86 3014.68,-122"/>
<text text-anchor="middle" x="2923" y="-99.8" font-family="Times,serif" font-size="14.00">HealthCenterPageComponent</text>
</g>
<!-- HealthCenterPageComponent&#45;&gt;AppModule -->
<g id="edge36" class="edge">
<title>HealthCenterPageComponent&#45;&gt;AppModule</title>
<path fill="none" stroke="black" d="M2923,-122C2923,-139.68 2923,-164 2923,-164 2923,-164 4549.1,-164 4549.1,-164"/>
<polygon fill="black" stroke="black" points="4549.1,-167.5 4559.1,-164 4549.1,-160.5 4549.1,-167.5"/>
</g>
<!-- VaccineCenterPageComponent -->
<g id="node37" class="node">
<title>VaccineCenterPageComponent</title>
<polygon fill="#ffffb3" stroke="black" points="2813.72,-122 2622.28,-122 2622.28,-86 2813.72,-86 2813.72,-122"/>
<text text-anchor="middle" x="2718" y="-99.8" font-family="Times,serif" font-size="14.00">VaccineCenterPageComponent</text>
</g>
<!-- VaccineCenterPageComponent&#45;&gt;AppModule -->
<g id="edge37" class="edge">
<title>VaccineCenterPageComponent&#45;&gt;AppModule</title>
<path fill="none" stroke="black" d="M2718,-122.3C2718,-140.27 2718,-165 2718,-165 2718,-165 4549.03,-165 4549.03,-165"/>
<polygon fill="black" stroke="black" points="4549.03,-168.5 4559.03,-165 4549.03,-161.5 4549.03,-168.5"/>
</g>
<!-- VaccineCenterComponent -->
<g id="node38" class="node">
<title>VaccineCenterComponent</title>
<polygon fill="#ffffb3" stroke="black" points="2604.01,-122 2439.99,-122 2439.99,-86 2604.01,-86 2604.01,-122"/>
<text text-anchor="middle" x="2522" y="-99.8" font-family="Times,serif" font-size="14.00">VaccineCenterComponent</text>
</g>
<!-- VaccineCenterComponent&#45;&gt;AppModule -->
<g id="edge38" class="edge">
<title>VaccineCenterComponent&#45;&gt;AppModule</title>
<path fill="none" stroke="black" d="M2522,-122.22C2522,-140.83 2522,-167 2522,-167 2522,-167 4549,-167 4549,-167"/>
<polygon fill="black" stroke="black" points="4549,-170.5 4559,-167 4549,-163.5 4549,-170.5"/>
</g>
<!-- UploadComponent -->
<g id="node39" class="node">
<title>UploadComponent</title>
<polygon fill="#ffffb3" stroke="black" points="2421.05,-122 2298.95,-122 2298.95,-86 2421.05,-86 2421.05,-122"/>
<text text-anchor="middle" x="2360" y="-99.8" font-family="Times,serif" font-size="14.00">UploadComponent</text>
</g>
<!-- UploadComponent&#45;&gt;AppModule -->
<g id="edge39" class="edge">
<title>UploadComponent&#45;&gt;AppModule</title>
<path fill="none" stroke="black" d="M2360,-122.17C2360,-141.09 2360,-168 2360,-168 2360,-168 4549.22,-168 4549.22,-168"/>
<polygon fill="black" stroke="black" points="4549.22,-171.5 4559.22,-168 4549.22,-164.5 4549.22,-171.5"/>
</g>
<!-- UploadPageComponent -->
<g id="node40" class="node">
<title>UploadPageComponent</title>
<polygon fill="#ffffb3" stroke="black" points="2280.76,-122 2131.24,-122 2131.24,-86 2280.76,-86 2280.76,-122"/>
<text text-anchor="middle" x="2206" y="-99.8" font-family="Times,serif" font-size="14.00">UploadPageComponent</text>
</g>
<!-- UploadPageComponent&#45;&gt;AppModule -->
<g id="edge40" class="edge">
<title>UploadPageComponent&#45;&gt;AppModule</title>
<path fill="none" stroke="black" d="M2206,-122.11C2206,-141.34 2206,-169 2206,-169 2206,-169 4549.18,-169 4549.18,-169"/>
<polygon fill="black" stroke="black" points="4549.18,-172.5 4559.18,-169 4549.18,-165.5 4549.18,-172.5"/>
</g>
<!-- AppComponent  -->
<g id="node53" class="node">
<title>AppComponent </title>
<polygon fill="#80b1d3" stroke="black" points="4655.44,-252 4546.56,-252 4546.56,-216 4655.44,-216 4655.44,-252"/>
<text text-anchor="middle" x="4601" y="-229.8" font-family="Times,serif" font-size="14.00">AppComponent </text>
</g>
<!-- AppModule&#45;&gt;AppComponent  -->
<g id="edge52" class="edge">
<title>AppModule&#45;&gt;AppComponent </title>
<path fill="none" stroke="black" stroke-dasharray="1,5" d="M4601,-187.11C4601,-187.11 4601,-205.99 4601,-205.99"/>
<polygon fill="black" stroke="black" points="4597.5,-205.99 4601,-215.99 4604.5,-205.99 4597.5,-205.99"/>
</g>
<!-- BrowserModule -->
<g id="node42" class="node">
<title>BrowserModule</title>
<polygon fill="#8dd3c7" stroke="black" points="2107.47,-122 2104.47,-126 2083.47,-126 2080.47,-122 2000.53,-122 2000.53,-86 2107.47,-86 2107.47,-122"/>
<text text-anchor="middle" x="2054" y="-99.8" font-family="Times,serif" font-size="14.00">BrowserModule</text>
</g>
<!-- BrowserModule&#45;&gt;AppModule -->
<g id="edge41" class="edge">
<title>BrowserModule&#45;&gt;AppModule</title>
<path fill="none" stroke="black" d="M2054,-122.31C2054,-142.15 2054,-171 2054,-171 2054,-171 4549.18,-171 4549.18,-171"/>
<polygon fill="black" stroke="black" points="4549.18,-174.5 4559.18,-171 4549.18,-167.5 4549.18,-174.5"/>
</g>
<!-- HttpClientModule -->
<g id="node43" class="node">
<title>HttpClientModule</title>
<polygon fill="#8dd3c7" stroke="black" points="1982.16,-122 1979.16,-126 1958.16,-126 1955.16,-122 1863.84,-122 1863.84,-86 1982.16,-86 1982.16,-122"/>
<text text-anchor="middle" x="1923" y="-99.8" font-family="Times,serif" font-size="14.00">HttpClientModule</text>
</g>
<!-- HttpClientModule&#45;&gt;AppModule -->
<g id="edge42" class="edge">
<title>HttpClientModule&#45;&gt;AppModule</title>
<path fill="none" stroke="black" d="M1923,-122.22C1923,-142.37 1923,-172 1923,-172 1923,-172 4549.2,-172 4549.2,-172"/>
<polygon fill="black" stroke="black" points="4549.2,-175.5 4559.2,-172 4549.2,-168.5 4549.2,-175.5"/>
</g>
<!-- AppRoutingModule -->
<g id="node44" class="node">
<title>AppRoutingModule</title>
<polygon fill="#8dd3c7" stroke="black" points="1845.27,-122 1842.27,-126 1821.27,-126 1818.27,-122 1716.73,-122 1716.73,-86 1845.27,-86 1845.27,-122"/>
<text text-anchor="middle" x="1781" y="-99.8" font-family="Times,serif" font-size="14.00">AppRoutingModule</text>
</g>
<!-- AppRoutingModule&#45;&gt;AppModule -->
<g id="edge43" class="edge">
<title>AppRoutingModule&#45;&gt;AppModule</title>
<path fill="none" stroke="black" d="M1781,-122.03C1781,-142.77 1781,-174 1781,-174 1781,-174 4549.22,-174 4549.22,-174"/>
<polygon fill="black" stroke="black" points="4549.22,-177.5 4559.22,-174 4549.22,-170.5 4549.22,-177.5"/>
</g>
<!-- FormsModule -->
<g id="node45" class="node">
<title>FormsModule</title>
<polygon fill="#8dd3c7" stroke="black" points="1698.83,-122 1695.83,-126 1674.83,-126 1671.83,-122 1603.17,-122 1603.17,-86 1698.83,-86 1698.83,-122"/>
<text text-anchor="middle" x="1651" y="-99.8" font-family="Times,serif" font-size="14.00">FormsModule</text>
</g>
<!-- FormsModule&#45;&gt;AppModule -->
<g id="edge44" class="edge">
<title>FormsModule&#45;&gt;AppModule</title>
<path fill="none" stroke="black" d="M1651,-122.28C1651,-143.32 1651,-175 1651,-175 1651,-175 4549.3,-175 4549.3,-175"/>
<polygon fill="black" stroke="black" points="4549.3,-178.5 4559.3,-175 4549.3,-171.5 4549.3,-178.5"/>
</g>
<!-- BrowserAnimationsModule -->
<g id="node46" class="node">
<title>BrowserAnimationsModule</title>
<polygon fill="#8dd3c7" stroke="black" points="1585.3,-122 1582.3,-126 1561.3,-126 1558.3,-122 1412.7,-122 1412.7,-86 1585.3,-86 1585.3,-122"/>
<text text-anchor="middle" x="1499" y="-99.8" font-family="Times,serif" font-size="14.00">BrowserAnimationsModule</text>
</g>
<!-- BrowserAnimationsModule&#45;&gt;AppModule -->
<g id="edge45" class="edge">
<title>BrowserAnimationsModule&#45;&gt;AppModule</title>
<path fill="none" stroke="black" d="M1499,-122.17C1499,-143.5 1499,-176 1499,-176 1499,-176 4549.2,-176 4549.2,-176"/>
<polygon fill="black" stroke="black" points="4549.21,-179.5 4559.2,-176 4549.2,-172.5 4549.21,-179.5"/>
</g>
<!-- ReactiveFormsModule -->
<g id="node47" class="node">
<title>ReactiveFormsModule</title>
<polygon fill="#8dd3c7" stroke="black" points="1395.3,-122 1392.3,-126 1371.3,-126 1368.3,-122 1250.7,-122 1250.7,-86 1395.3,-86 1395.3,-122"/>
<text text-anchor="middle" x="1323" y="-99.8" font-family="Times,serif" font-size="14.00">ReactiveFormsModule</text>
</g>
<!-- ReactiveFormsModule&#45;&gt;AppModule -->
<g id="edge46" class="edge">
<title>ReactiveFormsModule&#45;&gt;AppModule</title>
<path fill="none" stroke="black" d="M1323,-122.29C1323,-144.21 1323,-178 1323,-178 1323,-178 4549.26,-178 4549.26,-178"/>
<polygon fill="black" stroke="black" points="4549.26,-181.5 4559.26,-178 4549.26,-174.5 4549.26,-181.5"/>
</g>
<!-- NgxBootstrapIconsModule.forRoot(args) -->
<g id="node48" class="node">
<title>NgxBootstrapIconsModule.forRoot(args)</title>
<polygon fill="#8dd3c7" stroke="black" points="1233.1,-122 1230.1,-126 1209.1,-126 1206.1,-122 984.9,-122 984.9,-86 1233.1,-86 1233.1,-122"/>
<text text-anchor="middle" x="1109" y="-99.8" font-family="Times,serif" font-size="14.00">NgxBootstrapIconsModule.forRoot(args)</text>
</g>
<!-- NgxBootstrapIconsModule.forRoot(args)&#45;&gt;AppModule -->
<g id="edge47" class="edge">
<title>NgxBootstrapIconsModule.forRoot(args)&#45;&gt;AppModule</title>
<path fill="none" stroke="black" d="M1109,-122.16C1109,-144.35 1109,-179 1109,-179 1109,-179 4549.04,-179 4549.04,-179"/>
<polygon fill="black" stroke="black" points="4549.04,-182.5 4559.04,-179 4549.04,-175.5 4549.04,-182.5"/>
</g>
<!-- ToastrModule.forRoot(args) -->
<g id="node49" class="node">
<title>ToastrModule.forRoot(args)</title>
<polygon fill="#8dd3c7" stroke="black" points="966.5,-122 963.5,-126 942.5,-126 939.5,-122 791.5,-122 791.5,-86 966.5,-86 966.5,-122"/>
<text text-anchor="middle" x="879" y="-99.8" font-family="Times,serif" font-size="14.00">ToastrModule.forRoot(args)</text>
</g>
<!-- ToastrModule.forRoot(args)&#45;&gt;AppModule -->
<g id="edge48" class="edge">
<title>ToastrModule.forRoot(args)&#45;&gt;AppModule</title>
<path fill="none" stroke="black" d="M879,-122.25C879,-145.02 879,-181 879,-181 879,-181 4549.2,-181 4549.2,-181"/>
<polygon fill="black" stroke="black" points="4549.2,-184.5 4559.2,-181 4549.2,-177.5 4549.2,-184.5"/>
</g>
<!-- TranslateModule.forRoot(args) -->
<g id="node50" class="node">
<title>TranslateModule.forRoot(args)</title>
<polygon fill="#8dd3c7" stroke="black" points="773.82,-122 770.82,-126 749.82,-126 746.82,-122 582.18,-122 582.18,-86 773.82,-86 773.82,-122"/>
<text text-anchor="middle" x="678" y="-99.8" font-family="Times,serif" font-size="14.00">TranslateModule.forRoot(args)</text>
</g>
<!-- TranslateModule.forRoot(args)&#45;&gt;AppModule -->
<g id="edge49" class="edge">
<title>TranslateModule.forRoot(args)&#45;&gt;AppModule</title>
<path fill="none" stroke="black" d="M678,-122.09C678,-145.13 678,-182 678,-182 678,-182 4549.27,-182 4549.27,-182"/>
<polygon fill="black" stroke="black" points="4549.27,-185.5 4559.27,-182 4549.27,-178.5 4549.27,-185.5"/>
</g>
<!-- AngularEditorModule -->
<g id="node51" class="node">
<title>AngularEditorModule</title>
<polygon fill="#8dd3c7" stroke="black" points="564.42,-122 561.42,-126 540.42,-126 537.42,-122 423.58,-122 423.58,-86 564.42,-86 564.42,-122"/>
<text text-anchor="middle" x="494" y="-99.8" font-family="Times,serif" font-size="14.00">AngularEditorModule</text>
</g>
<!-- AngularEditorModule&#45;&gt;AppModule -->
<g id="edge50" class="edge">
<title>AngularEditorModule&#45;&gt;AppModule</title>
<path fill="none" stroke="black" d="M494,-122.32C494,-145.66 494,-183 494,-183 494,-183 4549.01,-183 4549.01,-183"/>
<polygon fill="black" stroke="black" points="4549.01,-186.5 4559.01,-183 4549.01,-179.5 4549.01,-186.5"/>
</g>
<!-- NgxPaginationModule -->
<g id="node52" class="node">
<title>NgxPaginationModule</title>
<polygon fill="#8dd3c7" stroke="black" points="405.54,-122 402.54,-126 381.54,-126 378.54,-122 262.46,-122 262.46,-86 405.54,-86 405.54,-122"/>
<text text-anchor="middle" x="334" y="-99.8" font-family="Times,serif" font-size="14.00">NgxPaginationModule</text>
</g>
<!-- NgxPaginationModule&#45;&gt;AppModule -->
<g id="edge51" class="edge">
<title>NgxPaginationModule&#45;&gt;AppModule</title>
<path fill="none" stroke="black" d="M334,-122.38C334,-146.28 334,-185 334,-185 334,-185 4549.11,-185 4549.11,-185"/>
<polygon fill="black" stroke="black" points="4549.11,-188.5 4559.11,-185 4549.11,-181.5 4549.11,-188.5"/>
</g>
<!-- authInterceptorProviders -->
<g id="node54" class="node">
<title>authInterceptorProviders</title>
<ellipse fill="#fdb462" stroke="black" cx="131" cy="-104" rx="107.06" ry="18"/>
<text text-anchor="middle" x="131" y="-99.8" font-family="Times,serif" font-size="14.00">authInterceptorProviders</text>
</g>
<!-- authInterceptorProviders&#45;&gt;AppModule -->
<g id="edge53" class="edge">
<title>authInterceptorProviders&#45;&gt;AppModule</title>
<path fill="none" stroke="black" d="M131,-122.2C131,-146.36 131,-186 131,-186 131,-186 4549.25,-186 4549.25,-186"/>
<polygon fill="black" stroke="black" points="4549.25,-189.5 4559.25,-186 4549.25,-182.5 4549.25,-189.5"/>
</g>
</g>
</svg>
